G04*
G04 #@! TF.GenerationSoftware,Altium Limited,Altium Designer,20.1.12 (249)*
G04*
G04 Layer_Physical_Order=2*
G04 Layer_Color=16711680*
%FSLAX25Y25*%
%MOIN*%
G70*
G04*
G04 #@! TF.SameCoordinates,2B819FEC-D567-4356-858B-597537979E9D*
G04*
G04*
G04 #@! TF.FilePolarity,Positive*
G04*
G01*
G75*
%ADD27C,0.06063*%
%ADD28R,0.06063X0.06063*%
%ADD34R,0.08563X0.08563*%
%ADD35C,0.11024*%
%ADD36C,0.06102*%
%ADD37R,0.06102X0.06102*%
%ADD38R,0.06299X0.06299*%
%ADD39C,0.06299*%
%ADD40C,0.08563*%
%ADD41R,0.11024X0.11024*%
%ADD42C,0.35000*%
%ADD43C,0.05000*%
G36*
X613502Y499500D02*
X613502Y334499D01*
X100207Y334499D01*
X100000Y499146D01*
X100354Y499500D01*
X613502Y499500D01*
D02*
G37*
%LPC*%
G36*
X394201Y494614D02*
X393148Y494475D01*
X392168Y494069D01*
X391325Y493423D01*
X390679Y492580D01*
X390273Y491600D01*
X390135Y490547D01*
X390273Y489495D01*
X390679Y488514D01*
X391325Y487672D01*
X392168Y487026D01*
X393148Y486620D01*
X394201Y486481D01*
X395253Y486620D01*
X396234Y487026D01*
X397076Y487672D01*
X397722Y488514D01*
X398129Y489495D01*
X398267Y490547D01*
X398129Y491600D01*
X397722Y492580D01*
X397076Y493423D01*
X396234Y494069D01*
X395253Y494475D01*
X394201Y494614D01*
D02*
G37*
G36*
X368610D02*
X367558Y494475D01*
X366577Y494069D01*
X365735Y493423D01*
X365089Y492580D01*
X364683Y491600D01*
X364544Y490547D01*
X364683Y489495D01*
X365089Y488514D01*
X365735Y487672D01*
X366577Y487026D01*
X367558Y486620D01*
X368610Y486481D01*
X369663Y486620D01*
X370643Y487026D01*
X371485Y487672D01*
X372132Y488514D01*
X372538Y489495D01*
X372676Y490547D01*
X372538Y491600D01*
X372132Y492580D01*
X371485Y493423D01*
X370643Y494069D01*
X369663Y494475D01*
X368610Y494614D01*
D02*
G37*
G36*
X178295D02*
X177243Y494475D01*
X176262Y494069D01*
X175420Y493423D01*
X174774Y492580D01*
X174368Y491600D01*
X174229Y490547D01*
X174368Y489495D01*
X174774Y488514D01*
X175420Y487672D01*
X176262Y487026D01*
X177243Y486620D01*
X178295Y486481D01*
X179348Y486620D01*
X180328Y487026D01*
X181171Y487672D01*
X181817Y488514D01*
X182223Y489495D01*
X182362Y490547D01*
X182223Y491600D01*
X181817Y492580D01*
X181171Y493423D01*
X180328Y494069D01*
X179348Y494475D01*
X178295Y494614D01*
D02*
G37*
G36*
X152705D02*
X151652Y494475D01*
X150672Y494069D01*
X149829Y493423D01*
X149183Y492580D01*
X148777Y491600D01*
X148638Y490547D01*
X148777Y489495D01*
X149183Y488514D01*
X149829Y487672D01*
X150672Y487026D01*
X151652Y486620D01*
X152705Y486481D01*
X153757Y486620D01*
X154738Y487026D01*
X155580Y487672D01*
X156226Y488514D01*
X156632Y489495D01*
X156771Y490547D01*
X156632Y491600D01*
X156226Y492580D01*
X155580Y493423D01*
X154738Y494069D01*
X153757Y494475D01*
X152705Y494614D01*
D02*
G37*
G36*
X422941Y491327D02*
X421562Y491146D01*
X420277Y490613D01*
X419174Y489767D01*
X418328Y488663D01*
X417795Y487379D01*
X417614Y486000D01*
X417795Y484621D01*
X418328Y483336D01*
X419174Y482233D01*
X420277Y481387D01*
X421562Y480855D01*
X422941Y480673D01*
X424320Y480855D01*
X425604Y481387D01*
X426708Y482233D01*
X427554Y483336D01*
X428086Y484621D01*
X428268Y486000D01*
X428086Y487379D01*
X427554Y488663D01*
X426708Y489767D01*
X425604Y490613D01*
X424320Y491146D01*
X422941Y491327D01*
D02*
G37*
G36*
X215035D02*
X213657Y491146D01*
X212372Y490613D01*
X211269Y489767D01*
X210422Y488663D01*
X209890Y487379D01*
X209708Y486000D01*
X209890Y484621D01*
X210422Y483336D01*
X211269Y482233D01*
X212372Y481387D01*
X213657Y480855D01*
X215035Y480673D01*
X216414Y480855D01*
X217699Y481387D01*
X218802Y482233D01*
X219649Y483336D01*
X220181Y484621D01*
X220362Y486000D01*
X220181Y487379D01*
X219649Y488663D01*
X218802Y489767D01*
X217699Y490613D01*
X216414Y491146D01*
X215035Y491327D01*
D02*
G37*
G36*
X546008Y493626D02*
X544731Y493500D01*
X543504Y493128D01*
X542373Y492523D01*
X541381Y491710D01*
X540567Y490718D01*
X539963Y489587D01*
X539590Y488359D01*
X539465Y487083D01*
X539590Y485806D01*
X539963Y484579D01*
X540567Y483447D01*
X541381Y482456D01*
X542373Y481642D01*
X543504Y481037D01*
X544731Y480665D01*
X546008Y480539D01*
X547284Y480665D01*
X548512Y481037D01*
X549643Y481642D01*
X550635Y482456D01*
X551448Y483447D01*
X552053Y484579D01*
X552425Y485806D01*
X552551Y487083D01*
X552425Y488359D01*
X552053Y489587D01*
X551448Y490718D01*
X550635Y491710D01*
X549643Y492523D01*
X548512Y493128D01*
X547284Y493500D01*
X546008Y493626D01*
D02*
G37*
G36*
X526992D02*
X525715Y493500D01*
X524488Y493128D01*
X523357Y492523D01*
X522365Y491710D01*
X521552Y490718D01*
X520947Y489587D01*
X520575Y488359D01*
X520449Y487083D01*
X520575Y485806D01*
X520947Y484579D01*
X521552Y483447D01*
X522365Y482456D01*
X523357Y481642D01*
X524488Y481037D01*
X525715Y480665D01*
X526992Y480539D01*
X528269Y480665D01*
X529496Y481037D01*
X530627Y481642D01*
X531619Y482456D01*
X532433Y483447D01*
X533037Y484579D01*
X533410Y485806D01*
X533535Y487083D01*
X533410Y488359D01*
X533037Y489587D01*
X532433Y490718D01*
X531619Y491710D01*
X530627Y492523D01*
X529496Y493128D01*
X528269Y493500D01*
X526992Y493626D01*
D02*
G37*
G36*
X338102D02*
X336826Y493500D01*
X335598Y493128D01*
X334467Y492523D01*
X333475Y491710D01*
X332662Y490718D01*
X332057Y489587D01*
X331685Y488359D01*
X331559Y487083D01*
X331685Y485806D01*
X332057Y484579D01*
X332662Y483447D01*
X333475Y482456D01*
X334467Y481642D01*
X335598Y481037D01*
X336826Y480665D01*
X338102Y480539D01*
X339379Y480665D01*
X340606Y481037D01*
X341738Y481642D01*
X342729Y482456D01*
X343543Y483447D01*
X344148Y484579D01*
X344520Y485806D01*
X344646Y487083D01*
X344520Y488359D01*
X344148Y489587D01*
X343543Y490718D01*
X342729Y491710D01*
X341738Y492523D01*
X340606Y493128D01*
X339379Y493500D01*
X338102Y493626D01*
D02*
G37*
G36*
X319087D02*
X317810Y493500D01*
X316583Y493128D01*
X315451Y492523D01*
X314460Y491710D01*
X313646Y490718D01*
X313041Y489587D01*
X312669Y488359D01*
X312543Y487083D01*
X312669Y485806D01*
X313041Y484579D01*
X313646Y483447D01*
X314460Y482456D01*
X315451Y481642D01*
X316583Y481037D01*
X317810Y480665D01*
X319087Y480539D01*
X320363Y480665D01*
X321591Y481037D01*
X322722Y481642D01*
X323713Y482456D01*
X324527Y483447D01*
X325132Y484579D01*
X325504Y485806D01*
X325630Y487083D01*
X325504Y488359D01*
X325132Y489587D01*
X324527Y490718D01*
X323713Y491710D01*
X322722Y492523D01*
X321591Y493128D01*
X320363Y493500D01*
X319087Y493626D01*
D02*
G37*
G36*
X471138Y488650D02*
X470054Y488507D01*
X469045Y488089D01*
X468178Y487424D01*
X467513Y486557D01*
X467095Y485548D01*
X466952Y484465D01*
X467095Y483381D01*
X467513Y482372D01*
X468178Y481505D01*
X469045Y480840D01*
X470054Y480422D01*
X471138Y480279D01*
X472221Y480422D01*
X473231Y480840D01*
X474097Y481505D01*
X474762Y482372D01*
X475181Y483381D01*
X475323Y484465D01*
X475181Y485548D01*
X474762Y486557D01*
X474097Y487424D01*
X473231Y488089D01*
X472221Y488507D01*
X471138Y488650D01*
D02*
G37*
G36*
X263232D02*
X262149Y488507D01*
X261140Y488089D01*
X260273Y487424D01*
X259608Y486557D01*
X259190Y485548D01*
X259047Y484465D01*
X259190Y483381D01*
X259608Y482372D01*
X260273Y481505D01*
X261140Y480840D01*
X262149Y480422D01*
X263232Y480279D01*
X264316Y480422D01*
X265325Y480840D01*
X266192Y481505D01*
X266857Y482372D01*
X267275Y483381D01*
X267418Y484465D01*
X267275Y485548D01*
X266857Y486557D01*
X266192Y487424D01*
X265325Y488089D01*
X264316Y488507D01*
X263232Y488650D01*
D02*
G37*
G36*
X398232Y476862D02*
X390169D01*
Y468799D01*
X398232D01*
Y476862D01*
D02*
G37*
G36*
X182327D02*
X174264D01*
Y468799D01*
X182327D01*
Y476862D01*
D02*
G37*
G36*
X368610Y476897D02*
X367558Y476758D01*
X366577Y476352D01*
X365735Y475706D01*
X365089Y474864D01*
X364683Y473883D01*
X364544Y472831D01*
X364683Y471778D01*
X365089Y470798D01*
X365735Y469955D01*
X366577Y469309D01*
X367558Y468903D01*
X368610Y468764D01*
X369663Y468903D01*
X370643Y469309D01*
X371485Y469955D01*
X372132Y470798D01*
X372538Y471778D01*
X372676Y472831D01*
X372538Y473883D01*
X372132Y474864D01*
X371485Y475706D01*
X370643Y476352D01*
X369663Y476758D01*
X368610Y476897D01*
D02*
G37*
G36*
X152705D02*
X151652Y476758D01*
X150672Y476352D01*
X149829Y475706D01*
X149183Y474864D01*
X148777Y473883D01*
X148638Y472831D01*
X148777Y471778D01*
X149183Y470798D01*
X149829Y469955D01*
X150672Y469309D01*
X151652Y468903D01*
X152705Y468764D01*
X153757Y468903D01*
X154738Y469309D01*
X155580Y469955D01*
X156226Y470798D01*
X156632Y471778D01*
X156771Y472831D01*
X156632Y473883D01*
X156226Y474864D01*
X155580Y475706D01*
X154738Y476352D01*
X153757Y476758D01*
X152705Y476897D01*
D02*
G37*
G36*
X546008Y475122D02*
X544731Y474996D01*
X543504Y474624D01*
X542373Y474019D01*
X541381Y473206D01*
X540567Y472214D01*
X539963Y471083D01*
X539590Y469855D01*
X539465Y468579D01*
X539590Y467302D01*
X539963Y466075D01*
X540567Y464944D01*
X541381Y463952D01*
X542373Y463138D01*
X543504Y462534D01*
X544731Y462161D01*
X546008Y462035D01*
X547284Y462161D01*
X548512Y462534D01*
X549643Y463138D01*
X550635Y463952D01*
X551448Y464944D01*
X552053Y466075D01*
X552425Y467302D01*
X552551Y468579D01*
X552425Y469855D01*
X552053Y471083D01*
X551448Y472214D01*
X550635Y473206D01*
X549643Y474019D01*
X548512Y474624D01*
X547284Y474996D01*
X546008Y475122D01*
D02*
G37*
G36*
X526992D02*
X525715Y474996D01*
X524488Y474624D01*
X523357Y474019D01*
X522365Y473206D01*
X521552Y472214D01*
X520947Y471083D01*
X520575Y469855D01*
X520449Y468579D01*
X520575Y467302D01*
X520947Y466075D01*
X521552Y464944D01*
X522365Y463952D01*
X523357Y463138D01*
X524488Y462534D01*
X525715Y462161D01*
X526992Y462035D01*
X528269Y462161D01*
X529496Y462534D01*
X530627Y463138D01*
X531619Y463952D01*
X532433Y464944D01*
X533037Y466075D01*
X533410Y467302D01*
X533535Y468579D01*
X533410Y469855D01*
X533037Y471083D01*
X532433Y472214D01*
X531619Y473206D01*
X530627Y474019D01*
X529496Y474624D01*
X528269Y474996D01*
X526992Y475122D01*
D02*
G37*
G36*
X338102D02*
X336826Y474996D01*
X335598Y474624D01*
X334467Y474019D01*
X333475Y473206D01*
X332662Y472214D01*
X332057Y471083D01*
X331685Y469855D01*
X331559Y468579D01*
X331685Y467302D01*
X332057Y466075D01*
X332662Y464944D01*
X333475Y463952D01*
X334467Y463138D01*
X335598Y462534D01*
X336826Y462161D01*
X338102Y462035D01*
X339379Y462161D01*
X340606Y462534D01*
X341738Y463138D01*
X342729Y463952D01*
X343543Y464944D01*
X344148Y466075D01*
X344520Y467302D01*
X344646Y468579D01*
X344520Y469855D01*
X344148Y471083D01*
X343543Y472214D01*
X342729Y473206D01*
X341738Y474019D01*
X340606Y474624D01*
X339379Y474996D01*
X338102Y475122D01*
D02*
G37*
G36*
X319087D02*
X317810Y474996D01*
X316583Y474624D01*
X315451Y474019D01*
X314460Y473206D01*
X313646Y472214D01*
X313041Y471083D01*
X312669Y469855D01*
X312543Y468579D01*
X312669Y467302D01*
X313041Y466075D01*
X313646Y464944D01*
X314460Y463952D01*
X315451Y463138D01*
X316583Y462534D01*
X317810Y462161D01*
X319087Y462035D01*
X320363Y462161D01*
X321591Y462534D01*
X322722Y463138D01*
X323713Y463952D01*
X324527Y464944D01*
X325132Y466075D01*
X325504Y467302D01*
X325630Y468579D01*
X325504Y469855D01*
X325132Y471083D01*
X324527Y472214D01*
X323713Y473206D01*
X322722Y474019D01*
X321591Y474624D01*
X320363Y474996D01*
X319087Y475122D01*
D02*
G37*
G36*
X383000Y464464D02*
Y461500D01*
X385964D01*
X385910Y461914D01*
X385557Y462765D01*
X384996Y463496D01*
X384265Y464057D01*
X383414Y464410D01*
X383000Y464464D01*
D02*
G37*
G36*
X382000D02*
X381586Y464410D01*
X380735Y464057D01*
X380004Y463496D01*
X379443Y462765D01*
X379090Y461914D01*
X379036Y461500D01*
X382000D01*
Y464464D01*
D02*
G37*
G36*
X475287Y468614D02*
X466988D01*
Y460315D01*
X475287D01*
Y468614D01*
D02*
G37*
G36*
X267382D02*
X259083D01*
Y460315D01*
X267382D01*
Y468614D01*
D02*
G37*
G36*
X385964Y460500D02*
X383000D01*
Y457536D01*
X383414Y457590D01*
X384265Y457943D01*
X384996Y458504D01*
X385557Y459235D01*
X385910Y460086D01*
X385964Y460500D01*
D02*
G37*
G36*
X382000D02*
X379036D01*
X379090Y460086D01*
X379443Y459235D01*
X380004Y458504D01*
X380735Y457943D01*
X381586Y457590D01*
X382000Y457536D01*
Y460500D01*
D02*
G37*
G36*
X588000Y494040D02*
X585580Y493881D01*
X583202Y493408D01*
X580905Y492628D01*
X578730Y491556D01*
X576714Y490208D01*
X574891Y488610D01*
X573291Y486786D01*
X571944Y484770D01*
X570872Y482595D01*
X570092Y480298D01*
X569619Y477920D01*
X569460Y475500D01*
X569619Y473080D01*
X570092Y470702D01*
X570872Y468405D01*
X571944Y466230D01*
X573291Y464214D01*
X574891Y462391D01*
X576714Y460791D01*
X578730Y459444D01*
X580905Y458372D01*
X583202Y457592D01*
X585580Y457119D01*
X588000Y456960D01*
X590420Y457119D01*
X592798Y457592D01*
X595095Y458372D01*
X597270Y459444D01*
X599286Y460791D01*
X601110Y462391D01*
X602708Y464214D01*
X604056Y466230D01*
X605128Y468405D01*
X605908Y470702D01*
X606381Y473080D01*
X606540Y475500D01*
X606381Y477920D01*
X605908Y480298D01*
X605128Y482595D01*
X604056Y484770D01*
X602708Y486786D01*
X601110Y488610D01*
X599286Y490208D01*
X597270Y491556D01*
X595095Y492628D01*
X592798Y493408D01*
X590420Y493881D01*
X588000Y494040D01*
D02*
G37*
G36*
X123000D02*
X120580Y493881D01*
X118202Y493408D01*
X115905Y492628D01*
X113730Y491556D01*
X111714Y490208D01*
X109890Y488610D01*
X108291Y486786D01*
X106944Y484770D01*
X105872Y482595D01*
X105092Y480298D01*
X104619Y477920D01*
X104460Y475500D01*
X104619Y473080D01*
X105092Y470702D01*
X105872Y468405D01*
X106944Y466230D01*
X108291Y464214D01*
X109890Y462391D01*
X111714Y460791D01*
X113730Y459444D01*
X115905Y458372D01*
X118202Y457592D01*
X120580Y457119D01*
X123000Y456960D01*
X125420Y457119D01*
X127798Y457592D01*
X130095Y458372D01*
X132270Y459444D01*
X134286Y460791D01*
X136109Y462391D01*
X137708Y464214D01*
X139056Y466230D01*
X140128Y468405D01*
X140908Y470702D01*
X141381Y473080D01*
X141540Y475500D01*
X141381Y477920D01*
X140908Y480298D01*
X140128Y482595D01*
X139056Y484770D01*
X137708Y486786D01*
X136109Y488610D01*
X134286Y490208D01*
X132270Y491556D01*
X130095Y492628D01*
X127798Y493408D01*
X125420Y493881D01*
X123000Y494040D01*
D02*
G37*
G36*
X509500Y455964D02*
Y453000D01*
X512464D01*
X512410Y453414D01*
X512057Y454265D01*
X511496Y454996D01*
X510765Y455557D01*
X509914Y455910D01*
X509500Y455964D01*
D02*
G37*
G36*
X508500D02*
X508086Y455910D01*
X507235Y455557D01*
X506504Y454996D01*
X505943Y454265D01*
X505590Y453414D01*
X505536Y453000D01*
X508500D01*
Y455964D01*
D02*
G37*
G36*
X422941Y462587D02*
X421562Y462405D01*
X420277Y461873D01*
X419174Y461027D01*
X418328Y459923D01*
X417795Y458639D01*
X417614Y457260D01*
X417795Y455881D01*
X418328Y454596D01*
X419174Y453493D01*
X420277Y452646D01*
X421562Y452114D01*
X422941Y451933D01*
X424320Y452114D01*
X425604Y452646D01*
X426708Y453493D01*
X427554Y454596D01*
X428086Y455881D01*
X428268Y457260D01*
X428086Y458639D01*
X427554Y459923D01*
X426708Y461027D01*
X425604Y461873D01*
X424320Y462405D01*
X422941Y462587D01*
D02*
G37*
G36*
X215035D02*
X213657Y462405D01*
X212372Y461873D01*
X211269Y461027D01*
X210422Y459923D01*
X209890Y458639D01*
X209708Y457260D01*
X209890Y455881D01*
X210422Y454596D01*
X211269Y453493D01*
X212372Y452646D01*
X213657Y452114D01*
X215035Y451933D01*
X216414Y452114D01*
X217699Y452646D01*
X218802Y453493D01*
X219649Y454596D01*
X220181Y455881D01*
X220362Y457260D01*
X220181Y458639D01*
X219649Y459923D01*
X218802Y461027D01*
X217699Y461873D01*
X216414Y462405D01*
X215035Y462587D01*
D02*
G37*
G36*
X173500Y452964D02*
Y450000D01*
X176464D01*
X176410Y450414D01*
X176057Y451265D01*
X175496Y451996D01*
X174765Y452557D01*
X173914Y452910D01*
X173500Y452964D01*
D02*
G37*
G36*
X172500D02*
X172086Y452910D01*
X171235Y452557D01*
X170504Y451996D01*
X169943Y451265D01*
X169590Y450414D01*
X169536Y450000D01*
X172500D01*
Y452964D01*
D02*
G37*
G36*
X512464Y452000D02*
X509500D01*
Y449036D01*
X509914Y449090D01*
X510765Y449443D01*
X511496Y450004D01*
X512057Y450735D01*
X512410Y451586D01*
X512464Y452000D01*
D02*
G37*
G36*
X508500D02*
X505536D01*
X505590Y451586D01*
X505943Y450735D01*
X506504Y450004D01*
X507235Y449443D01*
X508086Y449090D01*
X508500Y449036D01*
Y452000D01*
D02*
G37*
G36*
X268500Y449964D02*
Y447000D01*
X271464D01*
X271410Y447414D01*
X271057Y448265D01*
X270496Y448996D01*
X269765Y449557D01*
X268914Y449910D01*
X268500Y449964D01*
D02*
G37*
G36*
X267500D02*
X267086Y449910D01*
X266235Y449557D01*
X265504Y448996D01*
X264943Y448265D01*
X264590Y447414D01*
X264536Y447000D01*
X267500D01*
Y449964D01*
D02*
G37*
G36*
X293500Y449665D02*
Y446701D01*
X296464D01*
X296410Y447115D01*
X296057Y447966D01*
X295496Y448697D01*
X294765Y449258D01*
X293914Y449611D01*
X293500Y449665D01*
D02*
G37*
G36*
X292500D02*
X292086Y449611D01*
X291235Y449258D01*
X290504Y448697D01*
X289943Y447966D01*
X289590Y447115D01*
X289536Y446701D01*
X292500D01*
Y449665D01*
D02*
G37*
G36*
X176464Y449000D02*
X173500D01*
Y446036D01*
X173914Y446090D01*
X174765Y446443D01*
X175496Y447004D01*
X176057Y447735D01*
X176410Y448586D01*
X176464Y449000D01*
D02*
G37*
G36*
X172500D02*
X169536D01*
X169590Y448586D01*
X169943Y447735D01*
X170504Y447004D01*
X171235Y446443D01*
X172086Y446090D01*
X172500Y446036D01*
Y449000D01*
D02*
G37*
G36*
X476500Y447464D02*
Y444500D01*
X479464D01*
X479410Y444914D01*
X479057Y445765D01*
X478496Y446496D01*
X477765Y447057D01*
X476914Y447410D01*
X476500Y447464D01*
D02*
G37*
G36*
X475500D02*
X475086Y447410D01*
X474235Y447057D01*
X473504Y446496D01*
X472943Y445765D01*
X472590Y444914D01*
X472536Y444500D01*
X475500D01*
Y447464D01*
D02*
G37*
G36*
X533504Y456587D02*
X520480D01*
Y443563D01*
X533504D01*
Y456587D01*
D02*
G37*
G36*
X325598D02*
X312575D01*
Y443563D01*
X325598D01*
Y456587D01*
D02*
G37*
G36*
X546008Y456618D02*
X544731Y456492D01*
X543504Y456120D01*
X542373Y455515D01*
X541381Y454702D01*
X540567Y453710D01*
X539963Y452579D01*
X539590Y451351D01*
X539465Y450075D01*
X539590Y448798D01*
X539963Y447571D01*
X540567Y446440D01*
X541381Y445448D01*
X542373Y444634D01*
X543504Y444030D01*
X544731Y443657D01*
X546008Y443532D01*
X547284Y443657D01*
X548512Y444030D01*
X549643Y444634D01*
X550635Y445448D01*
X551448Y446440D01*
X552053Y447571D01*
X552425Y448798D01*
X552551Y450075D01*
X552425Y451351D01*
X552053Y452579D01*
X551448Y453710D01*
X550635Y454702D01*
X549643Y455515D01*
X548512Y456120D01*
X547284Y456492D01*
X546008Y456618D01*
D02*
G37*
G36*
X338102D02*
X336826Y456492D01*
X335598Y456120D01*
X334467Y455515D01*
X333475Y454702D01*
X332662Y453710D01*
X332057Y452579D01*
X331685Y451351D01*
X331559Y450075D01*
X331685Y448798D01*
X332057Y447571D01*
X332662Y446440D01*
X333475Y445448D01*
X334467Y444634D01*
X335598Y444030D01*
X336826Y443657D01*
X338102Y443532D01*
X339379Y443657D01*
X340606Y444030D01*
X341738Y444634D01*
X342729Y445448D01*
X343543Y446440D01*
X344148Y447571D01*
X344520Y448798D01*
X344646Y450075D01*
X344520Y451351D01*
X344148Y452579D01*
X343543Y453710D01*
X342729Y454702D01*
X341738Y455515D01*
X340606Y456120D01*
X339379Y456492D01*
X338102Y456618D01*
D02*
G37*
G36*
X271464Y446000D02*
X268500D01*
Y443036D01*
X268914Y443090D01*
X269765Y443443D01*
X270496Y444004D01*
X271057Y444735D01*
X271410Y445586D01*
X271464Y446000D01*
D02*
G37*
G36*
X267500D02*
X264536D01*
X264590Y445586D01*
X264943Y444735D01*
X265504Y444004D01*
X266235Y443443D01*
X267086Y443090D01*
X267500Y443036D01*
Y446000D01*
D02*
G37*
G36*
X296464Y445701D02*
X293500D01*
Y442736D01*
X293914Y442791D01*
X294765Y443144D01*
X295496Y443705D01*
X296057Y444436D01*
X296410Y445287D01*
X296464Y445701D01*
D02*
G37*
G36*
X292500D02*
X289536D01*
X289590Y445287D01*
X289943Y444436D01*
X290504Y443705D01*
X291235Y443144D01*
X292086Y442791D01*
X292500Y442736D01*
Y445701D01*
D02*
G37*
G36*
X479464Y443500D02*
X476500D01*
Y440536D01*
X476914Y440590D01*
X477765Y440943D01*
X478496Y441504D01*
X479057Y442235D01*
X479410Y443086D01*
X479464Y443500D01*
D02*
G37*
G36*
X475500D02*
X472536D01*
X472590Y443086D01*
X472943Y442235D01*
X473504Y441504D01*
X474235Y440943D01*
X475086Y440590D01*
X475500Y440536D01*
Y443500D01*
D02*
G37*
G36*
X449500Y424464D02*
Y421500D01*
X452464D01*
X452410Y421914D01*
X452057Y422765D01*
X451496Y423496D01*
X450765Y424057D01*
X449914Y424410D01*
X449500Y424464D01*
D02*
G37*
G36*
X448500D02*
X448086Y424410D01*
X447235Y424057D01*
X446504Y423496D01*
X445943Y422765D01*
X445590Y421914D01*
X445536Y421500D01*
X448500D01*
Y424464D01*
D02*
G37*
G36*
X452464Y420500D02*
X449500D01*
Y417536D01*
X449914Y417590D01*
X450765Y417943D01*
X451496Y418504D01*
X452057Y419235D01*
X452410Y420086D01*
X452464Y420500D01*
D02*
G37*
G36*
X448500D02*
X445536D01*
X445590Y420086D01*
X445943Y419235D01*
X446504Y418504D01*
X447235Y417943D01*
X448086Y417590D01*
X448500Y417536D01*
Y420500D01*
D02*
G37*
G36*
X428222Y427896D02*
X417659D01*
Y417333D01*
X428222D01*
Y427896D01*
D02*
G37*
G36*
X220317D02*
X209754D01*
Y417333D01*
X220317D01*
Y427896D01*
D02*
G37*
G36*
X223500Y412464D02*
Y409500D01*
X226464D01*
X226410Y409914D01*
X226057Y410765D01*
X225496Y411496D01*
X224765Y412057D01*
X223914Y412410D01*
X223500Y412464D01*
D02*
G37*
G36*
X222500D02*
X222086Y412410D01*
X221235Y412057D01*
X220504Y411496D01*
X219943Y410765D01*
X219590Y409914D01*
X219536Y409500D01*
X222500D01*
Y412464D01*
D02*
G37*
G36*
X226464Y408500D02*
X223500D01*
Y405536D01*
X223914Y405590D01*
X224765Y405943D01*
X225496Y406504D01*
X226057Y407235D01*
X226410Y408086D01*
X226464Y408500D01*
D02*
G37*
G36*
X222500D02*
X219536D01*
X219590Y408086D01*
X219943Y407235D01*
X220504Y406504D01*
X221235Y405943D01*
X222086Y405590D01*
X222500Y405536D01*
Y408500D01*
D02*
G37*
G36*
X297551Y384051D02*
X289449D01*
Y375949D01*
X297551D01*
Y384051D01*
D02*
G37*
G36*
X323500Y384086D02*
X322442Y383947D01*
X321457Y383539D01*
X320611Y382889D01*
X319961Y382043D01*
X319553Y381058D01*
X319414Y380000D01*
X319553Y378942D01*
X319961Y377957D01*
X320611Y377111D01*
X321457Y376461D01*
X322442Y376053D01*
X323500Y375914D01*
X324558Y376053D01*
X325543Y376461D01*
X326389Y377111D01*
X327039Y377957D01*
X327447Y378942D01*
X327586Y380000D01*
X327447Y381058D01*
X327039Y382043D01*
X326389Y382889D01*
X325543Y383539D01*
X324558Y383947D01*
X323500Y384086D01*
D02*
G37*
G36*
X313500D02*
X312442Y383947D01*
X311457Y383539D01*
X310611Y382889D01*
X309961Y382043D01*
X309553Y381058D01*
X309414Y380000D01*
X309553Y378942D01*
X309961Y377957D01*
X310611Y377111D01*
X311457Y376461D01*
X312442Y376053D01*
X313500Y375914D01*
X314558Y376053D01*
X315543Y376461D01*
X316389Y377111D01*
X317039Y377957D01*
X317447Y378942D01*
X317586Y380000D01*
X317447Y381058D01*
X317039Y382043D01*
X316389Y382889D01*
X315543Y383539D01*
X314558Y383947D01*
X313500Y384086D01*
D02*
G37*
G36*
X303500D02*
X302442Y383947D01*
X301457Y383539D01*
X300611Y382889D01*
X299961Y382043D01*
X299553Y381058D01*
X299414Y380000D01*
X299553Y378942D01*
X299961Y377957D01*
X300611Y377111D01*
X301457Y376461D01*
X302442Y376053D01*
X303500Y375914D01*
X304558Y376053D01*
X305543Y376461D01*
X306389Y377111D01*
X307039Y377957D01*
X307447Y378942D01*
X307586Y380000D01*
X307447Y381058D01*
X307039Y382043D01*
X306389Y382889D01*
X305543Y383539D01*
X304558Y383947D01*
X303500Y384086D01*
D02*
G37*
G36*
X323500Y374086D02*
X322442Y373947D01*
X321457Y373539D01*
X320611Y372889D01*
X319961Y372043D01*
X319553Y371058D01*
X319414Y370000D01*
X319553Y368942D01*
X319961Y367957D01*
X320611Y367111D01*
X321457Y366461D01*
X322442Y366053D01*
X323500Y365914D01*
X324558Y366053D01*
X325543Y366461D01*
X326389Y367111D01*
X327039Y367957D01*
X327447Y368942D01*
X327586Y370000D01*
X327447Y371058D01*
X327039Y372043D01*
X326389Y372889D01*
X325543Y373539D01*
X324558Y373947D01*
X323500Y374086D01*
D02*
G37*
G36*
X313500D02*
X312442Y373947D01*
X311457Y373539D01*
X310611Y372889D01*
X309961Y372043D01*
X309553Y371058D01*
X309414Y370000D01*
X309553Y368942D01*
X309961Y367957D01*
X310611Y367111D01*
X311457Y366461D01*
X312442Y366053D01*
X313500Y365914D01*
X314558Y366053D01*
X315543Y366461D01*
X316389Y367111D01*
X317039Y367957D01*
X317447Y368942D01*
X317586Y370000D01*
X317447Y371058D01*
X317039Y372043D01*
X316389Y372889D01*
X315543Y373539D01*
X314558Y373947D01*
X313500Y374086D01*
D02*
G37*
G36*
X303500D02*
X302442Y373947D01*
X301457Y373539D01*
X300611Y372889D01*
X299961Y372043D01*
X299553Y371058D01*
X299414Y370000D01*
X299553Y368942D01*
X299961Y367957D01*
X300611Y367111D01*
X301457Y366461D01*
X302442Y366053D01*
X303500Y365914D01*
X304558Y366053D01*
X305543Y366461D01*
X306389Y367111D01*
X307039Y367957D01*
X307447Y368942D01*
X307586Y370000D01*
X307447Y371058D01*
X307039Y372043D01*
X306389Y372889D01*
X305543Y373539D01*
X304558Y373947D01*
X303500Y374086D01*
D02*
G37*
G36*
X293500D02*
X292442Y373947D01*
X291457Y373539D01*
X290611Y372889D01*
X289961Y372043D01*
X289553Y371058D01*
X289414Y370000D01*
X289553Y368942D01*
X289961Y367957D01*
X290611Y367111D01*
X291457Y366461D01*
X292442Y366053D01*
X293500Y365914D01*
X294558Y366053D01*
X295543Y366461D01*
X296389Y367111D01*
X297039Y367957D01*
X297447Y368942D01*
X297586Y370000D01*
X297447Y371058D01*
X297039Y372043D01*
X296389Y372889D01*
X295543Y373539D01*
X294558Y373947D01*
X293500Y374086D01*
D02*
G37*
G36*
X542051Y356051D02*
X538500D01*
Y352500D01*
X542051D01*
Y356051D01*
D02*
G37*
G36*
X537500D02*
X533949D01*
Y352500D01*
X537500D01*
Y356051D01*
D02*
G37*
G36*
X542051Y351500D02*
X538500D01*
Y347949D01*
X542051D01*
Y351500D01*
D02*
G37*
G36*
X537500D02*
X533949D01*
Y347949D01*
X537500D01*
Y351500D01*
D02*
G37*
G36*
X528000Y356086D02*
X526942Y355947D01*
X525957Y355539D01*
X525111Y354889D01*
X524461Y354043D01*
X524053Y353058D01*
X523914Y352000D01*
X524053Y350942D01*
X524461Y349957D01*
X525111Y349111D01*
X525957Y348461D01*
X526942Y348053D01*
X528000Y347914D01*
X529058Y348053D01*
X530043Y348461D01*
X530889Y349111D01*
X531539Y349957D01*
X531947Y350942D01*
X532086Y352000D01*
X531947Y353058D01*
X531539Y354043D01*
X530889Y354889D01*
X530043Y355539D01*
X529058Y355947D01*
X528000Y356086D01*
D02*
G37*
G36*
X557500Y349964D02*
Y347000D01*
X560464D01*
X560410Y347414D01*
X560057Y348265D01*
X559496Y348996D01*
X558765Y349557D01*
X557914Y349910D01*
X557500Y349964D01*
D02*
G37*
G36*
X556500D02*
X556086Y349910D01*
X555235Y349557D01*
X554504Y348996D01*
X553943Y348265D01*
X553590Y347414D01*
X553536Y347000D01*
X556500D01*
Y349964D01*
D02*
G37*
G36*
X560464Y346000D02*
X557500D01*
Y343036D01*
X557914Y343090D01*
X558765Y343443D01*
X559496Y344004D01*
X560057Y344735D01*
X560410Y345586D01*
X560464Y346000D01*
D02*
G37*
G36*
X556500D02*
X553536D01*
X553590Y345586D01*
X553943Y344735D01*
X554504Y344004D01*
X555235Y343443D01*
X556086Y343090D01*
X556500Y343036D01*
Y346000D01*
D02*
G37*
G36*
X588000Y378040D02*
X585580Y377881D01*
X583202Y377408D01*
X580905Y376628D01*
X578730Y375556D01*
X576714Y374208D01*
X574891Y372609D01*
X573291Y370786D01*
X571944Y368770D01*
X570872Y366595D01*
X570092Y364298D01*
X569619Y361920D01*
X569460Y359500D01*
X569619Y357080D01*
X570092Y354702D01*
X570872Y352405D01*
X571944Y350230D01*
X573291Y348214D01*
X574891Y346391D01*
X576714Y344792D01*
X578730Y343444D01*
X580905Y342372D01*
X583202Y341592D01*
X585580Y341119D01*
X588000Y340960D01*
X590420Y341119D01*
X592798Y341592D01*
X595095Y342372D01*
X597270Y343444D01*
X599286Y344792D01*
X601110Y346391D01*
X602708Y348214D01*
X604056Y350230D01*
X605128Y352405D01*
X605908Y354702D01*
X606381Y357080D01*
X606540Y359500D01*
X606381Y361920D01*
X605908Y364298D01*
X605128Y366595D01*
X604056Y368770D01*
X602708Y370786D01*
X601110Y372609D01*
X599286Y374208D01*
X597270Y375556D01*
X595095Y376628D01*
X592798Y377408D01*
X590420Y377881D01*
X588000Y378040D01*
D02*
G37*
G36*
X123000D02*
X120580Y377881D01*
X118202Y377408D01*
X115905Y376628D01*
X113730Y375556D01*
X111714Y374208D01*
X109890Y372609D01*
X108291Y370786D01*
X106944Y368770D01*
X105872Y366595D01*
X105092Y364298D01*
X104619Y361920D01*
X104460Y359500D01*
X104619Y357080D01*
X105092Y354702D01*
X105872Y352405D01*
X106944Y350230D01*
X108291Y348214D01*
X109890Y346391D01*
X111714Y344792D01*
X113730Y343444D01*
X115905Y342372D01*
X118202Y341592D01*
X120580Y341119D01*
X123000Y340960D01*
X125420Y341119D01*
X127798Y341592D01*
X130095Y342372D01*
X132270Y343444D01*
X134286Y344792D01*
X136109Y346391D01*
X137708Y348214D01*
X139056Y350230D01*
X140128Y352405D01*
X140908Y354702D01*
X141381Y357080D01*
X141540Y359500D01*
X141381Y361920D01*
X140908Y364298D01*
X140128Y366595D01*
X139056Y368770D01*
X137708Y370786D01*
X136109Y372609D01*
X134286Y374208D01*
X132270Y375556D01*
X130095Y376628D01*
X127798Y377408D01*
X125420Y377881D01*
X123000Y378040D01*
D02*
G37*
%LPD*%
D27*
X152705Y490547D02*
D03*
X178295D02*
D03*
X152705Y472831D02*
D03*
X368610Y490547D02*
D03*
X394201D02*
D03*
X368610Y472831D02*
D03*
D28*
X394201D02*
D03*
X178295D02*
D03*
D34*
X215035Y422614D02*
D03*
X422941D02*
D03*
D35*
X319087Y468579D02*
D03*
X526992D02*
D03*
X338102Y487083D02*
D03*
Y468579D02*
D03*
Y450075D02*
D03*
X319087Y487083D02*
D03*
X546008D02*
D03*
Y468579D02*
D03*
Y450075D02*
D03*
X526992Y487083D02*
D03*
D36*
X528000Y352000D02*
D03*
X303500Y380000D02*
D03*
X313500D02*
D03*
X323500D02*
D03*
X293500Y370000D02*
D03*
X303500D02*
D03*
X313500D02*
D03*
X323500D02*
D03*
D37*
X538000Y352000D02*
D03*
X293500Y380000D02*
D03*
D38*
X263232Y464465D02*
D03*
X471138D02*
D03*
D39*
X263232Y484465D02*
D03*
X471138D02*
D03*
D40*
X215035Y486000D02*
D03*
Y457260D02*
D03*
X422941Y486000D02*
D03*
Y457260D02*
D03*
D41*
X319087Y450075D02*
D03*
X526992D02*
D03*
D42*
X123000Y475500D02*
D03*
Y359500D02*
D03*
X588000Y475500D02*
D03*
Y359500D02*
D03*
D43*
X449000Y421000D02*
D03*
X382500Y461000D02*
D03*
X557000Y346500D02*
D03*
X173000Y449500D02*
D03*
X223000Y409000D02*
D03*
X268000Y446500D02*
D03*
X509000Y452500D02*
D03*
X293000Y446201D02*
D03*
X476000Y444000D02*
D03*
M02*
