M48
;Layer_Color=9474304
;FILE_FORMAT=2:5
INCH,LZ
;TYPE=PLATED
T1F00S00C0.02800
T2F00S00C0.03898
T3F00S00C0.04016
T4F00S00C0.04094
T5F00S00C0.04291
T6F00S00C0.05610
T7F00S00C0.07283
T8F00S00C0.17500
%
T01
X0173Y04495
X0223Y0409
X0268Y04465
X0293Y0446201
X03825Y0461
X0449Y0421
X0476Y0444
X0509Y04525
X0557Y03465
T02
X036861Y0472831
Y0490547
X0394201
Y0472831
X0178295
Y0490547
X0152705
Y0472831
T03
X0528Y0352
X0538
T04
X02935Y037
Y038
X03035
Y037
X03135
Y038
X03235
Y037
T05
X0263232Y0464465
X0471138
Y0484465
X0263232
T06
X0215035Y0422614
Y045726
X0422941
Y0422614
Y0486
X0215035
T07
X0319087Y0450075
Y0468579
X0338102
Y0450075
X0526992
Y0468579
X0546008
Y0450075
Y0487083
X0526992
X0338102
X0319087
T08
X0123Y03595
X0588
Y04755
X0123
M30
