G04*
G04 #@! TF.GenerationSoftware,Altium Limited,Altium Designer,21.1.1 (26)*
G04*
G04 Layer_Color=255*
%FSLAX25Y25*%
%MOIN*%
G70*
G04*
G04 #@! TF.SameCoordinates,BE8B2EE9-7010-4F0F-96DB-CACD0705D76A*
G04*
G04*
G04 #@! TF.FilePolarity,Positive*
G04*
G01*
G75*
%ADD28C,0.06063*%
%ADD29R,0.06063X0.06063*%
%ADD35R,0.08563X0.08563*%
%ADD36C,0.11024*%
%ADD37C,0.06102*%
%ADD38R,0.06102X0.06102*%
%ADD39R,0.06299X0.06299*%
%ADD40C,0.06299*%
%ADD41C,0.08563*%
%ADD42R,0.11024X0.11024*%
D28*
X152705Y490547D02*
D03*
X178295D02*
D03*
X152705Y472831D02*
D03*
X368610Y490547D02*
D03*
X394201D02*
D03*
X368610Y472831D02*
D03*
D29*
X394201D02*
D03*
X178295D02*
D03*
D35*
X215035Y422614D02*
D03*
X422941D02*
D03*
D36*
X319087Y468579D02*
D03*
X526992D02*
D03*
X338102Y487083D02*
D03*
Y468579D02*
D03*
Y450075D02*
D03*
X319087Y487083D02*
D03*
X546008D02*
D03*
Y468579D02*
D03*
Y450075D02*
D03*
X526992Y487083D02*
D03*
D37*
X528000Y352000D02*
D03*
X303500Y380000D02*
D03*
X313500D02*
D03*
X323500D02*
D03*
X293500Y370000D02*
D03*
X303500D02*
D03*
X313500D02*
D03*
X323500D02*
D03*
D38*
X538000Y352000D02*
D03*
X293500Y380000D02*
D03*
D39*
X263232Y464465D02*
D03*
X471138D02*
D03*
D40*
X263232Y484465D02*
D03*
X471138D02*
D03*
D41*
X215035Y486000D02*
D03*
Y457260D02*
D03*
X422941Y486000D02*
D03*
Y457260D02*
D03*
D42*
X319087Y450075D02*
D03*
X526992D02*
D03*
M02*
