G04*
G04 #@! TF.GenerationSoftware,Altium Limited,Altium Designer,21.1.1 (26)*
G04*
G04 Layer_Color=8388736*
%FSLAX25Y25*%
%MOIN*%
G70*
G04*
G04 #@! TF.SameCoordinates,4237B591-F435-4F68-AEF5-34D50A6B78B7*
G04*
G04*
G04 #@! TF.FilePolarity,Negative*
G04*
G01*
G75*
%ADD19R,0.04343X0.03950*%
%ADD20R,0.04737X0.06706*%
%ADD21R,0.06706X0.04737*%
%ADD22R,0.09363X0.09363*%
%ADD23C,0.11824*%
%ADD24C,0.06902*%
%ADD25R,0.06902X0.06902*%
%ADD26R,0.06863X0.06863*%
%ADD27R,0.07099X0.07099*%
%ADD28C,0.07099*%
%ADD29C,0.06063*%
%ADD30R,0.06063X0.06063*%
%ADD31C,0.09363*%
%ADD32R,0.11824X0.11824*%
%ADD33C,0.06863*%
%ADD34C,0.35800*%
%ADD35C,0.05800*%
D19*
X536134Y377760D02*
D03*
Y385240D02*
D03*
X527866Y381500D02*
D03*
D20*
X203083Y400500D02*
D03*
X369201Y453000D02*
D03*
X381799D02*
D03*
X255201Y437500D02*
D03*
X267799D02*
D03*
X215681Y400500D02*
D03*
X463362Y433500D02*
D03*
X475961D02*
D03*
X151642Y449500D02*
D03*
X164240D02*
D03*
D21*
X293000Y469500D02*
D03*
X500500Y465299D02*
D03*
Y452701D02*
D03*
X448500Y442799D02*
D03*
X293000Y456902D02*
D03*
X448500Y430201D02*
D03*
D22*
X215035Y422614D02*
D03*
X422941D02*
D03*
D23*
X319087Y468579D02*
D03*
X526992D02*
D03*
X338102Y487083D02*
D03*
Y468579D02*
D03*
Y450075D02*
D03*
X319087Y487083D02*
D03*
X546008D02*
D03*
Y468579D02*
D03*
Y450075D02*
D03*
X526992Y487083D02*
D03*
D24*
X528000Y352000D02*
D03*
X303500Y380000D02*
D03*
X313500D02*
D03*
X323500D02*
D03*
X293500Y370000D02*
D03*
X303500D02*
D03*
X313500D02*
D03*
X323500D02*
D03*
D25*
X538000Y352000D02*
D03*
X293500Y380000D02*
D03*
D26*
X394201Y472831D02*
D03*
D27*
X263232Y464465D02*
D03*
X471138D02*
D03*
D28*
X263232Y484465D02*
D03*
X471138D02*
D03*
D29*
X152705Y490547D02*
D03*
X178295D02*
D03*
X152705Y472831D02*
D03*
D30*
X178295D02*
D03*
D31*
X215035Y486000D02*
D03*
Y457260D02*
D03*
X422941Y486000D02*
D03*
Y457260D02*
D03*
D32*
X319087Y450075D02*
D03*
X526992D02*
D03*
D33*
X368610Y490547D02*
D03*
X394201D02*
D03*
X368610Y472831D02*
D03*
D34*
X123000Y475500D02*
D03*
Y359500D02*
D03*
X588000Y475500D02*
D03*
Y359500D02*
D03*
D35*
X449000Y421000D02*
D03*
X382500Y461000D02*
D03*
X557000Y346500D02*
D03*
X173000Y449500D02*
D03*
X223000Y409000D02*
D03*
X268000Y446500D02*
D03*
X509000Y452500D02*
D03*
X293000Y446201D02*
D03*
X476000Y444000D02*
D03*
M02*
