G04*
G04 #@! TF.GenerationSoftware,Altium Limited,Altium Designer,21.1.1 (26)*
G04*
G04 Layer_Color=0*
%FSLAX25Y25*%
%MOIN*%
G70*
G04*
G04 #@! TF.SameCoordinates,73F3D1C4-FB11-4479-AABD-C16D83029322*
G04*
G04*
G04 #@! TF.FilePolarity,Positive*
G04*
G01*
G75*
%ADD49C,0.00394*%
D49*
X375500Y451031D02*
Y454969D01*
X373532Y453000D02*
X377468D01*
X498531Y459000D02*
X502468D01*
X500500Y457031D02*
Y460968D01*
X261500Y435532D02*
Y439468D01*
X259531Y437500D02*
X263469D01*
X209382Y398532D02*
Y402468D01*
X207413Y400500D02*
X211350D01*
X165500Y479720D02*
Y483658D01*
X163531Y481689D02*
X167469D01*
X213067Y454307D02*
X217004D01*
X215035Y452339D02*
Y456276D01*
X326626Y468579D02*
X330563D01*
X328594Y466610D02*
Y470547D01*
X381405Y479720D02*
Y483658D01*
X379437Y481689D02*
X383374D01*
X420972Y454307D02*
X424909D01*
X422941Y452339D02*
Y456276D01*
X469661Y431531D02*
Y435468D01*
X467693Y433500D02*
X471630D01*
X534531Y468579D02*
X538469D01*
X536500Y466610D02*
Y470547D01*
X291032Y463201D02*
X294969D01*
X293000Y461232D02*
Y465169D01*
X446531Y436500D02*
X450468D01*
X448500Y434531D02*
Y438469D01*
X157941Y447532D02*
Y451469D01*
X155973Y449500D02*
X159909D01*
M02*
