G04*
G04 #@! TF.GenerationSoftware,Altium Limited,Altium Designer,21.1.1 (26)*
G04*
G04 Layer_Color=65535*
%FSLAX25Y25*%
%MOIN*%
G70*
G04*
G04 #@! TF.SameCoordinates,73F3D1C4-FB11-4479-AABD-C16D83029322*
G04*
G04*
G04 #@! TF.FilePolarity,Positive*
G04*
G01*
G75*
%ADD10C,0.00984*%
%ADD11C,0.00787*%
%ADD12C,0.00400*%
%ADD13C,0.00050*%
%ADD14C,0.00591*%
%ADD15C,0.00591*%
%ADD16C,0.01000*%
D10*
X529650Y388701D02*
G03*
X529650Y388701I-492J0D01*
G01*
X540358Y417480D02*
G03*
X540358Y417480I-492J0D01*
G01*
X263724Y452102D02*
G03*
X263724Y452102I-492J0D01*
G01*
X184378Y473224D02*
G03*
X184378Y473224I-492J0D01*
G01*
X319579Y440724D02*
G03*
X319579Y440724I-492J0D01*
G01*
X400283Y473224D02*
G03*
X400283Y473224I-492J0D01*
G01*
X471630Y452102D02*
G03*
X471630Y452102I-492J0D01*
G01*
X527484Y440724D02*
G03*
X527484Y440724I-492J0D01*
G01*
D11*
X516953Y353858D02*
Y386142D01*
X558685D01*
Y353858D02*
Y386142D01*
X516953Y353858D02*
X558685D01*
X543016Y416102D02*
X547740D01*
Y413150D02*
Y416102D01*
X543016Y403898D02*
X547740D01*
Y406850D01*
X287496Y384744D02*
X329504D01*
Y365256D02*
Y384744D01*
X287496Y365256D02*
X329504D01*
X287496D02*
Y384744D01*
X372646Y456347D02*
X378354D01*
X372646Y449653D02*
X378354D01*
X503847Y456146D02*
Y461854D01*
X497154Y456146D02*
Y461854D01*
X258646Y440846D02*
X264354D01*
X258646Y434154D02*
X264354D01*
X253232Y454465D02*
Y494465D01*
X273233Y454463D02*
Y494463D01*
X253232Y454465D02*
X273233Y454463D01*
X253232Y494464D02*
X273233Y494463D01*
X206528Y403847D02*
X212236D01*
X206528Y397153D02*
X212236D01*
X177882Y477339D02*
Y486039D01*
X157213Y494071D02*
X173787D01*
X153118Y477339D02*
Y486039D01*
X157213Y469307D02*
X173787D01*
X201650Y414543D02*
X228421D01*
Y494071D01*
X201650D02*
X228421D01*
X201650Y414543D02*
Y494071D01*
X305602Y443087D02*
X312098D01*
X345091D02*
X351587D01*
Y494071D01*
X305602D02*
X312098D01*
X345091D02*
X351587D01*
X305602Y443087D02*
Y494071D01*
X393787Y477339D02*
Y486039D01*
X373118Y494071D02*
X389693D01*
X369024Y477339D02*
Y486039D01*
X373118Y469307D02*
X389693D01*
X409555Y414543D02*
X436327D01*
Y494071D01*
X409555D02*
X436327D01*
X409555Y414543D02*
Y494071D01*
X466807Y436846D02*
X472516D01*
X466807Y430154D02*
X472516D01*
X461138Y454465D02*
Y494465D01*
X481138Y454463D02*
Y494463D01*
X461138Y454465D02*
X481138Y454463D01*
X461138Y494464D02*
X481138Y494463D01*
X513508Y443087D02*
X520004D01*
X552996D02*
X559492D01*
Y494071D01*
X513508D02*
X520004D01*
X552996D02*
X559492D01*
X513508Y443087D02*
Y494071D01*
X296346Y460347D02*
Y466055D01*
X289653Y460347D02*
Y466055D01*
X451847Y433646D02*
Y439354D01*
X445154Y433646D02*
Y439354D01*
X155087Y452846D02*
X160795D01*
X155087Y446153D02*
X160795D01*
D12*
X150600Y429600D02*
X151000D01*
X153400D02*
X155400D01*
X158200D02*
X160200D01*
X163400D02*
X165400D01*
X168600D02*
X169800D01*
X133400Y429200D02*
X143800D01*
X145400D02*
X147400D01*
X148600D02*
X151000D01*
X153000D02*
X155400D01*
X157800D02*
X159800D01*
X163400D02*
X165000D01*
X168600D02*
X169400D01*
X131400Y428800D02*
X143800D01*
X145000D02*
X147000D01*
X148600D02*
X151000D01*
X153000D02*
X155000D01*
X157800D02*
X159800D01*
X163000D02*
X164600D01*
X168200D02*
X169000D01*
X130200Y428400D02*
X143400D01*
X145000D02*
X146600D01*
X148200D02*
X150600D01*
X152600D02*
X155000D01*
X157400D02*
X159400D01*
X163000D02*
X164600D01*
X168200D02*
X169000D01*
X129000Y428000D02*
X143400D01*
X144600D02*
X146600D01*
X148200D02*
X150600D01*
X152600D02*
X154600D01*
X157400D02*
X159400D01*
X162600D02*
X164200D01*
X167800D02*
X168600D01*
X128200Y427600D02*
X143000D01*
X144600D02*
X146200D01*
X147800D02*
X150200D01*
X152200D02*
X154600D01*
X157000D02*
X159000D01*
X162600D02*
X164200D01*
X167800D02*
X168600D01*
X127400Y427200D02*
X143000D01*
X144200D02*
X146200D01*
X147800D02*
X149800D01*
X152200D02*
X154200D01*
X157000D02*
X159000D01*
X162200D02*
X163800D01*
X167400D02*
X168200D01*
X127000Y426800D02*
X142600D01*
X144200D02*
X145800D01*
X147400D02*
X149800D01*
X151800D02*
X154200D01*
X156600D02*
X158600D01*
X162200D02*
X163800D01*
X167400D02*
X168200D01*
X126200Y426400D02*
X142600D01*
X143800D02*
X145800D01*
X147400D02*
X149400D01*
X151800D02*
X153800D01*
X156600D02*
X158200D01*
X161800D02*
X163400D01*
X167000D02*
X167800D01*
X125800Y426000D02*
X142200D01*
X143800D02*
X145400D01*
X147000D02*
X149400D01*
X151400D02*
X153800D01*
X156200D02*
X158200D01*
X161400D02*
X163400D01*
X167000D02*
X167800D01*
X125000Y425600D02*
X141800D01*
X143400D02*
X145400D01*
X147000D02*
X149000D01*
X151400D02*
X153800D01*
X154600D02*
X157400D01*
X161400D02*
X161800D01*
X124600Y425200D02*
X133000D01*
X151400D02*
X157000D01*
X124200Y424800D02*
X131400D01*
X151400D02*
X156600D01*
X123400Y424400D02*
X130600D01*
X151400D02*
X156600D01*
X123000Y424000D02*
X130200D01*
X151000D02*
X156200D01*
X122600Y423600D02*
X129400D01*
X150600D02*
X156200D01*
X122200Y423200D02*
X129000D01*
X150600D02*
X155800D01*
X121800Y422800D02*
X128600D01*
X150200D02*
X155800D01*
X121400Y422400D02*
X128200D01*
X150200D02*
X155400D01*
X121400Y422000D02*
X127800D01*
X149800D02*
X155000D01*
X121000Y421600D02*
X127800D01*
X149800D02*
X155000D01*
X120600Y421200D02*
X127400D01*
X149400D02*
X154600D01*
X120200Y420800D02*
X127000D01*
X149400D02*
X154600D01*
X119800Y420400D02*
X126600D01*
X149000D02*
X154200D01*
X119800Y420000D02*
X126600D01*
X149000D02*
X154200D01*
X119400Y419600D02*
X126200D01*
X148600D02*
X153800D01*
X119000Y419200D02*
X125800D01*
X148600D02*
X153800D01*
X119000Y418800D02*
X125800D01*
X148200D02*
X153400D01*
X118600Y418400D02*
X125400D01*
X148200D02*
X153400D01*
X118600Y418000D02*
X125400D01*
X147800D02*
X153000D01*
X118200Y417600D02*
X125000D01*
X147800D02*
X153000D01*
X117800Y417200D02*
X125000D01*
X147400D02*
X152600D01*
X117800Y416800D02*
X124600D01*
X147400D02*
X152600D01*
X117400Y416400D02*
X124600D01*
X147000D02*
X152200D01*
X117400Y416000D02*
X124200D01*
X147000D02*
X152200D01*
X117000Y415600D02*
X124200D01*
X146600D02*
X151800D01*
X117000Y415200D02*
X123800D01*
X146600D02*
X151800D01*
X116600Y414800D02*
X123800D01*
X146200D02*
X151400D01*
X116600Y414400D02*
X123400D01*
X146200D02*
X151400D01*
X116600Y414000D02*
X123400D01*
X145800D02*
X151000D01*
X116200Y413600D02*
X123000D01*
X145800D02*
X151000D01*
X116200Y413200D02*
X123000D01*
X145400D02*
X150600D01*
X116200Y412800D02*
X123000D01*
X131800D02*
X138200D01*
X145400D02*
X150600D01*
X115800Y412400D02*
X122600D01*
X131800D02*
X137800D01*
X145000D02*
X150200D01*
X115800Y412000D02*
X122600D01*
X131400D02*
X137400D01*
X145000D02*
X150200D01*
X115800Y411600D02*
X122600D01*
X131000D02*
X137000D01*
X144600D02*
X149800D01*
X115400Y411200D02*
X122200D01*
X130600D02*
X137000D01*
X144600D02*
X149800D01*
X115400Y410800D02*
X122200D01*
X130200D02*
X136600D01*
X144200D02*
X149400D01*
X115400Y410400D02*
X122200D01*
X129800D02*
X136200D01*
X144200D02*
X149400D01*
X115400Y410000D02*
X122200D01*
X129400D02*
X135800D01*
X143800D02*
X149000D01*
X115400Y409600D02*
X122600D01*
X129000D02*
X135400D01*
X143800D02*
X149000D01*
X115400Y409200D02*
X122600D01*
X128600D02*
X135000D01*
X143400D02*
X148600D01*
X115400Y408800D02*
X123000D01*
X127800D02*
X134600D01*
X143000D02*
X148600D01*
X115400Y408400D02*
X123800D01*
X126600D02*
X134200D01*
X143000D02*
X148200D01*
X115400Y408000D02*
X133400D01*
X142600D02*
X148200D01*
X115800Y407600D02*
X133000D01*
X142600D02*
X147800D01*
X115800Y407200D02*
X132600D01*
X142200D02*
X147800D01*
X115800Y406800D02*
X131800D01*
X142200D02*
X147400D01*
X116200Y406400D02*
X131000D01*
X141800D02*
X147000D01*
X116600Y406000D02*
X130600D01*
X141800D02*
X147000D01*
X117000Y405600D02*
X129800D01*
X141400D02*
X146600D01*
X117400Y405200D02*
X128600D01*
X141400D02*
X146600D01*
X118200Y404800D02*
X127400D01*
X141000D02*
X146200D01*
X119400Y404400D02*
X125800D01*
X141000D02*
X146200D01*
X140600Y404000D02*
X144600D01*
D13*
X363650Y356950D02*
X375400D01*
X363650Y357000D02*
X375450D01*
X363650Y357050D02*
X375450D01*
X363650Y357100D02*
X375450D01*
X363650Y357150D02*
X375450D01*
X363650Y357200D02*
X375450D01*
X363650Y357250D02*
X375450D01*
X363650Y357300D02*
X375400D01*
X363650Y357350D02*
X375400D01*
X363650Y357400D02*
X375400D01*
X363650Y357450D02*
X375400D01*
X363650Y357500D02*
X375400D01*
X363650Y357550D02*
X375400D01*
X362350Y363000D02*
X367100D01*
X362350Y363050D02*
X367050D01*
X362350Y363100D02*
X367100D01*
X362250Y363150D02*
X367000D01*
X362250Y363200D02*
X367000D01*
X362250Y363250D02*
X367000D01*
X362200Y363300D02*
X367000D01*
X362150Y363350D02*
X366900D01*
X362150Y363400D02*
X366900D01*
X362100Y363450D02*
X366900D01*
X362100Y363500D02*
X366900D01*
X362050Y363550D02*
X366800D01*
X362000Y363600D02*
X366800D01*
X362000Y363650D02*
X366800D01*
X362000Y363700D02*
X366800D01*
X361950Y363750D02*
X366800D01*
X361900Y363800D02*
X366750D01*
X361900Y363850D02*
X366700D01*
X361900Y363900D02*
X366700D01*
X361800Y363950D02*
X366700D01*
X361800Y364000D02*
X366650D01*
X361750Y364050D02*
X366600D01*
X361750Y364100D02*
X366600D01*
X361700Y364150D02*
X366600D01*
X361700Y364200D02*
X366600D01*
X361600Y364250D02*
X366600D01*
X361550Y364300D02*
X366550D01*
X361550Y364350D02*
X366550D01*
X361550Y364400D02*
X366500D01*
X361500Y364450D02*
X366500D01*
X361500Y364500D02*
X366500D01*
X361450Y364550D02*
X366450D01*
X361450Y364600D02*
X366400D01*
X361400Y364650D02*
X366400D01*
X361400Y364700D02*
X366350D01*
X361300Y364750D02*
X366350D01*
X361300Y364800D02*
X366350D01*
X361300Y364850D02*
X366350D01*
X363600Y354950D02*
X375650D01*
X363600Y355000D02*
X375650D01*
X363600Y355050D02*
X375600D01*
X363600Y355100D02*
X375600D01*
X363600Y355150D02*
X375600D01*
X363600Y355200D02*
X375600D01*
X363600Y355250D02*
X375600D01*
X363600Y355300D02*
X375600D01*
X363600Y355350D02*
X375600D01*
X363600Y355400D02*
X375600D01*
X363600Y355450D02*
X375600D01*
X363600Y355500D02*
X375600D01*
X363600Y355550D02*
X375600D01*
X363600Y355600D02*
X375550D01*
X363600Y355650D02*
X375550D01*
X363600Y355700D02*
X375550D01*
X363600Y355750D02*
X375550D01*
X363600Y355800D02*
X375550D01*
X363600Y355850D02*
X375550D01*
X363600Y355900D02*
X375550D01*
X363600Y355950D02*
X375550D01*
X363600Y356000D02*
X375550D01*
X363650Y356050D02*
X375550D01*
X363650Y356100D02*
X375500D01*
X363650Y356150D02*
X375500D01*
X363650Y356200D02*
X375500D01*
X363650Y356250D02*
X375500D01*
X363600Y356300D02*
X375500D01*
X363600Y356350D02*
X375500D01*
X363600Y356400D02*
X375500D01*
X363650Y356450D02*
X375500D01*
X363650Y356500D02*
X375500D01*
X363650Y356550D02*
X375500D01*
X363650Y356600D02*
X375450D01*
X363650Y356650D02*
X375450D01*
X363650Y356700D02*
X375450D01*
X363650Y356750D02*
X375450D01*
X363650Y356800D02*
X375450D01*
X363650Y356850D02*
X375450D01*
X363650Y356900D02*
X375400D01*
X368500Y372950D02*
X373450D01*
X367650Y380950D02*
X370800D01*
X361200Y364950D02*
X366300D01*
X367750Y381000D02*
X370850D01*
X367750Y381050D02*
X370900D01*
X367900Y381100D02*
X370900D01*
X367900Y381150D02*
X371000D01*
X367950Y381200D02*
X371000D01*
X368000Y381250D02*
X371000D01*
X368050Y381300D02*
X371050D01*
X368100Y381350D02*
X371100D01*
X368150Y381400D02*
X371150D01*
X368200Y381450D02*
X371200D01*
X368250Y381500D02*
X371200D01*
X368250Y381550D02*
X371300D01*
X368350Y381600D02*
X371300D01*
X368400Y381650D02*
X371300D01*
X368450Y381700D02*
X371450D01*
X368450Y381750D02*
X371500D01*
X368550Y381800D02*
X371500D01*
X368600Y381850D02*
X371550D01*
X368700Y381900D02*
X371600D01*
X368700Y381950D02*
X371600D01*
X368800Y382000D02*
X371650D01*
X368800Y382050D02*
X371700D01*
X368900Y382100D02*
X371700D01*
X368900Y382150D02*
X371750D01*
X369050Y382200D02*
X371800D01*
X369050Y382250D02*
X371850D01*
X369150Y382300D02*
X371850D01*
X369150Y382350D02*
X371900D01*
X369300Y382400D02*
X371950D01*
X369300Y382450D02*
X372000D01*
X369400Y382500D02*
X372050D01*
X369400Y382550D02*
X372150D01*
X369500Y382600D02*
X372150D01*
X369550Y382650D02*
X372250D01*
X369650Y382700D02*
X372250D01*
X369650Y382750D02*
X372400D01*
X369800Y382800D02*
X372500D01*
X369800Y382850D02*
X372500D01*
X369950Y382900D02*
X372550D01*
X369950Y382950D02*
X372650D01*
X370050Y383000D02*
X372700D01*
X370100Y383050D02*
X373800D01*
X370200Y383100D02*
X373750D01*
X370250Y383150D02*
X373750D01*
X370350Y383200D02*
X373700D01*
X370350Y383250D02*
X373700D01*
X368550Y373000D02*
X373500D01*
X368550Y373050D02*
X373450D01*
X368550Y373100D02*
X373550D01*
X377450Y373150D02*
X378350D01*
X369300D02*
X373550D01*
X377500Y373200D02*
X378400D01*
X369350D02*
X373550D01*
X377550Y373250D02*
X378400D01*
X369400D02*
X373200D01*
X377600Y373300D02*
X378500D01*
X369450D02*
X373150D01*
X377650Y373350D02*
X378550D01*
X369450D02*
X373150D01*
X377700Y373400D02*
X378600D01*
X369500D02*
X373100D01*
X377750Y373450D02*
X378650D01*
X370150D02*
X373100D01*
X377800Y373500D02*
X378650D01*
X370200D02*
X372800D01*
X377850Y373550D02*
X378700D01*
X370250D02*
X372700D01*
X377900Y373600D02*
X378750D01*
X370250D02*
X372700D01*
X377950Y373650D02*
X378800D01*
X370300D02*
X370800D01*
X378000Y373700D02*
X378850D01*
X370300D02*
X370700D01*
X378050Y373750D02*
X378900D01*
X370300D02*
X370700D01*
X378100Y373800D02*
X378950D01*
X370300D02*
X370600D01*
X378150Y373850D02*
X379050D01*
X370300D02*
X370600D01*
X378200Y373900D02*
X379050D01*
X370250D02*
X370550D01*
X378250Y373950D02*
X379150D01*
X370300D02*
X370550D01*
X378300Y374000D02*
X379200D01*
X370350D02*
X370500D01*
X378350Y374050D02*
X379250D01*
X367000Y380200D02*
X370350D01*
X367000Y380250D02*
X370350D01*
X367100Y380300D02*
X370350D01*
X367100Y380350D02*
X370450D01*
X367200Y380400D02*
X370450D01*
X367200Y380450D02*
X370500D01*
X367300Y380500D02*
X370450D01*
X367300Y380550D02*
X370550D01*
X367400Y380600D02*
X370550D01*
X367400Y380650D02*
X370600D01*
X367500Y380700D02*
X370600D01*
X367500Y380750D02*
X370700D01*
X367600Y380800D02*
X370700D01*
X367600Y380850D02*
X370700D01*
X367650Y380900D02*
X370800D01*
X377350Y367800D02*
X378350D01*
X377400Y367850D02*
X378400D01*
X377450Y367900D02*
X378400D01*
X377500Y367950D02*
X378450D01*
X377550Y368000D02*
X378500D01*
X377600Y368050D02*
X378550D01*
X377600Y368100D02*
X378550D01*
X377650Y368150D02*
X378600D01*
X377700Y368200D02*
X378650D01*
X377750Y368250D02*
X378700D01*
X377750Y368300D02*
X378750D01*
X377800Y368350D02*
X378800D01*
X377850Y368400D02*
X378800D01*
X377900Y368450D02*
X378900D01*
X377950Y368500D02*
X378900D01*
X378000Y368550D02*
X378950D01*
X378000Y368600D02*
X379000D01*
X378050Y368650D02*
X379000D01*
X378100Y368700D02*
X379050D01*
X378150Y368750D02*
X379100D01*
X378150Y368800D02*
X379150D01*
X378200Y368850D02*
X379200D01*
X378250Y368900D02*
X379250D01*
X378300Y368950D02*
X379250D01*
X378300Y369000D02*
X379300D01*
X378350Y369050D02*
X379350D01*
X370350Y372700D02*
X371000D01*
X368350Y372750D02*
X371750D01*
X368450Y372800D02*
X371850D01*
X368500Y372850D02*
X371900D01*
X368500Y372900D02*
X373500D01*
X370050Y357600D02*
X375400D01*
X370000Y357650D02*
X375400D01*
X370100Y357700D02*
X375400D01*
X370100Y357750D02*
X375400D01*
X370150Y357800D02*
X375400D01*
X370200Y357850D02*
X375400D01*
X370250Y357900D02*
X375400D01*
X370250Y357950D02*
X375400D01*
X370350Y358000D02*
X375350D01*
X370350Y358050D02*
X375350D01*
X370350Y353400D02*
X375850D01*
X370350Y353450D02*
X375850D01*
X370350Y353500D02*
X375850D01*
X370300Y353550D02*
X375850D01*
X370250Y353600D02*
X375850D01*
X370200Y353650D02*
X375800D01*
X370200Y353700D02*
X375800D01*
X370150Y353750D02*
X375800D01*
X370150Y353800D02*
X375800D01*
X370050Y353850D02*
X375800D01*
X370050Y353900D02*
X375800D01*
X370050Y353950D02*
X375800D01*
X370000Y354000D02*
X375750D01*
X370000Y354050D02*
X375750D01*
X369950Y354100D02*
X375750D01*
X369950Y354150D02*
X375750D01*
X369850Y354200D02*
X375700D01*
X369850Y354250D02*
X375700D01*
X369800Y354300D02*
X375700D01*
X369800Y354350D02*
X375700D01*
X369750Y354400D02*
X375700D01*
X369750Y354450D02*
X375700D01*
X369700Y354500D02*
X375700D01*
X369700Y354550D02*
X375700D01*
X369600Y354600D02*
X375650D01*
X369550Y354650D02*
X375650D01*
X369600Y354700D02*
X375650D01*
X369600Y354750D02*
X375650D01*
X369500Y354800D02*
X375650D01*
X369500Y354850D02*
X375650D01*
X369450Y354900D02*
X375650D01*
X378100Y344650D02*
X379450D01*
X377300Y344700D02*
X380500D01*
X376950Y344750D02*
X380750D01*
X376550Y344800D02*
X381200D01*
X376350Y344850D02*
X381350D01*
X376050Y344900D02*
X381450D01*
X375950Y344950D02*
X381500D01*
X375650Y345000D02*
X381500D01*
X375550Y345050D02*
X381550D01*
X375350Y345100D02*
X381550D01*
X375150Y345150D02*
X381600D01*
X375000Y345200D02*
X381600D01*
X374950Y345250D02*
X381600D01*
X374850Y345300D02*
X381600D01*
X374800Y345350D02*
X381600D01*
X374750Y345400D02*
X381600D01*
X374750Y345450D02*
X381600D01*
X374700Y345500D02*
X381600D01*
X374650Y345550D02*
X381550D01*
X374600Y345600D02*
X381550D01*
X374600Y345650D02*
X381550D01*
X374550Y345700D02*
X381550D01*
X374500Y345750D02*
X381500D01*
X374500Y345800D02*
X381450D01*
X374450Y345850D02*
X381450D01*
X374450Y345900D02*
X381400D01*
X374400Y345950D02*
X381400D01*
X374400Y346000D02*
X381350D01*
X374350Y346050D02*
X381300D01*
X374350Y346100D02*
X381300D01*
X374300Y346150D02*
X381250D01*
X374300Y346200D02*
X381200D01*
X374250Y346250D02*
X381150D01*
X374200Y346300D02*
X381050D01*
X374150Y346350D02*
X381050D01*
X374150Y346400D02*
X381000D01*
X374150Y346450D02*
X380950D01*
X374100Y346500D02*
X380850D01*
X374050Y346550D02*
X380850D01*
X374000Y346600D02*
X380750D01*
X374000Y346650D02*
X380650D01*
X373950Y346700D02*
X380600D01*
X373950Y346750D02*
X380550D01*
X373900Y346800D02*
X380400D01*
X373900Y346850D02*
X380400D01*
X373850Y346900D02*
X380250D01*
X373800Y346950D02*
X380250D01*
X373800Y347000D02*
X380100D01*
X373750Y347050D02*
X380000D01*
X373800Y347100D02*
X379900D01*
X373800Y347150D02*
X379850D01*
X373700Y347200D02*
X379650D01*
X373650Y347250D02*
X379600D01*
X373650Y347300D02*
X379450D01*
X373600Y347350D02*
X379350D01*
X373600Y347400D02*
X379150D01*
X373550Y347450D02*
X379100D01*
X373500Y347500D02*
X378950D01*
X373450Y347550D02*
X378800D01*
X373450Y347600D02*
X378600D01*
X373450Y347650D02*
X378450D01*
X373400Y347700D02*
X378350D01*
X361200Y365000D02*
X366300D01*
X361100Y365050D02*
X366300D01*
X361150Y365100D02*
X366250D01*
X361050Y365150D02*
X366250D01*
X361000Y365200D02*
X363050D01*
X361000Y365250D02*
X363050D01*
X361000Y365300D02*
X362950D01*
X360900Y365350D02*
X362950D01*
X360900Y365400D02*
X362950D01*
X360900Y365450D02*
X362900D01*
X360850Y365500D02*
X362750D01*
X360800Y365550D02*
X362750D01*
X360750Y365600D02*
X362700D01*
X360700Y365650D02*
X362650D01*
X360650Y365700D02*
X362600D01*
X360650Y365750D02*
X362550D01*
X360650Y365800D02*
X362500D01*
X360600Y365850D02*
X362500D01*
X360600Y365900D02*
X362500D01*
X360550Y365950D02*
X362500D01*
X360550Y366000D02*
X362450D01*
X360450Y366050D02*
X362400D01*
X360400Y366100D02*
X362400D01*
X360400Y366150D02*
X362400D01*
X360400Y366200D02*
X362350D01*
Y366500D02*
X362400D01*
X362350Y370850D02*
X364150D01*
X362300Y370900D02*
X364050D01*
X362250Y370950D02*
X364000D01*
X362200Y371000D02*
X363950D01*
X362150Y371050D02*
X363900D01*
X362100Y371100D02*
X363850D01*
X362100Y371150D02*
X363850D01*
X362050Y371200D02*
X363800D01*
X361950Y371250D02*
X363750D01*
X361900Y371300D02*
X363750D01*
X361850Y371350D02*
X363750D01*
X361850Y371400D02*
X363700D01*
X361800Y371450D02*
X363650D01*
X361700Y371500D02*
X363650D01*
X361700Y371550D02*
X362450D01*
X361600Y371600D02*
X362450D01*
X361550Y371650D02*
X362550D01*
X361500Y371700D02*
X362450D01*
X361450Y371750D02*
X362350D01*
X361400Y371800D02*
X362350D01*
Y371850D02*
X362400D01*
X361250Y364900D02*
X366300D01*
X381250Y372950D02*
X382050D01*
X377250D02*
X378150D01*
X373950D02*
X374600D01*
X373900Y380950D02*
X374800D01*
X372700Y348950D02*
X377450D01*
X373500Y364950D02*
X376100D01*
X365900Y372950D02*
X367150D01*
X365100D02*
X365750D01*
X364300D02*
X364800D01*
X363900D02*
X364100D01*
X363000D02*
X363800D01*
X363150Y348950D02*
X367200D01*
X360200Y372950D02*
X361200D01*
X356750D02*
X358350D01*
X381300Y373000D02*
X382100D01*
X381300Y373050D02*
X382100D01*
X381350Y373100D02*
X382150D01*
X381400Y373150D02*
X382150D01*
X381400Y373200D02*
X382200D01*
X381450Y373250D02*
X382250D01*
X381500Y373300D02*
X382250D01*
X381500Y373350D02*
X382300D01*
X381550Y373400D02*
X382350D01*
X381550Y373450D02*
X382350D01*
X381600Y373500D02*
X382400D01*
X381600Y373550D02*
X382450D01*
X381650Y373600D02*
X382450D01*
X381700Y373650D02*
X382500D01*
X381700Y373700D02*
X382500D01*
X381750Y373750D02*
X382550D01*
X381750Y373800D02*
X382550D01*
X381850Y373850D02*
X382600D01*
X381850Y373900D02*
X382650D01*
X381900Y373950D02*
X382650D01*
X381900Y374000D02*
X382700D01*
X381950Y374050D02*
X382700D01*
X382000Y374100D02*
X382750D01*
X378400D02*
X379300D01*
X382000Y374150D02*
X382800D01*
X378450D02*
X379350D01*
X382050Y374200D02*
X382800D01*
X378500D02*
X379400D01*
X382100Y374250D02*
X382850D01*
X378550D02*
X379450D01*
X382100Y374300D02*
X382850D01*
X378600D02*
X379500D01*
X382100Y374350D02*
X382900D01*
X378650D02*
X379600D01*
X382150Y374400D02*
X382950D01*
X378700D02*
X379600D01*
X382150Y374450D02*
X382950D01*
X378800D02*
X379700D01*
X382200Y374500D02*
X383000D01*
X378850D02*
X379750D01*
X382250Y374550D02*
X383000D01*
X378900D02*
X379800D01*
X382300Y374600D02*
X383050D01*
X379000D02*
X379850D01*
X382350Y374650D02*
X383100D01*
X379050D02*
X379900D01*
X382350Y374700D02*
X383100D01*
X379100D02*
X380000D01*
X382400Y374750D02*
X383150D01*
X379200D02*
X380050D01*
X382400Y374800D02*
X383150D01*
X379200D02*
X380100D01*
X382450Y374850D02*
X383200D01*
X379300D02*
X380150D01*
X382500Y374900D02*
X383200D01*
X379350D02*
X380200D01*
X382500Y374950D02*
X383250D01*
X379400D02*
X380250D01*
X382550Y375000D02*
X383300D01*
X379500D02*
X380300D01*
X382600Y375050D02*
X383300D01*
X379600D02*
X380350D01*
X382600Y375100D02*
X383350D01*
X379650D02*
X380400D01*
X382650Y375150D02*
X383350D01*
X379700D02*
X380450D01*
X382650Y375200D02*
X383400D01*
X379800D02*
X380500D01*
X382700Y375250D02*
X383400D01*
X379800D02*
X380550D01*
X382750Y375300D02*
X383450D01*
X379900D02*
X380650D01*
X382750Y375350D02*
X383500D01*
X379900D02*
X380650D01*
X382800Y375400D02*
X383500D01*
X380000D02*
X380750D01*
X382850Y375450D02*
X383550D01*
X380000D02*
X380800D01*
X382850Y375500D02*
X383550D01*
X380100D02*
X380800D01*
X382900Y375550D02*
X383600D01*
X380150D02*
X380900D01*
X382900Y375600D02*
X383600D01*
X380200D02*
X380950D01*
X382950Y375650D02*
X383650D01*
X380250D02*
X381000D01*
X382950Y375700D02*
X383700D01*
X380300D02*
X381050D01*
X383000Y375750D02*
X383700D01*
X380350D02*
X381100D01*
X383050Y375800D02*
X383750D01*
X380400D02*
X381150D01*
X383050Y375850D02*
X383750D01*
X380450D02*
X381200D01*
X383100Y375900D02*
X383800D01*
X380500D02*
X381250D01*
X383150Y375950D02*
X383850D01*
X380550D02*
X381300D01*
X383150Y376000D02*
X383850D01*
X380600D02*
X381350D01*
X383200Y376050D02*
X383900D01*
X380650D02*
X381450D01*
X383200Y376100D02*
X383900D01*
X380700D02*
X381500D01*
X383250Y376150D02*
X383950D01*
X380750D02*
X381550D01*
X383250Y376200D02*
X383950D01*
X380800D02*
X381650D01*
X383300Y376250D02*
X384000D01*
X380900D02*
X381700D01*
X383350Y376300D02*
X384000D01*
X380900D02*
X381800D01*
X383350Y376350D02*
X384050D01*
X381000D02*
X381850D01*
X383400Y376400D02*
X384100D01*
X381050D02*
X381950D01*
X383400Y376450D02*
X384100D01*
X381100D02*
X382000D01*
X383450Y376500D02*
X384150D01*
X381200D02*
X382100D01*
X383450Y376550D02*
X384150D01*
X381250D02*
X382150D01*
X383500Y376600D02*
X384200D01*
X381300D02*
X382200D01*
X383500Y376650D02*
X384250D01*
X381350D02*
X382300D01*
X383550Y376700D02*
X384250D01*
X381450D02*
X382350D01*
X383550Y376750D02*
X384300D01*
X381500D02*
X382450D01*
X383600Y376800D02*
X384300D01*
X381550D02*
X382500D01*
X383600Y376850D02*
X384350D01*
X381650D02*
X382600D01*
X383600Y376900D02*
X384350D01*
X381700D02*
X382650D01*
X383650Y376950D02*
X384350D01*
X381750D02*
X382750D01*
X383700Y377000D02*
X384400D01*
X381850D02*
X382800D01*
X383700Y377050D02*
X384400D01*
X381900D02*
X382900D01*
X383700Y377100D02*
X384400D01*
X381950D02*
X382950D01*
X383750Y377150D02*
X384450D01*
X382050D02*
X383050D01*
X383750Y377200D02*
X384450D01*
X382100D02*
X383100D01*
X383800Y377250D02*
X384500D01*
X382200D02*
X383200D01*
X383800Y377300D02*
X384500D01*
X382250D02*
X383300D01*
X383850Y377350D02*
X384550D01*
X382300D02*
X383350D01*
X383850Y377400D02*
X384550D01*
X382350D02*
X383400D01*
X383850Y377450D02*
X384550D01*
X382450D02*
X383500D01*
X383900Y377500D02*
X384600D01*
X382500D02*
X383550D01*
X383950Y377550D02*
X384600D01*
X382550D02*
X383650D01*
X383950Y377600D02*
X384600D01*
X382650D02*
X383750D01*
X383950Y377650D02*
X384650D01*
X382700D02*
X383800D01*
X384000Y377700D02*
X384650D01*
X382750D02*
X383900D01*
X384000Y377750D02*
X384700D01*
X382850D02*
X383950D01*
X382900Y377800D02*
X384700D01*
X382950Y377850D02*
X384700D01*
X383050Y377900D02*
X384750D01*
X383100Y377950D02*
X384750D01*
X383150Y378000D02*
X384750D01*
X383200Y378050D02*
X384800D01*
X383300Y378100D02*
X384800D01*
X383350Y378150D02*
X384800D01*
X383400Y378200D02*
X384800D01*
X383500Y378250D02*
X384800D01*
X383550Y378300D02*
X384750D01*
X383650Y378350D02*
X384750D01*
X383700Y378400D02*
X384750D01*
X383750Y378450D02*
X384750D01*
X383850Y378500D02*
X384700D01*
X383900Y378550D02*
X384700D01*
X384050Y378600D02*
X384650D01*
X384150Y378650D02*
X384500D01*
X384250Y378700D02*
X384500D01*
X378400Y369100D02*
X379350D01*
X378450Y369150D02*
X379400D01*
X378500Y369200D02*
X379450D01*
X378550Y369250D02*
X379500D01*
X378550Y369300D02*
X379500D01*
X378600Y369350D02*
X379550D01*
X378650Y369400D02*
X379600D01*
X378700Y369450D02*
X379650D01*
X378700Y369500D02*
X379650D01*
X378750Y369550D02*
X379700D01*
X378800Y369600D02*
X379750D01*
X378850Y369650D02*
X379800D01*
X378900Y369700D02*
X379850D01*
X378950Y369750D02*
X379850D01*
X379000Y369800D02*
X379900D01*
X379050Y369850D02*
X379950D01*
X379050Y369900D02*
X379950D01*
X379100Y369950D02*
X380000D01*
X379150Y370000D02*
X380050D01*
X379200Y370050D02*
X380050D01*
X379250Y370100D02*
X380100D01*
X379300Y370150D02*
X380150D01*
X379300Y370200D02*
X380200D01*
X379400Y370250D02*
X380200D01*
X379400Y370300D02*
X380250D01*
X379450Y370350D02*
X380300D01*
X379500Y370400D02*
X380350D01*
X379550Y370450D02*
X380350D01*
X379600Y370500D02*
X380400D01*
X379650Y370550D02*
X380450D01*
X379650Y370600D02*
X380450D01*
X379700Y370650D02*
X380500D01*
X379750Y370700D02*
X380550D01*
X379800Y370750D02*
X380600D01*
X379850Y370800D02*
X380600D01*
X379900Y370850D02*
X380650D01*
X379950Y370900D02*
X380700D01*
X380000Y370950D02*
X380750D01*
X380000Y371000D02*
X380750D01*
X380050Y371050D02*
X380800D01*
X380100Y371100D02*
X380800D01*
X380100Y371150D02*
X380900D01*
X380150Y371200D02*
X380900D01*
X380150Y371250D02*
X380950D01*
X380200Y371300D02*
X381000D01*
X380250Y371350D02*
X381000D01*
X380250Y371400D02*
X381050D01*
X380300Y371450D02*
X381100D01*
X380350Y371500D02*
X381100D01*
X380350Y371550D02*
X381200D01*
X380400Y371600D02*
X381200D01*
X380400Y371650D02*
X381200D01*
X380450Y371700D02*
X381300D01*
X380500Y371750D02*
X381300D01*
X380500Y371800D02*
X381350D01*
X380550Y371850D02*
X381350D01*
X380550Y371900D02*
X381400D01*
X380600Y371950D02*
X381450D01*
X380650Y372000D02*
X381450D01*
X380700Y372050D02*
X381500D01*
X380700Y372100D02*
X381550D01*
X380750Y372150D02*
X381550D01*
X380800Y372200D02*
X381600D01*
X380800Y372250D02*
X381600D01*
X380800Y372300D02*
X381650D01*
X380900Y372350D02*
X381700D01*
X380900Y372400D02*
X381700D01*
X380950Y372450D02*
X381750D01*
X380950Y372500D02*
X381750D01*
X381000Y372550D02*
X381800D01*
X381050Y372600D02*
X381850D01*
X381050Y372650D02*
X381850D01*
X381100Y372700D02*
X381900D01*
X381150Y372750D02*
X381950D01*
X381150Y372800D02*
X381950D01*
X381200Y372850D02*
X382000D01*
X381200Y372900D02*
X382050D01*
X379550Y344650D02*
X379600D01*
X380450Y346800D02*
X380500D01*
X380300Y346900D02*
X380350D01*
X378500Y347650D02*
X378550D01*
X373900Y381000D02*
X374700D01*
X373900Y381050D02*
X374700D01*
X373850Y381100D02*
X374700D01*
X373800Y381150D02*
X374700D01*
X373800Y381200D02*
X374700D01*
X373800Y381250D02*
X374650D01*
X373800Y381300D02*
X374600D01*
X373750Y381350D02*
X374600D01*
X373750Y381400D02*
X374600D01*
X373700Y381450D02*
X374550D01*
X373650Y381500D02*
X374550D01*
X373650Y381550D02*
X374550D01*
X373700Y381600D02*
X374550D01*
X373700Y381650D02*
X374550D01*
X373700Y381700D02*
X374450D01*
X373700Y381750D02*
X374500D01*
X373650Y381800D02*
X374500D01*
X373600Y381850D02*
X374450D01*
X373600Y381900D02*
X374450D01*
X373600Y381950D02*
X374450D01*
X373600Y382000D02*
X374400D01*
X373550Y382050D02*
X374400D01*
X373500Y382100D02*
X374400D01*
X373450Y382150D02*
X374350D01*
X373450Y382200D02*
X374250D01*
X373400Y382250D02*
X374250D01*
X373450Y382300D02*
X374200D01*
X373350Y382350D02*
X374200D01*
X373350Y382400D02*
X374150D01*
X373350Y382450D02*
X374150D01*
X373300Y382500D02*
X374150D01*
X373250Y382550D02*
X374100D01*
X373250Y382600D02*
X374100D01*
X373150Y382650D02*
X374050D01*
X373150Y382700D02*
X374050D01*
X373100Y382750D02*
X374000D01*
X373050Y382800D02*
X373950D01*
X373050Y382850D02*
X373950D01*
X373000Y382900D02*
X373900D01*
X372950Y382950D02*
X373850D01*
X372850Y383000D02*
X373850D01*
X370500Y383300D02*
X373600D01*
X370550Y383350D02*
X373600D01*
X370700Y383400D02*
X373500D01*
X370700Y383450D02*
X373500D01*
X370900Y383500D02*
X373450D01*
X370900Y383550D02*
X373400D01*
X371050Y383600D02*
X373300D01*
X371150Y383650D02*
X373300D01*
X371300Y383700D02*
X373200D01*
X371350Y383750D02*
X373150D01*
X371550Y383800D02*
X373050D01*
X371700Y383850D02*
X373000D01*
X371900Y383900D02*
X372900D01*
X372500Y383950D02*
X372600D01*
X372200D02*
X372450D01*
X377300Y373000D02*
X378200D01*
X374000D02*
X374600D01*
X377350Y373050D02*
X378250D01*
X374000D02*
X374600D01*
X377400Y373100D02*
X378300D01*
X374000D02*
X374600D01*
X374000Y373150D02*
X374600D01*
X374000Y373200D02*
X374650D01*
X374000Y373250D02*
X374650D01*
X373400D02*
X373550D01*
X374000Y373300D02*
X374650D01*
X373450D02*
X373500D01*
X374000Y373350D02*
X374650D01*
X373450D02*
X373500D01*
X374050Y373400D02*
X374650D01*
X374050Y373450D02*
X374650D01*
X374050Y373500D02*
X374650D01*
X372850D02*
X373100D01*
X374050Y373550D02*
X374650D01*
X372900D02*
X373100D01*
X374050Y373600D02*
X374700D01*
X372950D02*
X373100D01*
X374050Y373650D02*
X374700D01*
X373000D02*
X373150D01*
X370850D02*
X372700D01*
X374100Y373700D02*
X374700D01*
X373000D02*
X373350D01*
X372300D02*
X372700D01*
X371600D02*
X372200D01*
X370900D02*
X371550D01*
X374100Y373750D02*
X374700D01*
X373050D02*
X373250D01*
X372350D02*
X372650D01*
X371650D02*
X372150D01*
X370950D02*
X371450D01*
X374100Y373800D02*
X374700D01*
X373000D02*
X373100D01*
X372400D02*
X372650D01*
X371700D02*
X372100D01*
X371000D02*
X371450D01*
X374100Y373850D02*
X374750D01*
X372500D02*
X372650D01*
X371700D02*
X372050D01*
X371000D02*
X371400D01*
X374100Y373900D02*
X374700D01*
X372500D02*
X372650D01*
X371750D02*
X372050D01*
X371050D02*
X371350D01*
X374100Y373950D02*
X374750D01*
X372550D02*
X372600D01*
X371750D02*
X372050D01*
X371100D02*
X371350D01*
X374150Y374000D02*
X374750D01*
X371800D02*
X372100D01*
X371100D02*
X371350D01*
X374150Y374050D02*
X374750D01*
X371850D02*
X372050D01*
X371100D02*
X371350D01*
X370400D02*
X370450D01*
X374150Y374100D02*
X374750D01*
X371850D02*
X372150D01*
X371150D02*
X371350D01*
X374150Y374150D02*
X374750D01*
X371900D02*
X371950D01*
X371200D02*
X371350D01*
X374150Y374200D02*
X374800D01*
X374150Y374250D02*
X374800D01*
X374200Y374300D02*
X374800D01*
X374200Y374350D02*
X374800D01*
X374200Y374400D02*
X374800D01*
X374200Y374450D02*
X374850D01*
X374200Y374500D02*
X374900D01*
X374200Y374550D02*
X374950D01*
X374250Y374600D02*
X374950D01*
X374250Y374650D02*
X375000D01*
X374250Y374700D02*
X375050D01*
X374250Y374750D02*
X375050D01*
X374250Y374800D02*
X375100D01*
X374300Y374850D02*
X375150D01*
X374300Y374900D02*
X375150D01*
X375000Y374950D02*
X375200D01*
X374300D02*
X374950D01*
X375050Y375000D02*
X375200D01*
X374300D02*
X374950D01*
X375050Y375050D02*
X375250D01*
X374300D02*
X374950D01*
X375100Y375100D02*
X375250D01*
X374300D02*
X374950D01*
X375100Y375150D02*
X375250D01*
X374300D02*
X375000D01*
X375100Y375200D02*
X375250D01*
X374300D02*
X375000D01*
X375100Y375250D02*
X375300D01*
X374300D02*
X375000D01*
X375150Y375300D02*
X375300D01*
X374300D02*
X375000D01*
X375150Y375350D02*
X375350D01*
X374300D02*
X375000D01*
X375150Y375400D02*
X375350D01*
X374300D02*
X375000D01*
X375200Y375450D02*
X375350D01*
X374300D02*
X375000D01*
X375200Y375500D02*
X375350D01*
X374300D02*
X375000D01*
X375250Y375550D02*
X375350D01*
X374300D02*
X375000D01*
X375250Y375600D02*
X375350D01*
X374300D02*
X375000D01*
X375250Y375650D02*
X375350D01*
X374300D02*
X375000D01*
X375250Y375700D02*
X375400D01*
X374250D02*
X375000D01*
X375250Y375750D02*
X375400D01*
X374250D02*
X375000D01*
X375250Y375800D02*
X375350D01*
X374250D02*
X375000D01*
X375250Y375850D02*
X375350D01*
X374250D02*
X375000D01*
X375250Y375900D02*
X375350D01*
X374250D02*
X375000D01*
X375250Y375950D02*
X375350D01*
X374250D02*
X375000D01*
X375250Y376000D02*
X375350D01*
X374250D02*
X375000D01*
X375250Y376050D02*
X375350D01*
X374250D02*
X375000D01*
X375250Y376100D02*
X375350D01*
X374250D02*
X375050D01*
X375200Y376150D02*
X375350D01*
X374250D02*
X375050D01*
X375200Y376200D02*
X375350D01*
X374250D02*
X375050D01*
X375200Y376250D02*
X375350D01*
X374250D02*
X375050D01*
X375200Y376300D02*
X375350D01*
X374250D02*
X375050D01*
X375200Y376350D02*
X375350D01*
X374250D02*
X375050D01*
X375200Y376400D02*
X375350D01*
X374250D02*
X375050D01*
X375200Y376450D02*
X375350D01*
X374250D02*
X375050D01*
X375150Y376500D02*
X375300D01*
X374250D02*
X375050D01*
X375150Y376550D02*
X375300D01*
X374250D02*
X375050D01*
X375100Y376600D02*
X375300D01*
X374250D02*
X375050D01*
X375100Y376650D02*
X375250D01*
X374250D02*
X375050D01*
X374300Y376700D02*
X375250D01*
X374300Y376750D02*
X375200D01*
X374300Y376800D02*
X375200D01*
X374300Y376850D02*
X375200D01*
X374250Y376900D02*
X375150D01*
X374250Y376950D02*
X375100D01*
X374250Y377000D02*
X375050D01*
X374250Y377050D02*
X375050D01*
X374250Y377100D02*
X375050D01*
X374250Y377150D02*
X375050D01*
X374250Y377200D02*
X375050D01*
X374250Y377250D02*
X375050D01*
X374200Y377300D02*
X375050D01*
X374200Y377350D02*
X375050D01*
X374200Y377400D02*
X375000D01*
X374300Y377450D02*
X375000D01*
X374300Y377500D02*
X375000D01*
X374200Y377550D02*
X375000D01*
X374200Y377600D02*
X375000D01*
X374200Y377650D02*
X375000D01*
X374200Y377700D02*
X375000D01*
X374250Y377750D02*
X375000D01*
X374250Y377800D02*
X375000D01*
X374200Y377850D02*
X375000D01*
X374200Y377900D02*
X375000D01*
X374250Y377950D02*
X375000D01*
X374300Y378000D02*
X375000D01*
X374250Y378050D02*
X375000D01*
X374200Y378100D02*
X375000D01*
X374250Y378150D02*
X375000D01*
X374250Y378200D02*
X375000D01*
X374250Y378250D02*
X375000D01*
X374250Y378300D02*
X375000D01*
X374250Y378350D02*
X375000D01*
X374250Y378400D02*
X375000D01*
X374250Y378450D02*
X375000D01*
X374250Y378500D02*
X375000D01*
X374250Y378550D02*
X375000D01*
X374250Y378600D02*
X375000D01*
X374250Y378650D02*
X375000D01*
X374250Y378700D02*
X375000D01*
X374250Y378750D02*
X375000D01*
X374250Y378800D02*
X375000D01*
X374200Y378850D02*
X375000D01*
X374200Y378900D02*
X375000D01*
X374200Y378950D02*
X375000D01*
X374200Y379000D02*
X375000D01*
X374250Y379050D02*
X375000D01*
X374250Y379100D02*
X375000D01*
X374250Y379150D02*
X375000D01*
X374200Y379200D02*
X375000D01*
X374150Y379250D02*
X374950D01*
X374150Y379300D02*
X374950D01*
X374150Y379350D02*
X374950D01*
X374200Y379400D02*
X375000D01*
X374150Y379450D02*
X375000D01*
X374200Y379500D02*
X375000D01*
X374150Y379550D02*
X375000D01*
X374100Y379600D02*
X375000D01*
X374150Y379650D02*
X374950D01*
X374150Y379700D02*
X374950D01*
X374150Y379750D02*
X374950D01*
X374150Y379800D02*
X374950D01*
X374150Y379850D02*
X374950D01*
X374150Y379900D02*
X374950D01*
X374150Y379950D02*
X374950D01*
X374050Y380000D02*
X374950D01*
X374050Y380050D02*
X374950D01*
X374100Y380100D02*
X374900D01*
X374100Y380150D02*
X374900D01*
X374050Y380200D02*
X374900D01*
X374050Y380250D02*
X374850D01*
X374050Y380300D02*
X374900D01*
X374050Y380350D02*
X374900D01*
X374050Y380400D02*
X374850D01*
X374050Y380450D02*
X374850D01*
X374050Y380500D02*
X374800D01*
X373950Y380550D02*
X374850D01*
X374000Y380600D02*
X374800D01*
X374000Y380650D02*
X374800D01*
X374000Y380700D02*
X374800D01*
X373950Y380750D02*
X374800D01*
X373950Y380800D02*
X374800D01*
X373950Y380850D02*
X374750D01*
X373900Y380900D02*
X374750D01*
X373500Y365000D02*
X376150D01*
X373500Y365050D02*
X376200D01*
X373500Y365100D02*
X376200D01*
X373550Y365150D02*
X376250D01*
X373550Y365200D02*
X376300D01*
X373550Y365250D02*
X376300D01*
X373500Y365300D02*
X376350D01*
X373500Y365350D02*
X376400D01*
X373500Y365400D02*
X376400D01*
X373500Y365450D02*
X376450D01*
X373500Y365500D02*
X376500D01*
X373500Y365550D02*
X376550D01*
X373500Y365600D02*
X376550D01*
X373450Y365650D02*
X376600D01*
X373450Y365700D02*
X376650D01*
X373450Y365750D02*
X376700D01*
X373450Y365800D02*
X376700D01*
X373450Y365850D02*
X376750D01*
X373450Y365900D02*
X376800D01*
X376000Y365950D02*
X376850D01*
X373450D02*
X375800D01*
X376000Y366000D02*
X376900D01*
X373450D02*
X375750D01*
X376000Y366050D02*
X376900D01*
X373400D02*
X375700D01*
X376000Y366100D02*
X376950D01*
X373400D02*
X375650D01*
X376050Y366150D02*
X377000D01*
X373450D02*
X375600D01*
X376100Y366200D02*
X377050D01*
X373400D02*
X375550D01*
X376150Y366250D02*
X377100D01*
X373400D02*
X375500D01*
X376200Y366300D02*
X377100D01*
X373400D02*
X375450D01*
X376250Y366350D02*
X377150D01*
X373400D02*
X375400D01*
X376250Y366400D02*
X377200D01*
X373350D02*
X375350D01*
X376300Y366450D02*
X377250D01*
X373350D02*
X375300D01*
X376350Y366500D02*
X377300D01*
X373350D02*
X375300D01*
X376400Y366550D02*
X377300D01*
X373350D02*
X375250D01*
X376400Y366600D02*
X377350D01*
X373350D02*
X375200D01*
X376500Y366650D02*
X377400D01*
X373350D02*
X375200D01*
X376500Y366700D02*
X377450D01*
X373350D02*
X375150D01*
X376550Y366750D02*
X377500D01*
X373350D02*
X375100D01*
X376600Y366800D02*
X377550D01*
X373350D02*
X375100D01*
X376600Y366850D02*
X377550D01*
X373350D02*
X375050D01*
X376650Y366900D02*
X377600D01*
X373350D02*
X375000D01*
X376700Y366950D02*
X377650D01*
X373350D02*
X374950D01*
X376750Y367000D02*
X377700D01*
X373350D02*
X374950D01*
X376800Y367050D02*
X377750D01*
X373350D02*
X374900D01*
X376800Y367100D02*
X377750D01*
X373350D02*
X374900D01*
X376900Y367150D02*
X377800D01*
X373350D02*
X374850D01*
X376900Y367200D02*
X377850D01*
X373350D02*
X374800D01*
X376950Y367250D02*
X377900D01*
X373350D02*
X374800D01*
X376950Y367300D02*
X377950D01*
X373350D02*
X374750D01*
X377000Y367350D02*
X377950D01*
X373350D02*
X374750D01*
X377050Y367400D02*
X378000D01*
X373350D02*
X374750D01*
X377100Y367450D02*
X378050D01*
X373350D02*
X374700D01*
X377150Y367500D02*
X378100D01*
X373350D02*
X374700D01*
X377150Y367550D02*
X378100D01*
X373350D02*
X374700D01*
X377200Y367600D02*
X378150D01*
X373350D02*
X374650D01*
X377250Y367650D02*
X378200D01*
X373350D02*
X374650D01*
X377300Y367700D02*
X378250D01*
X373350D02*
X374600D01*
X377350Y367750D02*
X378300D01*
X373350D02*
X374600D01*
X373350Y367800D02*
X374600D01*
X373350Y367850D02*
X374550D01*
X373350Y367900D02*
X374550D01*
X373350Y367950D02*
X374550D01*
X373350Y368000D02*
X374500D01*
X373350Y368050D02*
X374500D01*
X373350Y368100D02*
X374500D01*
X373350Y368150D02*
X374500D01*
X373350Y368200D02*
X374500D01*
X373350Y368250D02*
X374450D01*
X373350Y368300D02*
X374500D01*
X373400Y368350D02*
X374450D01*
X373400Y368400D02*
X374450D01*
X373400Y368450D02*
X374450D01*
X373400Y368500D02*
X374400D01*
X373400Y368550D02*
X374400D01*
X373400Y368600D02*
X374450D01*
X373400Y368650D02*
X374450D01*
X373400Y368700D02*
X374500D01*
X373400Y368750D02*
X374500D01*
X373400Y368800D02*
X374500D01*
X373400Y368850D02*
X374500D01*
X373450Y368900D02*
X374500D01*
X373450Y368950D02*
X374500D01*
X373450Y369000D02*
X374550D01*
X373500Y369050D02*
X374500D01*
X373500Y369100D02*
X374500D01*
X373500Y369150D02*
X374500D01*
X373500Y369200D02*
X374550D01*
X373550Y369250D02*
X374600D01*
X373500Y369300D02*
X374650D01*
X373500Y369350D02*
X374700D01*
X373550Y369400D02*
X374750D01*
X373600Y369450D02*
X374800D01*
X373600Y369500D02*
X374800D01*
X373600Y369550D02*
X374900D01*
X373600Y369600D02*
X374950D01*
X373600Y369650D02*
X375000D01*
X373600Y369700D02*
X375050D01*
X373650Y369750D02*
X375100D01*
X373650Y369800D02*
X375150D01*
X373650Y369850D02*
X375200D01*
X373650Y369900D02*
X375200D01*
X373650Y369950D02*
X375300D01*
X373650Y370000D02*
X375350D01*
X373650Y370050D02*
X375400D01*
X373650Y370100D02*
X375450D01*
X374450Y370150D02*
X375500D01*
X373700D02*
X374400D01*
X374450Y370200D02*
X375550D01*
X373700D02*
X374400D01*
X374500Y370250D02*
X375600D01*
X373700D02*
X374400D01*
X374550Y370300D02*
X375600D01*
X373700D02*
X374400D01*
X374600Y370350D02*
X375700D01*
X373700D02*
X374400D01*
X374650Y370400D02*
X375750D01*
X373700D02*
X374400D01*
X374700Y370450D02*
X375750D01*
X373700D02*
X374400D01*
X374750Y370500D02*
X375850D01*
X373700D02*
X374400D01*
X374850Y370550D02*
X375850D01*
X373700D02*
X374400D01*
X374850Y370600D02*
X375900D01*
X373750D02*
X374400D01*
X374900Y370650D02*
X376000D01*
X373750D02*
X374400D01*
X375000Y370700D02*
X376000D01*
X373700D02*
X374400D01*
X375050Y370750D02*
X376050D01*
X373700D02*
X374400D01*
X375100Y370800D02*
X376100D01*
X373750D02*
X374400D01*
X375150Y370850D02*
X376150D01*
X373750D02*
X374400D01*
X375200Y370900D02*
X376200D01*
X373750D02*
X374450D01*
X375200Y370950D02*
X376250D01*
X373750D02*
X374450D01*
X375250Y371000D02*
X376300D01*
X373750D02*
X374450D01*
X375300Y371050D02*
X376350D01*
X373800D02*
X374450D01*
X375400Y371100D02*
X376400D01*
X373750D02*
X374450D01*
X375450Y371150D02*
X376450D01*
X373800D02*
X374450D01*
X375500Y371200D02*
X376500D01*
X373800D02*
X374450D01*
X375550Y371250D02*
X376550D01*
X373800D02*
X374450D01*
X372650D02*
X372700D01*
X371400D02*
X372400D01*
X375600Y371300D02*
X376600D01*
X373800D02*
X374450D01*
X371400D02*
X372750D01*
X375600Y371350D02*
X376650D01*
X373800D02*
X374450D01*
X371200D02*
X372900D01*
X375650Y371400D02*
X376700D01*
X373800D02*
X374450D01*
X371200D02*
X372900D01*
X375700Y371450D02*
X376750D01*
X373800D02*
X374450D01*
X373250D02*
X373300D01*
X371150D02*
X372950D01*
X375800Y371500D02*
X376800D01*
X373800D02*
X374450D01*
X373150D02*
X373350D01*
X371050D02*
X373000D01*
X375850Y371550D02*
X376850D01*
X373800D02*
X374450D01*
X370850D02*
X373400D01*
X375900Y371600D02*
X376900D01*
X373800D02*
X374450D01*
X370800D02*
X373400D01*
X375950Y371650D02*
X376950D01*
X373800D02*
X374500D01*
X370800D02*
X373400D01*
X376000Y371700D02*
X376950D01*
X373850D02*
X374500D01*
X370850D02*
X373400D01*
X376000Y371750D02*
X377000D01*
X373850D02*
X374500D01*
X371700D02*
X373450D01*
X376050Y371800D02*
X377050D01*
X373850D02*
X374500D01*
X372050D02*
X373400D01*
X376150Y371850D02*
X377100D01*
X373850D02*
X374500D01*
X372500D02*
X373400D01*
X376200Y371900D02*
X377150D01*
X373850D02*
X374500D01*
X372500D02*
X373400D01*
X376250Y371950D02*
X377200D01*
X373850D02*
X374500D01*
X373100D02*
X373400D01*
X376300Y372000D02*
X377250D01*
X373850D02*
X374500D01*
X373100D02*
X373300D01*
X376350Y372050D02*
X377300D01*
X373850D02*
X374500D01*
X376400Y372100D02*
X377350D01*
X373850D02*
X374500D01*
X376450Y372150D02*
X377400D01*
X373900D02*
X374500D01*
X376500Y372200D02*
X377450D01*
X373900D02*
X374500D01*
X376550Y372250D02*
X377500D01*
X373900D02*
X374500D01*
X376600Y372300D02*
X377550D01*
X373900D02*
X374500D01*
X376650Y372350D02*
X377600D01*
X373900D02*
X374550D01*
X370600D02*
X370750D01*
X376700Y372400D02*
X377600D01*
X373900D02*
X374550D01*
X370550D02*
X370800D01*
X376750Y372450D02*
X377700D01*
X373900D02*
X374550D01*
X371400D02*
X371500D01*
X370550D02*
X370800D01*
X376800Y372500D02*
X377700D01*
X373900D02*
X374550D01*
X371350D02*
X371600D01*
X370500D02*
X370850D01*
X376850Y372550D02*
X377750D01*
X373900D02*
X374550D01*
X373400D02*
X373450D01*
X371300D02*
X371600D01*
X370450D02*
X370900D01*
X376900Y372600D02*
X377800D01*
X373950D02*
X374550D01*
X373350D02*
X373500D01*
X371300D02*
X371650D01*
X370450D02*
X370900D01*
X376950Y372650D02*
X377850D01*
X373950D02*
X374550D01*
X373250D02*
X373500D01*
X373000D02*
X373100D01*
X372150D02*
X372250D01*
X371300D02*
X371650D01*
X370400D02*
X370950D01*
X377000Y372700D02*
X377900D01*
X373950D02*
X374550D01*
X372950D02*
X373500D01*
X372100D02*
X372250D01*
X371300D02*
X371700D01*
X377050Y372750D02*
X377950D01*
X373950D02*
X374550D01*
X372850D02*
X373500D01*
X372650D02*
X372800D01*
X372050D02*
X372300D01*
X377100Y372800D02*
X378000D01*
X373950D02*
X374600D01*
X372550D02*
X373500D01*
X372000D02*
X372400D01*
X377150Y372850D02*
X378050D01*
X373950D02*
X374600D01*
X372500D02*
X373500D01*
X372000D02*
X372400D01*
X377200Y372900D02*
X378100D01*
X373950D02*
X374600D01*
X370450Y358100D02*
X375350D01*
X370400Y358150D02*
X375350D01*
X370500Y358200D02*
X375350D01*
X370500Y358250D02*
X375350D01*
X370550Y358300D02*
X375350D01*
X370600Y358350D02*
X375350D01*
X370600Y358400D02*
X375350D01*
X370600Y358450D02*
X375350D01*
X370650Y358500D02*
X375300D01*
X370650Y358550D02*
X375300D01*
X370750Y358600D02*
X375300D01*
X370750Y358650D02*
X375300D01*
X370800Y358700D02*
X375300D01*
X370800Y358750D02*
X375300D01*
X370800Y358800D02*
X375300D01*
X370800Y358850D02*
X375300D01*
X370800Y358900D02*
X375300D01*
X370900Y358950D02*
X375300D01*
X370900Y359000D02*
X375300D01*
X371000Y359050D02*
X375300D01*
X371000Y359100D02*
X375300D01*
X371000Y359150D02*
X375300D01*
X371050Y359200D02*
X375300D01*
X371100Y359250D02*
X375250D01*
X371100Y359300D02*
X375250D01*
X371150Y359350D02*
X375300D01*
X371100Y359400D02*
X375300D01*
X371200Y359450D02*
X375300D01*
X371200Y359500D02*
X375300D01*
X371200Y359550D02*
X375300D01*
X371200Y359600D02*
X375300D01*
X371300Y359650D02*
X375300D01*
X371300Y359700D02*
X375300D01*
X371300Y359750D02*
X375300D01*
X371300Y359800D02*
X375300D01*
X371400Y359850D02*
X375300D01*
X371400Y359900D02*
X375300D01*
X371400Y359950D02*
X375300D01*
X371400Y360000D02*
X375250D01*
X371450Y360050D02*
X375250D01*
X371500Y360100D02*
X375250D01*
X371500Y360150D02*
X375250D01*
X371500Y360200D02*
X375300D01*
X371550Y360250D02*
X375300D01*
X371600Y360300D02*
X375250D01*
X371600Y360350D02*
X375250D01*
X371600Y360400D02*
X375250D01*
X371600Y360450D02*
X375250D01*
X371700Y360500D02*
X375250D01*
X371700Y360550D02*
X375250D01*
X371700Y360600D02*
X375250D01*
X371750Y360650D02*
X375250D01*
X371750Y360700D02*
X375250D01*
X371750Y360750D02*
X375300D01*
X371850Y360800D02*
X375300D01*
X371800Y360850D02*
X375300D01*
X371850Y360900D02*
X375300D01*
X371850Y360950D02*
X375300D01*
X371900Y361000D02*
X375300D01*
X371900Y361050D02*
X375300D01*
X371900Y361100D02*
X375300D01*
X371950Y361150D02*
X375300D01*
X371950Y361200D02*
X375300D01*
X371950Y361250D02*
X375250D01*
X372000Y361300D02*
X375300D01*
X372050Y361350D02*
X375300D01*
X372050Y361400D02*
X375300D01*
X372100Y361450D02*
X375300D01*
X372050Y361500D02*
X375300D01*
X372150Y361550D02*
X375300D01*
X372150Y361600D02*
X375300D01*
X372200Y361650D02*
X375300D01*
X372200Y361700D02*
X375300D01*
X372250Y361750D02*
X375300D01*
X372250Y361800D02*
X375300D01*
X372350Y361850D02*
X375300D01*
X372300Y361900D02*
X375300D01*
X372350Y361950D02*
X375300D01*
X372350Y362000D02*
X375300D01*
X372350Y362050D02*
X375300D01*
X372350Y362100D02*
X375300D01*
X372450Y362150D02*
X375300D01*
X372450Y362200D02*
X375300D01*
X372500Y362250D02*
X375350D01*
X372450Y362300D02*
X375350D01*
X372450Y362350D02*
X375400D01*
X372550Y362400D02*
X375400D01*
X372550Y362450D02*
X375400D01*
X372600Y362500D02*
X375400D01*
X372600Y362550D02*
X375400D01*
X372650Y362600D02*
X375450D01*
X372650Y362650D02*
X375450D01*
X372700Y362700D02*
X375400D01*
X372700Y362750D02*
X375450D01*
X372700Y362800D02*
X375450D01*
X372750Y362850D02*
X375450D01*
X372750Y362900D02*
X375450D01*
X372800Y362950D02*
X375450D01*
X372800Y363000D02*
X375450D01*
X372800Y363050D02*
X375450D01*
X372850Y363100D02*
X375450D01*
X372900Y363150D02*
X375500D01*
X372900Y363200D02*
X375500D01*
X372900Y363250D02*
X375500D01*
X372950Y363300D02*
X375550D01*
X373000Y363350D02*
X375550D01*
X373000Y363400D02*
X375550D01*
X373050Y363450D02*
X375600D01*
X373050Y363500D02*
X375600D01*
X373100Y363550D02*
X375600D01*
X373100Y363600D02*
X375650D01*
X373100Y363650D02*
X375650D01*
X373150Y363700D02*
X375650D01*
X373150Y363750D02*
X375650D01*
X373150Y363800D02*
X375700D01*
X373200Y363850D02*
X375700D01*
X373150Y363900D02*
X375650D01*
X373250Y363950D02*
X375750D01*
X373250Y364000D02*
X375750D01*
X373250Y364050D02*
X375750D01*
X373300Y364100D02*
X375750D01*
X373300Y364150D02*
X375800D01*
X373300Y364200D02*
X375800D01*
X373350Y364250D02*
X375800D01*
X373350Y364300D02*
X375850D01*
X373350Y364350D02*
X375850D01*
X373400Y364400D02*
X375900D01*
X373450Y364450D02*
X375900D01*
X373450Y364500D02*
X375950D01*
X373400Y364550D02*
X376000D01*
X373450Y364600D02*
X376000D01*
X373450Y364650D02*
X376000D01*
X373450Y364700D02*
X375950D01*
X373450Y364750D02*
X376000D01*
X373450Y364800D02*
X376050D01*
X373500Y364850D02*
X376050D01*
X373500Y364900D02*
X376100D01*
X372650Y349000D02*
X377450D01*
X372650Y349050D02*
X377400D01*
X372600Y349100D02*
X377400D01*
X372600Y349150D02*
X377350D01*
X372600Y349200D02*
X377300D01*
X372550Y349250D02*
X377250D01*
X372500Y349300D02*
X377200D01*
X372500Y349350D02*
X377200D01*
X372450Y349400D02*
X377250D01*
X372450Y349450D02*
X377200D01*
X372450Y349500D02*
X377100D01*
X372400Y349550D02*
X377100D01*
X372350Y349600D02*
X377100D01*
X372350Y349650D02*
X377050D01*
X372300Y349700D02*
X377000D01*
X372300Y349750D02*
X377000D01*
X372250Y349800D02*
X377000D01*
X372250Y349850D02*
X377000D01*
X372200Y349900D02*
X376900D01*
X372200Y349950D02*
X376900D01*
X372150Y350000D02*
X376900D01*
X372150Y350050D02*
X376900D01*
X372100Y350100D02*
X376850D01*
X372100Y350150D02*
X376800D01*
X372100Y350200D02*
X376800D01*
X372050Y350250D02*
X376800D01*
X372050Y350300D02*
X376750D01*
X372000Y350350D02*
X376750D01*
X372000Y350400D02*
X376750D01*
X371950Y350450D02*
X376700D01*
X371950Y350500D02*
X376700D01*
X371950Y350550D02*
X376650D01*
X371900Y350600D02*
X376650D01*
X371900Y350650D02*
X376600D01*
X371850Y350700D02*
X376600D01*
X371850Y350750D02*
X376550D01*
X371800Y350800D02*
X376550D01*
X371800Y350850D02*
X376550D01*
X371750Y350900D02*
X376500D01*
X371750Y350950D02*
X376500D01*
X371700Y351000D02*
X376500D01*
X371700Y351050D02*
X376450D01*
X371700Y351100D02*
X376450D01*
X371700Y351150D02*
X376450D01*
X371600D02*
X371650D01*
X371600Y351200D02*
X376450D01*
X371600Y351250D02*
X376400D01*
X371550Y351300D02*
X376400D01*
X371550Y351350D02*
X376400D01*
X371500Y351400D02*
X376350D01*
X371500Y351450D02*
X376350D01*
X371450Y351500D02*
X376300D01*
X371400Y351550D02*
X376300D01*
X371400Y351600D02*
X376300D01*
X371400Y351650D02*
X376250D01*
X371350Y351700D02*
X376250D01*
X371350Y351750D02*
X376250D01*
X371250Y351800D02*
X376200D01*
X371250Y351850D02*
X376200D01*
X371250Y351900D02*
X376200D01*
X371200Y351950D02*
X376200D01*
X371200Y352000D02*
X376200D01*
X371150Y352050D02*
X376150D01*
X371100Y352100D02*
X376150D01*
X371100Y352150D02*
X376150D01*
X371100Y352200D02*
X376100D01*
X371050Y352250D02*
X376100D01*
X371000Y352300D02*
X376100D01*
X370950Y352350D02*
X376100D01*
X370950Y352400D02*
X376050D01*
X370900Y352450D02*
X376050D01*
X370900Y352500D02*
X376050D01*
X370900Y352550D02*
X376000D01*
X370800Y352600D02*
X376000D01*
X370800Y352650D02*
X376000D01*
X370800Y352700D02*
X376000D01*
X370800Y352750D02*
X376000D01*
X370700Y352800D02*
X376000D01*
X370700Y352850D02*
X375950D01*
X370700Y352900D02*
X375950D01*
X370650Y352950D02*
X375950D01*
X370600Y353000D02*
X375950D01*
X370600Y353050D02*
X375950D01*
X370550Y353100D02*
X375900D01*
X370550Y353150D02*
X375900D01*
X370500Y353200D02*
X375900D01*
X370500Y353250D02*
X375900D01*
X370400Y353300D02*
X375850D01*
X370400Y353350D02*
X375850D01*
X377200Y344700D02*
X377250D01*
X375450Y345050D02*
X375500D01*
X373400Y347750D02*
X378300D01*
X373300Y347800D02*
X378200D01*
X373300Y347850D02*
X378200D01*
X373300Y347900D02*
X378150D01*
X373250Y347950D02*
X378150D01*
X373200Y348000D02*
X378050D01*
X373200Y348050D02*
X378050D01*
X373150Y348100D02*
X378000D01*
X373150Y348150D02*
X378000D01*
X373100Y348200D02*
X377950D01*
X373100Y348250D02*
X377900D01*
X373050Y348300D02*
X377850D01*
X373000Y348350D02*
X377850D01*
X373000Y348400D02*
X377800D01*
X373000Y348450D02*
X377800D01*
X372950Y348500D02*
X377750D01*
X372950Y348550D02*
X377700D01*
X372850Y348600D02*
X377650D01*
X372850Y348650D02*
X377650D01*
X372850Y348700D02*
X377600D01*
X372800Y348750D02*
X377600D01*
X372750Y348800D02*
X377550D01*
X372750Y348850D02*
X377500D01*
X372700Y348900D02*
X377500D01*
X365850Y373000D02*
X367200D01*
X365050D02*
X365650D01*
X364300D02*
X364750D01*
X363900D02*
X364100D01*
X363000D02*
X363850D01*
X365800Y373050D02*
X367200D01*
X365000D02*
X365550D01*
X364300D02*
X364700D01*
X363000D02*
X364100D01*
X365750Y373100D02*
X367200D01*
X364950D02*
X365500D01*
X364300D02*
X364700D01*
X363050D02*
X364100D01*
X368550Y373150D02*
X369250D01*
X365700D02*
X367250D01*
X364900D02*
X365450D01*
X364300D02*
X364650D01*
X363050D02*
X364100D01*
X368550Y373200D02*
X369150D01*
X365650D02*
X367250D01*
X364900D02*
X365400D01*
X364300D02*
X364650D01*
X363000D02*
X364100D01*
X368550Y373250D02*
X369050D01*
X365550D02*
X367250D01*
X364850D02*
X365300D01*
X364250D02*
X364600D01*
X363100D02*
X364100D01*
X368650Y373300D02*
X369000D01*
X365500D02*
X367300D01*
X364850D02*
X365250D01*
X364250D02*
X364600D01*
X363100D02*
X364100D01*
X368700Y373350D02*
X368950D01*
X365450D02*
X367300D01*
X364800D02*
X365200D01*
X364200D02*
X364550D01*
X363100D02*
X364100D01*
X368800Y373400D02*
X368900D01*
X365400D02*
X367300D01*
X364750D02*
X365150D01*
X364200D02*
X364550D01*
X363100D02*
X364100D01*
X369500Y373450D02*
X369950D01*
X365400D02*
X367300D01*
X364750D02*
X365100D01*
X364200D02*
X364500D01*
X363150D02*
X364100D01*
X369500Y373500D02*
X369950D01*
X365350D02*
X367300D01*
X364700D02*
X365100D01*
X364200D02*
X364500D01*
X363150D02*
X364100D01*
X369500Y373550D02*
X369850D01*
X365300D02*
X367350D01*
X364650D02*
X365050D01*
X364200D02*
X364500D01*
X363150D02*
X364100D01*
X369500Y373600D02*
X369850D01*
X365250D02*
X367400D01*
X364650D02*
X365000D01*
X364200D02*
X364500D01*
X363150D02*
X364100D01*
X369500Y373650D02*
X369850D01*
X365250D02*
X367400D01*
X364600D02*
X365000D01*
X364200D02*
X364450D01*
X363150D02*
X364150D01*
X369550Y373700D02*
X369750D01*
X365200D02*
X367400D01*
X364600D02*
X364950D01*
X363250D02*
X364450D01*
X365200Y373750D02*
X367400D01*
X364600D02*
X364900D01*
X363250D02*
X364450D01*
X365150Y373800D02*
X367400D01*
X364600D02*
X364900D01*
X363250D02*
X364450D01*
X365150Y373850D02*
X367500D01*
X364600D02*
X364900D01*
X363300D02*
X364450D01*
X363200D02*
X363250D01*
X365100Y373900D02*
X367500D01*
X364550D02*
X364850D01*
X363300D02*
X364400D01*
X365050Y373950D02*
X367500D01*
X364550D02*
X364850D01*
X363350D02*
X364400D01*
X365050Y374000D02*
X367500D01*
X364500D02*
X364800D01*
X363350D02*
X364400D01*
X365000Y374050D02*
X367500D01*
X364500D02*
X364800D01*
X363350D02*
X364400D01*
X365000Y374100D02*
X367550D01*
X364500D02*
X364800D01*
X363350D02*
X364400D01*
X365000Y374150D02*
X367550D01*
X364500D02*
X364800D01*
X363400D02*
X364400D01*
X366350Y374200D02*
X367550D01*
X364950D02*
X366150D01*
X364500D02*
X364750D01*
X363400D02*
X364400D01*
X366800Y374250D02*
X367550D01*
X366400D02*
X366700D01*
X364950D02*
X366050D01*
X364500D02*
X364750D01*
X363450D02*
X364400D01*
X366800Y374300D02*
X367550D01*
X366500D02*
X366750D01*
X364900D02*
X365950D01*
X364500D02*
X364750D01*
X363450D02*
X364450D01*
X366900Y374350D02*
X367600D01*
X366550D02*
X366800D01*
X364900D02*
X365900D01*
X364500D02*
X364750D01*
X363450D02*
X364450D01*
X366950Y374400D02*
X367600D01*
X366600D02*
X366850D01*
X364900D02*
X365850D01*
X363450D02*
X364700D01*
X367000Y374450D02*
X367650D01*
X366650D02*
X366850D01*
X364900D02*
X365800D01*
X363500D02*
X364700D01*
X367050Y374500D02*
X367650D01*
X366700D02*
X366900D01*
X364850D02*
X365750D01*
X363500D02*
X364700D01*
X367100Y374550D02*
X367650D01*
X366700D02*
X366900D01*
X364850D02*
X365750D01*
X363550D02*
X364700D01*
X367100Y374600D02*
X367700D01*
X366750D02*
X366950D01*
X364800D02*
X365700D01*
X363550D02*
X364700D01*
X367150Y374650D02*
X367750D01*
X366800D02*
X366950D01*
X364800D02*
X365650D01*
X363550D02*
X364700D01*
X367150Y374700D02*
X367750D01*
X366800D02*
X366950D01*
X364800D02*
X365650D01*
X363600D02*
X364700D01*
X367200Y374750D02*
X367750D01*
X366800D02*
X367000D01*
X364800D02*
X365650D01*
X363600D02*
X364650D01*
X367200Y374800D02*
X367750D01*
X366850D02*
X367000D01*
X364800D02*
X365600D01*
X363650D02*
X364650D01*
X367200Y374850D02*
X367750D01*
X366850D02*
X367000D01*
X364750D02*
X365600D01*
X363650D02*
X364700D01*
X367200Y374900D02*
X367800D01*
X366850D02*
X367000D01*
X364750D02*
X365600D01*
X363650D02*
X364700D01*
X367250Y374950D02*
X367800D01*
X366850D02*
X367000D01*
X363700D02*
X365550D01*
X367250Y375000D02*
X367850D01*
X366900D02*
X367000D01*
X363700D02*
X365550D01*
X367250Y375050D02*
X367850D01*
X366900D02*
X367000D01*
X363750D02*
X365550D01*
X367250Y375100D02*
X367850D01*
X366900D02*
X367000D01*
X366150D02*
X366600D01*
X363750D02*
X365550D01*
X367250Y375150D02*
X367850D01*
X366900D02*
X367000D01*
X366100D02*
X366650D01*
X363750D02*
X365550D01*
X367250Y375200D02*
X367850D01*
X366850D02*
X367000D01*
X366400D02*
X366700D01*
X366050D02*
X366350D01*
X363800D02*
X365550D01*
X367250Y375250D02*
X367900D01*
X366850D02*
X367000D01*
X366500D02*
X366750D01*
X366000D02*
X366250D01*
X363800D02*
X365600D01*
X367250Y375300D02*
X367900D01*
X366850D02*
X367000D01*
X366550D02*
X366750D01*
X366000D02*
X366200D01*
X363850D02*
X365600D01*
X367200Y375350D02*
X367900D01*
X366850D02*
X367000D01*
X366600D02*
X366750D01*
X366000D02*
X366150D01*
X363850D02*
X365600D01*
X367200Y375400D02*
X367950D01*
X366800D02*
X367000D01*
X366600D02*
X366750D01*
X366000D02*
X366150D01*
X363850D02*
X365650D01*
X367200Y375450D02*
X367950D01*
X366800D02*
X366950D01*
X366650D02*
X366750D01*
X366000D02*
X366100D01*
X363900D02*
X365650D01*
X367200Y375500D02*
X367950D01*
X366800D02*
X366950D01*
X366600D02*
X366750D01*
X366000D02*
X366150D01*
X364050D02*
X365650D01*
X363850D02*
X364000D01*
X367150Y375550D02*
X367950D01*
X366600D02*
X366950D01*
X366000D02*
X366150D01*
X363950D02*
X365700D01*
X367150Y375600D02*
X367950D01*
X366550D02*
X366900D01*
X366000D02*
X366200D01*
X363950D02*
X365750D01*
X367100Y375650D02*
X368000D01*
X366500D02*
X366900D01*
X366000D02*
X366250D01*
X364000D02*
X365750D01*
X367100Y375700D02*
X367950D01*
X366400D02*
X366850D01*
X366050D02*
X366350D01*
X364000D02*
X365800D01*
X367050Y375750D02*
X368050D01*
X366100D02*
X366850D01*
X364050D02*
X365850D01*
X367050Y375800D02*
X368050D01*
X366150D02*
X366800D01*
X364050D02*
X365900D01*
X366900Y375850D02*
X368100D01*
X366500D02*
X366750D01*
X364100D02*
X365950D01*
X364000D02*
X364050D01*
X366900Y375900D02*
X368100D01*
X366400D02*
X366700D01*
X364250D02*
X366050D01*
X364100D02*
X364200D01*
X366800Y375950D02*
X368100D01*
X366250D02*
X366650D01*
X364150D02*
X366150D01*
X366750Y376000D02*
X368100D01*
X364150D02*
X366600D01*
X366550Y376050D02*
X368100D01*
X364150D02*
X366450D01*
X364150Y376100D02*
X368150D01*
X364200Y376150D02*
X368150D01*
X364250Y376200D02*
X368150D01*
X364300Y376250D02*
X368250D01*
X364300Y376300D02*
X368250D01*
X364300Y376350D02*
X368250D01*
X364350Y376400D02*
X368300D01*
X364300Y376450D02*
X368300D01*
X364400Y376500D02*
X368300D01*
X364450Y376550D02*
X368350D01*
X364450Y376600D02*
X368350D01*
X364500Y376650D02*
X368350D01*
X364400D02*
X364450D01*
X364500Y376700D02*
X368400D01*
X364500Y376750D02*
X368400D01*
X364550Y376800D02*
X368450D01*
X364600Y376850D02*
X368400D01*
X364600Y376900D02*
X368500D01*
X364650Y376950D02*
X368500D01*
X364650Y377000D02*
X368550D01*
X364700Y377050D02*
X368550D01*
X364600D02*
X364650D01*
X364700Y377100D02*
X368550D01*
X364750Y377150D02*
X368550D01*
X364750Y377200D02*
X368600D01*
X364800Y377250D02*
X368600D01*
X364800Y377300D02*
X368600D01*
X364850Y377350D02*
X368700D01*
X364850Y377400D02*
X368700D01*
X364900Y377450D02*
X368750D01*
X364950Y377500D02*
X368700D01*
X364950Y377550D02*
X368750D01*
X365050Y377600D02*
X368800D01*
X365050Y377650D02*
X368850D01*
X365100Y377700D02*
X368800D01*
X365100Y377750D02*
X368900D01*
X365200Y377800D02*
X368900D01*
X365200Y377850D02*
X368900D01*
X365250Y377900D02*
X368950D01*
X365250Y377950D02*
X369000D01*
X365300Y378000D02*
X369000D01*
X365300Y378050D02*
X369000D01*
X365350Y378100D02*
X369050D01*
X365400Y378150D02*
X369050D01*
X365400Y378200D02*
X369100D01*
X365450Y378250D02*
X369100D01*
X365500Y378300D02*
X369150D01*
X365500Y378350D02*
X369150D01*
X365550Y378400D02*
X369150D01*
X365600Y378450D02*
X369200D01*
X365600Y378500D02*
X369250D01*
X365650Y378550D02*
X369250D01*
X365700Y378600D02*
X369300D01*
X365750Y378650D02*
X369300D01*
X365800Y378700D02*
X369350D01*
X365750Y378750D02*
X369350D01*
X365850Y378800D02*
X369400D01*
X365850Y378850D02*
X369400D01*
X365950Y378900D02*
X369500D01*
X365950Y378950D02*
X369550D01*
X366000Y379000D02*
X369550D01*
X366000Y379050D02*
X369600D01*
X366100Y379100D02*
X369600D01*
X366100Y379150D02*
X369650D01*
X366150Y379200D02*
X369650D01*
X366200Y379250D02*
X369700D01*
X366250Y379300D02*
X369750D01*
X366250Y379350D02*
X369750D01*
X366350Y379400D02*
X369750D01*
X366350Y379450D02*
X369800D01*
X366450Y379500D02*
X369850D01*
X366450Y379550D02*
X369850D01*
X366500Y379600D02*
X369850D01*
X366500Y379650D02*
X369900D01*
X366600Y379700D02*
X369950D01*
X366600Y379750D02*
X370000D01*
X366650Y379800D02*
X370000D01*
X366700Y379850D02*
X370050D01*
X366700Y379900D02*
X370050D01*
X366750Y379950D02*
X370100D01*
X366800Y380000D02*
X370150D01*
X366850Y380050D02*
X370200D01*
X366900Y380100D02*
X370250D01*
X366950Y380150D02*
X370250D01*
X363100Y365200D02*
X366250D01*
X363200Y365250D02*
X366200D01*
X363250Y365300D02*
X366200D01*
X363450Y365350D02*
X366250D01*
X363600Y365400D02*
X366200D01*
X363750Y365450D02*
X366200D01*
X363600D02*
X363650D01*
X363800Y365500D02*
X366200D01*
X362800D02*
X362850D01*
X363800Y365550D02*
X366200D01*
X363900Y365600D02*
X366200D01*
X363900Y365650D02*
X366200D01*
X364000Y365700D02*
X366200D01*
X364050Y365750D02*
X366200D01*
X364100Y365800D02*
X366200D01*
X364100Y365850D02*
X366200D01*
X364100Y365900D02*
X366200D01*
X364200Y365950D02*
X366200D01*
X364200Y366000D02*
X366200D01*
X364250Y366050D02*
X366200D01*
X364300Y366100D02*
X366200D01*
X364300Y366150D02*
X366200D01*
X364300Y366200D02*
X366200D01*
X364450Y366250D02*
X366200D01*
X364400Y366300D02*
X366200D01*
X364400Y366350D02*
X366200D01*
X364400Y366400D02*
X366150D01*
X364500Y366450D02*
X366150D01*
X364500Y366500D02*
X366150D01*
X364500Y366550D02*
X366150D01*
X364500Y366600D02*
X366150D01*
X364600Y366650D02*
X366150D01*
X364600Y366700D02*
X366150D01*
X364650Y366750D02*
X366150D01*
X364650Y366800D02*
X366150D01*
X364750Y366850D02*
X366150D01*
X364750Y366900D02*
X366150D01*
X364750Y366950D02*
X366150D01*
X364750Y367000D02*
X366200D01*
X364800Y367050D02*
X366200D01*
X364800Y367100D02*
X366200D01*
X364900Y367150D02*
X366200D01*
X364800D02*
X364850D01*
X364900Y367200D02*
X366200D01*
X364850Y367250D02*
X366200D01*
X364850Y367300D02*
X366200D01*
X364950Y367350D02*
X366200D01*
X364950Y367400D02*
X366200D01*
X365000Y367450D02*
X366200D01*
X364950Y367500D02*
X366200D01*
X365000Y367550D02*
X366200D01*
X365000Y367600D02*
X366200D01*
X365000Y367650D02*
X366200D01*
X365000Y367700D02*
X366200D01*
X365000Y367750D02*
X366200D01*
X364950Y367800D02*
X366200D01*
X364950Y367850D02*
X366200D01*
X364900Y367900D02*
X366200D01*
X364800D02*
X364850D01*
Y367950D02*
X366200D01*
X364750Y368000D02*
X366200D01*
X364650Y368050D02*
X366200D01*
X364700Y368100D02*
X366200D01*
X364650Y368150D02*
X366200D01*
X364600Y368200D02*
X366200D01*
X364550Y368250D02*
X366200D01*
X364550Y368300D02*
X366200D01*
X364400Y368350D02*
X366200D01*
X364450Y368400D02*
X366200D01*
X364300Y368450D02*
X366200D01*
X364350Y368500D02*
X366200D01*
X364250Y368550D02*
X366200D01*
X364250Y368600D02*
X366200D01*
X364150Y368650D02*
X366200D01*
X364150Y368700D02*
X366200D01*
X364100Y368750D02*
X366200D01*
X364100Y368800D02*
X366250D01*
X364000D02*
X364050D01*
X364000Y368850D02*
X366250D01*
X364000Y368900D02*
X366250D01*
X363900Y368950D02*
X366250D01*
X363950Y369000D02*
X366250D01*
X363800Y369050D02*
X366250D01*
X363800Y369100D02*
X366250D01*
X363700Y369150D02*
X366250D01*
X363750Y369200D02*
X366250D01*
X363700Y369250D02*
X366250D01*
X363650Y369300D02*
X366250D01*
X363600Y369350D02*
X366250D01*
X363550Y369400D02*
X366250D01*
X363450Y369450D02*
X366250D01*
X363450Y369500D02*
X366300D01*
X363400Y369550D02*
X366300D01*
X363350Y369600D02*
X366300D01*
X363350Y369650D02*
X366300D01*
X363250Y369700D02*
X366300D01*
X363250Y369750D02*
X366350D01*
X363200Y369800D02*
X366350D01*
X363150Y369850D02*
X366350D01*
X363200Y369900D02*
X366350D01*
X363050Y369950D02*
X366350D01*
X363000Y370000D02*
X366350D01*
X363000Y370050D02*
X366350D01*
X363000Y370100D02*
X366350D01*
X362950Y370150D02*
X366400D01*
X362950Y370200D02*
X366400D01*
X362950Y370250D02*
X366400D01*
X362900Y370300D02*
X366400D01*
X362850Y370350D02*
X366400D01*
X362800Y370400D02*
X366400D01*
X362800Y370450D02*
X366400D01*
X362800Y370500D02*
X366450D01*
X362750Y370550D02*
X366450D01*
X362650Y370600D02*
X366400D01*
X362550Y370650D02*
X366500D01*
X362500Y370700D02*
X366500D01*
X364700Y370750D02*
X366500D01*
X362500D02*
X364350D01*
X364600Y370800D02*
X366500D01*
X362400D02*
X364250D01*
X364500Y370850D02*
X366550D01*
X364400Y370900D02*
X366500D01*
X364250Y370950D02*
X366600D01*
X364250Y371000D02*
X366600D01*
X364150Y371050D02*
X366600D01*
X364100Y371100D02*
X366600D01*
X364050Y371150D02*
X366600D01*
X364000Y371200D02*
X366650D01*
X364000Y371250D02*
X366650D01*
X363950Y371300D02*
X366650D01*
X365100Y371350D02*
X366650D01*
X363900D02*
X364750D01*
X364950Y371400D02*
X366650D01*
X363900D02*
X364600D01*
X364800Y371450D02*
X366700D01*
X363850D02*
X364500D01*
X364700Y371500D02*
X366700D01*
X363800D02*
X364400D01*
X364650Y371550D02*
X366700D01*
X363800D02*
X364300D01*
X362500D02*
X363650D01*
X364550Y371600D02*
X366700D01*
X363800D02*
X364250D01*
X362650D02*
X363600D01*
X362500D02*
X362550D01*
X364500Y371650D02*
X366700D01*
X363750D02*
X364200D01*
X362650D02*
X363600D01*
X367200Y371700D02*
X367400D01*
X364450D02*
X366700D01*
X363750D02*
X364150D01*
X362600D02*
X363600D01*
X367200Y371750D02*
X367450D01*
X364400D02*
X366700D01*
X363700D02*
X364100D01*
X362650D02*
X363600D01*
X367150Y371800D02*
X367700D01*
X364350D02*
X366700D01*
X363700D02*
X364050D01*
X362650D02*
X363600D01*
X367200Y371850D02*
X367750D01*
X365450D02*
X366700D01*
X364300D02*
X365200D01*
X363700D02*
X364050D01*
X362700D02*
X363600D01*
X367200Y371900D02*
X367800D01*
X365400D02*
X366750D01*
X364250D02*
X365100D01*
X363700D02*
X364000D01*
X362700D02*
X363600D01*
X367200Y371950D02*
X367800D01*
X365250D02*
X366700D01*
X364250D02*
X364900D01*
X363650D02*
X364000D01*
X362700D02*
X363600D01*
X368250Y372000D02*
X368450D01*
X367250D02*
X367850D01*
X365150D02*
X366800D01*
X364200D02*
X364800D01*
X363600D02*
X363950D01*
X362700D02*
X363550D01*
X368200Y372050D02*
X368450D01*
X367300D02*
X367850D01*
X365050D02*
X366750D01*
X364150D02*
X364700D01*
X362750D02*
X363950D01*
X368150Y372100D02*
X368500D01*
X367350D02*
X367900D01*
X365000D02*
X366750D01*
X364150D02*
X364650D01*
X362750D02*
X363900D01*
X368150Y372150D02*
X368500D01*
X367400D02*
X367900D01*
X364900D02*
X366800D01*
X364100D02*
X364600D01*
X362700D02*
X363900D01*
X369000Y372200D02*
X369100D01*
X368100D02*
X368500D01*
X367450D02*
X368000D01*
X364850D02*
X366800D01*
X364100D02*
X364550D01*
X362750D02*
X363900D01*
X368950Y372250D02*
X369150D01*
X367450D02*
X368500D01*
X364800D02*
X366900D01*
X364100D02*
X364500D01*
X362800D02*
X363900D01*
X369750Y372300D02*
X369850D01*
X368950D02*
X369200D01*
X367500D02*
X368550D01*
X364750D02*
X366900D01*
X364050D02*
X364450D01*
X362800D02*
X363850D01*
X369700Y372350D02*
X369900D01*
X368900D02*
X369200D01*
X367500D02*
X368600D01*
X364700D02*
X366900D01*
X364050D02*
X364400D01*
X362800D02*
X363850D01*
X369650Y372400D02*
X369950D01*
X368900D02*
X369200D01*
X367550D02*
X368600D01*
X364650D02*
X366900D01*
X364000D02*
X364350D01*
X362850D02*
X363850D01*
X369650Y372450D02*
X369950D01*
X368800D02*
X369250D01*
X367600D02*
X368650D01*
X365800D02*
X366900D01*
X364600D02*
X365550D01*
X364000D02*
X364300D01*
X362850D02*
X363800D01*
X369600Y372500D02*
X370000D01*
X367600D02*
X369300D01*
X365750D02*
X367000D01*
X364600D02*
X365400D01*
X363950D02*
X364300D01*
X362800D02*
X363800D01*
X369550Y372550D02*
X370050D01*
X367650D02*
X369350D01*
X365650D02*
X367000D01*
X364550D02*
X365250D01*
X363950D02*
X364300D01*
X362850D02*
X363800D01*
X369500Y372600D02*
X370050D01*
X367700D02*
X369450D01*
X365550D02*
X367000D01*
X364500D02*
X365200D01*
X363950D02*
X364250D01*
X362900D02*
X363800D01*
X367750Y372650D02*
X370100D01*
X365450D02*
X367000D01*
X364500D02*
X365150D01*
X363950D02*
X364250D01*
X362900D02*
X363800D01*
X367800Y372700D02*
X370150D01*
X365400D02*
X367050D01*
X364450D02*
X365050D01*
X363900D02*
X364200D01*
X362900D02*
X363800D01*
X367850Y372750D02*
X368300D01*
X365300D02*
X367050D01*
X364450D02*
X365000D01*
X363900D02*
X364200D01*
X362950D02*
X363800D01*
X368000Y372800D02*
X368200D01*
X365250D02*
X367100D01*
X364400D02*
X364950D01*
X363900D02*
X364200D01*
X362950D02*
X363800D01*
X368100Y372850D02*
X368150D01*
X365200D02*
X367150D01*
X364400D02*
X364900D01*
X363900D02*
X364150D01*
X362950D02*
X363800D01*
X366000Y372900D02*
X367150D01*
X365150D02*
X365900D01*
X364350D02*
X364850D01*
X363900D02*
X364150D01*
X362950D02*
X363800D01*
X363650Y357600D02*
X369900D01*
X363650Y357650D02*
X369900D01*
X363650Y357700D02*
X369750D01*
X363650Y357750D02*
X369750D01*
X363650Y357800D02*
X369700D01*
X363650Y357850D02*
X369700D01*
X363600Y357900D02*
X369600D01*
X363600Y357950D02*
X369600D01*
X363600Y358000D02*
X369600D01*
X363600Y358050D02*
X369500D01*
X369450Y358100D02*
X369500D01*
X363600D02*
X369400D01*
X363600Y358150D02*
X369400D01*
X363600Y358200D02*
X369400D01*
X363600Y358250D02*
X369350D01*
X363650Y358300D02*
X369300D01*
X363600Y358350D02*
X369300D01*
X363600Y358400D02*
X369250D01*
X363600Y358450D02*
X369200D01*
X363600Y358500D02*
X369200D01*
X363600Y358550D02*
X369100D01*
X363600Y358600D02*
X369100D01*
X363600Y358650D02*
X369100D01*
X363600Y358700D02*
X369100D01*
X363600Y358750D02*
X369000D01*
X363600Y358800D02*
X369000D01*
X363600Y358850D02*
X369000D01*
X363600Y358900D02*
X369000D01*
X363600Y358950D02*
X369000D01*
X368950Y359000D02*
X369000D01*
X363600D02*
X368900D01*
X363600Y359050D02*
X368900D01*
X363600Y359100D02*
X368900D01*
X363600Y359150D02*
X368900D01*
X368850Y359200D02*
X368900D01*
X363600D02*
X368800D01*
X363600Y359250D02*
X368800D01*
X363600Y359300D02*
X368800D01*
X363600Y359350D02*
X368800D01*
X363600Y359400D02*
X368850D01*
X363550Y359450D02*
X368750D01*
X363600Y359500D02*
X368800D01*
X363550Y359550D02*
X368700D01*
X363500Y359600D02*
X368700D01*
X363550Y359650D02*
X368700D01*
X363550Y359700D02*
X368700D01*
X363550Y359750D02*
X368600D01*
X363550Y359800D02*
X368600D01*
X363550Y359850D02*
X368600D01*
X363550Y359900D02*
X368600D01*
X363500Y359950D02*
X368500D01*
X363500Y360000D02*
X368500D01*
X363500Y360050D02*
X368500D01*
X363500Y360100D02*
X368500D01*
X363500Y360150D02*
X368450D01*
X363500Y360200D02*
X368400D01*
X363450Y360250D02*
X368400D01*
X363450Y360300D02*
X368400D01*
X363450Y360350D02*
X368400D01*
X363450Y360400D02*
X368350D01*
X363400Y360450D02*
X368300D01*
X363400Y360500D02*
X368300D01*
X363350Y360550D02*
X368300D01*
X363350Y360600D02*
X368250D01*
X363350Y360650D02*
X368250D01*
X363350Y360700D02*
X368250D01*
X363350Y360750D02*
X368200D01*
X363300Y360800D02*
X368150D01*
X363300Y360850D02*
X368150D01*
X363300Y360900D02*
X368150D01*
X363250Y360950D02*
X368100D01*
X363200Y361000D02*
X368050D01*
X363200Y361050D02*
X368050D01*
X363150Y361100D02*
X368100D01*
X363200Y361150D02*
X368050D01*
X363200Y361200D02*
X368050D01*
X363150Y361250D02*
X367950D01*
X363150Y361300D02*
X367950D01*
X363100Y361350D02*
X367950D01*
X363100Y361400D02*
X367900D01*
X363100Y361450D02*
X367900D01*
X363100Y361500D02*
X367900D01*
X363000D02*
X363050D01*
X363000Y361550D02*
X367850D01*
X363050Y361600D02*
X367800D01*
X363000Y361650D02*
X367800D01*
X363000Y361700D02*
X367800D01*
X362900D02*
X362950D01*
X362900Y361750D02*
X367750D01*
X362950Y361800D02*
X367750D01*
X362900Y361850D02*
X367650D01*
X362900Y361900D02*
X367650D01*
X362850Y361950D02*
X367650D01*
X362800Y362000D02*
X367600D01*
X362850Y362050D02*
X367600D01*
X362850Y362100D02*
X367600D01*
X362800Y362150D02*
X367550D01*
X362750Y362200D02*
X367550D01*
X362750Y362250D02*
X367550D01*
X362750Y362300D02*
X367500D01*
X362650Y362350D02*
X367500D01*
X362700Y362400D02*
X367450D01*
X362650Y362450D02*
X367450D01*
X362650Y362500D02*
X367400D01*
X362600Y362550D02*
X367350D01*
X362600Y362600D02*
X367250D01*
X362550Y362650D02*
X367300D01*
X362500Y362700D02*
X367250D01*
X362500Y362750D02*
X367250D01*
X362500Y362800D02*
X367200D01*
X362400D02*
X362450D01*
Y362850D02*
X367200D01*
X367150Y362900D02*
X367200D01*
X362450D02*
X367100D01*
X362400Y362950D02*
X367100D01*
X363150Y349000D02*
X367200D01*
X363150Y349050D02*
X367200D01*
X363150Y349100D02*
X367250D01*
X363150Y349150D02*
X367200D01*
X363150Y349200D02*
X367250D01*
X363200Y349250D02*
X367250D01*
X363200Y349300D02*
X367250D01*
X363200Y349350D02*
X367250D01*
X363200Y349400D02*
X367300D01*
X363200Y349450D02*
X367300D01*
X363200Y349500D02*
X367300D01*
X363200Y349550D02*
X367300D01*
X363200Y349600D02*
X367300D01*
X363250Y349650D02*
X367300D01*
X363250Y349700D02*
X367350D01*
X363250Y349750D02*
X367350D01*
X363250Y349800D02*
X367350D01*
X363250Y349850D02*
X367400D01*
X363250Y349900D02*
X367400D01*
X363250Y349950D02*
X367400D01*
X363250Y350000D02*
X367400D01*
X363250Y350050D02*
X367400D01*
X363250Y350100D02*
X367400D01*
X363250Y350150D02*
X367450D01*
X363300Y350200D02*
X367450D01*
X363300Y350250D02*
X367450D01*
X363300Y350300D02*
X367450D01*
X363300Y350350D02*
X367500D01*
X363300Y350400D02*
X367500D01*
X363300Y350450D02*
X367550D01*
X363350Y350500D02*
X367550D01*
X363300Y350550D02*
X367550D01*
X363350Y350600D02*
X367550D01*
X363350Y350650D02*
X367600D01*
X363350Y350700D02*
X367600D01*
X363350Y350750D02*
X367600D01*
X363350Y350800D02*
X367650D01*
X363350Y350850D02*
X367650D01*
X363350Y350900D02*
X367650D01*
X363350Y350950D02*
X367700D01*
X363350Y351000D02*
X367700D01*
X363350Y351050D02*
X367700D01*
X363350Y351100D02*
X367700D01*
X363350Y351150D02*
X367750D01*
X363350Y351200D02*
X367800D01*
X363400Y351250D02*
X367800D01*
X363400Y351300D02*
X367800D01*
X363400Y351350D02*
X367800D01*
X363400Y351400D02*
X367850D01*
X363400Y351450D02*
X367850D01*
X363400Y351500D02*
X367850D01*
X363400Y351550D02*
X367900D01*
X363400Y351600D02*
X367900D01*
X363400Y351650D02*
X367950D01*
X363400Y351700D02*
X367950D01*
X363400Y351750D02*
X367950D01*
X363450Y351800D02*
X367950D01*
X363450Y351850D02*
X368000D01*
X363450Y351900D02*
X368000D01*
X363450Y351950D02*
X368000D01*
X363450Y352000D02*
X368050D01*
X363450Y352050D02*
X368050D01*
X363450Y352100D02*
X368050D01*
X363450Y352150D02*
X368100D01*
X363450Y352200D02*
X368100D01*
X363500Y352250D02*
X368150D01*
X363500Y352300D02*
X368150D01*
X363500Y352350D02*
X368150D01*
X363500Y352400D02*
X368200D01*
X363500Y352450D02*
X368200D01*
X363500Y352500D02*
X368200D01*
X363500Y352550D02*
X368200D01*
X363500Y352600D02*
X368250D01*
X363500Y352650D02*
X368250D01*
X363450Y352700D02*
X368300D01*
X363450Y352750D02*
X368300D01*
X363500Y352800D02*
X368350D01*
X363500Y352850D02*
X368350D01*
X363500Y352900D02*
X368350D01*
X363500Y352950D02*
X368400D01*
X363500Y353000D02*
X368400D01*
X363500Y353050D02*
X368400D01*
X363500Y353100D02*
X368450D01*
X363500Y353150D02*
X368500D01*
X363500Y353200D02*
X368500D01*
X363500Y353250D02*
X368500D01*
X363500Y353300D02*
X368550D01*
X363550Y353350D02*
X368550D01*
X363550Y353400D02*
X368600D01*
X363550Y353450D02*
X368600D01*
X363500Y353500D02*
X368650D01*
X363500Y353550D02*
X368650D01*
X363500Y353600D02*
X368700D01*
X363500Y353650D02*
X368700D01*
X363500Y353700D02*
X368700D01*
X363500Y353750D02*
X368750D01*
X363500Y353800D02*
X368750D01*
X363500Y353850D02*
X368800D01*
X363550Y353900D02*
X368800D01*
X363550Y353950D02*
X368800D01*
X363550Y354000D02*
X368900D01*
X363550Y354050D02*
X368900D01*
X363550Y354100D02*
X368900D01*
X363550Y354150D02*
X368900D01*
X363550Y354200D02*
X368950D01*
X363550Y354250D02*
X369000D01*
X363550Y354300D02*
X369000D01*
X363550Y354350D02*
X369000D01*
X363550Y354400D02*
X369100D01*
X363550Y354450D02*
X369100D01*
X363550Y354500D02*
X369100D01*
X363550Y354550D02*
X369150D01*
X363550Y354600D02*
X369200D01*
X363600Y354650D02*
X369250D01*
X363550Y354700D02*
X369200D01*
X363550Y354750D02*
X369200D01*
X363550Y354800D02*
X369250D01*
X363600Y354850D02*
X369300D01*
X363600Y354900D02*
X369350D01*
X365000Y344900D02*
X367000D01*
X364850Y344950D02*
X367550D01*
X364350Y345000D02*
X367900D01*
X364100Y345050D02*
X368300D01*
X363900Y345100D02*
X368500D01*
X363650Y345150D02*
X368650D01*
X363550Y345200D02*
X368700D01*
X363350Y345250D02*
X368750D01*
X363250Y345300D02*
X368800D01*
X363200Y345350D02*
X368800D01*
X363200Y345400D02*
X368850D01*
X363150Y345450D02*
X368850D01*
X363100Y345500D02*
X368850D01*
X363050Y345550D02*
X368850D01*
X363050Y345600D02*
X368900D01*
X363050Y345650D02*
X368850D01*
X363050Y345700D02*
X368850D01*
X363050Y345750D02*
X368850D01*
X363050Y345800D02*
X368850D01*
X363050Y345850D02*
X368800D01*
X363050Y345900D02*
X368800D01*
X363050Y345950D02*
X368800D01*
X363050Y346000D02*
X368800D01*
X363050Y346050D02*
X368800D01*
X363050Y346100D02*
X368750D01*
X363050Y346150D02*
X368750D01*
X363050Y346200D02*
X368750D01*
X363050Y346250D02*
X368700D01*
X363050Y346300D02*
X368650D01*
X363050Y346350D02*
X368650D01*
X363050Y346400D02*
X368650D01*
X363050Y346450D02*
X368550D01*
X363050Y346500D02*
X368550D01*
X363050Y346550D02*
X368500D01*
X363050Y346600D02*
X368500D01*
X363050Y346650D02*
X368400D01*
X363050Y346700D02*
X368400D01*
X363050Y346750D02*
X368350D01*
X363050Y346800D02*
X368350D01*
X363050Y346850D02*
X368250D01*
X363050Y346900D02*
X368200D01*
X363050Y346950D02*
X368150D01*
X363050Y347000D02*
X368050D01*
X363050Y347050D02*
X368000D01*
X363050Y347100D02*
X367900D01*
X363050Y347150D02*
X367900D01*
X363050Y347200D02*
X367800D01*
X363050Y347250D02*
X367700D01*
X363050Y347300D02*
X367650D01*
X363050Y347350D02*
X367550D01*
X363050Y347400D02*
X367450D01*
X363100Y347450D02*
X367400D01*
X363050Y347500D02*
X367300D01*
X363050Y347550D02*
X367200D01*
X363050Y347600D02*
X367100D01*
X363050Y347650D02*
X367100D01*
X363050Y347700D02*
X367050D01*
X363100Y347750D02*
X367050D01*
X363100Y347800D02*
X367100D01*
X363100Y347850D02*
X367100D01*
X363100Y347900D02*
X367050D01*
X363100Y347950D02*
X367100D01*
X363100Y348000D02*
X367100D01*
X363100Y348050D02*
X367100D01*
X363100Y348100D02*
X367100D01*
X363100Y348150D02*
X367100D01*
X363100Y348200D02*
X367100D01*
X363100Y348250D02*
X367150D01*
X363100Y348300D02*
X367100D01*
X363100Y348350D02*
X367100D01*
X363100Y348400D02*
X367100D01*
X363100Y348450D02*
X367150D01*
X363150Y348500D02*
X367150D01*
X363150Y348550D02*
X367150D01*
X363150Y348600D02*
X367150D01*
X363150Y348650D02*
X367150D01*
X363150Y348700D02*
X367150D01*
X363150Y348750D02*
X367200D01*
X363150Y348800D02*
X367200D01*
X363150Y348850D02*
X367200D01*
X363150Y348900D02*
X367200D01*
X360150Y373000D02*
X361100D01*
X356750D02*
X358300D01*
X360100Y373050D02*
X361050D01*
X356700D02*
X358300D01*
X360100Y373100D02*
X361050D01*
X356700D02*
X358300D01*
X356600D02*
X356650D01*
X360100Y373150D02*
X360950D01*
X360000D02*
X360050D01*
X356600D02*
X358300D01*
X359950Y373200D02*
X360900D01*
X356650D02*
X358250D01*
X359900Y373250D02*
X360900D01*
X356600D02*
X358150D01*
X359850Y373300D02*
X360800D01*
X356600D02*
X358150D01*
X359800Y373350D02*
X360700D01*
X356550D02*
X358150D01*
X359750Y373400D02*
X360700D01*
X356550D02*
X358100D01*
X356450D02*
X356500D01*
X359700Y373450D02*
X360600D01*
X356500D02*
X358100D01*
X359700Y373500D02*
X360600D01*
X356500D02*
X358100D01*
X356400D02*
X356450D01*
X359600Y373550D02*
X360500D01*
X356450D02*
X358050D01*
X359600Y373600D02*
X360500D01*
X356450D02*
X358000D01*
X359450Y373650D02*
X360500D01*
X356400D02*
X358000D01*
X359400Y373700D02*
X360350D01*
X356400D02*
X357900D01*
X359400Y373750D02*
X360300D01*
X356300D02*
X357900D01*
X359300Y373800D02*
X360300D01*
X356350D02*
X357850D01*
X360250Y373850D02*
X360300D01*
X359250D02*
X360200D01*
X356300D02*
X357850D01*
X359200Y373900D02*
X360150D01*
X356300D02*
X357800D01*
X356200D02*
X356250D01*
X359100Y373950D02*
X360100D01*
X356250D02*
X357800D01*
X359100Y374000D02*
X360100D01*
X356250D02*
X357750D01*
X359000Y374050D02*
X359950D01*
X356200D02*
X357750D01*
X358950Y374100D02*
X359950D01*
X356200D02*
X357700D01*
X359900Y374150D02*
X359950D01*
X358900D02*
X359850D01*
X356100D02*
X357650D01*
X358850Y374200D02*
X359850D01*
X356150D02*
X357650D01*
X359800Y374250D02*
X359850D01*
X358800D02*
X359750D01*
X356150D02*
X357600D01*
X358750Y374300D02*
X359750D01*
X357550D02*
X357600D01*
X356000D02*
X357500D01*
X358700Y374350D02*
X359650D01*
X356000D02*
X357500D01*
X358650Y374400D02*
X359650D01*
X356050D02*
X357500D01*
X358600Y374450D02*
X359600D01*
X356000D02*
X357550D01*
X358550Y374500D02*
X359500D01*
X356000D02*
X357500D01*
X358500Y374550D02*
X359450D01*
X355950D02*
X357450D01*
X358450Y374600D02*
X359500D01*
X355950D02*
X357400D01*
X359400Y374650D02*
X359450D01*
X358350D02*
X359350D01*
X355900D02*
X357400D01*
X358300Y374700D02*
X359300D01*
X355900D02*
X357350D01*
X358250Y374750D02*
X359200D01*
X355800D02*
X357300D01*
X358200Y374800D02*
X359150D01*
X355800D02*
X357300D01*
X358150Y374850D02*
X359100D01*
X355800D02*
X357250D01*
X358100Y374900D02*
X359050D01*
X355800D02*
X357200D01*
X358050Y374950D02*
X359000D01*
X355750D02*
X357200D01*
X358050Y375000D02*
X358950D01*
X355750D02*
X357150D01*
X357950Y375050D02*
X358900D01*
X355700D02*
X357100D01*
X357850Y375100D02*
X358850D01*
X355700D02*
X357100D01*
X355600D02*
X355650D01*
X357800Y375150D02*
X358850D01*
X357700D02*
X357750D01*
X355650D02*
X357150D01*
X357700Y375200D02*
X358750D01*
X355650D02*
X357050D01*
X357700Y375250D02*
X358650D01*
X357600D02*
X357650D01*
X355600D02*
X357050D01*
X357550Y375300D02*
X358700D01*
X355600D02*
X356950D01*
X357500Y375350D02*
X358650D01*
X355550D02*
X356900D01*
X357450Y375400D02*
X358550D01*
X355550D02*
X356900D01*
X358450Y375450D02*
X358500D01*
X357400D02*
X358400D01*
X355500D02*
X356800D01*
X357400Y375500D02*
X358400D01*
X355400D02*
X356800D01*
X357300Y375550D02*
X358300D01*
X355450D02*
X356750D01*
X357250Y375600D02*
X358300D01*
X355400D02*
X356750D01*
X358250Y375650D02*
X358300D01*
X357150D02*
X358200D01*
X355400D02*
X356700D01*
X357100Y375700D02*
X358200D01*
X355400D02*
X356700D01*
X357000Y375750D02*
X358100D01*
X355350D02*
X356600D01*
X357000Y375800D02*
X358100D01*
X356900D02*
X356950D01*
X355350D02*
X356600D01*
X358050Y375850D02*
X358100D01*
X356850D02*
X358000D01*
X355300D02*
X356550D01*
X356850Y375900D02*
X357950D01*
X355350D02*
X356550D01*
X356850Y375950D02*
X357850D01*
X356750D02*
X356800D01*
X355250D02*
X356400D01*
X356750Y376000D02*
X357900D01*
X355150D02*
X356450D01*
X357850Y376050D02*
X357900D01*
X356650D02*
X357750D01*
X355200D02*
X356400D01*
X356600Y376100D02*
X357700D01*
X355200D02*
X356350D01*
X355100D02*
X355150D01*
X356550Y376150D02*
X357650D01*
X355150D02*
X356400D01*
X356550Y376200D02*
X357600D01*
X355150D02*
X356350D01*
X356500Y376250D02*
X357550D01*
X355100D02*
X356350D01*
X355100Y376300D02*
X357500D01*
X355100Y376350D02*
X357450D01*
X355100Y376400D02*
X357400D01*
X355050Y376450D02*
X357350D01*
X355050Y376500D02*
X357350D01*
X355050Y376550D02*
X357250D01*
X355050Y376600D02*
X357200D01*
X355050Y376650D02*
X357150D01*
X355050Y376700D02*
X357150D01*
X355050Y376750D02*
X357050D01*
X355050Y376800D02*
X357050D01*
Y376850D02*
X357100D01*
X355100D02*
X356950D01*
X355100Y376900D02*
X356950D01*
X355100Y376950D02*
X356850D01*
X355100Y377000D02*
X356850D01*
X355150Y377050D02*
X356800D01*
X355150Y377100D02*
X356700D01*
X355100Y377150D02*
X356650D01*
X355200Y377200D02*
X356600D01*
X355250Y377250D02*
X356650D01*
X355300Y377300D02*
X356550D01*
X356500Y377350D02*
X356550D01*
X355300D02*
X356400D01*
X355500Y377400D02*
X356400D01*
X355550Y377450D02*
X356300D01*
X355950Y377500D02*
X356000D01*
X355750D02*
X355850D01*
X360350Y366250D02*
X362250D01*
X360250Y366300D02*
X362300D01*
X360300Y366350D02*
X362200D01*
X360250Y366400D02*
X362200D01*
X360250Y366450D02*
X362200D01*
X360200Y366500D02*
X362150D01*
X360100D02*
X360150D01*
Y366550D02*
X362100D01*
X360100Y366600D02*
X362100D01*
X360050Y366650D02*
X362100D01*
X360100Y366700D02*
X362050D01*
X360000Y366750D02*
X362000D01*
X360000Y366800D02*
X362000D01*
X359950Y366850D02*
X362000D01*
X359950Y366900D02*
X361900D01*
X359850Y366950D02*
X361900D01*
X359850Y367000D02*
X361850D01*
X359800Y367050D02*
X361800D01*
X359800Y367100D02*
X361800D01*
X359750Y367150D02*
X361800D01*
X359750Y367200D02*
X361750D01*
X359700Y367250D02*
X361650D01*
X359700Y367300D02*
X361700D01*
X359600D02*
X359650D01*
Y367350D02*
X361700D01*
X359650Y367400D02*
X361600D01*
X359600Y367450D02*
X361600D01*
X359600Y367500D02*
X361600D01*
X359500D02*
X359550D01*
Y367550D02*
X361550D01*
X359550Y367600D02*
X361500D01*
X359450Y367650D02*
X361450D01*
X359450Y367700D02*
X361450D01*
X359400Y367750D02*
X361400D01*
X359400Y367800D02*
X361400D01*
X359350Y367850D02*
X361350D01*
X359350Y367900D02*
X361350D01*
X359300Y367950D02*
X361300D01*
X359300Y368000D02*
X361300D01*
X359300Y368050D02*
X361300D01*
X359200Y368100D02*
X361200D01*
X359200Y368150D02*
X361200D01*
X359200Y368200D02*
X361200D01*
X359100Y368250D02*
X361200D01*
X359150Y368300D02*
X361150D01*
X359100Y368350D02*
X361050D01*
X359100Y368400D02*
X361100D01*
X359050Y368450D02*
X361050D01*
X359050Y368500D02*
X361000D01*
X359000Y368550D02*
X360950D01*
X359000Y368600D02*
X360900D01*
X358900Y368650D02*
X360900D01*
X358950Y368700D02*
X360900D01*
X360850Y368750D02*
X360900D01*
X358900D02*
X360800D01*
X358800Y368800D02*
X360800D01*
X358850Y368850D02*
X360800D01*
X358850Y368900D02*
X360750D01*
X358800Y368950D02*
X360700D01*
X358800Y369000D02*
X360700D01*
X358700D02*
X358750D01*
X358700Y369050D02*
X360650D01*
X358750Y369100D02*
X360600D01*
X358700Y369150D02*
X360550D01*
X358700Y369200D02*
X360500D01*
X358650Y369250D02*
X360400D01*
X358600Y369300D02*
X360450D01*
X358550Y369350D02*
X360450D01*
X358600Y369400D02*
X360400D01*
X358550Y369450D02*
X360350D01*
X358500Y369500D02*
X360350D01*
X358450Y369550D02*
X360300D01*
X358450Y369600D02*
X360300D01*
X358450Y369650D02*
X360250D01*
X358400Y369700D02*
X360250D01*
X360150Y369750D02*
X360200D01*
X358350D02*
X360100D01*
X358350Y369800D02*
X360100D01*
X358300Y369850D02*
X360100D01*
X358300Y369900D02*
X360150D01*
X358250Y369950D02*
X360050D01*
X358150Y370000D02*
X360000D01*
X358150Y370050D02*
X360050D01*
X359950Y370100D02*
X360050D01*
X358150D02*
X359900D01*
X358150Y370150D02*
X359900D01*
X358150Y370200D02*
X359900D01*
X358100Y370250D02*
X359900D01*
X358100Y370300D02*
X359950D01*
X358000D02*
X358050D01*
X358000Y370350D02*
X359800D01*
X358050Y370400D02*
X359800D01*
X358000Y370450D02*
X359800D01*
X358000Y370500D02*
X359750D01*
X357950Y370550D02*
X359700D01*
X357950Y370600D02*
X359700D01*
X357900Y370650D02*
X359700D01*
X357900Y370700D02*
X359650D01*
X357800Y370750D02*
X359550D01*
X357850Y370800D02*
X359550D01*
X357800Y370850D02*
X359500D01*
X357800Y370900D02*
X359550D01*
X357700Y370950D02*
X359500D01*
X357750Y371000D02*
X359500D01*
X359450Y371050D02*
X359500D01*
X357750D02*
X359400D01*
X357700Y371100D02*
X359400D01*
X357650Y371150D02*
X359400D01*
X357650Y371200D02*
X359350D01*
X357600Y371250D02*
X359350D01*
X357600Y371300D02*
X359300D01*
X357550Y371350D02*
X359300D01*
X357550Y371400D02*
X359200D01*
X357500Y371450D02*
X359200D01*
X357500Y371500D02*
X359150D01*
X357400D02*
X357450D01*
X357400Y371550D02*
X359150D01*
X357350Y371600D02*
X359050D01*
X357400Y371650D02*
X359100D01*
X357400Y371700D02*
X359050D01*
X357350Y371750D02*
X359050D01*
X357350Y371800D02*
X358950D01*
X361350Y371850D02*
X362250D01*
X357350D02*
X358950D01*
X361750Y371900D02*
X362250D01*
X361300D02*
X361700D01*
X357300D02*
X358950D01*
X357200D02*
X357250D01*
X361950Y371950D02*
X362200D01*
X361300D02*
X361900D01*
X357250D02*
X358950D01*
X361200Y372000D02*
X362150D01*
X357250D02*
X358900D01*
X361800Y372050D02*
X362050D01*
X361150D02*
X361750D01*
X357200D02*
X358900D01*
X361100Y372100D02*
X362050D01*
X357200D02*
X358850D01*
X361050Y372150D02*
X361950D01*
X357150D02*
X358800D01*
X361700Y372200D02*
X361950D01*
X361000D02*
X361650D01*
X357150D02*
X358800D01*
X360950Y372250D02*
X361850D01*
X357100D02*
X358750D01*
X360900Y372300D02*
X361850D01*
X357100D02*
X358750D01*
X360850Y372350D02*
X361750D01*
X357050D02*
X358750D01*
X360800Y372400D02*
X361750D01*
X357050D02*
X358700D01*
X356950D02*
X357000D01*
X360750Y372450D02*
X361750D01*
X357000D02*
X358650D01*
X360700Y372500D02*
X361650D01*
X357000D02*
X358600D01*
X360650Y372550D02*
X361550D01*
X356900D02*
X358550D01*
X360600Y372600D02*
X361550D01*
X356950D02*
X358550D01*
X360550Y372650D02*
X361450D01*
X356950D02*
X358550D01*
X361300Y372700D02*
X361400D01*
X360500D02*
X361250D01*
X356800D02*
X358500D01*
X360400Y372750D02*
X361350D01*
X356850D02*
X358400D01*
X360400Y372800D02*
X361350D01*
X356850D02*
X358400D01*
X361350Y372850D02*
X361400D01*
X360350D02*
X361250D01*
X356800D02*
X358450D01*
X360300Y372900D02*
X361200D01*
X356800D02*
X358400D01*
X361600Y364200D02*
X361650D01*
D14*
X509500Y365574D02*
X508451D01*
X508975D01*
Y362950D01*
X508451Y362426D01*
X507926D01*
X507401Y362950D01*
X510549Y362426D02*
X511599D01*
X511074D01*
Y365574D01*
X510549Y365050D01*
X540299Y421625D02*
Y423724D01*
X539774Y424249D01*
X538725D01*
X538200Y423724D01*
Y421625D01*
X538725Y421100D01*
X539774D01*
X539250Y422150D02*
X540299Y421100D01*
X539774D02*
X540299Y421625D01*
X541349Y421100D02*
X542398D01*
X541873D01*
Y424249D01*
X541349Y423724D01*
D15*
X398847Y365214D02*
X398323Y365739D01*
X397273D01*
X396748Y365214D01*
Y364690D01*
X397273Y364165D01*
X398323D01*
X398847Y363640D01*
Y363115D01*
X398323Y362591D01*
X397273D01*
X396748Y363115D01*
X399897Y364690D02*
Y363115D01*
X400422Y362591D01*
X400947Y363115D01*
X401471Y362591D01*
X401996Y363115D01*
Y364690D01*
X403046Y362591D02*
X404095D01*
X403570D01*
Y364690D01*
X403046D01*
X406194Y365214D02*
Y364690D01*
X405669D01*
X406719D01*
X406194D01*
Y363115D01*
X406719Y362591D01*
X410392Y364690D02*
X408818D01*
X408293Y364165D01*
Y363115D01*
X408818Y362591D01*
X410392D01*
X411442Y365739D02*
Y362591D01*
Y364165D01*
X411967Y364690D01*
X413016D01*
X413541Y364165D01*
Y362591D01*
X417739Y365739D02*
Y362591D01*
X419313D01*
X419838Y363115D01*
Y363640D01*
X419313Y364165D01*
X417739D01*
X419313D01*
X419838Y364690D01*
Y365214D01*
X419313Y365739D01*
X417739D01*
X421412Y362591D02*
X422462D01*
X422987Y363115D01*
Y364165D01*
X422462Y364690D01*
X421412D01*
X420888Y364165D01*
Y363115D01*
X421412Y362591D01*
X424036Y364690D02*
X426135Y362591D01*
X425086Y363640D01*
X426135Y364690D01*
X424036Y362591D01*
X430333D02*
Y365739D01*
X431908D01*
X432432Y365214D01*
Y364165D01*
X431908Y363640D01*
X430333D01*
X431383D02*
X432432Y362591D01*
X434007D02*
X435056D01*
X435581Y363115D01*
Y364165D01*
X435056Y364690D01*
X434007D01*
X433482Y364165D01*
Y363115D01*
X434007Y362591D01*
X436630Y365739D02*
Y362591D01*
X438205D01*
X438730Y363115D01*
Y363640D01*
Y364165D01*
X438205Y364690D01*
X436630D01*
X440304Y362591D02*
X441353D01*
X441878Y363115D01*
Y364165D01*
X441353Y364690D01*
X440304D01*
X439779Y364165D01*
Y363115D01*
X440304Y362591D01*
X443453Y365214D02*
Y364690D01*
X442928D01*
X443977D01*
X443453D01*
Y363115D01*
X443977Y362591D01*
X406194Y358489D02*
X405145D01*
X405669D01*
Y355865D01*
X405145Y355341D01*
X404620D01*
X404095Y355865D01*
X407768Y357440D02*
X408818D01*
X409343Y356915D01*
Y355341D01*
X407768D01*
X407244Y355865D01*
X407768Y356390D01*
X409343D01*
X410392Y355341D02*
Y358489D01*
Y356390D02*
X411967Y357440D01*
X410392Y356390D02*
X411967Y355341D01*
X415115D02*
X414066D01*
X413541Y355865D01*
Y356915D01*
X414066Y357440D01*
X415115D01*
X415640Y356915D01*
Y356390D01*
X413541D01*
X419838Y358489D02*
Y355341D01*
Y356915D01*
X421937D01*
Y358489D01*
Y355341D01*
X423511Y357440D02*
X424561D01*
X425086Y356915D01*
Y355341D01*
X423511D01*
X422987Y355865D01*
X423511Y356390D01*
X425086D01*
X426660Y355341D02*
Y357964D01*
Y356915D01*
X426135D01*
X427185D01*
X426660D01*
Y357964D01*
X427185Y358489D01*
X430333Y355341D02*
X429284D01*
X428759Y355865D01*
Y356915D01*
X429284Y357440D01*
X430333D01*
X430858Y356915D01*
Y356390D01*
X428759D01*
X431908Y355341D02*
X432957D01*
X432432D01*
Y358489D01*
X431908D01*
X436106Y355341D02*
X435056D01*
X434531Y355865D01*
Y356915D01*
X435056Y357440D01*
X436106D01*
X436630Y356915D01*
Y356390D01*
X434531D01*
X400684Y352289D02*
X402783D01*
X401734D01*
Y349140D01*
X403833Y351239D02*
Y349665D01*
X404357Y349140D01*
X405932D01*
Y348615D01*
X405407Y348091D01*
X404882D01*
X405932Y349140D02*
Y351239D01*
X406981Y349140D02*
X408031D01*
X407506D01*
Y352289D01*
X406981D01*
X411179Y349140D02*
X410130D01*
X409605Y349665D01*
Y350714D01*
X410130Y351239D01*
X411179D01*
X411704Y350714D01*
Y350190D01*
X409605D01*
X412754Y351239D02*
Y349140D01*
Y350190D01*
X413278Y350714D01*
X413803Y351239D01*
X414328D01*
X421150Y352289D02*
X420100D01*
X420625D01*
Y349665D01*
X420100Y349140D01*
X419576D01*
X419051Y349665D01*
X422724Y349140D02*
X423774D01*
X424298Y349665D01*
Y350714D01*
X423774Y351239D01*
X422724D01*
X422199Y350714D01*
Y349665D01*
X422724Y349140D01*
X425348Y352289D02*
Y349140D01*
Y350714D01*
X425873Y351239D01*
X426922D01*
X427447Y350714D01*
Y349140D01*
X428497D02*
Y351239D01*
X430071D01*
X430596Y350714D01*
Y349140D01*
X431645D02*
X433219D01*
X433744Y349665D01*
X433219Y350190D01*
X432170D01*
X431645Y350714D01*
X432170Y351239D01*
X433744D01*
X435319Y349140D02*
X436368D01*
X436893Y349665D01*
Y350714D01*
X436368Y351239D01*
X435319D01*
X434794Y350714D01*
Y349665D01*
X435319Y349140D01*
X437942D02*
Y351239D01*
X439517D01*
X440041Y350714D01*
Y349140D01*
X527190Y395714D02*
X526665Y396239D01*
X525615D01*
X525091Y395714D01*
Y393615D01*
X525615Y393091D01*
X526665D01*
X527190Y393615D01*
Y394665D01*
X526140D01*
X528239Y393091D02*
Y396239D01*
X530338Y393091D01*
Y396239D01*
X531388D02*
Y393091D01*
X532962D01*
X533487Y393615D01*
Y395714D01*
X532962Y396239D01*
X531388D01*
X549190D02*
X547090D01*
Y394665D01*
X548140Y395190D01*
X548665D01*
X549190Y394665D01*
Y393615D01*
X548665Y393091D01*
X547615D01*
X547090Y393615D01*
X550239Y396239D02*
Y394140D01*
X551289Y393091D01*
X552338Y394140D01*
Y396239D01*
X284719Y347739D02*
Y344590D01*
X286293D01*
X286818Y345115D01*
Y347214D01*
X286293Y347739D01*
X284719D01*
X287868Y344590D02*
X288917D01*
X288392D01*
Y347739D01*
X287868Y347214D01*
X293640Y347739D02*
Y344590D01*
X295214D01*
X295739Y345115D01*
Y347214D01*
X295214Y347739D01*
X293640D01*
X296789Y347214D02*
X297313Y347739D01*
X298363D01*
X298888Y347214D01*
Y346690D01*
X298363Y346165D01*
X297838D01*
X298363D01*
X298888Y345640D01*
Y345115D01*
X298363Y344590D01*
X297313D01*
X296789Y345115D01*
X303086Y347739D02*
Y344590D01*
X304660D01*
X305185Y345115D01*
Y347214D01*
X304660Y347739D01*
X303086D01*
X308333D02*
X306234D01*
Y346165D01*
X307284Y346690D01*
X307809D01*
X308333Y346165D01*
Y345115D01*
X307809Y344590D01*
X306759D01*
X306234Y345115D01*
X312532Y347739D02*
Y344590D01*
X314106D01*
X314631Y345115D01*
Y347214D01*
X314106Y347739D01*
X312532D01*
X315680D02*
X317779D01*
Y347214D01*
X315680Y345115D01*
Y344590D01*
X321977Y347739D02*
Y344590D01*
X323552D01*
X324076Y345115D01*
Y345640D01*
X323552Y346165D01*
X321977D01*
X323552D01*
X324076Y346690D01*
Y347214D01*
X323552Y347739D01*
X321977D01*
X325651Y344590D02*
X326700D01*
X327225Y345115D01*
Y346165D01*
X326700Y346690D01*
X325651D01*
X325126Y346165D01*
Y345115D01*
X325651Y344590D01*
X328799Y347214D02*
Y346690D01*
X328274D01*
X329324D01*
X328799D01*
Y345115D01*
X329324Y344590D01*
X331423Y347214D02*
Y346690D01*
X330898D01*
X331948D01*
X331423D01*
Y345115D01*
X331948Y344590D01*
X334047D02*
X335097D01*
X335621Y345115D01*
Y346165D01*
X335097Y346690D01*
X334047D01*
X333522Y346165D01*
Y345115D01*
X334047Y344590D01*
X336671D02*
Y346690D01*
X337196D01*
X337720Y346165D01*
Y344590D01*
Y346165D01*
X338245Y346690D01*
X338770Y346165D01*
Y344590D01*
X284719Y356289D02*
Y353140D01*
X286293D01*
X286818Y353665D01*
Y355764D01*
X286293Y356289D01*
X284719D01*
X289967Y353140D02*
X287868D01*
X289967Y355239D01*
Y355764D01*
X289442Y356289D01*
X288392D01*
X287868Y355764D01*
X294165Y356289D02*
Y353140D01*
X295739D01*
X296264Y353665D01*
Y355764D01*
X295739Y356289D01*
X294165D01*
X298888Y353140D02*
Y356289D01*
X297313Y354714D01*
X299412D01*
X303611Y356289D02*
Y353140D01*
X305185D01*
X305710Y353665D01*
Y355764D01*
X305185Y356289D01*
X303611D01*
X308858D02*
X307809Y355764D01*
X306759Y354714D01*
Y353665D01*
X307284Y353140D01*
X308333D01*
X308858Y353665D01*
Y354190D01*
X308333Y354714D01*
X306759D01*
X313056Y356289D02*
Y353140D01*
X314631D01*
X315155Y353665D01*
Y355764D01*
X314631Y356289D01*
X313056D01*
X316205Y355764D02*
X316730Y356289D01*
X317779D01*
X318304Y355764D01*
Y355239D01*
X317779Y354714D01*
X318304Y354190D01*
Y353665D01*
X317779Y353140D01*
X316730D01*
X316205Y353665D01*
Y354190D01*
X316730Y354714D01*
X316205Y355239D01*
Y355764D01*
X316730Y354714D02*
X317779D01*
X322502Y356289D02*
X324601D01*
X323552D01*
Y353140D01*
X326175D02*
X327225D01*
X327750Y353665D01*
Y354714D01*
X327225Y355239D01*
X326175D01*
X325651Y354714D01*
Y353665D01*
X326175Y353140D01*
X328799Y352091D02*
Y355239D01*
X330374D01*
X330898Y354714D01*
Y353665D01*
X330374Y353140D01*
X328799D01*
X543901Y436550D02*
X543376Y437074D01*
X542327D01*
X541802Y436550D01*
Y436025D01*
X542327Y435500D01*
X543376D01*
X543901Y434975D01*
Y434450D01*
X543376Y433926D01*
X542327D01*
X541802Y434450D01*
X544950Y437074D02*
Y433926D01*
X546000Y434975D01*
X547050Y433926D01*
Y437074D01*
X548099Y436550D02*
X548624Y437074D01*
X549673D01*
X550198Y436550D01*
Y436025D01*
X549673Y435500D01*
X550198Y434975D01*
Y434450D01*
X549673Y433926D01*
X548624D01*
X548099Y434450D01*
Y434975D01*
X548624Y435500D01*
X548099Y436025D01*
Y436550D01*
X548624Y435500D02*
X549673D01*
X292495Y489049D02*
X291971Y489574D01*
X290921D01*
X290396Y489049D01*
Y488525D01*
X290921Y488000D01*
X291971D01*
X292495Y487475D01*
Y486950D01*
X291971Y486426D01*
X290921D01*
X290396Y486950D01*
X293545Y489574D02*
Y486426D01*
X294595Y487475D01*
X295644Y486426D01*
Y489574D01*
X296693D02*
X298793D01*
Y489049D01*
X296693Y486950D01*
Y486426D01*
X490401Y480050D02*
X489876Y480574D01*
X488827D01*
X488302Y480050D01*
Y479525D01*
X488827Y479000D01*
X489876D01*
X490401Y478475D01*
Y477950D01*
X489876Y477426D01*
X488827D01*
X488302Y477950D01*
X491451Y480574D02*
Y477426D01*
X492500Y478475D01*
X493549Y477426D01*
Y480574D01*
X496698D02*
X495649Y480050D01*
X494599Y479000D01*
Y477950D01*
X495124Y477426D01*
X496173D01*
X496698Y477950D01*
Y478475D01*
X496173Y479000D01*
X494599D01*
X252401Y447549D02*
X251876Y448074D01*
X250827D01*
X250302Y447549D01*
Y447025D01*
X250827Y446500D01*
X251876D01*
X252401Y445975D01*
Y445450D01*
X251876Y444926D01*
X250827D01*
X250302Y445450D01*
X253450Y448074D02*
Y444926D01*
X254500Y445975D01*
X255550Y444926D01*
Y448074D01*
X258698D02*
X256599D01*
Y446500D01*
X257649Y447025D01*
X258173D01*
X258698Y446500D01*
Y445450D01*
X258173Y444926D01*
X257124D01*
X256599Y445450D01*
X445401Y474549D02*
X444876Y475074D01*
X443827D01*
X443302Y474549D01*
Y474025D01*
X443827Y473500D01*
X444876D01*
X445401Y472975D01*
Y472450D01*
X444876Y471926D01*
X443827D01*
X443302Y472450D01*
X446451Y475074D02*
Y471926D01*
X447500Y472975D01*
X448550Y471926D01*
Y475074D01*
X451173Y471926D02*
Y475074D01*
X449599Y473500D01*
X451698D01*
X232401Y403050D02*
X231876Y403574D01*
X230827D01*
X230302Y403050D01*
Y402525D01*
X230827Y402000D01*
X231876D01*
X232401Y401475D01*
Y400950D01*
X231876Y400426D01*
X230827D01*
X230302Y400950D01*
X233451Y403574D02*
Y400426D01*
X234500Y401475D01*
X235549Y400426D01*
Y403574D01*
X236599Y403050D02*
X237124Y403574D01*
X238173D01*
X238698Y403050D01*
Y402525D01*
X238173Y402000D01*
X237649D01*
X238173D01*
X238698Y401475D01*
Y400950D01*
X238173Y400426D01*
X237124D01*
X236599Y400950D01*
X367401Y463550D02*
X366876Y464074D01*
X365827D01*
X365302Y463550D01*
Y463025D01*
X365827Y462500D01*
X366876D01*
X367401Y461975D01*
Y461450D01*
X366876Y460926D01*
X365827D01*
X365302Y461450D01*
X368450Y464074D02*
Y460926D01*
X369500Y461975D01*
X370550Y460926D01*
Y464074D01*
X373698Y460926D02*
X371599D01*
X373698Y463025D01*
Y463550D01*
X373173Y464074D01*
X372124D01*
X371599Y463550D01*
X174926Y461550D02*
X174401Y462074D01*
X173351D01*
X172827Y461550D01*
Y461025D01*
X173351Y460500D01*
X174401D01*
X174926Y459975D01*
Y459450D01*
X174401Y458926D01*
X173351D01*
X172827Y459450D01*
X175975Y462074D02*
Y458926D01*
X177025Y459975D01*
X178074Y458926D01*
Y462074D01*
X179124Y458926D02*
X180173D01*
X179649D01*
Y462074D01*
X179124Y461550D01*
X499876Y441926D02*
Y445074D01*
X501450D01*
X501975Y444550D01*
Y443500D01*
X501450Y442975D01*
X499876D01*
X500926D02*
X501975Y441926D01*
X503025Y444550D02*
X503549Y445074D01*
X504599D01*
X505124Y444550D01*
Y444025D01*
X504599Y443500D01*
X505124Y442975D01*
Y442451D01*
X504599Y441926D01*
X503549D01*
X503025Y442451D01*
Y442975D01*
X503549Y443500D01*
X503025Y444025D01*
Y444550D01*
X503549Y443500D02*
X504599D01*
X289500Y474800D02*
Y477949D01*
X291074D01*
X291599Y477424D01*
Y476374D01*
X291074Y475849D01*
X289500D01*
X290549D02*
X291599Y474800D01*
X292649Y477949D02*
X294748D01*
Y477424D01*
X292649Y475325D01*
Y474800D01*
X445000Y448100D02*
Y451249D01*
X446574D01*
X447099Y450724D01*
Y449674D01*
X446574Y449150D01*
X445000D01*
X446049D02*
X447099Y448100D01*
X450248Y451249D02*
X449198Y450724D01*
X448149Y449674D01*
Y448625D01*
X448673Y448100D01*
X449723D01*
X450248Y448625D01*
Y449150D01*
X449723Y449674D01*
X448149D01*
X189376Y399426D02*
Y402574D01*
X190951D01*
X191475Y402049D01*
Y401000D01*
X190951Y400475D01*
X189376D01*
X190426D02*
X191475Y399426D01*
X194624Y402574D02*
X192525D01*
Y401000D01*
X193574Y401525D01*
X194099D01*
X194624Y401000D01*
Y399951D01*
X194099Y399426D01*
X193050D01*
X192525Y399951D01*
X467376Y423426D02*
Y426574D01*
X468951D01*
X469475Y426050D01*
Y425000D01*
X468951Y424475D01*
X467376D01*
X468426D02*
X469475Y423426D01*
X472099D02*
Y426574D01*
X470525Y425000D01*
X472624D01*
X265376Y426426D02*
Y429574D01*
X266950D01*
X267475Y429049D01*
Y428000D01*
X266950Y427475D01*
X265376D01*
X266426D02*
X267475Y426426D01*
X268525Y429049D02*
X269050Y429574D01*
X270099D01*
X270624Y429049D01*
Y428525D01*
X270099Y428000D01*
X269574D01*
X270099D01*
X270624Y427475D01*
Y426951D01*
X270099Y426426D01*
X269050D01*
X268525Y426951D01*
X372876Y440926D02*
Y444074D01*
X374450D01*
X374975Y443549D01*
Y442500D01*
X374450Y441975D01*
X372876D01*
X373926D02*
X374975Y440926D01*
X378124D02*
X376025D01*
X378124Y443025D01*
Y443549D01*
X377599Y444074D01*
X376550D01*
X376025Y443549D01*
X149500Y456200D02*
Y459349D01*
X151074D01*
X151599Y458824D01*
Y457774D01*
X151074Y457249D01*
X149500D01*
X150549D02*
X151599Y456200D01*
X152649D02*
X153698D01*
X153173D01*
Y459349D01*
X152649Y458824D01*
D16*
X291499Y394698D02*
X289499D01*
X290499D01*
Y389700D01*
X289499Y388700D01*
X288500D01*
X287500Y389700D01*
X297497Y388700D02*
X293498D01*
X297497Y392699D01*
Y393698D01*
X296497Y394698D01*
X294498D01*
X293498Y393698D01*
M02*
