G04*
G04 #@! TF.GenerationSoftware,Altium Limited,Altium Designer,20.1.12 (249)*
G04*
G04 Layer_Color=255*
%FSLAX25Y25*%
%MOIN*%
G70*
G04*
G04 #@! TF.SameCoordinates,2B819FEC-D567-4356-858B-597537979E9D*
G04*
G04*
G04 #@! TF.FilePolarity,Positive*
G04*
G01*
G75*
%ADD15R,0.03937X0.05906*%
%ADD16R,0.05906X0.03937*%
%ADD17R,0.09843X0.09055*%
%ADD27C,0.06063*%
%ADD28R,0.06063X0.06063*%
%ADD34R,0.08563X0.08563*%
%ADD35C,0.11024*%
%ADD36C,0.06102*%
%ADD37R,0.06102X0.06102*%
%ADD38R,0.06299X0.06299*%
%ADD39C,0.06299*%
%ADD40C,0.08563*%
%ADD41R,0.11024X0.11024*%
D15*
X203083Y400500D02*
D03*
X369201Y453000D02*
D03*
X381799D02*
D03*
X255201Y437500D02*
D03*
X267799D02*
D03*
X215681Y400500D02*
D03*
X463362Y433500D02*
D03*
X475961D02*
D03*
X151642Y449500D02*
D03*
X164240D02*
D03*
D16*
X293000Y469500D02*
D03*
X500500Y465299D02*
D03*
Y452701D02*
D03*
X448500Y442799D02*
D03*
X293000Y456902D02*
D03*
X448500Y430201D02*
D03*
D17*
X542965Y379000D02*
D03*
X526035D02*
D03*
D27*
X152705Y490547D02*
D03*
X178295D02*
D03*
X152705Y472831D02*
D03*
X368610Y490547D02*
D03*
X394201D02*
D03*
X368610Y472831D02*
D03*
D28*
X394201D02*
D03*
X178295D02*
D03*
D34*
X215035Y422614D02*
D03*
X422941D02*
D03*
D35*
X319087Y468579D02*
D03*
X526992D02*
D03*
X338102Y487083D02*
D03*
Y468579D02*
D03*
Y450075D02*
D03*
X319087Y487083D02*
D03*
X546008D02*
D03*
Y468579D02*
D03*
Y450075D02*
D03*
X526992Y487083D02*
D03*
D36*
X528000Y352000D02*
D03*
X303500Y380000D02*
D03*
X313500D02*
D03*
X323500D02*
D03*
X293500Y370000D02*
D03*
X303500D02*
D03*
X313500D02*
D03*
X323500D02*
D03*
D37*
X538000Y352000D02*
D03*
X293500Y380000D02*
D03*
D38*
X263232Y464465D02*
D03*
X471138D02*
D03*
D39*
X263232Y484465D02*
D03*
X471138D02*
D03*
D40*
X215035Y486000D02*
D03*
Y457260D02*
D03*
X422941Y486000D02*
D03*
Y457260D02*
D03*
D41*
X319087Y450075D02*
D03*
X526992D02*
D03*
M02*
