G04*
G04 #@! TF.GenerationSoftware,Altium Limited,Altium Designer,21.1.1 (26)*
G04*
G04 Layer_Color=255*
%FSLAX25Y25*%
%MOIN*%
G70*
G04*
G04 #@! TF.SameCoordinates,4237B591-F435-4F68-AEF5-34D50A6B78B7*
G04*
G04*
G04 #@! TF.FilePolarity,Positive*
G04*
G01*
G75*
%ADD29C,0.06063*%
%ADD30R,0.06063X0.06063*%
%ADD37R,0.08563X0.08563*%
%ADD38C,0.11024*%
%ADD39C,0.06102*%
%ADD40R,0.06102X0.06102*%
%ADD41R,0.06299X0.06299*%
%ADD42C,0.06299*%
%ADD43C,0.08563*%
%ADD44R,0.11024X0.11024*%
D29*
X152705Y490547D02*
D03*
X178295D02*
D03*
X152705Y472831D02*
D03*
X368610Y490547D02*
D03*
X394201D02*
D03*
X368610Y472831D02*
D03*
D30*
X394201D02*
D03*
X178295D02*
D03*
D37*
X215035Y422614D02*
D03*
X422941D02*
D03*
D38*
X319087Y468579D02*
D03*
X526992D02*
D03*
X338102Y487083D02*
D03*
Y468579D02*
D03*
Y450075D02*
D03*
X319087Y487083D02*
D03*
X546008D02*
D03*
Y468579D02*
D03*
Y450075D02*
D03*
X526992Y487083D02*
D03*
D39*
X528000Y352000D02*
D03*
X303500Y380000D02*
D03*
X313500D02*
D03*
X323500D02*
D03*
X293500Y370000D02*
D03*
X303500D02*
D03*
X313500D02*
D03*
X323500D02*
D03*
D40*
X538000Y352000D02*
D03*
X293500Y380000D02*
D03*
D41*
X263232Y464465D02*
D03*
X471138D02*
D03*
D42*
X263232Y484465D02*
D03*
X471138D02*
D03*
D43*
X215035Y486000D02*
D03*
Y457260D02*
D03*
X422941Y486000D02*
D03*
Y457260D02*
D03*
D44*
X319087Y450075D02*
D03*
X526992D02*
D03*
M02*
