G04*
G04 #@! TF.GenerationSoftware,Altium Limited,Altium Designer,21.1.1 (26)*
G04*
G04 Layer_Color=16711935*
%FSLAX25Y25*%
%MOIN*%
G70*
G04*
G04 #@! TF.SameCoordinates,BE8B2EE9-7010-4F0F-96DB-CACD0705D76A*
G04*
G04*
G04 #@! TF.FilePolarity,Positive*
G04*
G01*
G75*
%ADD13C,0.00787*%
G36*
X538082Y379000D02*
X537773D01*
Y380968D01*
X537768Y380963D01*
X537754Y380949D01*
X537730Y380930D01*
X537694Y380903D01*
X537653Y380870D01*
X537601Y380835D01*
X537544Y380796D01*
X537478Y380755D01*
X537476D01*
X537470Y380750D01*
X537462Y380744D01*
X537448Y380739D01*
X537432Y380728D01*
X537413Y380720D01*
X537369Y380695D01*
X537320Y380671D01*
X537265Y380643D01*
X537208Y380619D01*
X537153Y380597D01*
Y380895D01*
X537156Y380897D01*
X537164Y380900D01*
X537178Y380908D01*
X537197Y380916D01*
X537219Y380927D01*
X537246Y380944D01*
X537276Y380960D01*
X537306Y380977D01*
X537377Y381020D01*
X537454Y381072D01*
X537533Y381127D01*
X537607Y381189D01*
X537609Y381192D01*
X537615Y381198D01*
X537626Y381206D01*
X537640Y381219D01*
X537653Y381236D01*
X537672Y381252D01*
X537713Y381299D01*
X537760Y381348D01*
X537806Y381405D01*
X537847Y381465D01*
X537882Y381528D01*
X538082D01*
Y379000D01*
D02*
G37*
G36*
X535466Y381517D02*
X535499D01*
X535532Y381514D01*
X535606Y381511D01*
X535679Y381503D01*
X535753Y381495D01*
X535786Y381487D01*
X535816Y381482D01*
X535818D01*
X535827Y381479D01*
X535838Y381476D01*
X535851Y381471D01*
X535870Y381465D01*
X535892Y381460D01*
X535944Y381441D01*
X536001Y381416D01*
X536061Y381386D01*
X536124Y381348D01*
X536184Y381301D01*
X536187Y381299D01*
X536193Y381293D01*
X536203Y381285D01*
X536217Y381271D01*
X536234Y381255D01*
X536253Y381233D01*
X536274Y381211D01*
X536296Y381184D01*
X536321Y381154D01*
X536345Y381121D01*
X536370Y381086D01*
X536395Y381047D01*
X536441Y380963D01*
X536482Y380870D01*
Y380867D01*
X536487Y380859D01*
X536490Y380843D01*
X536498Y380824D01*
X536507Y380799D01*
X536515Y380769D01*
X536523Y380736D01*
X536534Y380698D01*
X536542Y380654D01*
X536550Y380608D01*
X536558Y380559D01*
X536567Y380507D01*
X536575Y380452D01*
X536578Y380395D01*
X536583Y380272D01*
Y380269D01*
Y380258D01*
Y380245D01*
Y380223D01*
X536580Y380198D01*
Y380168D01*
X536578Y380136D01*
X536575Y380100D01*
X536567Y380021D01*
X536553Y379936D01*
X536537Y379849D01*
X536515Y379762D01*
Y379759D01*
X536512Y379751D01*
X536507Y379740D01*
X536504Y379726D01*
X536496Y379707D01*
X536487Y379685D01*
X536468Y379633D01*
X536444Y379576D01*
X536414Y379513D01*
X536381Y379453D01*
X536343Y379396D01*
Y379393D01*
X536337Y379390D01*
X536332Y379382D01*
X536324Y379371D01*
X536305Y379347D01*
X536274Y379314D01*
X536242Y379276D01*
X536203Y379238D01*
X536160Y379202D01*
X536113Y379167D01*
X536111D01*
X536108Y379164D01*
X536092Y379153D01*
X536064Y379139D01*
X536029Y379120D01*
X535985Y379101D01*
X535933Y379079D01*
X535873Y379060D01*
X535810Y379041D01*
X535808D01*
X535802Y379038D01*
X535794D01*
X535780Y379035D01*
X535764Y379033D01*
X535742Y379027D01*
X535720Y379025D01*
X535696Y379022D01*
X535636Y379014D01*
X535567Y379005D01*
X535491Y379003D01*
X535409Y379000D01*
X534500D01*
Y381520D01*
X535439D01*
X535466Y381517D01*
D02*
G37*
G36*
X375500Y450480D02*
X374329D01*
X374299Y450483D01*
X374269D01*
X374233Y450486D01*
X374192Y450488D01*
X374111Y450497D01*
X374026Y450510D01*
X373944Y450527D01*
X373908Y450538D01*
X373873Y450549D01*
X373870D01*
X373865Y450551D01*
X373857Y450557D01*
X373843Y450562D01*
X373810Y450578D01*
X373772Y450603D01*
X373726Y450636D01*
X373679Y450679D01*
X373633Y450729D01*
X373592Y450789D01*
Y450792D01*
X373586Y450797D01*
X373581Y450805D01*
X373575Y450819D01*
X373567Y450835D01*
X373559Y450854D01*
X373548Y450876D01*
X373537Y450901D01*
X373518Y450958D01*
X373502Y451021D01*
X373491Y451092D01*
X373485Y451168D01*
Y451171D01*
Y451179D01*
Y451195D01*
X373488Y451212D01*
X373491Y451236D01*
X373494Y451264D01*
X373499Y451294D01*
X373507Y451327D01*
X373529Y451398D01*
X373543Y451436D01*
X373559Y451474D01*
X373578Y451512D01*
X373603Y451550D01*
X373630Y451586D01*
X373660Y451621D01*
X373663Y451624D01*
X373668Y451630D01*
X373679Y451638D01*
X373693Y451651D01*
X373712Y451665D01*
X373734Y451681D01*
X373761Y451701D01*
X373794Y451720D01*
X373829Y451739D01*
X373868Y451758D01*
X373911Y451777D01*
X373960Y451796D01*
X374012Y451813D01*
X374069Y451829D01*
X374132Y451842D01*
X374198Y451853D01*
X374195D01*
X374192Y451856D01*
X374176Y451864D01*
X374151Y451878D01*
X374121Y451894D01*
X374089Y451913D01*
X374056Y451933D01*
X374023Y451957D01*
X373996Y451979D01*
X373993Y451982D01*
X373990Y451985D01*
X373982Y451993D01*
X373971Y452004D01*
X373958Y452017D01*
X373941Y452034D01*
X373906Y452072D01*
X373865Y452121D01*
X373818Y452178D01*
X373769Y452244D01*
X373720Y452315D01*
X373283Y453000D01*
X373701D01*
X374034Y452476D01*
X374037Y452473D01*
X374040Y452465D01*
X374048Y452454D01*
X374059Y452438D01*
X374069Y452419D01*
X374086Y452397D01*
X374119Y452348D01*
X374157Y452290D01*
X374195Y452233D01*
X374236Y452178D01*
X374274Y452129D01*
Y452126D01*
X374280Y452124D01*
X374291Y452110D01*
X374307Y452088D01*
X374332Y452064D01*
X374356Y452036D01*
X374386Y452009D01*
X374416Y451982D01*
X374444Y451963D01*
X374446Y451960D01*
X374457Y451954D01*
X374471Y451946D01*
X374490Y451935D01*
X374515Y451924D01*
X374539Y451913D01*
X374566Y451903D01*
X374596Y451894D01*
X374599D01*
X374607Y451892D01*
X374621Y451889D01*
X374640Y451886D01*
X374667D01*
X374700Y451884D01*
X374738Y451881D01*
X375167D01*
Y453000D01*
X375500D01*
Y450480D01*
D02*
G37*
G36*
X373130Y452995D02*
Y452981D01*
Y452959D01*
X373128Y452932D01*
X373125Y452899D01*
X373117Y452864D01*
X373109Y452825D01*
X373095Y452787D01*
Y452784D01*
X373092Y452779D01*
X373090Y452771D01*
X373084Y452757D01*
X373076Y452743D01*
X373068Y452724D01*
X373046Y452681D01*
X373019Y452629D01*
X372983Y452571D01*
X372942Y452511D01*
X372893Y452451D01*
X372890Y452449D01*
X372887Y452443D01*
X372879Y452435D01*
X372866Y452421D01*
X372852Y452408D01*
X372833Y452388D01*
X372814Y452367D01*
X372789Y452342D01*
X372762Y452315D01*
X372732Y452287D01*
X372699Y452255D01*
X372661Y452222D01*
X372623Y452186D01*
X372579Y452151D01*
X372535Y452113D01*
X372486Y452072D01*
X372481Y452069D01*
X372467Y452056D01*
X372448Y452039D01*
X372421Y452014D01*
X372388Y451987D01*
X372350Y451954D01*
X372306Y451919D01*
X372262Y451878D01*
X372169Y451793D01*
X372079Y451703D01*
X372036Y451660D01*
X371995Y451616D01*
X371959Y451575D01*
X371929Y451537D01*
X371926Y451534D01*
X371924Y451529D01*
X371916Y451518D01*
X371907Y451504D01*
X371894Y451485D01*
X371883Y451466D01*
X371855Y451417D01*
X371828Y451359D01*
X371804Y451297D01*
X371787Y451231D01*
X371784Y451198D01*
X371782Y451165D01*
Y451163D01*
Y451157D01*
Y451146D01*
X371784Y451135D01*
Y451119D01*
X371790Y451100D01*
X371798Y451059D01*
X371815Y451010D01*
X371839Y450958D01*
X371853Y450931D01*
X371872Y450906D01*
X371891Y450881D01*
X371916Y450857D01*
X371918Y450854D01*
X371921Y450851D01*
X371929Y450846D01*
X371940Y450838D01*
X371954Y450827D01*
X371970Y450816D01*
X372008Y450792D01*
X372060Y450770D01*
X372118Y450748D01*
X372186Y450734D01*
X372224Y450729D01*
X372284D01*
X372301Y450731D01*
X372320D01*
X372341Y450737D01*
X372391Y450745D01*
X372448Y450761D01*
X372508Y450786D01*
X372538Y450802D01*
X372568Y450819D01*
X372595Y450841D01*
X372623Y450865D01*
X372625Y450868D01*
X372628Y450871D01*
X372634Y450879D01*
X372644Y450890D01*
X372653Y450903D01*
X372664Y450920D01*
X372677Y450939D01*
X372688Y450961D01*
X372702Y450985D01*
X372713Y451013D01*
X372735Y451078D01*
X372751Y451149D01*
X372754Y451190D01*
X372756Y451234D01*
X373073Y451201D01*
Y451195D01*
X373070Y451185D01*
X373068Y451168D01*
X373065Y451144D01*
X373059Y451114D01*
X373051Y451078D01*
X373043Y451040D01*
X373029Y450999D01*
X373016Y450958D01*
X372999Y450912D01*
X372977Y450868D01*
X372956Y450824D01*
X372928Y450778D01*
X372898Y450737D01*
X372866Y450696D01*
X372827Y450660D01*
X372825Y450658D01*
X372816Y450652D01*
X372806Y450644D01*
X372789Y450630D01*
X372767Y450617D01*
X372740Y450600D01*
X372710Y450584D01*
X372674Y450565D01*
X372636Y450549D01*
X372593Y450532D01*
X372546Y450516D01*
X372494Y450502D01*
X372440Y450488D01*
X372382Y450480D01*
X372320Y450475D01*
X372254Y450472D01*
X372219D01*
X372194Y450475D01*
X372164Y450478D01*
X372129Y450483D01*
X372088Y450488D01*
X372047Y450497D01*
X372000Y450507D01*
X371954Y450521D01*
X371905Y450538D01*
X371858Y450557D01*
X371809Y450581D01*
X371763Y450609D01*
X371719Y450639D01*
X371678Y450674D01*
X371675Y450677D01*
X371670Y450682D01*
X371659Y450696D01*
X371645Y450710D01*
X371629Y450729D01*
X371610Y450753D01*
X371591Y450780D01*
X371572Y450813D01*
X371552Y450846D01*
X371533Y450884D01*
X371514Y450925D01*
X371498Y450969D01*
X371484Y451018D01*
X371473Y451067D01*
X371468Y451119D01*
X371465Y451174D01*
Y451176D01*
Y451179D01*
Y451187D01*
Y451198D01*
X371468Y451228D01*
X371473Y451266D01*
X371481Y451313D01*
X371492Y451362D01*
X371506Y451417D01*
X371528Y451471D01*
Y451474D01*
X371531Y451477D01*
X371533Y451485D01*
X371539Y451496D01*
X371555Y451526D01*
X371577Y451564D01*
X371607Y451611D01*
X371643Y451662D01*
X371684Y451717D01*
X371735Y451777D01*
X371738Y451780D01*
X371741Y451785D01*
X371752Y451793D01*
X371763Y451807D01*
X371779Y451823D01*
X371798Y451842D01*
X371820Y451867D01*
X371847Y451892D01*
X371880Y451922D01*
X371916Y451954D01*
X371954Y451993D01*
X371997Y452031D01*
X372044Y452075D01*
X372096Y452118D01*
X372153Y452167D01*
X372213Y452219D01*
X372216Y452222D01*
X372224Y452230D01*
X372240Y452241D01*
X372257Y452257D01*
X372281Y452277D01*
X372306Y452298D01*
X372363Y452348D01*
X372423Y452399D01*
X372481Y452454D01*
X372508Y452479D01*
X372533Y452500D01*
X372554Y452522D01*
X372571Y452539D01*
X372573Y452541D01*
X372584Y452552D01*
X372598Y452569D01*
X372617Y452591D01*
X372639Y452615D01*
X372661Y452642D01*
X372705Y452703D01*
X371462D01*
Y453000D01*
X373130D01*
Y452995D01*
D02*
G37*
G36*
X499768Y463065D02*
X499793D01*
X499820Y463060D01*
X499853Y463057D01*
X499889Y463049D01*
X499927Y463040D01*
X499970Y463027D01*
X500014Y463013D01*
X500058Y462994D01*
X500104Y462972D01*
X500151Y462945D01*
X500194Y462915D01*
X500241Y462879D01*
X500282Y462838D01*
X500284Y462836D01*
X500290Y462827D01*
X500301Y462814D01*
X500314Y462797D01*
X500333Y462773D01*
X500350Y462746D01*
X500372Y462713D01*
X500391Y462677D01*
X500410Y462636D01*
X500432Y462590D01*
X500448Y462541D01*
X500465Y462489D01*
X500481Y462432D01*
X500492Y462371D01*
X500497Y462306D01*
X500500Y462238D01*
Y462221D01*
X500497Y462202D01*
Y462175D01*
X500495Y462145D01*
X500489Y462107D01*
X500481Y462066D01*
X500473Y462022D01*
X500462Y461976D01*
X500445Y461927D01*
X500429Y461877D01*
X500407Y461826D01*
X500383Y461776D01*
X500353Y461727D01*
X500320Y461678D01*
X500282Y461634D01*
X500279Y461632D01*
X500271Y461623D01*
X500260Y461613D01*
X500241Y461599D01*
X500219Y461583D01*
X500194Y461563D01*
X500164Y461542D01*
X500129Y461522D01*
X500091Y461501D01*
X500050Y461479D01*
X500003Y461460D01*
X499957Y461443D01*
X499905Y461430D01*
X499848Y461419D01*
X499790Y461411D01*
X499730Y461408D01*
X499727D01*
X499719D01*
X499706D01*
X499689Y461411D01*
X499667D01*
X499643Y461413D01*
X499615Y461419D01*
X499585Y461424D01*
X499523Y461438D01*
X499454Y461460D01*
X499386Y461490D01*
X499353Y461509D01*
X499321Y461531D01*
X499318Y461533D01*
X499312Y461536D01*
X499304Y461544D01*
X499293Y461555D01*
X499280Y461566D01*
X499266Y461583D01*
X499247Y461602D01*
X499231Y461623D01*
X499192Y461673D01*
X499154Y461733D01*
X499121Y461804D01*
X499094Y461886D01*
Y461883D01*
X499091Y461877D01*
X499086Y461866D01*
X499081Y461856D01*
X499075Y461839D01*
X499064Y461820D01*
X499042Y461779D01*
X499015Y461733D01*
X498979Y461686D01*
X498941Y461640D01*
X498895Y461602D01*
X498892D01*
X498889Y461599D01*
X498881Y461593D01*
X498870Y461588D01*
X498843Y461572D01*
X498807Y461555D01*
X498761Y461539D01*
X498706Y461522D01*
X498646Y461512D01*
X498581Y461509D01*
X498578D01*
X498570D01*
X498554Y461512D01*
X498534D01*
X498513Y461514D01*
X498485Y461520D01*
X498455Y461525D01*
X498420Y461533D01*
X498384Y461544D01*
X498349Y461558D01*
X498311Y461572D01*
X498270Y461591D01*
X498231Y461615D01*
X498193Y461640D01*
X498155Y461670D01*
X498119Y461705D01*
X498117Y461708D01*
X498111Y461714D01*
X498103Y461725D01*
X498090Y461741D01*
X498076Y461760D01*
X498059Y461785D01*
X498043Y461812D01*
X498024Y461845D01*
X498008Y461880D01*
X497991Y461921D01*
X497975Y461962D01*
X497961Y462008D01*
X497948Y462060D01*
X497939Y462112D01*
X497934Y462170D01*
X497931Y462229D01*
Y462262D01*
X497934Y462284D01*
X497937Y462311D01*
X497942Y462344D01*
X497948Y462380D01*
X497956Y462421D01*
X497967Y462462D01*
X497977Y462505D01*
X497994Y462549D01*
X498013Y462593D01*
X498035Y462639D01*
X498062Y462680D01*
X498090Y462724D01*
X498125Y462762D01*
X498128Y462765D01*
X498133Y462770D01*
X498144Y462781D01*
X498158Y462795D01*
X498177Y462808D01*
X498199Y462825D01*
X498226Y462844D01*
X498253Y462863D01*
X498286Y462882D01*
X498321Y462901D01*
X498360Y462918D01*
X498401Y462931D01*
X498444Y462945D01*
X498491Y462956D01*
X498540Y462961D01*
X498589Y462964D01*
X498592D01*
X498597D01*
X498605D01*
X498619D01*
X498633Y462961D01*
X498652Y462958D01*
X498693Y462953D01*
X498739Y462942D01*
X498791Y462926D01*
X498843Y462901D01*
X498895Y462871D01*
X498898D01*
X498900Y462866D01*
X498917Y462855D01*
X498939Y462833D01*
X498969Y462803D01*
X498998Y462762D01*
X499034Y462715D01*
X499064Y462658D01*
X499094Y462593D01*
Y462595D01*
X499097Y462604D01*
X499102Y462614D01*
X499108Y462631D01*
X499116Y462650D01*
X499127Y462672D01*
X499154Y462724D01*
X499187Y462781D01*
X499231Y462838D01*
X499280Y462896D01*
X499340Y462945D01*
X499342Y462948D01*
X499348Y462950D01*
X499356Y462956D01*
X499370Y462964D01*
X499386Y462972D01*
X499405Y462983D01*
X499427Y462994D01*
X499452Y463008D01*
X499509Y463029D01*
X499577Y463049D01*
X499654Y463062D01*
X499695Y463068D01*
X499738D01*
X499741D01*
X499752D01*
X499768Y463065D01*
D02*
G37*
G36*
X500459Y460799D02*
X499935Y460466D01*
X499932Y460463D01*
X499924Y460461D01*
X499913Y460452D01*
X499897Y460441D01*
X499878Y460430D01*
X499856Y460414D01*
X499807Y460381D01*
X499749Y460343D01*
X499692Y460305D01*
X499637Y460264D01*
X499588Y460226D01*
X499585D01*
X499583Y460220D01*
X499569Y460209D01*
X499547Y460193D01*
X499523Y460168D01*
X499495Y460144D01*
X499468Y460114D01*
X499441Y460084D01*
X499422Y460056D01*
X499419Y460054D01*
X499413Y460043D01*
X499405Y460029D01*
X499394Y460010D01*
X499383Y459985D01*
X499373Y459961D01*
X499362Y459934D01*
X499353Y459904D01*
Y459901D01*
X499351Y459893D01*
X499348Y459879D01*
X499345Y459860D01*
Y459833D01*
X499342Y459800D01*
X499340Y459762D01*
Y459333D01*
X500459D01*
Y459000D01*
X497939D01*
Y460171D01*
X497942Y460201D01*
Y460231D01*
X497945Y460267D01*
X497948Y460308D01*
X497956Y460390D01*
X497969Y460474D01*
X497986Y460556D01*
X497997Y460592D01*
X498008Y460627D01*
Y460630D01*
X498010Y460635D01*
X498016Y460643D01*
X498021Y460657D01*
X498038Y460690D01*
X498062Y460728D01*
X498095Y460774D01*
X498139Y460821D01*
X498188Y460867D01*
X498248Y460908D01*
X498250D01*
X498256Y460914D01*
X498264Y460919D01*
X498278Y460925D01*
X498294Y460933D01*
X498313Y460941D01*
X498335Y460952D01*
X498360Y460963D01*
X498417Y460982D01*
X498480Y460998D01*
X498551Y461009D01*
X498627Y461015D01*
X498630D01*
X498638D01*
X498655D01*
X498671Y461012D01*
X498696Y461009D01*
X498723Y461006D01*
X498753Y461001D01*
X498786Y460993D01*
X498857Y460971D01*
X498895Y460957D01*
X498933Y460941D01*
X498971Y460922D01*
X499010Y460897D01*
X499045Y460870D01*
X499081Y460840D01*
X499083Y460837D01*
X499089Y460832D01*
X499097Y460821D01*
X499111Y460807D01*
X499124Y460788D01*
X499141Y460766D01*
X499160Y460739D01*
X499179Y460706D01*
X499198Y460671D01*
X499217Y460633D01*
X499236Y460589D01*
X499255Y460540D01*
X499272Y460488D01*
X499288Y460430D01*
X499302Y460368D01*
X499312Y460302D01*
Y460305D01*
X499315Y460308D01*
X499323Y460324D01*
X499337Y460349D01*
X499353Y460379D01*
X499373Y460411D01*
X499392Y460444D01*
X499416Y460477D01*
X499438Y460504D01*
X499441Y460507D01*
X499443Y460510D01*
X499452Y460518D01*
X499463Y460529D01*
X499476Y460542D01*
X499493Y460559D01*
X499531Y460594D01*
X499580Y460635D01*
X499637Y460682D01*
X499703Y460731D01*
X499774Y460780D01*
X500459Y461217D01*
Y460799D01*
D02*
G37*
G36*
X258320Y437497D02*
X258341D01*
X258371Y437495D01*
X258404Y437489D01*
X258440Y437484D01*
X258481Y437475D01*
X258524Y437465D01*
X258568Y437451D01*
X258614Y437437D01*
X258661Y437418D01*
X258707Y437394D01*
X258751Y437369D01*
X258797Y437339D01*
X258838Y437303D01*
X258841Y437301D01*
X258846Y437295D01*
X258857Y437284D01*
X258874Y437268D01*
X258890Y437249D01*
X258909Y437224D01*
X258928Y437197D01*
X258950Y437164D01*
X258972Y437132D01*
X258994Y437090D01*
X259016Y437050D01*
X259035Y437003D01*
X259051Y436954D01*
X259068Y436902D01*
X259079Y436848D01*
X259087Y436790D01*
X258778Y436749D01*
Y436752D01*
X258775Y436760D01*
X258773Y436774D01*
X258767Y436793D01*
X258762Y436815D01*
X258756Y436839D01*
X258737Y436897D01*
X258713Y436960D01*
X258683Y437022D01*
X258645Y437080D01*
X258623Y437104D01*
X258601Y437129D01*
X258598D01*
X258595Y437134D01*
X258587Y437140D01*
X258579Y437148D01*
X258552Y437164D01*
X258513Y437186D01*
X258467Y437208D01*
X258415Y437224D01*
X258352Y437238D01*
X258287Y437243D01*
X258265D01*
X258249Y437241D01*
X258232Y437238D01*
X258208Y437235D01*
X258158Y437224D01*
X258099Y437208D01*
X258036Y437181D01*
X258006Y437161D01*
X257976Y437142D01*
X257946Y437121D01*
X257915Y437093D01*
X257913Y437090D01*
X257910Y437085D01*
X257902Y437077D01*
X257891Y437066D01*
X257880Y437052D01*
X257869Y437033D01*
X257856Y437014D01*
X257839Y436989D01*
X257812Y436935D01*
X257790Y436872D01*
X257771Y436798D01*
X257768Y436760D01*
X257765Y436719D01*
Y436717D01*
Y436711D01*
Y436697D01*
X257768Y436684D01*
X257771Y436665D01*
X257774Y436646D01*
X257782Y436596D01*
X257801Y436539D01*
X257825Y436482D01*
X257842Y436452D01*
X257861Y436424D01*
X257883Y436397D01*
X257907Y436370D01*
X257910Y436367D01*
X257913Y436364D01*
X257921Y436356D01*
X257932Y436348D01*
X257946Y436337D01*
X257962Y436326D01*
X258003Y436299D01*
X258055Y436274D01*
X258115Y436252D01*
X258183Y436236D01*
X258221Y436233D01*
X258260Y436231D01*
X258276D01*
X258295Y436233D01*
X258320D01*
X258352Y436239D01*
X258388Y436244D01*
X258432Y436252D01*
X258478Y436263D01*
X258445Y435993D01*
X258440D01*
X258426Y435996D01*
X258410Y435998D01*
X258374D01*
X258361Y435996D01*
X258341D01*
X258322Y435993D01*
X258276Y435985D01*
X258221Y435974D01*
X258161Y435955D01*
X258099Y435930D01*
X258038Y435895D01*
X258036D01*
X258030Y435889D01*
X258025Y435884D01*
X258014Y435876D01*
X257986Y435851D01*
X257957Y435816D01*
X257929Y435772D01*
X257902Y435717D01*
X257891Y435687D01*
X257886Y435652D01*
X257880Y435616D01*
X257877Y435578D01*
Y435575D01*
Y435570D01*
Y435562D01*
X257880Y435548D01*
X257883Y435518D01*
X257891Y435477D01*
X257905Y435433D01*
X257927Y435387D01*
X257957Y435338D01*
X257973Y435316D01*
X257995Y435294D01*
X258000Y435289D01*
X258017Y435278D01*
X258041Y435259D01*
X258074Y435237D01*
X258118Y435218D01*
X258169Y435199D01*
X258227Y435188D01*
X258292Y435182D01*
X258309D01*
X258322Y435185D01*
X258339D01*
X258355Y435188D01*
X258399Y435196D01*
X258445Y435210D01*
X258497Y435231D01*
X258546Y435259D01*
X258595Y435297D01*
X258601Y435302D01*
X258614Y435319D01*
X258636Y435343D01*
X258658Y435382D01*
X258685Y435428D01*
X258710Y435488D01*
X258732Y435556D01*
X258748Y435635D01*
X259057Y435581D01*
Y435578D01*
X259054Y435567D01*
X259051Y435551D01*
X259046Y435529D01*
X259038Y435504D01*
X259029Y435474D01*
X259018Y435442D01*
X259005Y435406D01*
X258969Y435327D01*
X258950Y435289D01*
X258926Y435248D01*
X258898Y435210D01*
X258868Y435171D01*
X258836Y435133D01*
X258800Y435100D01*
X258797Y435098D01*
X258792Y435092D01*
X258778Y435084D01*
X258765Y435073D01*
X258743Y435059D01*
X258721Y435046D01*
X258694Y435029D01*
X258661Y435013D01*
X258628Y434999D01*
X258590Y434983D01*
X258549Y434969D01*
X258505Y434956D01*
X258456Y434945D01*
X258407Y434937D01*
X258355Y434931D01*
X258300Y434928D01*
X258265D01*
X258246Y434931D01*
X258227Y434934D01*
X258175Y434939D01*
X258118Y434950D01*
X258052Y434967D01*
X257986Y434988D01*
X257921Y435018D01*
X257918D01*
X257913Y435021D01*
X257905Y435027D01*
X257891Y435035D01*
X257861Y435054D01*
X257823Y435081D01*
X257779Y435117D01*
X257735Y435158D01*
X257692Y435204D01*
X257653Y435259D01*
Y435261D01*
X257651Y435264D01*
X257645Y435275D01*
X257640Y435286D01*
X257632Y435300D01*
X257623Y435316D01*
X257607Y435357D01*
X257591Y435406D01*
X257574Y435461D01*
X257563Y435521D01*
X257561Y435584D01*
Y435586D01*
Y435592D01*
Y435600D01*
Y435611D01*
X257566Y435644D01*
X257572Y435682D01*
X257582Y435728D01*
X257599Y435777D01*
X257621Y435829D01*
X257651Y435881D01*
Y435884D01*
X257653Y435887D01*
X257667Y435903D01*
X257686Y435927D01*
X257716Y435958D01*
X257752Y435993D01*
X257798Y436029D01*
X257850Y436061D01*
X257910Y436094D01*
X257907D01*
X257899Y436097D01*
X257888Y436099D01*
X257872Y436105D01*
X257856Y436110D01*
X257834Y436119D01*
X257782Y436140D01*
X257727Y436170D01*
X257670Y436206D01*
X257612Y436252D01*
X257563Y436310D01*
X257561Y436312D01*
X257558Y436318D01*
X257552Y436326D01*
X257544Y436340D01*
X257533Y436353D01*
X257522Y436373D01*
X257511Y436394D01*
X257501Y436422D01*
X257490Y436449D01*
X257479Y436479D01*
X257457Y436547D01*
X257443Y436626D01*
X257438Y436670D01*
Y436714D01*
Y436717D01*
Y436727D01*
X257440Y436747D01*
Y436768D01*
X257446Y436798D01*
X257451Y436831D01*
X257457Y436867D01*
X257468Y436908D01*
X257482Y436951D01*
X257498Y436995D01*
X257517Y437041D01*
X257541Y437088D01*
X257569Y437137D01*
X257602Y437183D01*
X257637Y437230D01*
X257681Y437273D01*
X257683Y437276D01*
X257692Y437284D01*
X257705Y437295D01*
X257724Y437309D01*
X257746Y437325D01*
X257776Y437344D01*
X257809Y437366D01*
X257847Y437385D01*
X257888Y437407D01*
X257935Y437429D01*
X257984Y437448D01*
X258038Y437465D01*
X258096Y437478D01*
X258156Y437489D01*
X258219Y437497D01*
X258287Y437500D01*
X258300D01*
X258320Y437497D01*
D02*
G37*
G36*
X261500Y434937D02*
X260329D01*
X260299Y434939D01*
X260269D01*
X260233Y434942D01*
X260192Y434945D01*
X260110Y434953D01*
X260026Y434967D01*
X259944Y434983D01*
X259908Y434994D01*
X259873Y435005D01*
X259870D01*
X259865Y435007D01*
X259857Y435013D01*
X259843Y435018D01*
X259810Y435035D01*
X259772Y435059D01*
X259725Y435092D01*
X259679Y435136D01*
X259633Y435185D01*
X259592Y435245D01*
Y435248D01*
X259586Y435253D01*
X259581Y435261D01*
X259575Y435275D01*
X259567Y435291D01*
X259559Y435311D01*
X259548Y435332D01*
X259537Y435357D01*
X259518Y435414D01*
X259502Y435477D01*
X259491Y435548D01*
X259485Y435625D01*
Y435627D01*
Y435635D01*
Y435652D01*
X259488Y435668D01*
X259491Y435693D01*
X259493Y435720D01*
X259499Y435750D01*
X259507Y435783D01*
X259529Y435854D01*
X259543Y435892D01*
X259559Y435930D01*
X259578Y435968D01*
X259603Y436007D01*
X259630Y436042D01*
X259660Y436078D01*
X259663Y436080D01*
X259668Y436086D01*
X259679Y436094D01*
X259693Y436108D01*
X259712Y436121D01*
X259734Y436138D01*
X259761Y436157D01*
X259794Y436176D01*
X259829Y436195D01*
X259868Y436214D01*
X259911Y436233D01*
X259960Y436252D01*
X260012Y436269D01*
X260069Y436285D01*
X260132Y436299D01*
X260198Y436310D01*
X260195D01*
X260192Y436312D01*
X260176Y436321D01*
X260151Y436334D01*
X260121Y436351D01*
X260089Y436370D01*
X260056Y436389D01*
X260023Y436413D01*
X259996Y436435D01*
X259993Y436438D01*
X259990Y436441D01*
X259982Y436449D01*
X259971Y436460D01*
X259958Y436474D01*
X259941Y436490D01*
X259906Y436528D01*
X259865Y436577D01*
X259818Y436635D01*
X259769Y436700D01*
X259720Y436771D01*
X259283Y437456D01*
X259701D01*
X260034Y436932D01*
X260037Y436930D01*
X260039Y436921D01*
X260048Y436910D01*
X260059Y436894D01*
X260069Y436875D01*
X260086Y436853D01*
X260119Y436804D01*
X260157Y436747D01*
X260195Y436689D01*
X260236Y436635D01*
X260274Y436586D01*
Y436583D01*
X260280Y436580D01*
X260291Y436566D01*
X260307Y436545D01*
X260332Y436520D01*
X260356Y436493D01*
X260386Y436465D01*
X260416Y436438D01*
X260443Y436419D01*
X260446Y436416D01*
X260457Y436411D01*
X260471Y436403D01*
X260490Y436392D01*
X260514Y436381D01*
X260539Y436370D01*
X260566Y436359D01*
X260596Y436351D01*
X260599D01*
X260607Y436348D01*
X260621Y436345D01*
X260640Y436342D01*
X260667D01*
X260700Y436340D01*
X260738Y436337D01*
X261167D01*
Y437456D01*
X261500D01*
Y434937D01*
D02*
G37*
G36*
X206218Y400497D02*
X206248Y400495D01*
X206281Y400489D01*
X206319Y400484D01*
X206360Y400476D01*
X206403Y400467D01*
X206450Y400454D01*
X206496Y400437D01*
X206543Y400418D01*
X206589Y400396D01*
X206636Y400372D01*
X206679Y400342D01*
X206723Y400309D01*
X206726Y400306D01*
X206731Y400301D01*
X206742Y400290D01*
X206756Y400273D01*
X206775Y400254D01*
X206794Y400233D01*
X206813Y400205D01*
X206835Y400172D01*
X206857Y400140D01*
X206878Y400102D01*
X206898Y400058D01*
X206917Y400014D01*
X206936Y399965D01*
X206949Y399913D01*
X206960Y399856D01*
X206969Y399798D01*
X206644Y399774D01*
Y399777D01*
X206641Y399785D01*
X206638Y399796D01*
X206636Y399812D01*
X206633Y399831D01*
X206625Y399856D01*
X206611Y399908D01*
X206589Y399965D01*
X206559Y400025D01*
X206524Y400080D01*
X206502Y400104D01*
X206480Y400129D01*
X206477D01*
X206474Y400134D01*
X206466Y400140D01*
X206455Y400148D01*
X206428Y400167D01*
X206390Y400186D01*
X206343Y400208D01*
X206289Y400227D01*
X206229Y400241D01*
X206196Y400243D01*
X206160Y400246D01*
X206139D01*
X206122Y400243D01*
X206103Y400241D01*
X206081Y400238D01*
X206030Y400224D01*
X205969Y400205D01*
X205939Y400191D01*
X205907Y400175D01*
X205874Y400156D01*
X205844Y400134D01*
X205814Y400110D01*
X205784Y400080D01*
X205781Y400077D01*
X205778Y400071D01*
X205770Y400063D01*
X205759Y400050D01*
X205748Y400031D01*
X205735Y400011D01*
X205721Y399987D01*
X205705Y399959D01*
X205691Y399929D01*
X205677Y399897D01*
X205664Y399858D01*
X205653Y399820D01*
X205642Y399777D01*
X205634Y399730D01*
X205631Y399684D01*
X205628Y399632D01*
Y399629D01*
Y399621D01*
Y399607D01*
X205631Y399588D01*
X205634Y399566D01*
X205636Y399539D01*
X205642Y399512D01*
X205647Y399479D01*
X205664Y399413D01*
X205691Y399342D01*
X205707Y399310D01*
X205729Y399277D01*
X205751Y399244D01*
X205778Y399214D01*
X205781Y399212D01*
X205784Y399209D01*
X205795Y399201D01*
X205806Y399190D01*
X205819Y399179D01*
X205838Y399165D01*
X205857Y399151D01*
X205882Y399135D01*
X205909Y399121D01*
X205937Y399108D01*
X206005Y399083D01*
X206040Y399072D01*
X206081Y399064D01*
X206122Y399061D01*
X206166Y399059D01*
X206191D01*
X206221Y399061D01*
X206256Y399067D01*
X206300Y399075D01*
X206346Y399089D01*
X206393Y399105D01*
X206439Y399130D01*
X206445Y399132D01*
X206458Y399141D01*
X206480Y399157D01*
X206507Y399176D01*
X206535Y399203D01*
X206567Y399233D01*
X206597Y399269D01*
X206625Y399307D01*
X206914Y399266D01*
X206671Y397972D01*
X205418D01*
Y398267D01*
X206425D01*
X206559Y398944D01*
X206556Y398941D01*
X206548Y398936D01*
X206537Y398930D01*
X206521Y398919D01*
X206499Y398908D01*
X206474Y398895D01*
X206447Y398878D01*
X206414Y398865D01*
X206382Y398851D01*
X206343Y398835D01*
X206264Y398810D01*
X206221Y398799D01*
X206177Y398791D01*
X206131Y398788D01*
X206084Y398786D01*
X206070D01*
X206051Y398788D01*
X206030D01*
X206002Y398794D01*
X205969Y398797D01*
X205931Y398805D01*
X205893Y398813D01*
X205849Y398827D01*
X205806Y398840D01*
X205759Y398859D01*
X205713Y398881D01*
X205666Y398908D01*
X205620Y398938D01*
X205574Y398974D01*
X205530Y399015D01*
X205527Y399018D01*
X205519Y399026D01*
X205508Y399040D01*
X205494Y399056D01*
X205475Y399078D01*
X205456Y399108D01*
X205437Y399138D01*
X205415Y399173D01*
X205393Y399214D01*
X205374Y399261D01*
X205352Y399307D01*
X205336Y399362D01*
X205322Y399416D01*
X205311Y399476D01*
X205303Y399539D01*
X205301Y399605D01*
Y399607D01*
Y399621D01*
Y399637D01*
X205303Y399662D01*
X205306Y399692D01*
X205311Y399725D01*
X205317Y399763D01*
X205325Y399807D01*
X205336Y399850D01*
X205350Y399899D01*
X205366Y399949D01*
X205385Y399998D01*
X205407Y400047D01*
X205434Y400099D01*
X205464Y400148D01*
X205500Y400194D01*
X205503Y400197D01*
X205511Y400208D01*
X205524Y400222D01*
X205544Y400241D01*
X205568Y400265D01*
X205598Y400290D01*
X205634Y400320D01*
X205675Y400347D01*
X205718Y400374D01*
X205767Y400405D01*
X205822Y400429D01*
X205882Y400451D01*
X205945Y400473D01*
X206013Y400486D01*
X206084Y400497D01*
X206160Y400500D01*
X206193D01*
X206218Y400497D01*
D02*
G37*
G36*
X209382Y397939D02*
X208211D01*
X208181Y397942D01*
X208151D01*
X208115Y397945D01*
X208074Y397948D01*
X207992Y397956D01*
X207908Y397969D01*
X207826Y397986D01*
X207790Y397997D01*
X207755Y398007D01*
X207752D01*
X207747Y398010D01*
X207738Y398016D01*
X207725Y398021D01*
X207692Y398038D01*
X207654Y398062D01*
X207607Y398095D01*
X207561Y398139D01*
X207515Y398188D01*
X207474Y398248D01*
Y398251D01*
X207468Y398256D01*
X207463Y398264D01*
X207457Y398278D01*
X207449Y398294D01*
X207441Y398313D01*
X207430Y398335D01*
X207419Y398360D01*
X207400Y398417D01*
X207384Y398480D01*
X207373Y398551D01*
X207367Y398627D01*
Y398630D01*
Y398638D01*
Y398655D01*
X207370Y398671D01*
X207373Y398695D01*
X207375Y398723D01*
X207381Y398753D01*
X207389Y398786D01*
X207411Y398857D01*
X207424Y398895D01*
X207441Y398933D01*
X207460Y398971D01*
X207485Y399009D01*
X207512Y399045D01*
X207542Y399080D01*
X207545Y399083D01*
X207550Y399089D01*
X207561Y399097D01*
X207575Y399111D01*
X207594Y399124D01*
X207616Y399141D01*
X207643Y399160D01*
X207676Y399179D01*
X207711Y399198D01*
X207749Y399217D01*
X207793Y399236D01*
X207842Y399255D01*
X207894Y399271D01*
X207951Y399288D01*
X208014Y399302D01*
X208080Y399312D01*
X208077D01*
X208074Y399315D01*
X208058Y399323D01*
X208033Y399337D01*
X208003Y399353D01*
X207970Y399373D01*
X207938Y399392D01*
X207905Y399416D01*
X207878Y399438D01*
X207875Y399441D01*
X207872Y399444D01*
X207864Y399452D01*
X207853Y399463D01*
X207839Y399476D01*
X207823Y399493D01*
X207788Y399531D01*
X207747Y399580D01*
X207700Y399637D01*
X207651Y399703D01*
X207602Y399774D01*
X207165Y400459D01*
X207583D01*
X207916Y399935D01*
X207919Y399932D01*
X207921Y399924D01*
X207930Y399913D01*
X207941Y399897D01*
X207951Y399878D01*
X207968Y399856D01*
X208001Y399807D01*
X208039Y399749D01*
X208077Y399692D01*
X208118Y399637D01*
X208156Y399588D01*
Y399586D01*
X208162Y399583D01*
X208173Y399569D01*
X208189Y399547D01*
X208213Y399523D01*
X208238Y399495D01*
X208268Y399468D01*
X208298Y399441D01*
X208325Y399422D01*
X208328Y399419D01*
X208339Y399413D01*
X208353Y399405D01*
X208372Y399394D01*
X208396Y399383D01*
X208421Y399373D01*
X208448Y399362D01*
X208478Y399353D01*
X208481D01*
X208489Y399351D01*
X208503Y399348D01*
X208522Y399345D01*
X208549D01*
X208582Y399342D01*
X208620Y399340D01*
X209049D01*
Y400459D01*
X209382D01*
Y397939D01*
D02*
G37*
G36*
X164485Y481686D02*
X164515D01*
X164547Y481684D01*
X164585Y481681D01*
X164629Y481675D01*
X164719Y481664D01*
X164815Y481648D01*
X164910Y481624D01*
X165003Y481591D01*
X165006D01*
X165014Y481585D01*
X165025Y481580D01*
X165041Y481572D01*
X165060Y481561D01*
X165082Y481550D01*
X165134Y481517D01*
X165191Y481476D01*
X165252Y481424D01*
X165312Y481364D01*
X165364Y481293D01*
X165366Y481290D01*
X165369Y481285D01*
X165375Y481274D01*
X165383Y481258D01*
X165394Y481239D01*
X165404Y481217D01*
X165418Y481189D01*
X165429Y481159D01*
X165443Y481129D01*
X165454Y481094D01*
X165475Y481015D01*
X165492Y480930D01*
X165497Y480884D01*
X165500Y480837D01*
X165186Y480810D01*
Y480813D01*
Y480818D01*
X165183Y480829D01*
X165181Y480843D01*
X165178Y480859D01*
X165175Y480875D01*
X165164Y480922D01*
X165151Y480971D01*
X165134Y481023D01*
X165112Y481075D01*
X165085Y481124D01*
X165082Y481129D01*
X165069Y481143D01*
X165050Y481165D01*
X165022Y481192D01*
X164987Y481225D01*
X164943Y481255D01*
X164891Y481288D01*
X164831Y481318D01*
X164828D01*
X164823Y481320D01*
X164815Y481323D01*
X164801Y481329D01*
X164785Y481334D01*
X164766Y481342D01*
X164744Y481348D01*
X164719Y481353D01*
X164662Y481367D01*
X164594Y481381D01*
X164523Y481389D01*
X164444Y481391D01*
X164411D01*
X164394Y481389D01*
X164375D01*
X164332Y481383D01*
X164280Y481378D01*
X164222Y481370D01*
X164165Y481356D01*
X164111Y481337D01*
X164108D01*
X164105Y481334D01*
X164097Y481331D01*
X164086Y481326D01*
X164061Y481312D01*
X164029Y481296D01*
X163993Y481274D01*
X163955Y481247D01*
X163922Y481217D01*
X163892Y481181D01*
X163889Y481176D01*
X163881Y481165D01*
X163867Y481143D01*
X163854Y481116D01*
X163843Y481083D01*
X163829Y481047D01*
X163821Y481006D01*
X163818Y480966D01*
Y480963D01*
Y480960D01*
Y480946D01*
X163821Y480922D01*
X163827Y480895D01*
X163835Y480862D01*
X163848Y480826D01*
X163865Y480791D01*
X163889Y480758D01*
X163892Y480755D01*
X163903Y480744D01*
X163919Y480728D01*
X163944Y480706D01*
X163974Y480684D01*
X164015Y480660D01*
X164061Y480635D01*
X164116Y480611D01*
X164121Y480608D01*
X164127Y480605D01*
X164138Y480603D01*
X164149Y480600D01*
X164165Y480594D01*
X164187Y480586D01*
X164209Y480581D01*
X164239Y480572D01*
X164269Y480561D01*
X164307Y480553D01*
X164348Y480542D01*
X164394Y480529D01*
X164444Y480518D01*
X164501Y480502D01*
X164564Y480488D01*
X164566D01*
X164577Y480485D01*
X164596Y480480D01*
X164618Y480474D01*
X164648Y480466D01*
X164681Y480458D01*
X164714Y480447D01*
X164752Y480436D01*
X164834Y480411D01*
X164913Y480384D01*
X164951Y480370D01*
X164987Y480357D01*
X165020Y480343D01*
X165047Y480330D01*
X165050D01*
X165055Y480324D01*
X165063Y480318D01*
X165077Y480313D01*
X165110Y480294D01*
X165148Y480267D01*
X165194Y480231D01*
X165238Y480193D01*
X165282Y480147D01*
X165317Y480097D01*
Y480095D01*
X165320Y480092D01*
X165325Y480084D01*
X165331Y480073D01*
X165344Y480043D01*
X165361Y480005D01*
X165377Y479958D01*
X165391Y479904D01*
X165402Y479844D01*
X165404Y479781D01*
Y479778D01*
Y479773D01*
Y479762D01*
X165402Y479748D01*
Y479732D01*
X165399Y479712D01*
X165391Y479663D01*
X165377Y479609D01*
X165361Y479551D01*
X165333Y479489D01*
X165298Y479426D01*
Y479423D01*
X165293Y479418D01*
X165287Y479410D01*
X165279Y479398D01*
X165252Y479368D01*
X165216Y479330D01*
X165172Y479289D01*
X165118Y479248D01*
X165055Y479207D01*
X164981Y479172D01*
X164979D01*
X164973Y479169D01*
X164960Y479164D01*
X164946Y479158D01*
X164927Y479153D01*
X164902Y479145D01*
X164875Y479137D01*
X164845Y479128D01*
X164812Y479120D01*
X164777Y479112D01*
X164700Y479098D01*
X164613Y479087D01*
X164520Y479085D01*
X164474D01*
X164449Y479087D01*
X164419Y479090D01*
X164389Y479093D01*
X164353Y479096D01*
X164277Y479106D01*
X164192Y479123D01*
X164108Y479147D01*
X164026Y479177D01*
X164023D01*
X164018Y479183D01*
X164004Y479186D01*
X163990Y479194D01*
X163974Y479205D01*
X163952Y479216D01*
X163906Y479243D01*
X163851Y479281D01*
X163796Y479328D01*
X163745Y479379D01*
X163698Y479442D01*
X163696Y479445D01*
X163693Y479450D01*
X163687Y479459D01*
X163679Y479472D01*
X163671Y479489D01*
X163660Y479508D01*
X163652Y479532D01*
X163638Y479557D01*
X163616Y479614D01*
X163597Y479682D01*
X163581Y479756D01*
X163573Y479838D01*
X163892Y479863D01*
Y479860D01*
X163895Y479852D01*
Y479841D01*
X163898Y479824D01*
X163903Y479803D01*
X163908Y479781D01*
X163925Y479729D01*
X163947Y479671D01*
X163979Y479611D01*
X164018Y479554D01*
X164042Y479530D01*
X164069Y479505D01*
X164072Y479502D01*
X164075Y479499D01*
X164086Y479494D01*
X164097Y479486D01*
X164113Y479478D01*
X164132Y479467D01*
X164154Y479456D01*
X164179Y479442D01*
X164209Y479431D01*
X164242Y479420D01*
X164277Y479410D01*
X164315Y479401D01*
X164359Y479393D01*
X164405Y479388D01*
X164454Y479382D01*
X164534D01*
X164555Y479385D01*
X164580D01*
X164607Y479388D01*
X164640Y479390D01*
X164673Y479396D01*
X164747Y479410D01*
X164818Y479429D01*
X164886Y479456D01*
X164918Y479475D01*
X164946Y479494D01*
X164949D01*
X164951Y479499D01*
X164968Y479513D01*
X164989Y479538D01*
X165014Y479570D01*
X165039Y479609D01*
X165060Y479655D01*
X165077Y479704D01*
X165080Y479732D01*
X165082Y479762D01*
Y479764D01*
Y479767D01*
X165080Y479783D01*
X165077Y479808D01*
X165071Y479838D01*
X165058Y479874D01*
X165041Y479912D01*
X165020Y479947D01*
X164987Y479983D01*
X164981Y479986D01*
X164976Y479991D01*
X164965Y479999D01*
X164951Y480007D01*
X164935Y480016D01*
X164913Y480026D01*
X164889Y480040D01*
X164858Y480054D01*
X164823Y480067D01*
X164782Y480081D01*
X164736Y480097D01*
X164681Y480114D01*
X164624Y480130D01*
X164558Y480149D01*
X164485Y480166D01*
X164479D01*
X164465Y480168D01*
X164446Y480174D01*
X164419Y480182D01*
X164386Y480188D01*
X164348Y480198D01*
X164307Y480207D01*
X164263Y480220D01*
X164171Y480245D01*
X164078Y480269D01*
X164034Y480283D01*
X163996Y480297D01*
X163958Y480310D01*
X163927Y480324D01*
X163925D01*
X163917Y480330D01*
X163906Y480335D01*
X163892Y480343D01*
X163873Y480351D01*
X163851Y480365D01*
X163805Y480395D01*
X163750Y480431D01*
X163698Y480474D01*
X163646Y480526D01*
X163625Y480553D01*
X163603Y480581D01*
Y480583D01*
X163597Y480589D01*
X163592Y480597D01*
X163586Y480608D01*
X163578Y480622D01*
X163570Y480641D01*
X163548Y480684D01*
X163529Y480736D01*
X163513Y480796D01*
X163502Y480864D01*
X163496Y480938D01*
Y480941D01*
Y480946D01*
Y480957D01*
X163499Y480971D01*
Y480990D01*
X163502Y481009D01*
X163510Y481061D01*
X163523Y481118D01*
X163545Y481181D01*
X163575Y481247D01*
X163592Y481282D01*
X163614Y481315D01*
Y481318D01*
X163619Y481323D01*
X163625Y481331D01*
X163635Y481345D01*
X163660Y481375D01*
X163698Y481416D01*
X163745Y481460D01*
X163802Y481506D01*
X163867Y481550D01*
X163944Y481591D01*
X163947D01*
X163955Y481596D01*
X163966Y481599D01*
X163982Y481607D01*
X164001Y481613D01*
X164026Y481621D01*
X164053Y481632D01*
X164086Y481640D01*
X164119Y481648D01*
X164157Y481659D01*
X164239Y481673D01*
X164329Y481684D01*
X164427Y481689D01*
X164460D01*
X164485Y481686D01*
D02*
G37*
G36*
X163270Y479128D02*
X162926D01*
X162546Y480783D01*
Y480785D01*
X162543Y480794D01*
X162541Y480807D01*
X162535Y480826D01*
X162530Y480851D01*
X162524Y480878D01*
X162516Y480908D01*
X162508Y480944D01*
X162500Y480982D01*
X162492Y481023D01*
X162475Y481108D01*
X162456Y481200D01*
X162440Y481296D01*
Y481290D01*
X162434Y481280D01*
X162432Y481258D01*
X162423Y481233D01*
X162418Y481200D01*
X162410Y481165D01*
X162399Y481127D01*
X162391Y481088D01*
X162369Y481006D01*
X162361Y480968D01*
X162350Y480930D01*
X162341Y480897D01*
X162336Y480870D01*
X162330Y480848D01*
X162325Y480832D01*
X161845Y479128D01*
X161443D01*
X161086Y480406D01*
X161083Y480411D01*
X161080Y480428D01*
X161072Y480452D01*
X161064Y480488D01*
X161053Y480529D01*
X161039Y480578D01*
X161026Y480632D01*
X161009Y480695D01*
X160993Y480761D01*
X160976Y480832D01*
X160960Y480905D01*
X160944Y480982D01*
X160914Y481138D01*
X160886Y481296D01*
Y481293D01*
X160884Y481285D01*
X160881Y481271D01*
X160878Y481255D01*
X160873Y481230D01*
X160867Y481203D01*
X160859Y481173D01*
X160851Y481138D01*
X160843Y481099D01*
X160835Y481058D01*
X160824Y481012D01*
X160813Y480966D01*
X160788Y480862D01*
X160761Y480750D01*
X160365Y479128D01*
X160029D01*
X160720Y481648D01*
X161045D01*
X161572Y479729D01*
Y479726D01*
X161574Y479718D01*
X161577Y479707D01*
X161583Y479691D01*
X161588Y479671D01*
X161593Y479650D01*
X161607Y479601D01*
X161621Y479551D01*
X161634Y479502D01*
X161640Y479480D01*
X161645Y479461D01*
X161651Y479445D01*
X161653Y479434D01*
Y479437D01*
X161656Y479442D01*
Y479450D01*
X161662Y479464D01*
X161664Y479478D01*
X161667Y479497D01*
X161678Y479535D01*
X161689Y479581D01*
X161703Y479633D01*
X161716Y479682D01*
X161730Y479729D01*
X162259Y481648D01*
X162606D01*
X163270Y479128D01*
D02*
G37*
G36*
X158989Y479680D02*
X158994Y479685D01*
X159008Y479699D01*
X159033Y479718D01*
X159068Y479745D01*
X159109Y479778D01*
X159161Y479813D01*
X159218Y479852D01*
X159284Y479893D01*
X159287D01*
X159292Y479898D01*
X159300Y479904D01*
X159314Y479909D01*
X159330Y479920D01*
X159349Y479928D01*
X159393Y479953D01*
X159442Y479977D01*
X159497Y480005D01*
X159554Y480029D01*
X159609Y480051D01*
Y479753D01*
X159606Y479751D01*
X159598Y479748D01*
X159584Y479740D01*
X159565Y479732D01*
X159543Y479721D01*
X159516Y479704D01*
X159486Y479688D01*
X159456Y479671D01*
X159385Y479628D01*
X159308Y479576D01*
X159229Y479521D01*
X159155Y479459D01*
X159153Y479456D01*
X159147Y479450D01*
X159136Y479442D01*
X159123Y479429D01*
X159109Y479412D01*
X159090Y479396D01*
X159049Y479349D01*
X159003Y479300D01*
X158956Y479243D01*
X158915Y479183D01*
X158880Y479120D01*
X158680D01*
Y481648D01*
X158989D01*
Y479680D01*
D02*
G37*
G36*
X215023Y461610D02*
X215045D01*
X215075Y461604D01*
X215108Y461599D01*
X215143Y461593D01*
X215184Y461583D01*
X215228Y461569D01*
X215271Y461552D01*
X215318Y461533D01*
X215364Y461509D01*
X215413Y461482D01*
X215460Y461449D01*
X215506Y461413D01*
X215550Y461370D01*
X215553Y461367D01*
X215561Y461359D01*
X215572Y461345D01*
X215585Y461326D01*
X215602Y461304D01*
X215621Y461274D01*
X215643Y461241D01*
X215662Y461203D01*
X215684Y461162D01*
X215706Y461116D01*
X215725Y461067D01*
X215741Y461012D01*
X215755Y460955D01*
X215766Y460895D01*
X215774Y460832D01*
X215776Y460764D01*
Y460750D01*
X215774Y460731D01*
Y460709D01*
X215771Y460679D01*
X215766Y460646D01*
X215760Y460611D01*
X215752Y460570D01*
X215741Y460526D01*
X215727Y460482D01*
X215714Y460436D01*
X215695Y460390D01*
X215670Y460343D01*
X215646Y460299D01*
X215616Y460253D01*
X215580Y460212D01*
X215577Y460209D01*
X215572Y460204D01*
X215561Y460193D01*
X215545Y460177D01*
X215525Y460160D01*
X215501Y460141D01*
X215474Y460122D01*
X215441Y460100D01*
X215408Y460078D01*
X215367Y460056D01*
X215326Y460035D01*
X215280Y460015D01*
X215230Y459999D01*
X215179Y459983D01*
X215124Y459972D01*
X215067Y459964D01*
X215026Y460272D01*
X215029D01*
X215037Y460275D01*
X215050Y460278D01*
X215070Y460283D01*
X215091Y460288D01*
X215116Y460294D01*
X215173Y460313D01*
X215236Y460338D01*
X215299Y460368D01*
X215356Y460406D01*
X215381Y460428D01*
X215405Y460450D01*
Y460452D01*
X215411Y460455D01*
X215416Y460463D01*
X215424Y460471D01*
X215441Y460499D01*
X215463Y460537D01*
X215484Y460583D01*
X215501Y460635D01*
X215514Y460698D01*
X215520Y460764D01*
Y460785D01*
X215517Y460802D01*
X215514Y460818D01*
X215512Y460843D01*
X215501Y460892D01*
X215484Y460952D01*
X215457Y461015D01*
X215438Y461045D01*
X215419Y461075D01*
X215397Y461105D01*
X215370Y461135D01*
X215367Y461138D01*
X215362Y461140D01*
X215353Y461149D01*
X215342Y461159D01*
X215329Y461170D01*
X215310Y461181D01*
X215291Y461195D01*
X215266Y461211D01*
X215211Y461239D01*
X215149Y461260D01*
X215075Y461279D01*
X215037Y461282D01*
X214996Y461285D01*
X214993D01*
X214988D01*
X214974D01*
X214960Y461282D01*
X214941Y461279D01*
X214922Y461277D01*
X214873Y461269D01*
X214816Y461249D01*
X214758Y461225D01*
X214728Y461208D01*
X214701Y461189D01*
X214674Y461168D01*
X214646Y461143D01*
X214644Y461140D01*
X214641Y461138D01*
X214633Y461129D01*
X214625Y461119D01*
X214614Y461105D01*
X214603Y461088D01*
X214575Y461048D01*
X214551Y460996D01*
X214529Y460935D01*
X214513Y460867D01*
X214510Y460829D01*
X214507Y460791D01*
Y460775D01*
X214510Y460755D01*
Y460731D01*
X214515Y460698D01*
X214521Y460663D01*
X214529Y460619D01*
X214540Y460572D01*
X214270Y460605D01*
Y460611D01*
X214272Y460624D01*
X214275Y460641D01*
Y460676D01*
X214272Y460690D01*
Y460709D01*
X214270Y460728D01*
X214261Y460775D01*
X214250Y460829D01*
X214231Y460889D01*
X214207Y460952D01*
X214171Y461012D01*
Y461015D01*
X214166Y461020D01*
X214160Y461026D01*
X214152Y461036D01*
X214128Y461064D01*
X214092Y461094D01*
X214049Y461121D01*
X213994Y461149D01*
X213964Y461159D01*
X213928Y461165D01*
X213893Y461170D01*
X213855Y461173D01*
X213852D01*
X213846D01*
X213838D01*
X213825Y461170D01*
X213795Y461168D01*
X213754Y461159D01*
X213710Y461146D01*
X213664Y461124D01*
X213614Y461094D01*
X213593Y461077D01*
X213571Y461056D01*
X213565Y461050D01*
X213554Y461034D01*
X213535Y461009D01*
X213513Y460977D01*
X213494Y460933D01*
X213475Y460881D01*
X213464Y460824D01*
X213459Y460758D01*
Y460742D01*
X213461Y460728D01*
Y460712D01*
X213464Y460695D01*
X213472Y460652D01*
X213486Y460605D01*
X213508Y460553D01*
X213535Y460504D01*
X213573Y460455D01*
X213579Y460450D01*
X213595Y460436D01*
X213620Y460414D01*
X213658Y460392D01*
X213704Y460365D01*
X213765Y460340D01*
X213833Y460319D01*
X213912Y460302D01*
X213857Y459994D01*
X213855D01*
X213844Y459996D01*
X213827Y459999D01*
X213806Y460005D01*
X213781Y460013D01*
X213751Y460021D01*
X213718Y460032D01*
X213683Y460046D01*
X213603Y460081D01*
X213565Y460100D01*
X213524Y460125D01*
X213486Y460152D01*
X213448Y460182D01*
X213410Y460215D01*
X213377Y460250D01*
X213374Y460253D01*
X213369Y460258D01*
X213361Y460272D01*
X213350Y460286D01*
X213336Y460308D01*
X213322Y460329D01*
X213306Y460357D01*
X213289Y460390D01*
X213276Y460422D01*
X213260Y460461D01*
X213246Y460501D01*
X213232Y460545D01*
X213221Y460594D01*
X213213Y460643D01*
X213208Y460695D01*
X213205Y460750D01*
Y460785D01*
X213208Y460805D01*
X213210Y460824D01*
X213216Y460876D01*
X213227Y460933D01*
X213243Y460998D01*
X213265Y461064D01*
X213295Y461129D01*
Y461132D01*
X213298Y461138D01*
X213303Y461146D01*
X213311Y461159D01*
X213331Y461189D01*
X213358Y461228D01*
X213393Y461271D01*
X213434Y461315D01*
X213481Y461359D01*
X213535Y461397D01*
X213538D01*
X213541Y461400D01*
X213552Y461405D01*
X213562Y461411D01*
X213576Y461419D01*
X213593Y461427D01*
X213633Y461443D01*
X213683Y461460D01*
X213737Y461476D01*
X213797Y461487D01*
X213860Y461490D01*
X213863D01*
X213868D01*
X213877D01*
X213887D01*
X213920Y461484D01*
X213958Y461479D01*
X214005Y461468D01*
X214054Y461451D01*
X214106Y461430D01*
X214158Y461400D01*
X214160D01*
X214163Y461397D01*
X214179Y461383D01*
X214204Y461364D01*
X214234Y461334D01*
X214270Y461299D01*
X214305Y461252D01*
X214338Y461200D01*
X214371Y461140D01*
Y461143D01*
X214373Y461151D01*
X214376Y461162D01*
X214382Y461178D01*
X214387Y461195D01*
X214395Y461217D01*
X214417Y461269D01*
X214447Y461323D01*
X214482Y461380D01*
X214529Y461438D01*
X214586Y461487D01*
X214589Y461490D01*
X214595Y461492D01*
X214603Y461498D01*
X214616Y461506D01*
X214630Y461517D01*
X214649Y461528D01*
X214671Y461539D01*
X214698Y461550D01*
X214725Y461561D01*
X214756Y461572D01*
X214824Y461593D01*
X214903Y461607D01*
X214947Y461613D01*
X214990D01*
X214993D01*
X215004D01*
X215023Y461610D01*
D02*
G37*
G36*
X215733Y459087D02*
Y458763D01*
X213814Y458236D01*
X213811D01*
X213803Y458233D01*
X213792Y458230D01*
X213775Y458225D01*
X213756Y458219D01*
X213735Y458214D01*
X213685Y458200D01*
X213636Y458186D01*
X213587Y458173D01*
X213565Y458167D01*
X213546Y458162D01*
X213530Y458156D01*
X213519Y458154D01*
X213522D01*
X213527Y458151D01*
X213535D01*
X213549Y458146D01*
X213562Y458143D01*
X213582Y458140D01*
X213620Y458129D01*
X213666Y458118D01*
X213718Y458105D01*
X213767Y458091D01*
X213814Y458077D01*
X215733Y457548D01*
Y457201D01*
X213213Y456537D01*
Y456882D01*
X214867Y457261D01*
X214870D01*
X214878Y457264D01*
X214892Y457266D01*
X214911Y457272D01*
X214936Y457277D01*
X214963Y457283D01*
X214993Y457291D01*
X215029Y457299D01*
X215067Y457307D01*
X215108Y457316D01*
X215192Y457332D01*
X215285Y457351D01*
X215381Y457367D01*
X215375D01*
X215364Y457373D01*
X215342Y457376D01*
X215318Y457384D01*
X215285Y457389D01*
X215250Y457398D01*
X215211Y457408D01*
X215173Y457417D01*
X215091Y457438D01*
X215053Y457447D01*
X215015Y457457D01*
X214982Y457466D01*
X214955Y457471D01*
X214933Y457477D01*
X214917Y457482D01*
X213213Y457963D01*
Y458364D01*
X214491Y458721D01*
X214496Y458724D01*
X214513Y458727D01*
X214537Y458735D01*
X214573Y458743D01*
X214614Y458754D01*
X214663Y458768D01*
X214717Y458782D01*
X214780Y458798D01*
X214846Y458814D01*
X214917Y458831D01*
X214990Y458847D01*
X215067Y458863D01*
X215222Y458893D01*
X215381Y458921D01*
X215378D01*
X215370Y458923D01*
X215356Y458926D01*
X215340Y458929D01*
X215315Y458934D01*
X215288Y458940D01*
X215258Y458948D01*
X215222Y458956D01*
X215184Y458964D01*
X215143Y458973D01*
X215097Y458984D01*
X215050Y458994D01*
X214947Y459019D01*
X214835Y459046D01*
X213213Y459442D01*
Y459778D01*
X215733Y459087D01*
D02*
G37*
G36*
X215056Y456308D02*
X215075D01*
X215094Y456306D01*
X215146Y456297D01*
X215203Y456284D01*
X215266Y456262D01*
X215332Y456232D01*
X215367Y456215D01*
X215400Y456193D01*
X215403D01*
X215408Y456188D01*
X215416Y456183D01*
X215430Y456172D01*
X215460Y456147D01*
X215501Y456109D01*
X215545Y456063D01*
X215591Y456005D01*
X215635Y455940D01*
X215675Y455863D01*
Y455861D01*
X215681Y455852D01*
X215684Y455841D01*
X215692Y455825D01*
X215697Y455806D01*
X215706Y455781D01*
X215717Y455754D01*
X215725Y455721D01*
X215733Y455688D01*
X215744Y455650D01*
X215757Y455568D01*
X215768Y455478D01*
X215774Y455380D01*
Y455347D01*
X215771Y455323D01*
Y455293D01*
X215768Y455260D01*
X215766Y455222D01*
X215760Y455178D01*
X215749Y455088D01*
X215733Y454992D01*
X215708Y454897D01*
X215675Y454804D01*
Y454801D01*
X215670Y454793D01*
X215665Y454782D01*
X215656Y454766D01*
X215646Y454747D01*
X215635Y454725D01*
X215602Y454673D01*
X215561Y454616D01*
X215509Y454556D01*
X215449Y454495D01*
X215378Y454444D01*
X215375Y454441D01*
X215370Y454438D01*
X215359Y454433D01*
X215342Y454424D01*
X215323Y454414D01*
X215301Y454403D01*
X215274Y454389D01*
X215244Y454378D01*
X215214Y454364D01*
X215179Y454354D01*
X215100Y454332D01*
X215015Y454315D01*
X214968Y454310D01*
X214922Y454307D01*
X214895Y454621D01*
X214897D01*
X214903D01*
X214914Y454624D01*
X214928Y454627D01*
X214944Y454629D01*
X214960Y454632D01*
X215007Y454643D01*
X215056Y454657D01*
X215108Y454673D01*
X215160Y454695D01*
X215209Y454722D01*
X215214Y454725D01*
X215228Y454738D01*
X215250Y454757D01*
X215277Y454785D01*
X215310Y454820D01*
X215340Y454864D01*
X215372Y454916D01*
X215403Y454976D01*
Y454979D01*
X215405Y454984D01*
X215408Y454992D01*
X215413Y455006D01*
X215419Y455022D01*
X215427Y455042D01*
X215433Y455063D01*
X215438Y455088D01*
X215452Y455145D01*
X215465Y455213D01*
X215474Y455284D01*
X215476Y455364D01*
Y455396D01*
X215474Y455413D01*
Y455432D01*
X215468Y455476D01*
X215463Y455527D01*
X215454Y455585D01*
X215441Y455642D01*
X215422Y455697D01*
Y455699D01*
X215419Y455702D01*
X215416Y455710D01*
X215411Y455721D01*
X215397Y455746D01*
X215381Y455779D01*
X215359Y455814D01*
X215332Y455852D01*
X215301Y455885D01*
X215266Y455915D01*
X215261Y455918D01*
X215250Y455926D01*
X215228Y455940D01*
X215200Y455953D01*
X215168Y455964D01*
X215132Y455978D01*
X215091Y455986D01*
X215050Y455989D01*
X215048D01*
X215045D01*
X215031D01*
X215007Y455986D01*
X214979Y455981D01*
X214947Y455972D01*
X214911Y455959D01*
X214876Y455942D01*
X214843Y455918D01*
X214840Y455915D01*
X214829Y455904D01*
X214813Y455888D01*
X214791Y455863D01*
X214769Y455833D01*
X214745Y455792D01*
X214720Y455746D01*
X214696Y455691D01*
X214693Y455686D01*
X214690Y455680D01*
X214687Y455669D01*
X214685Y455658D01*
X214679Y455642D01*
X214671Y455620D01*
X214665Y455598D01*
X214657Y455568D01*
X214646Y455538D01*
X214638Y455500D01*
X214627Y455459D01*
X214614Y455413D01*
X214603Y455364D01*
X214586Y455306D01*
X214573Y455243D01*
Y455241D01*
X214570Y455230D01*
X214564Y455211D01*
X214559Y455189D01*
X214551Y455159D01*
X214543Y455126D01*
X214532Y455093D01*
X214521Y455055D01*
X214496Y454973D01*
X214469Y454894D01*
X214455Y454856D01*
X214442Y454820D01*
X214428Y454788D01*
X214414Y454760D01*
Y454757D01*
X214409Y454752D01*
X214403Y454744D01*
X214398Y454730D01*
X214379Y454698D01*
X214352Y454659D01*
X214316Y454613D01*
X214278Y454569D01*
X214231Y454526D01*
X214182Y454490D01*
X214179D01*
X214177Y454487D01*
X214169Y454482D01*
X214158Y454476D01*
X214128Y454463D01*
X214089Y454446D01*
X214043Y454430D01*
X213988Y454416D01*
X213928Y454405D01*
X213865Y454403D01*
X213863D01*
X213857D01*
X213846D01*
X213833Y454405D01*
X213816D01*
X213797Y454408D01*
X213748Y454416D01*
X213694Y454430D01*
X213636Y454446D01*
X213573Y454474D01*
X213511Y454509D01*
X213508D01*
X213502Y454515D01*
X213494Y454520D01*
X213483Y454528D01*
X213453Y454556D01*
X213415Y454591D01*
X213374Y454635D01*
X213333Y454689D01*
X213292Y454752D01*
X213257Y454826D01*
Y454829D01*
X213254Y454834D01*
X213249Y454848D01*
X213243Y454861D01*
X213238Y454880D01*
X213229Y454905D01*
X213221Y454932D01*
X213213Y454962D01*
X213205Y454995D01*
X213197Y455031D01*
X213183Y455107D01*
X213172Y455194D01*
X213169Y455287D01*
Y455334D01*
X213172Y455358D01*
X213175Y455388D01*
X213178Y455418D01*
X213180Y455454D01*
X213191Y455530D01*
X213208Y455615D01*
X213232Y455699D01*
X213262Y455781D01*
Y455784D01*
X213268Y455790D01*
X213270Y455803D01*
X213279Y455817D01*
X213289Y455833D01*
X213300Y455855D01*
X213328Y455901D01*
X213366Y455956D01*
X213412Y456011D01*
X213464Y456063D01*
X213527Y456109D01*
X213530Y456112D01*
X213535Y456114D01*
X213543Y456120D01*
X213557Y456128D01*
X213573Y456136D01*
X213593Y456147D01*
X213617Y456155D01*
X213642Y456169D01*
X213699Y456191D01*
X213767Y456210D01*
X213841Y456226D01*
X213923Y456235D01*
X213947Y455915D01*
X213945D01*
X213936Y455912D01*
X213926D01*
X213909Y455910D01*
X213887Y455904D01*
X213865Y455899D01*
X213814Y455882D01*
X213756Y455861D01*
X213696Y455828D01*
X213639Y455790D01*
X213614Y455765D01*
X213590Y455738D01*
X213587Y455735D01*
X213584Y455732D01*
X213579Y455721D01*
X213571Y455710D01*
X213562Y455694D01*
X213552Y455675D01*
X213541Y455653D01*
X213527Y455628D01*
X213516Y455598D01*
X213505Y455566D01*
X213494Y455530D01*
X213486Y455492D01*
X213478Y455448D01*
X213472Y455402D01*
X213467Y455353D01*
Y455273D01*
X213470Y455252D01*
Y455227D01*
X213472Y455200D01*
X213475Y455167D01*
X213481Y455134D01*
X213494Y455061D01*
X213513Y454990D01*
X213541Y454921D01*
X213560Y454889D01*
X213579Y454861D01*
Y454859D01*
X213584Y454856D01*
X213598Y454840D01*
X213623Y454818D01*
X213655Y454793D01*
X213694Y454769D01*
X213740Y454747D01*
X213789Y454730D01*
X213816Y454728D01*
X213846Y454725D01*
X213849D01*
X213852D01*
X213868Y454728D01*
X213893Y454730D01*
X213923Y454736D01*
X213958Y454749D01*
X213997Y454766D01*
X214032Y454788D01*
X214068Y454820D01*
X214070Y454826D01*
X214076Y454831D01*
X214084Y454842D01*
X214092Y454856D01*
X214100Y454872D01*
X214111Y454894D01*
X214125Y454919D01*
X214139Y454949D01*
X214152Y454984D01*
X214166Y455025D01*
X214182Y455071D01*
X214199Y455126D01*
X214215Y455183D01*
X214234Y455249D01*
X214250Y455323D01*
Y455328D01*
X214253Y455342D01*
X214259Y455361D01*
X214267Y455388D01*
X214272Y455421D01*
X214283Y455459D01*
X214291Y455500D01*
X214305Y455544D01*
X214330Y455637D01*
X214354Y455729D01*
X214368Y455773D01*
X214382Y455811D01*
X214395Y455850D01*
X214409Y455880D01*
Y455882D01*
X214414Y455891D01*
X214420Y455901D01*
X214428Y455915D01*
X214436Y455934D01*
X214450Y455956D01*
X214480Y456002D01*
X214515Y456057D01*
X214559Y456109D01*
X214611Y456161D01*
X214638Y456183D01*
X214665Y456204D01*
X214668D01*
X214674Y456210D01*
X214682Y456215D01*
X214693Y456221D01*
X214706Y456229D01*
X214725Y456237D01*
X214769Y456259D01*
X214821Y456278D01*
X214881Y456294D01*
X214949Y456306D01*
X215023Y456311D01*
X215026D01*
X215031D01*
X215042D01*
X215056Y456308D01*
D02*
G37*
G36*
X327053Y475881D02*
X327062Y475873D01*
X327078Y475860D01*
X327097Y475843D01*
X327124Y475821D01*
X327154Y475794D01*
X327190Y475767D01*
X327231Y475734D01*
X327277Y475699D01*
X327329Y475660D01*
X327386Y475619D01*
X327446Y475578D01*
X327509Y475537D01*
X327580Y475494D01*
X327654Y475447D01*
X327730Y475404D01*
X327736Y475401D01*
X327749Y475393D01*
X327771Y475382D01*
X327804Y475365D01*
X327842Y475346D01*
X327889Y475322D01*
X327941Y475297D01*
X327998Y475270D01*
X328061Y475243D01*
X328129Y475213D01*
X328203Y475183D01*
X328276Y475153D01*
X328356Y475123D01*
X328437Y475093D01*
X328604Y475041D01*
X328607D01*
X328618Y475038D01*
X328637Y475033D01*
X328659Y475027D01*
X328689Y475019D01*
X328724Y475011D01*
X328765Y475000D01*
X328809Y474992D01*
X328858Y474981D01*
X328912Y474972D01*
X328970Y474962D01*
X329030Y474953D01*
X329093Y474942D01*
X329158Y474934D01*
X329295Y474923D01*
Y474607D01*
X329292D01*
X329281D01*
X329265D01*
X329243Y474609D01*
X329213Y474612D01*
X329180Y474615D01*
X329139Y474617D01*
X329095Y474623D01*
X329044Y474628D01*
X328992Y474637D01*
X328931Y474645D01*
X328869Y474656D01*
X328801Y474669D01*
X328730Y474683D01*
X328656Y474702D01*
X328579Y474721D01*
X328574Y474724D01*
X328560Y474727D01*
X328538Y474732D01*
X328508Y474743D01*
X328470Y474754D01*
X328424Y474768D01*
X328375Y474784D01*
X328320Y474803D01*
X328260Y474825D01*
X328194Y474850D01*
X328126Y474874D01*
X328058Y474904D01*
X327913Y474967D01*
X327766Y475041D01*
X327760Y475043D01*
X327749Y475052D01*
X327728Y475063D01*
X327700Y475076D01*
X327667Y475098D01*
X327629Y475120D01*
X327586Y475147D01*
X327537Y475174D01*
X327487Y475207D01*
X327433Y475243D01*
X327324Y475319D01*
X327212Y475401D01*
X327157Y475445D01*
X327105Y475488D01*
Y474254D01*
X326808D01*
Y475884D01*
X327051D01*
X327053Y475881D01*
D02*
G37*
G36*
X329295Y473359D02*
Y473034D01*
X327375Y472507D01*
X327373D01*
X327364Y472505D01*
X327354Y472502D01*
X327337Y472496D01*
X327318Y472491D01*
X327296Y472485D01*
X327247Y472472D01*
X327198Y472458D01*
X327149Y472444D01*
X327127Y472439D01*
X327108Y472434D01*
X327092Y472428D01*
X327081Y472425D01*
X327083D01*
X327089Y472423D01*
X327097D01*
X327111Y472417D01*
X327124Y472414D01*
X327143Y472412D01*
X327182Y472401D01*
X327228Y472390D01*
X327280Y472376D01*
X327329Y472363D01*
X327375Y472349D01*
X329295Y471819D01*
Y471473D01*
X326775Y470809D01*
Y471153D01*
X328429Y471533D01*
X328432D01*
X328440Y471535D01*
X328454Y471538D01*
X328473Y471544D01*
X328498Y471549D01*
X328525Y471554D01*
X328555Y471563D01*
X328590Y471571D01*
X328628Y471579D01*
X328670Y471587D01*
X328754Y471604D01*
X328847Y471623D01*
X328942Y471639D01*
X328937D01*
X328926Y471644D01*
X328904Y471647D01*
X328880Y471656D01*
X328847Y471661D01*
X328811Y471669D01*
X328773Y471680D01*
X328735Y471688D01*
X328653Y471710D01*
X328615Y471718D01*
X328577Y471729D01*
X328544Y471737D01*
X328517Y471743D01*
X328495Y471748D01*
X328478Y471754D01*
X326775Y472234D01*
Y472636D01*
X328052Y472993D01*
X328058Y472996D01*
X328074Y472999D01*
X328099Y473007D01*
X328134Y473015D01*
X328175Y473026D01*
X328224Y473040D01*
X328279Y473053D01*
X328342Y473070D01*
X328407Y473086D01*
X328478Y473102D01*
X328552Y473119D01*
X328628Y473135D01*
X328784Y473165D01*
X328942Y473193D01*
X328940D01*
X328931Y473195D01*
X328918Y473198D01*
X328902Y473201D01*
X328877Y473206D01*
X328850Y473212D01*
X328820Y473220D01*
X328784Y473228D01*
X328746Y473236D01*
X328705Y473244D01*
X328659Y473255D01*
X328612Y473266D01*
X328508Y473291D01*
X328397Y473318D01*
X326775Y473714D01*
Y474050D01*
X329295Y473359D01*
D02*
G37*
G36*
X328618Y470580D02*
X328637D01*
X328656Y470577D01*
X328708Y470569D01*
X328765Y470555D01*
X328828Y470533D01*
X328893Y470503D01*
X328929Y470487D01*
X328962Y470465D01*
X328964D01*
X328970Y470460D01*
X328978Y470454D01*
X328992Y470443D01*
X329022Y470419D01*
X329063Y470381D01*
X329106Y470334D01*
X329153Y470277D01*
X329196Y470211D01*
X329237Y470135D01*
Y470132D01*
X329243Y470124D01*
X329245Y470113D01*
X329254Y470097D01*
X329259Y470078D01*
X329267Y470053D01*
X329278Y470026D01*
X329286Y469993D01*
X329295Y469960D01*
X329306Y469922D01*
X329319Y469840D01*
X329330Y469750D01*
X329336Y469652D01*
Y469619D01*
X329333Y469594D01*
Y469564D01*
X329330Y469531D01*
X329327Y469493D01*
X329322Y469450D01*
X329311Y469359D01*
X329295Y469264D01*
X329270Y469168D01*
X329237Y469076D01*
Y469073D01*
X329232Y469065D01*
X329226Y469054D01*
X329218Y469037D01*
X329207Y469018D01*
X329196Y468996D01*
X329164Y468945D01*
X329123Y468887D01*
X329071Y468827D01*
X329011Y468767D01*
X328940Y468715D01*
X328937Y468713D01*
X328931Y468710D01*
X328921Y468704D01*
X328904Y468696D01*
X328885Y468685D01*
X328863Y468674D01*
X328836Y468661D01*
X328806Y468650D01*
X328776Y468636D01*
X328740Y468625D01*
X328661Y468603D01*
X328577Y468587D01*
X328530Y468581D01*
X328484Y468579D01*
X328456Y468893D01*
X328459D01*
X328465D01*
X328476Y468895D01*
X328489Y468898D01*
X328506Y468901D01*
X328522Y468904D01*
X328568Y468915D01*
X328618Y468928D01*
X328670Y468945D01*
X328721Y468966D01*
X328770Y468994D01*
X328776Y468996D01*
X328790Y469010D01*
X328811Y469029D01*
X328839Y469057D01*
X328871Y469092D01*
X328902Y469136D01*
X328934Y469187D01*
X328964Y469248D01*
Y469250D01*
X328967Y469256D01*
X328970Y469264D01*
X328975Y469278D01*
X328981Y469294D01*
X328989Y469313D01*
X328994Y469335D01*
X329000Y469359D01*
X329013Y469417D01*
X329027Y469485D01*
X329035Y469556D01*
X329038Y469635D01*
Y469668D01*
X329035Y469684D01*
Y469703D01*
X329030Y469747D01*
X329024Y469799D01*
X329016Y469856D01*
X329002Y469914D01*
X328983Y469968D01*
Y469971D01*
X328981Y469974D01*
X328978Y469982D01*
X328973Y469993D01*
X328959Y470017D01*
X328942Y470050D01*
X328921Y470086D01*
X328893Y470124D01*
X328863Y470157D01*
X328828Y470187D01*
X328822Y470190D01*
X328811Y470198D01*
X328790Y470211D01*
X328762Y470225D01*
X328730Y470236D01*
X328694Y470250D01*
X328653Y470258D01*
X328612Y470260D01*
X328609D01*
X328607D01*
X328593D01*
X328568Y470258D01*
X328541Y470252D01*
X328508Y470244D01*
X328473Y470230D01*
X328437Y470214D01*
X328405Y470190D01*
X328402Y470187D01*
X328391Y470176D01*
X328375Y470159D01*
X328353Y470135D01*
X328331Y470105D01*
X328306Y470064D01*
X328282Y470017D01*
X328257Y469963D01*
X328255Y469957D01*
X328252Y469952D01*
X328249Y469941D01*
X328246Y469930D01*
X328241Y469914D01*
X328233Y469892D01*
X328227Y469870D01*
X328219Y469840D01*
X328208Y469810D01*
X328200Y469772D01*
X328189Y469731D01*
X328175Y469684D01*
X328164Y469635D01*
X328148Y469578D01*
X328134Y469515D01*
Y469512D01*
X328132Y469501D01*
X328126Y469482D01*
X328121Y469460D01*
X328113Y469430D01*
X328104Y469398D01*
X328093Y469365D01*
X328082Y469327D01*
X328058Y469245D01*
X328031Y469166D01*
X328017Y469128D01*
X328003Y469092D01*
X327990Y469059D01*
X327976Y469032D01*
Y469029D01*
X327971Y469024D01*
X327965Y469016D01*
X327960Y469002D01*
X327941Y468969D01*
X327913Y468931D01*
X327878Y468885D01*
X327839Y468841D01*
X327793Y468797D01*
X327744Y468762D01*
X327741D01*
X327738Y468759D01*
X327730Y468753D01*
X327719Y468748D01*
X327689Y468734D01*
X327651Y468718D01*
X327605Y468702D01*
X327550Y468688D01*
X327490Y468677D01*
X327427Y468674D01*
X327425D01*
X327419D01*
X327408D01*
X327395Y468677D01*
X327378D01*
X327359Y468680D01*
X327310Y468688D01*
X327255Y468702D01*
X327198Y468718D01*
X327135Y468745D01*
X327072Y468781D01*
X327070D01*
X327064Y468786D01*
X327056Y468792D01*
X327045Y468800D01*
X327015Y468827D01*
X326977Y468863D01*
X326936Y468906D01*
X326895Y468961D01*
X326854Y469024D01*
X326818Y469098D01*
Y469100D01*
X326816Y469106D01*
X326810Y469119D01*
X326805Y469133D01*
X326799Y469152D01*
X326791Y469177D01*
X326783Y469204D01*
X326775Y469234D01*
X326767Y469267D01*
X326759Y469302D01*
X326745Y469379D01*
X326734Y469466D01*
X326731Y469559D01*
Y469605D01*
X326734Y469630D01*
X326737Y469660D01*
X326739Y469690D01*
X326742Y469725D01*
X326753Y469802D01*
X326769Y469886D01*
X326794Y469971D01*
X326824Y470053D01*
Y470056D01*
X326829Y470061D01*
X326832Y470075D01*
X326840Y470088D01*
X326851Y470105D01*
X326862Y470127D01*
X326889Y470173D01*
X326928Y470228D01*
X326974Y470282D01*
X327026Y470334D01*
X327089Y470381D01*
X327092Y470383D01*
X327097Y470386D01*
X327105Y470392D01*
X327119Y470400D01*
X327135Y470408D01*
X327154Y470419D01*
X327179Y470427D01*
X327203Y470441D01*
X327261Y470462D01*
X327329Y470482D01*
X327403Y470498D01*
X327485Y470506D01*
X327509Y470187D01*
X327506D01*
X327498Y470184D01*
X327487D01*
X327471Y470181D01*
X327449Y470176D01*
X327427Y470170D01*
X327375Y470154D01*
X327318Y470132D01*
X327258Y470099D01*
X327201Y470061D01*
X327176Y470037D01*
X327152Y470009D01*
X327149Y470007D01*
X327146Y470004D01*
X327141Y469993D01*
X327133Y469982D01*
X327124Y469966D01*
X327113Y469946D01*
X327102Y469925D01*
X327089Y469900D01*
X327078Y469870D01*
X327067Y469837D01*
X327056Y469802D01*
X327048Y469764D01*
X327040Y469720D01*
X327034Y469673D01*
X327029Y469624D01*
Y469545D01*
X327031Y469523D01*
Y469499D01*
X327034Y469472D01*
X327037Y469439D01*
X327042Y469406D01*
X327056Y469332D01*
X327075Y469261D01*
X327102Y469193D01*
X327121Y469160D01*
X327141Y469133D01*
Y469130D01*
X327146Y469128D01*
X327160Y469111D01*
X327184Y469089D01*
X327217Y469065D01*
X327255Y469040D01*
X327302Y469018D01*
X327351Y469002D01*
X327378Y468999D01*
X327408Y468996D01*
X327411D01*
X327414D01*
X327430Y468999D01*
X327455Y469002D01*
X327485Y469007D01*
X327520Y469021D01*
X327558Y469037D01*
X327594Y469059D01*
X327629Y469092D01*
X327632Y469098D01*
X327638Y469103D01*
X327646Y469114D01*
X327654Y469128D01*
X327662Y469144D01*
X327673Y469166D01*
X327687Y469190D01*
X327700Y469220D01*
X327714Y469256D01*
X327728Y469297D01*
X327744Y469343D01*
X327760Y469398D01*
X327777Y469455D01*
X327796Y469521D01*
X327812Y469594D01*
Y469600D01*
X327815Y469613D01*
X327820Y469632D01*
X327829Y469660D01*
X327834Y469693D01*
X327845Y469731D01*
X327853Y469772D01*
X327867Y469815D01*
X327891Y469908D01*
X327916Y470001D01*
X327930Y470045D01*
X327943Y470083D01*
X327957Y470121D01*
X327971Y470151D01*
Y470154D01*
X327976Y470162D01*
X327981Y470173D01*
X327990Y470187D01*
X327998Y470206D01*
X328011Y470228D01*
X328042Y470274D01*
X328077Y470329D01*
X328121Y470381D01*
X328173Y470432D01*
X328200Y470454D01*
X328227Y470476D01*
X328230D01*
X328235Y470482D01*
X328244Y470487D01*
X328255Y470493D01*
X328268Y470501D01*
X328287Y470509D01*
X328331Y470531D01*
X328383Y470550D01*
X328443Y470566D01*
X328511Y470577D01*
X328585Y470583D01*
X328588D01*
X328593D01*
X328604D01*
X328618Y470580D01*
D02*
G37*
G36*
X380390Y481686D02*
X380420D01*
X380453Y481684D01*
X380491Y481681D01*
X380535Y481675D01*
X380625Y481664D01*
X380720Y481648D01*
X380816Y481624D01*
X380909Y481591D01*
X380911D01*
X380920Y481585D01*
X380930Y481580D01*
X380947Y481572D01*
X380966Y481561D01*
X380988Y481550D01*
X381040Y481517D01*
X381097Y481476D01*
X381157Y481424D01*
X381217Y481364D01*
X381269Y481293D01*
X381272Y481290D01*
X381275Y481285D01*
X381280Y481274D01*
X381288Y481258D01*
X381299Y481239D01*
X381310Y481217D01*
X381324Y481189D01*
X381334Y481159D01*
X381348Y481129D01*
X381359Y481094D01*
X381381Y481015D01*
X381397Y480930D01*
X381403Y480884D01*
X381405Y480837D01*
X381092Y480810D01*
Y480813D01*
Y480818D01*
X381089Y480829D01*
X381086Y480843D01*
X381083Y480859D01*
X381081Y480875D01*
X381070Y480922D01*
X381056Y480971D01*
X381040Y481023D01*
X381018Y481075D01*
X380991Y481124D01*
X380988Y481129D01*
X380974Y481143D01*
X380955Y481165D01*
X380928Y481192D01*
X380892Y481225D01*
X380849Y481255D01*
X380797Y481288D01*
X380737Y481318D01*
X380734D01*
X380729Y481320D01*
X380720Y481323D01*
X380707Y481329D01*
X380690Y481334D01*
X380671Y481342D01*
X380649Y481348D01*
X380625Y481353D01*
X380567Y481367D01*
X380499Y481381D01*
X380428Y481389D01*
X380349Y481391D01*
X380316D01*
X380300Y481389D01*
X380281D01*
X380237Y481383D01*
X380185Y481378D01*
X380128Y481370D01*
X380071Y481356D01*
X380016Y481337D01*
X380013D01*
X380011Y481334D01*
X380002Y481331D01*
X379991Y481326D01*
X379967Y481312D01*
X379934Y481296D01*
X379899Y481274D01*
X379860Y481247D01*
X379828Y481217D01*
X379798Y481181D01*
X379795Y481176D01*
X379787Y481165D01*
X379773Y481143D01*
X379759Y481116D01*
X379748Y481083D01*
X379735Y481047D01*
X379727Y481006D01*
X379724Y480966D01*
Y480963D01*
Y480960D01*
Y480946D01*
X379727Y480922D01*
X379732Y480895D01*
X379740Y480862D01*
X379754Y480826D01*
X379770Y480791D01*
X379795Y480758D01*
X379798Y480755D01*
X379808Y480744D01*
X379825Y480728D01*
X379849Y480706D01*
X379879Y480684D01*
X379920Y480660D01*
X379967Y480635D01*
X380021Y480611D01*
X380027Y480608D01*
X380032Y480605D01*
X380043Y480603D01*
X380054Y480600D01*
X380071Y480594D01*
X380092Y480586D01*
X380114Y480581D01*
X380144Y480572D01*
X380174Y480561D01*
X380212Y480553D01*
X380254Y480542D01*
X380300Y480529D01*
X380349Y480518D01*
X380406Y480502D01*
X380469Y480488D01*
X380472D01*
X380483Y480485D01*
X380502Y480480D01*
X380524Y480474D01*
X380554Y480466D01*
X380587Y480458D01*
X380619Y480447D01*
X380658Y480436D01*
X380739Y480411D01*
X380819Y480384D01*
X380857Y480370D01*
X380892Y480357D01*
X380925Y480343D01*
X380952Y480330D01*
X380955D01*
X380960Y480324D01*
X380969Y480318D01*
X380982Y480313D01*
X381015Y480294D01*
X381053Y480267D01*
X381100Y480231D01*
X381143Y480193D01*
X381187Y480147D01*
X381223Y480097D01*
Y480095D01*
X381225Y480092D01*
X381231Y480084D01*
X381236Y480073D01*
X381250Y480043D01*
X381266Y480005D01*
X381283Y479958D01*
X381296Y479904D01*
X381307Y479844D01*
X381310Y479781D01*
Y479778D01*
Y479773D01*
Y479762D01*
X381307Y479748D01*
Y479732D01*
X381305Y479712D01*
X381296Y479663D01*
X381283Y479609D01*
X381266Y479551D01*
X381239Y479489D01*
X381204Y479426D01*
Y479423D01*
X381198Y479418D01*
X381193Y479410D01*
X381184Y479398D01*
X381157Y479368D01*
X381122Y479330D01*
X381078Y479289D01*
X381023Y479248D01*
X380960Y479207D01*
X380887Y479172D01*
X380884D01*
X380879Y479169D01*
X380865Y479164D01*
X380851Y479158D01*
X380832Y479153D01*
X380808Y479145D01*
X380780Y479137D01*
X380750Y479128D01*
X380718Y479120D01*
X380682Y479112D01*
X380606Y479098D01*
X380518Y479087D01*
X380426Y479085D01*
X380379D01*
X380354Y479087D01*
X380324Y479090D01*
X380294Y479093D01*
X380259Y479096D01*
X380183Y479106D01*
X380098Y479123D01*
X380013Y479147D01*
X379931Y479177D01*
X379929D01*
X379923Y479183D01*
X379909Y479186D01*
X379896Y479194D01*
X379879Y479205D01*
X379858Y479216D01*
X379811Y479243D01*
X379757Y479281D01*
X379702Y479328D01*
X379650Y479379D01*
X379604Y479442D01*
X379601Y479445D01*
X379598Y479450D01*
X379593Y479459D01*
X379585Y479472D01*
X379576Y479489D01*
X379566Y479508D01*
X379557Y479532D01*
X379544Y479557D01*
X379522Y479614D01*
X379503Y479682D01*
X379486Y479756D01*
X379478Y479838D01*
X379798Y479863D01*
Y479860D01*
X379800Y479852D01*
Y479841D01*
X379803Y479824D01*
X379808Y479803D01*
X379814Y479781D01*
X379830Y479729D01*
X379852Y479671D01*
X379885Y479611D01*
X379923Y479554D01*
X379948Y479530D01*
X379975Y479505D01*
X379978Y479502D01*
X379980Y479499D01*
X379991Y479494D01*
X380002Y479486D01*
X380019Y479478D01*
X380038Y479467D01*
X380060Y479456D01*
X380084Y479442D01*
X380114Y479431D01*
X380147Y479420D01*
X380183Y479410D01*
X380221Y479401D01*
X380264Y479393D01*
X380311Y479388D01*
X380360Y479382D01*
X380439D01*
X380461Y479385D01*
X380486D01*
X380513Y479388D01*
X380546Y479390D01*
X380578Y479396D01*
X380652Y479410D01*
X380723Y479429D01*
X380791Y479456D01*
X380824Y479475D01*
X380851Y479494D01*
X380854D01*
X380857Y479499D01*
X380873Y479513D01*
X380895Y479538D01*
X380920Y479570D01*
X380944Y479609D01*
X380966Y479655D01*
X380982Y479704D01*
X380985Y479732D01*
X380988Y479762D01*
Y479764D01*
Y479767D01*
X380985Y479783D01*
X380982Y479808D01*
X380977Y479838D01*
X380963Y479874D01*
X380947Y479912D01*
X380925Y479947D01*
X380892Y479983D01*
X380887Y479986D01*
X380881Y479991D01*
X380870Y479999D01*
X380857Y480007D01*
X380840Y480016D01*
X380819Y480026D01*
X380794Y480040D01*
X380764Y480054D01*
X380729Y480067D01*
X380687Y480081D01*
X380641Y480097D01*
X380587Y480114D01*
X380529Y480130D01*
X380464Y480149D01*
X380390Y480166D01*
X380384D01*
X380371Y480168D01*
X380352Y480174D01*
X380324Y480182D01*
X380292Y480188D01*
X380254Y480198D01*
X380212Y480207D01*
X380169Y480220D01*
X380076Y480245D01*
X379983Y480269D01*
X379940Y480283D01*
X379901Y480297D01*
X379863Y480310D01*
X379833Y480324D01*
X379830D01*
X379822Y480330D01*
X379811Y480335D01*
X379798Y480343D01*
X379779Y480351D01*
X379757Y480365D01*
X379710Y480395D01*
X379656Y480431D01*
X379604Y480474D01*
X379552Y480526D01*
X379530Y480553D01*
X379508Y480581D01*
Y480583D01*
X379503Y480589D01*
X379497Y480597D01*
X379492Y480608D01*
X379484Y480622D01*
X379475Y480641D01*
X379454Y480684D01*
X379434Y480736D01*
X379418Y480796D01*
X379407Y480864D01*
X379402Y480938D01*
Y480941D01*
Y480946D01*
Y480957D01*
X379404Y480971D01*
Y480990D01*
X379407Y481009D01*
X379415Y481061D01*
X379429Y481118D01*
X379451Y481181D01*
X379481Y481247D01*
X379497Y481282D01*
X379519Y481315D01*
Y481318D01*
X379525Y481323D01*
X379530Y481331D01*
X379541Y481345D01*
X379566Y481375D01*
X379604Y481416D01*
X379650Y481460D01*
X379708Y481506D01*
X379773Y481550D01*
X379849Y481591D01*
X379852D01*
X379860Y481596D01*
X379871Y481599D01*
X379888Y481607D01*
X379907Y481613D01*
X379931Y481621D01*
X379959Y481632D01*
X379991Y481640D01*
X380024Y481648D01*
X380062Y481659D01*
X380144Y481673D01*
X380234Y481684D01*
X380333Y481689D01*
X380365D01*
X380390Y481686D01*
D02*
G37*
G36*
X379175Y479128D02*
X378831D01*
X378452Y480783D01*
Y480785D01*
X378449Y480794D01*
X378446Y480807D01*
X378441Y480826D01*
X378435Y480851D01*
X378430Y480878D01*
X378422Y480908D01*
X378414Y480944D01*
X378405Y480982D01*
X378397Y481023D01*
X378381Y481108D01*
X378362Y481200D01*
X378345Y481296D01*
Y481290D01*
X378340Y481280D01*
X378337Y481258D01*
X378329Y481233D01*
X378323Y481200D01*
X378315Y481165D01*
X378304Y481127D01*
X378296Y481088D01*
X378274Y481006D01*
X378266Y480968D01*
X378255Y480930D01*
X378247Y480897D01*
X378241Y480870D01*
X378236Y480848D01*
X378231Y480832D01*
X377750Y479128D01*
X377349D01*
X376991Y480406D01*
X376988Y480411D01*
X376986Y480428D01*
X376977Y480452D01*
X376969Y480488D01*
X376958Y480529D01*
X376945Y480578D01*
X376931Y480632D01*
X376915Y480695D01*
X376898Y480761D01*
X376882Y480832D01*
X376866Y480905D01*
X376849Y480982D01*
X376819Y481138D01*
X376792Y481296D01*
Y481293D01*
X376789Y481285D01*
X376786Y481271D01*
X376784Y481255D01*
X376778Y481230D01*
X376773Y481203D01*
X376764Y481173D01*
X376756Y481138D01*
X376748Y481099D01*
X376740Y481058D01*
X376729Y481012D01*
X376718Y480966D01*
X376694Y480862D01*
X376666Y480750D01*
X376270Y479128D01*
X375935D01*
X376625Y481648D01*
X376950D01*
X377477Y479729D01*
Y479726D01*
X377480Y479718D01*
X377483Y479707D01*
X377488Y479691D01*
X377493Y479671D01*
X377499Y479650D01*
X377513Y479601D01*
X377526Y479551D01*
X377540Y479502D01*
X377545Y479480D01*
X377551Y479461D01*
X377556Y479445D01*
X377559Y479434D01*
Y479437D01*
X377562Y479442D01*
Y479450D01*
X377567Y479464D01*
X377570Y479478D01*
X377573Y479497D01*
X377584Y479535D01*
X377594Y479581D01*
X377608Y479633D01*
X377622Y479682D01*
X377635Y479729D01*
X378165Y481648D01*
X378512D01*
X379175Y479128D01*
D02*
G37*
G36*
X375793Y481643D02*
Y481629D01*
Y481607D01*
X375790Y481580D01*
X375787Y481547D01*
X375779Y481512D01*
X375771Y481473D01*
X375757Y481435D01*
Y481432D01*
X375754Y481427D01*
X375752Y481419D01*
X375746Y481405D01*
X375738Y481391D01*
X375730Y481372D01*
X375708Y481329D01*
X375681Y481277D01*
X375645Y481219D01*
X375604Y481159D01*
X375555Y481099D01*
X375552Y481097D01*
X375550Y481091D01*
X375541Y481083D01*
X375528Y481069D01*
X375514Y481056D01*
X375495Y481037D01*
X375476Y481015D01*
X375451Y480990D01*
X375424Y480963D01*
X375394Y480935D01*
X375361Y480903D01*
X375323Y480870D01*
X375285Y480834D01*
X375241Y480799D01*
X375198Y480761D01*
X375148Y480720D01*
X375143Y480717D01*
X375129Y480703D01*
X375110Y480687D01*
X375083Y480662D01*
X375050Y480635D01*
X375012Y480603D01*
X374968Y480567D01*
X374924Y480526D01*
X374832Y480441D01*
X374742Y480351D01*
X374698Y480308D01*
X374657Y480264D01*
X374622Y480223D01*
X374591Y480185D01*
X374589Y480182D01*
X374586Y480177D01*
X374578Y480166D01*
X374570Y480152D01*
X374556Y480133D01*
X374545Y480114D01*
X374518Y480065D01*
X374490Y480007D01*
X374466Y479945D01*
X374449Y479879D01*
X374447Y479846D01*
X374444Y479813D01*
Y479811D01*
Y479805D01*
Y479794D01*
X374447Y479783D01*
Y479767D01*
X374452Y479748D01*
X374460Y479707D01*
X374477Y479658D01*
X374501Y479606D01*
X374515Y479579D01*
X374534Y479554D01*
X374553Y479530D01*
X374578Y479505D01*
X374581Y479502D01*
X374583Y479499D01*
X374591Y479494D01*
X374602Y479486D01*
X374616Y479475D01*
X374632Y479464D01*
X374671Y479439D01*
X374723Y479418D01*
X374780Y479396D01*
X374848Y479382D01*
X374886Y479377D01*
X374946D01*
X374963Y479379D01*
X374982D01*
X375004Y479385D01*
X375053Y479393D01*
X375110Y479410D01*
X375170Y479434D01*
X375200Y479450D01*
X375230Y479467D01*
X375258Y479489D01*
X375285Y479513D01*
X375288Y479516D01*
X375290Y479519D01*
X375296Y479527D01*
X375307Y479538D01*
X375315Y479551D01*
X375326Y479568D01*
X375340Y479587D01*
X375350Y479609D01*
X375364Y479633D01*
X375375Y479661D01*
X375397Y479726D01*
X375413Y479797D01*
X375416Y479838D01*
X375419Y479882D01*
X375735Y479849D01*
Y479844D01*
X375733Y479833D01*
X375730Y479816D01*
X375727Y479792D01*
X375722Y479762D01*
X375713Y479726D01*
X375705Y479688D01*
X375692Y479647D01*
X375678Y479606D01*
X375662Y479560D01*
X375640Y479516D01*
X375618Y479472D01*
X375591Y479426D01*
X375561Y479385D01*
X375528Y479344D01*
X375490Y479308D01*
X375487Y479306D01*
X375479Y479300D01*
X375468Y479292D01*
X375451Y479278D01*
X375430Y479265D01*
X375402Y479248D01*
X375372Y479232D01*
X375337Y479213D01*
X375299Y479197D01*
X375255Y479180D01*
X375208Y479164D01*
X375157Y479150D01*
X375102Y479137D01*
X375045Y479128D01*
X374982Y479123D01*
X374916Y479120D01*
X374881D01*
X374856Y479123D01*
X374826Y479125D01*
X374791Y479131D01*
X374750Y479137D01*
X374709Y479145D01*
X374662Y479156D01*
X374616Y479169D01*
X374567Y479186D01*
X374520Y479205D01*
X374471Y479229D01*
X374425Y479257D01*
X374381Y479287D01*
X374340Y479322D01*
X374338Y479325D01*
X374332Y479330D01*
X374321Y479344D01*
X374307Y479358D01*
X374291Y479377D01*
X374272Y479401D01*
X374253Y479429D01*
X374234Y479461D01*
X374215Y479494D01*
X374196Y479532D01*
X374177Y479573D01*
X374160Y479617D01*
X374147Y479666D01*
X374135Y479715D01*
X374130Y479767D01*
X374127Y479822D01*
Y479824D01*
Y479827D01*
Y479835D01*
Y479846D01*
X374130Y479876D01*
X374135Y479915D01*
X374144Y479961D01*
X374155Y480010D01*
X374168Y480065D01*
X374190Y480119D01*
Y480122D01*
X374193Y480125D01*
X374196Y480133D01*
X374201Y480144D01*
X374217Y480174D01*
X374239Y480212D01*
X374269Y480259D01*
X374305Y480310D01*
X374346Y480365D01*
X374398Y480425D01*
X374400Y480428D01*
X374403Y480433D01*
X374414Y480441D01*
X374425Y480455D01*
X374441Y480471D01*
X374460Y480490D01*
X374482Y480515D01*
X374510Y480540D01*
X374542Y480570D01*
X374578Y480603D01*
X374616Y480641D01*
X374660Y480679D01*
X374706Y480723D01*
X374758Y480766D01*
X374815Y480815D01*
X374875Y480867D01*
X374878Y480870D01*
X374886Y480878D01*
X374903Y480889D01*
X374919Y480905D01*
X374944Y480925D01*
X374968Y480946D01*
X375026Y480996D01*
X375086Y481047D01*
X375143Y481102D01*
X375170Y481127D01*
X375195Y481148D01*
X375217Y481170D01*
X375233Y481187D01*
X375236Y481189D01*
X375247Y481200D01*
X375260Y481217D01*
X375279Y481239D01*
X375301Y481263D01*
X375323Y481290D01*
X375367Y481351D01*
X374125D01*
Y481648D01*
X375793D01*
Y481643D01*
D02*
G37*
G36*
X423038Y461263D02*
X423641D01*
Y460955D01*
X423038D01*
Y459857D01*
X422754D01*
X421121Y461009D01*
Y461263D01*
X422754D01*
Y461604D01*
X423038D01*
Y461263D01*
D02*
G37*
G36*
X423641Y459087D02*
Y458762D01*
X421722Y458236D01*
X421719D01*
X421711Y458233D01*
X421700Y458230D01*
X421684Y458225D01*
X421665Y458219D01*
X421643Y458214D01*
X421594Y458200D01*
X421544Y458186D01*
X421495Y458173D01*
X421474Y458167D01*
X421454Y458162D01*
X421438Y458156D01*
X421427Y458154D01*
X421430D01*
X421435Y458151D01*
X421443D01*
X421457Y458146D01*
X421471Y458143D01*
X421490Y458140D01*
X421528Y458129D01*
X421574Y458118D01*
X421626Y458105D01*
X421675Y458091D01*
X421722Y458077D01*
X423641Y457548D01*
Y457201D01*
X421121Y456537D01*
Y456882D01*
X422776Y457261D01*
X422778D01*
X422787Y457264D01*
X422800Y457266D01*
X422819Y457272D01*
X422844Y457277D01*
X422871Y457283D01*
X422901Y457291D01*
X422937Y457299D01*
X422975Y457307D01*
X423016Y457315D01*
X423101Y457332D01*
X423193Y457351D01*
X423289Y457367D01*
X423283D01*
X423273Y457373D01*
X423251Y457376D01*
X423226Y457384D01*
X423193Y457389D01*
X423158Y457398D01*
X423120Y457408D01*
X423081Y457417D01*
X422999Y457438D01*
X422961Y457447D01*
X422923Y457457D01*
X422890Y457466D01*
X422863Y457471D01*
X422841Y457477D01*
X422825Y457482D01*
X421121Y457963D01*
Y458364D01*
X422399Y458721D01*
X422404Y458724D01*
X422421Y458727D01*
X422445Y458735D01*
X422481Y458743D01*
X422522Y458754D01*
X422571Y458768D01*
X422625Y458782D01*
X422688Y458798D01*
X422754Y458814D01*
X422825Y458831D01*
X422898Y458847D01*
X422975Y458863D01*
X423131Y458893D01*
X423289Y458921D01*
X423286D01*
X423278Y458923D01*
X423264Y458926D01*
X423248Y458929D01*
X423223Y458934D01*
X423196Y458940D01*
X423166Y458948D01*
X423131Y458956D01*
X423092Y458964D01*
X423051Y458973D01*
X423005Y458984D01*
X422959Y458994D01*
X422855Y459019D01*
X422743Y459046D01*
X421121Y459442D01*
Y459778D01*
X423641Y459087D01*
D02*
G37*
G36*
X422964Y456308D02*
X422983D01*
X423002Y456306D01*
X423054Y456297D01*
X423111Y456284D01*
X423174Y456262D01*
X423240Y456232D01*
X423275Y456215D01*
X423308Y456193D01*
X423311D01*
X423316Y456188D01*
X423324Y456183D01*
X423338Y456172D01*
X423368Y456147D01*
X423409Y456109D01*
X423453Y456063D01*
X423499Y456005D01*
X423543Y455940D01*
X423584Y455863D01*
Y455861D01*
X423589Y455852D01*
X423592Y455841D01*
X423600Y455825D01*
X423606Y455806D01*
X423614Y455781D01*
X423625Y455754D01*
X423633Y455721D01*
X423641Y455688D01*
X423652Y455650D01*
X423666Y455568D01*
X423677Y455478D01*
X423682Y455380D01*
Y455347D01*
X423679Y455323D01*
Y455293D01*
X423677Y455260D01*
X423674Y455222D01*
X423668Y455178D01*
X423658Y455088D01*
X423641Y454992D01*
X423617Y454897D01*
X423584Y454804D01*
Y454801D01*
X423578Y454793D01*
X423573Y454782D01*
X423565Y454766D01*
X423554Y454747D01*
X423543Y454725D01*
X423510Y454673D01*
X423469Y454616D01*
X423417Y454556D01*
X423357Y454495D01*
X423286Y454444D01*
X423283Y454441D01*
X423278Y454438D01*
X423267Y454433D01*
X423251Y454424D01*
X423232Y454414D01*
X423210Y454403D01*
X423182Y454389D01*
X423152Y454378D01*
X423122Y454364D01*
X423087Y454354D01*
X423008Y454332D01*
X422923Y454315D01*
X422877Y454310D01*
X422830Y454307D01*
X422803Y454621D01*
X422806D01*
X422811D01*
X422822Y454624D01*
X422836Y454627D01*
X422852Y454629D01*
X422868Y454632D01*
X422915Y454643D01*
X422964Y454657D01*
X423016Y454673D01*
X423068Y454695D01*
X423117Y454722D01*
X423122Y454725D01*
X423136Y454738D01*
X423158Y454757D01*
X423185Y454785D01*
X423218Y454820D01*
X423248Y454864D01*
X423281Y454916D01*
X423311Y454976D01*
Y454979D01*
X423314Y454984D01*
X423316Y454992D01*
X423322Y455006D01*
X423327Y455022D01*
X423335Y455042D01*
X423341Y455063D01*
X423346Y455088D01*
X423360Y455145D01*
X423374Y455213D01*
X423382Y455284D01*
X423385Y455364D01*
Y455396D01*
X423382Y455413D01*
Y455432D01*
X423376Y455476D01*
X423371Y455527D01*
X423363Y455585D01*
X423349Y455642D01*
X423330Y455697D01*
Y455699D01*
X423327Y455702D01*
X423324Y455710D01*
X423319Y455721D01*
X423305Y455746D01*
X423289Y455779D01*
X423267Y455814D01*
X423240Y455852D01*
X423210Y455885D01*
X423174Y455915D01*
X423169Y455918D01*
X423158Y455926D01*
X423136Y455940D01*
X423109Y455953D01*
X423076Y455964D01*
X423040Y455978D01*
X422999Y455986D01*
X422959Y455989D01*
X422956D01*
X422953D01*
X422939D01*
X422915Y455986D01*
X422888Y455981D01*
X422855Y455972D01*
X422819Y455959D01*
X422784Y455942D01*
X422751Y455918D01*
X422748Y455915D01*
X422737Y455904D01*
X422721Y455888D01*
X422699Y455863D01*
X422677Y455833D01*
X422653Y455792D01*
X422628Y455746D01*
X422604Y455691D01*
X422601Y455686D01*
X422598Y455680D01*
X422596Y455669D01*
X422593Y455658D01*
X422587Y455642D01*
X422579Y455620D01*
X422574Y455598D01*
X422566Y455568D01*
X422554Y455538D01*
X422546Y455500D01*
X422535Y455459D01*
X422522Y455413D01*
X422511Y455364D01*
X422495Y455306D01*
X422481Y455243D01*
Y455241D01*
X422478Y455230D01*
X422473Y455211D01*
X422467Y455189D01*
X422459Y455159D01*
X422451Y455126D01*
X422440Y455093D01*
X422429Y455055D01*
X422404Y454973D01*
X422377Y454894D01*
X422363Y454856D01*
X422350Y454820D01*
X422336Y454788D01*
X422323Y454760D01*
Y454757D01*
X422317Y454752D01*
X422312Y454744D01*
X422306Y454730D01*
X422287Y454698D01*
X422260Y454659D01*
X422224Y454613D01*
X422186Y454569D01*
X422140Y454526D01*
X422090Y454490D01*
X422088D01*
X422085Y454487D01*
X422077Y454482D01*
X422066Y454476D01*
X422036Y454463D01*
X421998Y454446D01*
X421951Y454430D01*
X421897Y454416D01*
X421837Y454405D01*
X421774Y454403D01*
X421771D01*
X421766D01*
X421755D01*
X421741Y454405D01*
X421725D01*
X421705Y454408D01*
X421656Y454416D01*
X421602Y454430D01*
X421544Y454446D01*
X421482Y454474D01*
X421419Y454509D01*
X421416D01*
X421411Y454515D01*
X421403Y454520D01*
X421392Y454528D01*
X421361Y454556D01*
X421323Y454591D01*
X421282Y454635D01*
X421241Y454689D01*
X421201Y454752D01*
X421165Y454826D01*
Y454829D01*
X421162Y454834D01*
X421157Y454848D01*
X421151Y454861D01*
X421146Y454880D01*
X421138Y454905D01*
X421130Y454932D01*
X421121Y454962D01*
X421113Y454995D01*
X421105Y455030D01*
X421091Y455107D01*
X421080Y455194D01*
X421078Y455287D01*
Y455334D01*
X421080Y455358D01*
X421083Y455388D01*
X421086Y455418D01*
X421089Y455454D01*
X421099Y455530D01*
X421116Y455615D01*
X421140Y455699D01*
X421170Y455781D01*
Y455784D01*
X421176Y455790D01*
X421179Y455803D01*
X421187Y455817D01*
X421198Y455833D01*
X421209Y455855D01*
X421236Y455901D01*
X421274Y455956D01*
X421321Y456011D01*
X421373Y456063D01*
X421435Y456109D01*
X421438Y456112D01*
X421443Y456114D01*
X421452Y456120D01*
X421465Y456128D01*
X421482Y456136D01*
X421501Y456147D01*
X421525Y456155D01*
X421550Y456169D01*
X421607Y456191D01*
X421675Y456210D01*
X421749Y456226D01*
X421831Y456235D01*
X421856Y455915D01*
X421853D01*
X421845Y455912D01*
X421834D01*
X421817Y455910D01*
X421796Y455904D01*
X421774Y455899D01*
X421722Y455882D01*
X421665Y455861D01*
X421604Y455828D01*
X421547Y455790D01*
X421523Y455765D01*
X421498Y455738D01*
X421495Y455735D01*
X421493Y455732D01*
X421487Y455721D01*
X421479Y455710D01*
X421471Y455694D01*
X421460Y455675D01*
X421449Y455653D01*
X421435Y455628D01*
X421424Y455598D01*
X421413Y455566D01*
X421403Y455530D01*
X421394Y455492D01*
X421386Y455448D01*
X421381Y455402D01*
X421375Y455353D01*
Y455273D01*
X421378Y455252D01*
Y455227D01*
X421381Y455200D01*
X421383Y455167D01*
X421389Y455134D01*
X421403Y455061D01*
X421422Y454990D01*
X421449Y454921D01*
X421468Y454889D01*
X421487Y454861D01*
Y454859D01*
X421493Y454856D01*
X421506Y454839D01*
X421531Y454818D01*
X421564Y454793D01*
X421602Y454769D01*
X421648Y454747D01*
X421697Y454730D01*
X421725Y454728D01*
X421755Y454725D01*
X421757D01*
X421760D01*
X421776Y454728D01*
X421801Y454730D01*
X421831Y454736D01*
X421867Y454749D01*
X421905Y454766D01*
X421940Y454788D01*
X421976Y454820D01*
X421979Y454826D01*
X421984Y454831D01*
X421992Y454842D01*
X422000Y454856D01*
X422009Y454872D01*
X422019Y454894D01*
X422033Y454919D01*
X422047Y454949D01*
X422060Y454984D01*
X422074Y455025D01*
X422090Y455071D01*
X422107Y455126D01*
X422123Y455183D01*
X422142Y455249D01*
X422159Y455323D01*
Y455328D01*
X422161Y455342D01*
X422167Y455361D01*
X422175Y455388D01*
X422181Y455421D01*
X422191Y455459D01*
X422200Y455500D01*
X422213Y455544D01*
X422238Y455637D01*
X422262Y455729D01*
X422276Y455773D01*
X422290Y455811D01*
X422303Y455850D01*
X422317Y455880D01*
Y455882D01*
X422323Y455891D01*
X422328Y455901D01*
X422336Y455915D01*
X422344Y455934D01*
X422358Y455956D01*
X422388Y456002D01*
X422424Y456057D01*
X422467Y456109D01*
X422519Y456161D01*
X422546Y456183D01*
X422574Y456204D01*
X422576D01*
X422582Y456210D01*
X422590Y456215D01*
X422601Y456221D01*
X422615Y456229D01*
X422634Y456237D01*
X422677Y456259D01*
X422729Y456278D01*
X422789Y456294D01*
X422858Y456306D01*
X422931Y456311D01*
X422934D01*
X422939D01*
X422950D01*
X422964Y456308D01*
D02*
G37*
G36*
X469662Y430980D02*
X468490D01*
X468460Y430983D01*
X468430D01*
X468395Y430986D01*
X468354Y430989D01*
X468272Y430997D01*
X468187Y431010D01*
X468105Y431027D01*
X468070Y431038D01*
X468034Y431048D01*
X468032D01*
X468026Y431051D01*
X468018Y431057D01*
X468004Y431062D01*
X467972Y431078D01*
X467933Y431103D01*
X467887Y431136D01*
X467841Y431180D01*
X467794Y431229D01*
X467753Y431289D01*
Y431291D01*
X467748Y431297D01*
X467742Y431305D01*
X467737Y431319D01*
X467729Y431335D01*
X467720Y431354D01*
X467709Y431376D01*
X467699Y431401D01*
X467680Y431458D01*
X467663Y431521D01*
X467652Y431592D01*
X467647Y431668D01*
Y431671D01*
Y431679D01*
Y431696D01*
X467650Y431712D01*
X467652Y431737D01*
X467655Y431764D01*
X467660Y431794D01*
X467669Y431827D01*
X467690Y431897D01*
X467704Y431936D01*
X467720Y431974D01*
X467739Y432012D01*
X467764Y432050D01*
X467791Y432086D01*
X467822Y432121D01*
X467824Y432124D01*
X467830Y432130D01*
X467841Y432138D01*
X467854Y432151D01*
X467873Y432165D01*
X467895Y432182D01*
X467922Y432201D01*
X467955Y432220D01*
X467991Y432239D01*
X468029Y432258D01*
X468073Y432277D01*
X468122Y432296D01*
X468174Y432312D01*
X468231Y432329D01*
X468294Y432342D01*
X468359Y432353D01*
X468357D01*
X468354Y432356D01*
X468337Y432364D01*
X468313Y432378D01*
X468283Y432394D01*
X468250Y432413D01*
X468217Y432433D01*
X468185Y432457D01*
X468157Y432479D01*
X468154Y432482D01*
X468152Y432484D01*
X468144Y432493D01*
X468133Y432504D01*
X468119Y432517D01*
X468103Y432534D01*
X468067Y432572D01*
X468026Y432621D01*
X467980Y432678D01*
X467931Y432744D01*
X467881Y432815D01*
X467445Y433500D01*
X467862D01*
X468195Y432976D01*
X468198Y432973D01*
X468201Y432965D01*
X468209Y432954D01*
X468220Y432938D01*
X468231Y432919D01*
X468247Y432897D01*
X468280Y432848D01*
X468318Y432790D01*
X468357Y432733D01*
X468398Y432678D01*
X468436Y432629D01*
Y432626D01*
X468441Y432624D01*
X468452Y432610D01*
X468469Y432588D01*
X468493Y432564D01*
X468518Y432536D01*
X468548Y432509D01*
X468578Y432482D01*
X468605Y432463D01*
X468608Y432460D01*
X468619Y432454D01*
X468632Y432446D01*
X468651Y432435D01*
X468676Y432424D01*
X468701Y432413D01*
X468728Y432403D01*
X468758Y432394D01*
X468761D01*
X468769Y432392D01*
X468782Y432389D01*
X468801Y432386D01*
X468829D01*
X468862Y432383D01*
X468900Y432381D01*
X469328D01*
Y433500D01*
X469662D01*
Y430980D01*
D02*
G37*
G36*
X466257Y432897D02*
X467355D01*
Y432613D01*
X466203Y430980D01*
X465949D01*
Y432613D01*
X465607D01*
Y432897D01*
X465949D01*
Y433500D01*
X466257D01*
Y432897D01*
D02*
G37*
G36*
X536509Y475887D02*
X536534D01*
X536561Y475881D01*
X536594Y475879D01*
X536629Y475871D01*
X536668Y475862D01*
X536711Y475849D01*
X536755Y475835D01*
X536799Y475816D01*
X536845Y475794D01*
X536892Y475767D01*
X536935Y475737D01*
X536982Y475701D01*
X537023Y475660D01*
X537025Y475658D01*
X537031Y475649D01*
X537042Y475636D01*
X537055Y475619D01*
X537075Y475595D01*
X537091Y475568D01*
X537113Y475535D01*
X537132Y475499D01*
X537151Y475458D01*
X537173Y475412D01*
X537189Y475363D01*
X537206Y475311D01*
X537222Y475254D01*
X537233Y475194D01*
X537238Y475128D01*
X537241Y475060D01*
Y475043D01*
X537238Y475024D01*
Y474997D01*
X537236Y474967D01*
X537230Y474929D01*
X537222Y474888D01*
X537214Y474844D01*
X537203Y474798D01*
X537186Y474749D01*
X537170Y474699D01*
X537148Y474648D01*
X537124Y474598D01*
X537094Y474549D01*
X537061Y474500D01*
X537023Y474456D01*
X537020Y474454D01*
X537012Y474445D01*
X537001Y474435D01*
X536982Y474421D01*
X536960Y474405D01*
X536935Y474385D01*
X536905Y474364D01*
X536870Y474344D01*
X536832Y474323D01*
X536791Y474301D01*
X536744Y474282D01*
X536698Y474265D01*
X536646Y474252D01*
X536589Y474241D01*
X536531Y474233D01*
X536471Y474230D01*
X536469D01*
X536460D01*
X536447D01*
X536430Y474233D01*
X536408D01*
X536384Y474235D01*
X536356Y474241D01*
X536327Y474246D01*
X536264Y474260D01*
X536196Y474282D01*
X536127Y474312D01*
X536095Y474331D01*
X536062Y474353D01*
X536059Y474355D01*
X536054Y474358D01*
X536045Y474366D01*
X536034Y474377D01*
X536021Y474388D01*
X536007Y474405D01*
X535988Y474424D01*
X535972Y474445D01*
X535933Y474495D01*
X535895Y474555D01*
X535862Y474626D01*
X535835Y474708D01*
Y474705D01*
X535832Y474699D01*
X535827Y474688D01*
X535821Y474678D01*
X535816Y474661D01*
X535805Y474642D01*
X535783Y474601D01*
X535756Y474555D01*
X535720Y474508D01*
X535682Y474462D01*
X535636Y474424D01*
X535633D01*
X535630Y474421D01*
X535622Y474415D01*
X535611Y474410D01*
X535584Y474394D01*
X535548Y474377D01*
X535502Y474361D01*
X535448Y474344D01*
X535387Y474334D01*
X535322Y474331D01*
X535319D01*
X535311D01*
X535295Y474334D01*
X535276D01*
X535254Y474336D01*
X535226Y474342D01*
X535196Y474347D01*
X535161Y474355D01*
X535125Y474366D01*
X535090Y474380D01*
X535052Y474394D01*
X535011Y474413D01*
X534972Y474437D01*
X534934Y474462D01*
X534896Y474492D01*
X534861Y474527D01*
X534858Y474530D01*
X534852Y474536D01*
X534844Y474546D01*
X534831Y474563D01*
X534817Y474582D01*
X534800Y474607D01*
X534784Y474634D01*
X534765Y474667D01*
X534749Y474702D01*
X534732Y474743D01*
X534716Y474784D01*
X534702Y474830D01*
X534689Y474882D01*
X534680Y474934D01*
X534675Y474992D01*
X534672Y475052D01*
Y475084D01*
X534675Y475106D01*
X534678Y475134D01*
X534683Y475166D01*
X534689Y475202D01*
X534697Y475243D01*
X534708Y475284D01*
X534719Y475327D01*
X534735Y475371D01*
X534754Y475415D01*
X534776Y475461D01*
X534803Y475502D01*
X534831Y475546D01*
X534866Y475584D01*
X534869Y475587D01*
X534874Y475592D01*
X534885Y475603D01*
X534899Y475617D01*
X534918Y475630D01*
X534940Y475647D01*
X534967Y475666D01*
X534994Y475685D01*
X535027Y475704D01*
X535063Y475723D01*
X535101Y475739D01*
X535142Y475753D01*
X535185Y475767D01*
X535232Y475778D01*
X535281Y475783D01*
X535330Y475786D01*
X535333D01*
X535338D01*
X535346D01*
X535360D01*
X535374Y475783D01*
X535393Y475780D01*
X535434Y475775D01*
X535480Y475764D01*
X535532Y475748D01*
X535584Y475723D01*
X535636Y475693D01*
X535639D01*
X535641Y475688D01*
X535658Y475677D01*
X535679Y475655D01*
X535709Y475625D01*
X535740Y475584D01*
X535775Y475537D01*
X535805Y475480D01*
X535835Y475415D01*
Y475417D01*
X535838Y475426D01*
X535843Y475436D01*
X535849Y475453D01*
X535857Y475472D01*
X535868Y475494D01*
X535895Y475546D01*
X535928Y475603D01*
X535972Y475660D01*
X536021Y475718D01*
X536081Y475767D01*
X536084Y475770D01*
X536089Y475772D01*
X536097Y475778D01*
X536111Y475786D01*
X536127Y475794D01*
X536146Y475805D01*
X536168Y475816D01*
X536193Y475830D01*
X536250Y475851D01*
X536318Y475871D01*
X536395Y475884D01*
X536436Y475890D01*
X536479D01*
X536482D01*
X536493D01*
X536509Y475887D01*
D02*
G37*
G36*
X537200Y473359D02*
Y473034D01*
X535281Y472507D01*
X535278D01*
X535270Y472505D01*
X535259Y472502D01*
X535243Y472496D01*
X535224Y472491D01*
X535202Y472485D01*
X535153Y472472D01*
X535104Y472458D01*
X535054Y472444D01*
X535033Y472439D01*
X535013Y472434D01*
X534997Y472428D01*
X534986Y472425D01*
X534989D01*
X534994Y472423D01*
X535003D01*
X535016Y472417D01*
X535030Y472414D01*
X535049Y472412D01*
X535087Y472401D01*
X535134Y472390D01*
X535185Y472376D01*
X535234Y472363D01*
X535281Y472349D01*
X537200Y471819D01*
Y471473D01*
X534680Y470809D01*
Y471153D01*
X536335Y471533D01*
X536337D01*
X536346Y471535D01*
X536359Y471538D01*
X536378Y471544D01*
X536403Y471549D01*
X536430Y471554D01*
X536460Y471563D01*
X536496Y471571D01*
X536534Y471579D01*
X536575Y471587D01*
X536660Y471604D01*
X536752Y471623D01*
X536848Y471639D01*
X536842D01*
X536832Y471644D01*
X536810Y471647D01*
X536785Y471656D01*
X536752Y471661D01*
X536717Y471669D01*
X536679Y471680D01*
X536641Y471688D01*
X536559Y471710D01*
X536520Y471718D01*
X536482Y471729D01*
X536449Y471737D01*
X536422Y471743D01*
X536400Y471748D01*
X536384Y471754D01*
X534680Y472234D01*
Y472636D01*
X535958Y472993D01*
X535963Y472996D01*
X535980Y472999D01*
X536004Y473007D01*
X536040Y473015D01*
X536081Y473026D01*
X536130Y473040D01*
X536185Y473053D01*
X536247Y473070D01*
X536313Y473086D01*
X536384Y473102D01*
X536457Y473119D01*
X536534Y473135D01*
X536690Y473165D01*
X536848Y473193D01*
X536845D01*
X536837Y473195D01*
X536823Y473198D01*
X536807Y473201D01*
X536782Y473206D01*
X536755Y473212D01*
X536725Y473220D01*
X536690Y473228D01*
X536651Y473236D01*
X536610Y473244D01*
X536564Y473255D01*
X536518Y473266D01*
X536414Y473291D01*
X536302Y473318D01*
X534680Y473714D01*
Y474050D01*
X537200Y473359D01*
D02*
G37*
G36*
X536523Y470580D02*
X536542D01*
X536561Y470577D01*
X536613Y470569D01*
X536670Y470555D01*
X536733Y470533D01*
X536799Y470503D01*
X536834Y470487D01*
X536867Y470465D01*
X536870D01*
X536875Y470460D01*
X536883Y470454D01*
X536897Y470443D01*
X536927Y470419D01*
X536968Y470381D01*
X537012Y470334D01*
X537058Y470277D01*
X537102Y470211D01*
X537143Y470135D01*
Y470132D01*
X537148Y470124D01*
X537151Y470113D01*
X537159Y470097D01*
X537165Y470078D01*
X537173Y470053D01*
X537184Y470026D01*
X537192Y469993D01*
X537200Y469960D01*
X537211Y469922D01*
X537225Y469840D01*
X537236Y469750D01*
X537241Y469652D01*
Y469619D01*
X537238Y469594D01*
Y469564D01*
X537236Y469531D01*
X537233Y469493D01*
X537227Y469450D01*
X537217Y469359D01*
X537200Y469264D01*
X537176Y469168D01*
X537143Y469076D01*
Y469073D01*
X537137Y469065D01*
X537132Y469054D01*
X537124Y469037D01*
X537113Y469018D01*
X537102Y468996D01*
X537069Y468945D01*
X537028Y468887D01*
X536976Y468827D01*
X536916Y468767D01*
X536845Y468715D01*
X536842Y468713D01*
X536837Y468710D01*
X536826Y468704D01*
X536810Y468696D01*
X536791Y468685D01*
X536769Y468674D01*
X536741Y468661D01*
X536711Y468650D01*
X536681Y468636D01*
X536646Y468625D01*
X536567Y468603D01*
X536482Y468587D01*
X536436Y468581D01*
X536389Y468579D01*
X536362Y468893D01*
X536365D01*
X536370D01*
X536381Y468895D01*
X536395Y468898D01*
X536411Y468901D01*
X536427Y468904D01*
X536474Y468915D01*
X536523Y468928D01*
X536575Y468945D01*
X536627Y468966D01*
X536676Y468994D01*
X536681Y468996D01*
X536695Y469010D01*
X536717Y469029D01*
X536744Y469057D01*
X536777Y469092D01*
X536807Y469136D01*
X536840Y469187D01*
X536870Y469248D01*
Y469250D01*
X536872Y469256D01*
X536875Y469264D01*
X536881Y469278D01*
X536886Y469294D01*
X536894Y469313D01*
X536900Y469335D01*
X536905Y469359D01*
X536919Y469417D01*
X536933Y469485D01*
X536941Y469556D01*
X536943Y469635D01*
Y469668D01*
X536941Y469684D01*
Y469703D01*
X536935Y469747D01*
X536930Y469799D01*
X536922Y469856D01*
X536908Y469914D01*
X536889Y469968D01*
Y469971D01*
X536886Y469974D01*
X536883Y469982D01*
X536878Y469993D01*
X536864Y470017D01*
X536848Y470050D01*
X536826Y470086D01*
X536799Y470124D01*
X536769Y470157D01*
X536733Y470187D01*
X536728Y470190D01*
X536717Y470198D01*
X536695Y470211D01*
X536668Y470225D01*
X536635Y470236D01*
X536599Y470250D01*
X536559Y470258D01*
X536518Y470260D01*
X536515D01*
X536512D01*
X536498D01*
X536474Y470258D01*
X536447Y470252D01*
X536414Y470244D01*
X536378Y470230D01*
X536343Y470214D01*
X536310Y470190D01*
X536307Y470187D01*
X536297Y470176D01*
X536280Y470159D01*
X536258Y470135D01*
X536236Y470105D01*
X536212Y470064D01*
X536187Y470017D01*
X536163Y469963D01*
X536160Y469957D01*
X536157Y469952D01*
X536155Y469941D01*
X536152Y469930D01*
X536146Y469914D01*
X536138Y469892D01*
X536133Y469870D01*
X536125Y469840D01*
X536114Y469810D01*
X536105Y469772D01*
X536095Y469731D01*
X536081Y469684D01*
X536070Y469635D01*
X536054Y469578D01*
X536040Y469515D01*
Y469512D01*
X536037Y469501D01*
X536032Y469482D01*
X536026Y469460D01*
X536018Y469430D01*
X536010Y469398D01*
X535999Y469365D01*
X535988Y469327D01*
X535963Y469245D01*
X535936Y469166D01*
X535922Y469128D01*
X535909Y469092D01*
X535895Y469059D01*
X535882Y469032D01*
Y469029D01*
X535876Y469024D01*
X535871Y469016D01*
X535865Y469002D01*
X535846Y468969D01*
X535819Y468931D01*
X535783Y468885D01*
X535745Y468841D01*
X535699Y468797D01*
X535649Y468762D01*
X535647D01*
X535644Y468759D01*
X535636Y468753D01*
X535625Y468748D01*
X535595Y468734D01*
X535557Y468718D01*
X535510Y468702D01*
X535456Y468688D01*
X535396Y468677D01*
X535333Y468674D01*
X535330D01*
X535325D01*
X535314D01*
X535300Y468677D01*
X535284D01*
X535264Y468680D01*
X535215Y468688D01*
X535161Y468702D01*
X535104Y468718D01*
X535041Y468745D01*
X534978Y468781D01*
X534975D01*
X534970Y468786D01*
X534962Y468792D01*
X534951Y468800D01*
X534921Y468827D01*
X534882Y468863D01*
X534841Y468906D01*
X534800Y468961D01*
X534760Y469024D01*
X534724Y469098D01*
Y469100D01*
X534721Y469106D01*
X534716Y469119D01*
X534710Y469133D01*
X534705Y469152D01*
X534697Y469177D01*
X534689Y469204D01*
X534680Y469234D01*
X534672Y469267D01*
X534664Y469302D01*
X534650Y469379D01*
X534639Y469466D01*
X534637Y469559D01*
Y469605D01*
X534639Y469630D01*
X534642Y469660D01*
X534645Y469690D01*
X534648Y469725D01*
X534658Y469802D01*
X534675Y469886D01*
X534699Y469971D01*
X534729Y470053D01*
Y470056D01*
X534735Y470061D01*
X534738Y470075D01*
X534746Y470088D01*
X534757Y470105D01*
X534768Y470127D01*
X534795Y470173D01*
X534833Y470228D01*
X534880Y470282D01*
X534932Y470334D01*
X534994Y470381D01*
X534997Y470383D01*
X535003Y470386D01*
X535011Y470392D01*
X535024Y470400D01*
X535041Y470408D01*
X535060Y470419D01*
X535084Y470427D01*
X535109Y470441D01*
X535166Y470462D01*
X535234Y470482D01*
X535308Y470498D01*
X535390Y470506D01*
X535415Y470187D01*
X535412D01*
X535404Y470184D01*
X535393D01*
X535377Y470181D01*
X535355Y470176D01*
X535333Y470170D01*
X535281Y470154D01*
X535224Y470132D01*
X535163Y470099D01*
X535106Y470061D01*
X535082Y470037D01*
X535057Y470009D01*
X535054Y470007D01*
X535052Y470004D01*
X535046Y469993D01*
X535038Y469982D01*
X535030Y469966D01*
X535019Y469946D01*
X535008Y469925D01*
X534994Y469900D01*
X534983Y469870D01*
X534972Y469837D01*
X534962Y469802D01*
X534953Y469764D01*
X534945Y469720D01*
X534940Y469673D01*
X534934Y469624D01*
Y469545D01*
X534937Y469523D01*
Y469499D01*
X534940Y469472D01*
X534942Y469439D01*
X534948Y469406D01*
X534962Y469332D01*
X534981Y469261D01*
X535008Y469193D01*
X535027Y469160D01*
X535046Y469133D01*
Y469130D01*
X535052Y469128D01*
X535065Y469111D01*
X535090Y469089D01*
X535123Y469065D01*
X535161Y469040D01*
X535207Y469018D01*
X535256Y469002D01*
X535284Y468999D01*
X535314Y468996D01*
X535316D01*
X535319D01*
X535335Y468999D01*
X535360Y469002D01*
X535390Y469007D01*
X535426Y469021D01*
X535464Y469037D01*
X535499Y469059D01*
X535535Y469092D01*
X535537Y469098D01*
X535543Y469103D01*
X535551Y469114D01*
X535559Y469128D01*
X535568Y469144D01*
X535578Y469166D01*
X535592Y469190D01*
X535606Y469220D01*
X535619Y469256D01*
X535633Y469297D01*
X535649Y469343D01*
X535666Y469398D01*
X535682Y469455D01*
X535701Y469521D01*
X535718Y469594D01*
Y469600D01*
X535720Y469613D01*
X535726Y469632D01*
X535734Y469660D01*
X535740Y469693D01*
X535750Y469731D01*
X535759Y469772D01*
X535772Y469815D01*
X535797Y469908D01*
X535821Y470001D01*
X535835Y470045D01*
X535849Y470083D01*
X535862Y470121D01*
X535876Y470151D01*
Y470154D01*
X535882Y470162D01*
X535887Y470173D01*
X535895Y470187D01*
X535903Y470206D01*
X535917Y470228D01*
X535947Y470274D01*
X535983Y470329D01*
X536026Y470381D01*
X536078Y470432D01*
X536105Y470454D01*
X536133Y470476D01*
X536135D01*
X536141Y470482D01*
X536149Y470487D01*
X536160Y470493D01*
X536174Y470501D01*
X536193Y470509D01*
X536236Y470531D01*
X536288Y470550D01*
X536348Y470566D01*
X536417Y470577D01*
X536490Y470583D01*
X536493D01*
X536498D01*
X536509D01*
X536523Y470580D01*
D02*
G37*
G36*
X290759Y467260D02*
X290767Y467252D01*
X290783Y467238D01*
X290802Y467222D01*
X290830Y467200D01*
X290860Y467173D01*
X290895Y467146D01*
X290936Y467113D01*
X290983Y467077D01*
X291034Y467039D01*
X291092Y466998D01*
X291152Y466957D01*
X291215Y466916D01*
X291286Y466873D01*
X291359Y466826D01*
X291436Y466783D01*
X291441Y466780D01*
X291455Y466772D01*
X291477Y466761D01*
X291510Y466744D01*
X291548Y466725D01*
X291594Y466701D01*
X291646Y466676D01*
X291703Y466649D01*
X291766Y466621D01*
X291834Y466591D01*
X291908Y466561D01*
X291982Y466531D01*
X292061Y466501D01*
X292143Y466471D01*
X292309Y466419D01*
X292312D01*
X292323Y466417D01*
X292342Y466411D01*
X292364Y466406D01*
X292394Y466398D01*
X292429Y466389D01*
X292470Y466378D01*
X292514Y466370D01*
X292563Y466359D01*
X292618Y466351D01*
X292675Y466340D01*
X292735Y466332D01*
X292798Y466321D01*
X292863Y466313D01*
X293000Y466302D01*
Y465985D01*
X292997D01*
X292986D01*
X292970D01*
X292948Y465988D01*
X292918Y465991D01*
X292885Y465993D01*
X292844Y465996D01*
X292801Y466002D01*
X292749Y466007D01*
X292697Y466015D01*
X292637Y466024D01*
X292574Y466035D01*
X292506Y466048D01*
X292435Y466062D01*
X292361Y466081D01*
X292285Y466100D01*
X292279Y466103D01*
X292266Y466106D01*
X292244Y466111D01*
X292214Y466122D01*
X292176Y466133D01*
X292129Y466146D01*
X292080Y466163D01*
X292025Y466182D01*
X291965Y466204D01*
X291900Y466228D01*
X291832Y466253D01*
X291763Y466283D01*
X291619Y466346D01*
X291471Y466419D01*
X291466Y466422D01*
X291455Y466430D01*
X291433Y466441D01*
X291406Y466455D01*
X291373Y466477D01*
X291335Y466499D01*
X291291Y466526D01*
X291242Y466553D01*
X291193Y466586D01*
X291138Y466621D01*
X291029Y466698D01*
X290917Y466780D01*
X290862Y466823D01*
X290811Y466867D01*
Y465633D01*
X290513D01*
Y467263D01*
X290756D01*
X290759Y467260D01*
D02*
G37*
G36*
X293000Y465000D02*
X292476Y464667D01*
X292473Y464664D01*
X292465Y464661D01*
X292454Y464653D01*
X292438Y464642D01*
X292419Y464631D01*
X292397Y464615D01*
X292348Y464582D01*
X292290Y464544D01*
X292233Y464506D01*
X292178Y464465D01*
X292129Y464427D01*
X292126D01*
X292124Y464421D01*
X292110Y464410D01*
X292088Y464394D01*
X292064Y464369D01*
X292036Y464345D01*
X292009Y464315D01*
X291982Y464285D01*
X291963Y464257D01*
X291960Y464255D01*
X291954Y464244D01*
X291946Y464230D01*
X291935Y464211D01*
X291924Y464186D01*
X291914Y464162D01*
X291903Y464134D01*
X291894Y464104D01*
Y464102D01*
X291892Y464093D01*
X291889Y464080D01*
X291886Y464061D01*
Y464033D01*
X291883Y464001D01*
X291881Y463962D01*
Y463534D01*
X293000D01*
Y463201D01*
X290480D01*
Y464372D01*
X290483Y464402D01*
Y464432D01*
X290486Y464467D01*
X290488Y464508D01*
X290497Y464590D01*
X290510Y464675D01*
X290527Y464757D01*
X290538Y464792D01*
X290548Y464828D01*
Y464831D01*
X290551Y464836D01*
X290557Y464844D01*
X290562Y464858D01*
X290579Y464891D01*
X290603Y464929D01*
X290636Y464975D01*
X290680Y465022D01*
X290729Y465068D01*
X290789Y465109D01*
X290792D01*
X290797Y465114D01*
X290805Y465120D01*
X290819Y465125D01*
X290835Y465134D01*
X290854Y465142D01*
X290876Y465153D01*
X290901Y465164D01*
X290958Y465183D01*
X291021Y465199D01*
X291092Y465210D01*
X291168Y465215D01*
X291171D01*
X291179D01*
X291196D01*
X291212Y465213D01*
X291236Y465210D01*
X291264Y465207D01*
X291294Y465202D01*
X291326Y465194D01*
X291398Y465172D01*
X291436Y465158D01*
X291474Y465142D01*
X291512Y465123D01*
X291550Y465098D01*
X291586Y465071D01*
X291621Y465041D01*
X291624Y465038D01*
X291630Y465033D01*
X291638Y465022D01*
X291651Y465008D01*
X291665Y464989D01*
X291681Y464967D01*
X291701Y464940D01*
X291720Y464907D01*
X291739Y464872D01*
X291758Y464833D01*
X291777Y464790D01*
X291796Y464741D01*
X291812Y464689D01*
X291829Y464631D01*
X291843Y464569D01*
X291853Y464503D01*
Y464506D01*
X291856Y464508D01*
X291864Y464525D01*
X291878Y464549D01*
X291894Y464579D01*
X291914Y464612D01*
X291933Y464645D01*
X291957Y464678D01*
X291979Y464705D01*
X291982Y464708D01*
X291985Y464710D01*
X291993Y464719D01*
X292004Y464730D01*
X292017Y464743D01*
X292034Y464760D01*
X292072Y464795D01*
X292121Y464836D01*
X292178Y464882D01*
X292244Y464932D01*
X292315Y464981D01*
X293000Y465417D01*
Y465000D01*
D02*
G37*
G36*
X447681Y440559D02*
X447700D01*
X447725Y440557D01*
X447755Y440554D01*
X447785Y440549D01*
X447853Y440538D01*
X447927Y440519D01*
X448003Y440494D01*
X448082Y440458D01*
X448085D01*
X448091Y440453D01*
X448102Y440448D01*
X448115Y440439D01*
X448132Y440428D01*
X448151Y440417D01*
X448197Y440385D01*
X448246Y440346D01*
X448298Y440297D01*
X448350Y440240D01*
X448394Y440177D01*
Y440174D01*
X448399Y440169D01*
X448405Y440158D01*
X448410Y440144D01*
X448418Y440128D01*
X448426Y440109D01*
X448437Y440084D01*
X448445Y440060D01*
X448467Y440000D01*
X448484Y439929D01*
X448495Y439852D01*
X448500Y439771D01*
Y439754D01*
X448497Y439732D01*
X448495Y439705D01*
X448492Y439672D01*
X448484Y439634D01*
X448476Y439593D01*
X448465Y439547D01*
X448448Y439498D01*
X448432Y439446D01*
X448407Y439394D01*
X448380Y439342D01*
X448347Y439287D01*
X448309Y439238D01*
X448265Y439186D01*
X448216Y439140D01*
X448213Y439137D01*
X448203Y439129D01*
X448186Y439118D01*
X448162Y439102D01*
X448132Y439082D01*
X448093Y439063D01*
X448047Y439042D01*
X447992Y439020D01*
X447932Y438995D01*
X447864Y438973D01*
X447788Y438954D01*
X447703Y438935D01*
X447610Y438919D01*
X447509Y438908D01*
X447400Y438900D01*
X447283Y438897D01*
X447280D01*
X447274D01*
X447263D01*
X447250D01*
X447233D01*
X447212Y438900D01*
X447190D01*
X447162Y438902D01*
X447102Y438905D01*
X447034Y438910D01*
X446958Y438919D01*
X446876Y438930D01*
X446788Y438946D01*
X446701Y438962D01*
X446614Y438984D01*
X446526Y439011D01*
X446442Y439042D01*
X446360Y439077D01*
X446286Y439121D01*
X446220Y439167D01*
X446218Y439170D01*
X446207Y439178D01*
X446193Y439192D01*
X446174Y439211D01*
X446152Y439233D01*
X446128Y439263D01*
X446103Y439295D01*
X446076Y439334D01*
X446048Y439377D01*
X446024Y439427D01*
X445999Y439478D01*
X445977Y439536D01*
X445958Y439596D01*
X445945Y439661D01*
X445934Y439729D01*
X445931Y439803D01*
Y439833D01*
X445934Y439852D01*
X445937Y439877D01*
X445939Y439907D01*
X445945Y439940D01*
X445953Y439975D01*
X445972Y440054D01*
X445986Y440093D01*
X446002Y440136D01*
X446021Y440177D01*
X446046Y440215D01*
X446070Y440254D01*
X446100Y440292D01*
X446103Y440295D01*
X446109Y440300D01*
X446117Y440311D01*
X446130Y440322D01*
X446147Y440338D01*
X446169Y440355D01*
X446193Y440374D01*
X446220Y440393D01*
X446250Y440412D01*
X446286Y440431D01*
X446324Y440450D01*
X446365Y440469D01*
X446409Y440486D01*
X446455Y440499D01*
X446504Y440513D01*
X446559Y440521D01*
X446584Y440213D01*
X446581D01*
X446575Y440210D01*
X446567Y440207D01*
X446554Y440205D01*
X446521Y440196D01*
X446483Y440183D01*
X446439Y440166D01*
X446395Y440144D01*
X446354Y440123D01*
X446319Y440095D01*
X446316Y440093D01*
X446313Y440090D01*
X446305Y440082D01*
X446297Y440073D01*
X446275Y440046D01*
X446250Y440008D01*
X446226Y439964D01*
X446207Y439910D01*
X446191Y439850D01*
X446188Y439817D01*
X446185Y439784D01*
Y439760D01*
X446191Y439729D01*
X446196Y439694D01*
X446207Y439653D01*
X446220Y439609D01*
X446242Y439566D01*
X446270Y439522D01*
Y439519D01*
X446275Y439517D01*
X446281Y439508D01*
X446289Y439498D01*
X446313Y439473D01*
X446349Y439440D01*
X446392Y439402D01*
X446447Y439364D01*
X446510Y439328D01*
X446581Y439293D01*
X446584D01*
X446589Y439290D01*
X446603Y439285D01*
X446619Y439279D01*
X446638Y439274D01*
X446665Y439265D01*
X446696Y439257D01*
X446728Y439249D01*
X446767Y439241D01*
X446810Y439235D01*
X446859Y439227D01*
X446911Y439219D01*
X446966Y439214D01*
X447026Y439211D01*
X447091Y439208D01*
X447157Y439206D01*
X447157Y439205D01*
X447160D01*
X447157Y439206D01*
X447151Y439211D01*
X447143Y439216D01*
X447132Y439224D01*
X447102Y439249D01*
X447064Y439279D01*
X447023Y439320D01*
X446982Y439366D01*
X446944Y439418D01*
X446909Y439476D01*
Y439478D01*
X446906Y439484D01*
X446900Y439492D01*
X446895Y439503D01*
X446889Y439519D01*
X446881Y439536D01*
X446865Y439579D01*
X446851Y439631D01*
X446838Y439689D01*
X446827Y439751D01*
X446824Y439817D01*
Y439831D01*
X446827Y439847D01*
Y439869D01*
X446832Y439896D01*
X446835Y439926D01*
X446843Y439962D01*
X446851Y440000D01*
X446865Y440038D01*
X446878Y440082D01*
X446898Y440125D01*
X446919Y440169D01*
X446947Y440215D01*
X446977Y440259D01*
X447012Y440303D01*
X447053Y440344D01*
X447056Y440346D01*
X447064Y440352D01*
X447075Y440363D01*
X447094Y440379D01*
X447116Y440396D01*
X447143Y440412D01*
X447176Y440434D01*
X447212Y440453D01*
X447252Y440472D01*
X447296Y440494D01*
X447345Y440510D01*
X447397Y440529D01*
X447452Y440543D01*
X447512Y440554D01*
X447575Y440559D01*
X447640Y440562D01*
X447643D01*
X447651D01*
X447662D01*
X447681Y440559D01*
D02*
G37*
G36*
X448459Y438299D02*
X447935Y437966D01*
X447932Y437963D01*
X447924Y437960D01*
X447913Y437952D01*
X447897Y437941D01*
X447878Y437930D01*
X447856Y437914D01*
X447807Y437881D01*
X447749Y437843D01*
X447692Y437805D01*
X447637Y437764D01*
X447588Y437726D01*
X447585D01*
X447583Y437720D01*
X447569Y437709D01*
X447547Y437693D01*
X447523Y437668D01*
X447495Y437644D01*
X447468Y437614D01*
X447441Y437584D01*
X447422Y437557D01*
X447419Y437554D01*
X447413Y437543D01*
X447405Y437529D01*
X447394Y437510D01*
X447383Y437486D01*
X447373Y437461D01*
X447362Y437434D01*
X447353Y437404D01*
Y437401D01*
X447351Y437393D01*
X447348Y437379D01*
X447345Y437360D01*
Y437333D01*
X447342Y437300D01*
X447340Y437262D01*
Y436833D01*
X448459D01*
Y436500D01*
X445939D01*
Y437671D01*
X445942Y437701D01*
Y437731D01*
X445945Y437767D01*
X445948Y437808D01*
X445956Y437889D01*
X445969Y437974D01*
X445986Y438056D01*
X445997Y438092D01*
X446008Y438127D01*
Y438130D01*
X446010Y438135D01*
X446016Y438143D01*
X446021Y438157D01*
X446038Y438190D01*
X446062Y438228D01*
X446095Y438274D01*
X446139Y438321D01*
X446188Y438367D01*
X446248Y438408D01*
X446250D01*
X446256Y438414D01*
X446264Y438419D01*
X446278Y438425D01*
X446294Y438433D01*
X446313Y438441D01*
X446335Y438452D01*
X446360Y438463D01*
X446417Y438482D01*
X446480Y438498D01*
X446551Y438509D01*
X446627Y438515D01*
X446630D01*
X446638D01*
X446655D01*
X446671Y438512D01*
X446696Y438509D01*
X446723Y438507D01*
X446753Y438501D01*
X446786Y438493D01*
X446857Y438471D01*
X446895Y438457D01*
X446933Y438441D01*
X446971Y438422D01*
X447010Y438397D01*
X447045Y438370D01*
X447081Y438340D01*
X447083Y438337D01*
X447089Y438332D01*
X447097Y438321D01*
X447111Y438307D01*
X447124Y438288D01*
X447141Y438266D01*
X447160Y438239D01*
X447179Y438206D01*
X447198Y438171D01*
X447217Y438132D01*
X447236Y438089D01*
X447255Y438040D01*
X447272Y437988D01*
X447288Y437930D01*
X447302Y437868D01*
X447312Y437802D01*
Y437805D01*
X447315Y437808D01*
X447323Y437824D01*
X447337Y437849D01*
X447353Y437879D01*
X447373Y437911D01*
X447392Y437944D01*
X447416Y437977D01*
X447438Y438004D01*
X447441Y438007D01*
X447443Y438010D01*
X447452Y438018D01*
X447463Y438029D01*
X447476Y438042D01*
X447493Y438059D01*
X447531Y438094D01*
X447580Y438135D01*
X447637Y438182D01*
X447703Y438231D01*
X447774Y438280D01*
X448459Y438717D01*
Y438299D01*
D02*
G37*
G36*
X157941Y446980D02*
X156770D01*
X156740Y446983D01*
X156710D01*
X156674Y446986D01*
X156633Y446988D01*
X156551Y446997D01*
X156467Y447010D01*
X156385Y447027D01*
X156349Y447038D01*
X156314Y447049D01*
X156311D01*
X156306Y447051D01*
X156298Y447057D01*
X156284Y447062D01*
X156251Y447079D01*
X156213Y447103D01*
X156167Y447136D01*
X156120Y447180D01*
X156074Y447229D01*
X156033Y447289D01*
Y447292D01*
X156027Y447297D01*
X156022Y447305D01*
X156016Y447319D01*
X156008Y447335D01*
X156000Y447354D01*
X155989Y447376D01*
X155978Y447401D01*
X155959Y447458D01*
X155943Y447521D01*
X155932Y447592D01*
X155926Y447668D01*
Y447671D01*
Y447679D01*
Y447695D01*
X155929Y447712D01*
X155932Y447736D01*
X155934Y447764D01*
X155940Y447794D01*
X155948Y447826D01*
X155970Y447897D01*
X155984Y447936D01*
X156000Y447974D01*
X156019Y448012D01*
X156044Y448050D01*
X156071Y448086D01*
X156101Y448121D01*
X156104Y448124D01*
X156109Y448130D01*
X156120Y448138D01*
X156134Y448151D01*
X156153Y448165D01*
X156175Y448181D01*
X156202Y448201D01*
X156235Y448220D01*
X156270Y448239D01*
X156308Y448258D01*
X156352Y448277D01*
X156401Y448296D01*
X156453Y448313D01*
X156510Y448329D01*
X156573Y448343D01*
X156639Y448353D01*
X156636D01*
X156633Y448356D01*
X156617Y448364D01*
X156592Y448378D01*
X156562Y448394D01*
X156530Y448414D01*
X156497Y448433D01*
X156464Y448457D01*
X156437Y448479D01*
X156434Y448482D01*
X156431Y448485D01*
X156423Y448493D01*
X156412Y448504D01*
X156399Y448517D01*
X156382Y448534D01*
X156347Y448572D01*
X156306Y448621D01*
X156259Y448678D01*
X156210Y448744D01*
X156161Y448815D01*
X155724Y449500D01*
X156142D01*
X156475Y448976D01*
X156478Y448973D01*
X156480Y448965D01*
X156489Y448954D01*
X156500Y448938D01*
X156510Y448918D01*
X156527Y448897D01*
X156560Y448848D01*
X156598Y448790D01*
X156636Y448733D01*
X156677Y448678D01*
X156715Y448629D01*
Y448626D01*
X156721Y448624D01*
X156732Y448610D01*
X156748Y448588D01*
X156773Y448564D01*
X156797Y448536D01*
X156827Y448509D01*
X156857Y448482D01*
X156885Y448463D01*
X156887Y448460D01*
X156898Y448454D01*
X156912Y448446D01*
X156931Y448435D01*
X156956Y448424D01*
X156980Y448414D01*
X157007Y448403D01*
X157037Y448394D01*
X157040D01*
X157048Y448392D01*
X157062Y448389D01*
X157081Y448386D01*
X157108D01*
X157141Y448384D01*
X157179Y448381D01*
X157608D01*
Y449500D01*
X157941D01*
Y446980D01*
D02*
G37*
G36*
X154673Y447532D02*
X154679Y447537D01*
X154692Y447551D01*
X154717Y447570D01*
X154752Y447597D01*
X154793Y447630D01*
X154845Y447666D01*
X154903Y447704D01*
X154968Y447745D01*
X154971D01*
X154976Y447750D01*
X154984Y447756D01*
X154998Y447761D01*
X155014Y447772D01*
X155034Y447780D01*
X155077Y447805D01*
X155126Y447829D01*
X155181Y447857D01*
X155238Y447881D01*
X155293Y447903D01*
Y447605D01*
X155290Y447603D01*
X155282Y447600D01*
X155268Y447592D01*
X155249Y447584D01*
X155227Y447573D01*
X155200Y447556D01*
X155170Y447540D01*
X155140Y447523D01*
X155069Y447480D01*
X154993Y447428D01*
X154913Y447373D01*
X154840Y447311D01*
X154837Y447308D01*
X154832Y447302D01*
X154821Y447294D01*
X154807Y447281D01*
X154793Y447264D01*
X154774Y447248D01*
X154733Y447201D01*
X154687Y447152D01*
X154640Y447095D01*
X154599Y447035D01*
X154564Y446972D01*
X154365D01*
Y449500D01*
X154673D01*
Y447532D01*
D02*
G37*
%LPC*%
G36*
X535415Y381222D02*
X534833D01*
Y379297D01*
X535412D01*
X535434Y379300D01*
X535458D01*
X535513Y379303D01*
X535576Y379308D01*
X535641Y379317D01*
X535704Y379328D01*
X535761Y379341D01*
X535764D01*
X535767Y379344D01*
X535775Y379347D01*
X535786Y379349D01*
X535810Y379360D01*
X535843Y379374D01*
X535879Y379393D01*
X535917Y379415D01*
X535955Y379442D01*
X535988Y379472D01*
X535990Y379475D01*
X535993Y379478D01*
X536007Y379494D01*
X536029Y379521D01*
X536056Y379557D01*
X536083Y379603D01*
X536113Y379658D01*
X536143Y379721D01*
X536171Y379792D01*
Y379794D01*
X536173Y379800D01*
X536176Y379811D01*
X536182Y379827D01*
X536187Y379846D01*
X536193Y379871D01*
X536198Y379898D01*
X536206Y379928D01*
X536212Y379961D01*
X536217Y379999D01*
X536223Y380037D01*
X536228Y380081D01*
X536236Y380174D01*
X536239Y380278D01*
Y380283D01*
Y380294D01*
Y380316D01*
X536236Y380343D01*
Y380376D01*
X536234Y380414D01*
X536228Y380455D01*
X536223Y380502D01*
X536206Y380600D01*
X536184Y380701D01*
X536152Y380796D01*
X536130Y380843D01*
X536108Y380884D01*
X536105Y380886D01*
X536102Y380892D01*
X536094Y380903D01*
X536083Y380919D01*
X536072Y380936D01*
X536056Y380955D01*
X536021Y380998D01*
X535974Y381047D01*
X535920Y381094D01*
X535859Y381137D01*
X535827Y381154D01*
X535791Y381170D01*
X535788D01*
X535786Y381173D01*
X535778Y381176D01*
X535767Y381178D01*
X535750Y381181D01*
X535734Y381187D01*
X535712Y381192D01*
X535687Y381198D01*
X535660Y381200D01*
X535627Y381206D01*
X535592Y381211D01*
X535554Y381214D01*
X535510Y381217D01*
X535464Y381219D01*
X535415Y381222D01*
D02*
G37*
G36*
X375167Y451591D02*
X374413D01*
X374394Y451589D01*
X374373D01*
X374321Y451586D01*
X374263Y451580D01*
X374203Y451572D01*
X374146Y451561D01*
X374094Y451545D01*
X374091D01*
X374089Y451542D01*
X374072Y451537D01*
X374050Y451526D01*
X374020Y451510D01*
X373990Y451488D01*
X373958Y451463D01*
X373925Y451430D01*
X373898Y451395D01*
X373895Y451389D01*
X373887Y451376D01*
X373876Y451357D01*
X373862Y451327D01*
X373851Y451294D01*
X373840Y451256D01*
X373832Y451212D01*
X373829Y451168D01*
Y451165D01*
Y451160D01*
Y451152D01*
X373832Y451138D01*
Y451124D01*
X373835Y451105D01*
X373846Y451064D01*
X373862Y451018D01*
X373884Y450969D01*
X373917Y450922D01*
X373938Y450898D01*
X373960Y450876D01*
X373963Y450873D01*
X373966Y450871D01*
X373974Y450865D01*
X373985Y450857D01*
X373998Y450849D01*
X374018Y450838D01*
X374037Y450827D01*
X374061Y450816D01*
X374089Y450805D01*
X374119Y450797D01*
X374151Y450786D01*
X374187Y450778D01*
X374228Y450770D01*
X374271Y450764D01*
X374318Y450759D01*
X375167D01*
Y451591D01*
D02*
G37*
G36*
X498589Y462647D02*
X498586D01*
X498581D01*
X498573D01*
X498559Y462644D01*
X498529Y462642D01*
X498488Y462634D01*
X498444Y462620D01*
X498395Y462598D01*
X498349Y462568D01*
X498324Y462552D01*
X498302Y462530D01*
X498300D01*
X498297Y462524D01*
X498283Y462508D01*
X498264Y462483D01*
X498242Y462448D01*
X498223Y462407D01*
X498204Y462355D01*
X498190Y462298D01*
X498185Y462268D01*
Y462219D01*
X498188Y462205D01*
Y462191D01*
X498190Y462172D01*
X498199Y462131D01*
X498212Y462085D01*
X498234Y462036D01*
X498261Y461987D01*
X498300Y461940D01*
X498305Y461935D01*
X498319Y461921D01*
X498343Y461905D01*
X498376Y461883D01*
X498414Y461861D01*
X498461Y461845D01*
X498513Y461831D01*
X498570Y461826D01*
X498573D01*
X498578D01*
X498586D01*
X498600Y461828D01*
X498616D01*
X498633Y461831D01*
X498674Y461839D01*
X498720Y461853D01*
X498769Y461872D01*
X498818Y461899D01*
X498862Y461937D01*
X498868Y461943D01*
X498878Y461959D01*
X498898Y461984D01*
X498917Y462019D01*
X498939Y462060D01*
X498958Y462112D01*
X498969Y462172D01*
X498974Y462238D01*
Y462254D01*
X498971Y462268D01*
Y462284D01*
X498969Y462300D01*
X498960Y462341D01*
X498947Y462388D01*
X498928Y462437D01*
X498900Y462486D01*
X498862Y462533D01*
X498857Y462538D01*
X498843Y462552D01*
X498818Y462568D01*
X498786Y462590D01*
X498747Y462612D01*
X498698Y462628D01*
X498646Y462642D01*
X498589Y462647D01*
D02*
G37*
G36*
X499744Y462751D02*
X499741D01*
X499733D01*
X499722D01*
X499706Y462748D01*
X499686Y462746D01*
X499665Y462743D01*
X499613Y462732D01*
X499555Y462715D01*
X499493Y462688D01*
X499463Y462672D01*
X499433Y462650D01*
X499403Y462628D01*
X499375Y462601D01*
X499373Y462598D01*
X499370Y462595D01*
X499362Y462587D01*
X499353Y462573D01*
X499340Y462560D01*
X499329Y462543D01*
X499315Y462522D01*
X499302Y462500D01*
X499274Y462445D01*
X499250Y462382D01*
X499233Y462309D01*
X499231Y462270D01*
X499228Y462229D01*
Y462208D01*
X499231Y462194D01*
X499233Y462175D01*
X499236Y462153D01*
X499247Y462101D01*
X499263Y462044D01*
X499288Y461984D01*
X499304Y461954D01*
X499323Y461924D01*
X499348Y461894D01*
X499373Y461866D01*
X499375Y461864D01*
X499378Y461861D01*
X499386Y461853D01*
X499397Y461845D01*
X499413Y461834D01*
X499430Y461823D01*
X499449Y461809D01*
X499471Y461796D01*
X499523Y461768D01*
X499585Y461746D01*
X499656Y461730D01*
X499692Y461727D01*
X499733Y461725D01*
X499736D01*
X499738D01*
X499755D01*
X499782Y461727D01*
X499815Y461733D01*
X499853Y461738D01*
X499897Y461749D01*
X499943Y461765D01*
X499990Y461785D01*
X499995Y461787D01*
X500009Y461796D01*
X500033Y461812D01*
X500061Y461831D01*
X500091Y461858D01*
X500121Y461888D01*
X500153Y461927D01*
X500181Y461970D01*
Y461973D01*
X500183Y461976D01*
X500192Y461992D01*
X500203Y462017D01*
X500213Y462052D01*
X500224Y462090D01*
X500235Y462137D01*
X500243Y462186D01*
X500246Y462238D01*
Y462260D01*
X500243Y462276D01*
X500241Y462295D01*
X500238Y462317D01*
X500227Y462369D01*
X500211Y462426D01*
X500186Y462489D01*
X500170Y462519D01*
X500151Y462549D01*
X500129Y462579D01*
X500104Y462606D01*
X500102Y462609D01*
X500099Y462612D01*
X500091Y462620D01*
X500080Y462628D01*
X500063Y462639D01*
X500047Y462653D01*
X500028Y462666D01*
X500006Y462680D01*
X499954Y462705D01*
X499891Y462729D01*
X499823Y462746D01*
X499785Y462748D01*
X499744Y462751D01*
D02*
G37*
G36*
X498627Y460671D02*
X498625D01*
X498619D01*
X498611D01*
X498597Y460668D01*
X498584D01*
X498564Y460665D01*
X498524Y460654D01*
X498477Y460638D01*
X498428Y460616D01*
X498382Y460583D01*
X498357Y460562D01*
X498335Y460540D01*
X498332Y460537D01*
X498330Y460534D01*
X498324Y460526D01*
X498316Y460515D01*
X498308Y460501D01*
X498297Y460482D01*
X498286Y460463D01*
X498275Y460439D01*
X498264Y460411D01*
X498256Y460381D01*
X498245Y460349D01*
X498237Y460313D01*
X498229Y460272D01*
X498223Y460228D01*
X498218Y460182D01*
Y459333D01*
X499050D01*
Y460086D01*
X499048Y460106D01*
Y460127D01*
X499045Y460179D01*
X499040Y460237D01*
X499031Y460297D01*
X499020Y460354D01*
X499004Y460406D01*
Y460409D01*
X499001Y460411D01*
X498996Y460428D01*
X498985Y460450D01*
X498969Y460480D01*
X498947Y460510D01*
X498922Y460542D01*
X498889Y460575D01*
X498854Y460603D01*
X498848Y460605D01*
X498835Y460613D01*
X498816Y460624D01*
X498786Y460638D01*
X498753Y460649D01*
X498715Y460660D01*
X498671Y460668D01*
X498627Y460671D01*
D02*
G37*
G36*
X261167Y436048D02*
X260414D01*
X260394Y436045D01*
X260372D01*
X260321Y436042D01*
X260263Y436037D01*
X260203Y436029D01*
X260146Y436018D01*
X260094Y436001D01*
X260091D01*
X260089Y435998D01*
X260072Y435993D01*
X260050Y435982D01*
X260020Y435966D01*
X259990Y435944D01*
X259958Y435919D01*
X259925Y435887D01*
X259897Y435851D01*
X259895Y435846D01*
X259887Y435832D01*
X259876Y435813D01*
X259862Y435783D01*
X259851Y435750D01*
X259840Y435712D01*
X259832Y435668D01*
X259829Y435625D01*
Y435622D01*
Y435616D01*
Y435608D01*
X259832Y435595D01*
Y435581D01*
X259835Y435562D01*
X259846Y435521D01*
X259862Y435474D01*
X259884Y435425D01*
X259917Y435379D01*
X259939Y435354D01*
X259960Y435332D01*
X259963Y435330D01*
X259966Y435327D01*
X259974Y435322D01*
X259985Y435313D01*
X259998Y435305D01*
X260018Y435294D01*
X260037Y435283D01*
X260061Y435272D01*
X260089Y435261D01*
X260119Y435253D01*
X260151Y435242D01*
X260187Y435234D01*
X260228Y435226D01*
X260272Y435220D01*
X260318Y435215D01*
X261167D01*
Y436048D01*
D02*
G37*
G36*
X209049Y399050D02*
X208295D01*
X208276Y399048D01*
X208254D01*
X208203Y399045D01*
X208145Y399040D01*
X208085Y399031D01*
X208028Y399020D01*
X207976Y399004D01*
X207973D01*
X207970Y399001D01*
X207954Y398996D01*
X207932Y398985D01*
X207902Y398969D01*
X207872Y398947D01*
X207839Y398922D01*
X207807Y398889D01*
X207779Y398854D01*
X207777Y398848D01*
X207769Y398835D01*
X207758Y398816D01*
X207744Y398786D01*
X207733Y398753D01*
X207722Y398715D01*
X207714Y398671D01*
X207711Y398627D01*
Y398624D01*
Y398619D01*
Y398611D01*
X207714Y398597D01*
Y398584D01*
X207717Y398565D01*
X207728Y398523D01*
X207744Y398477D01*
X207766Y398428D01*
X207799Y398382D01*
X207820Y398357D01*
X207842Y398335D01*
X207845Y398332D01*
X207848Y398330D01*
X207856Y398324D01*
X207867Y398316D01*
X207880Y398308D01*
X207899Y398297D01*
X207919Y398286D01*
X207943Y398275D01*
X207970Y398264D01*
X208001Y398256D01*
X208033Y398245D01*
X208069Y398237D01*
X208110Y398229D01*
X208153Y398223D01*
X208200Y398218D01*
X209049D01*
Y399050D01*
D02*
G37*
G36*
X422754Y460955D02*
X421618D01*
X422754Y460160D01*
Y460955D01*
D02*
G37*
G36*
X469328Y432091D02*
X468575D01*
X468556Y432089D01*
X468534D01*
X468482Y432086D01*
X468425Y432081D01*
X468365Y432072D01*
X468307Y432061D01*
X468256Y432045D01*
X468253D01*
X468250Y432042D01*
X468234Y432037D01*
X468212Y432026D01*
X468182Y432010D01*
X468152Y431988D01*
X468119Y431963D01*
X468086Y431930D01*
X468059Y431895D01*
X468056Y431889D01*
X468048Y431876D01*
X468037Y431857D01*
X468023Y431827D01*
X468013Y431794D01*
X468002Y431756D01*
X467993Y431712D01*
X467991Y431668D01*
Y431666D01*
Y431660D01*
Y431652D01*
X467993Y431638D01*
Y431625D01*
X467996Y431605D01*
X468007Y431565D01*
X468023Y431518D01*
X468045Y431469D01*
X468078Y431423D01*
X468100Y431398D01*
X468122Y431376D01*
X468124Y431373D01*
X468127Y431371D01*
X468135Y431365D01*
X468146Y431357D01*
X468160Y431349D01*
X468179Y431338D01*
X468198Y431327D01*
X468223Y431316D01*
X468250Y431305D01*
X468280Y431297D01*
X468313Y431286D01*
X468348Y431278D01*
X468389Y431270D01*
X468433Y431264D01*
X468479Y431259D01*
X469328D01*
Y432091D01*
D02*
G37*
G36*
X467052Y432613D02*
X466257D01*
Y431477D01*
X467052Y432613D01*
D02*
G37*
G36*
X535330Y475469D02*
X535327D01*
X535322D01*
X535314D01*
X535300Y475466D01*
X535270Y475464D01*
X535229Y475456D01*
X535185Y475442D01*
X535136Y475420D01*
X535090Y475390D01*
X535065Y475374D01*
X535043Y475352D01*
X535041D01*
X535038Y475346D01*
X535024Y475330D01*
X535005Y475306D01*
X534983Y475270D01*
X534964Y475229D01*
X534945Y475177D01*
X534932Y475120D01*
X534926Y475090D01*
Y475041D01*
X534929Y475027D01*
Y475013D01*
X534932Y474994D01*
X534940Y474953D01*
X534953Y474907D01*
X534975Y474858D01*
X535003Y474809D01*
X535041Y474762D01*
X535046Y474757D01*
X535060Y474743D01*
X535084Y474727D01*
X535117Y474705D01*
X535155Y474683D01*
X535202Y474667D01*
X535254Y474653D01*
X535311Y474648D01*
X535314D01*
X535319D01*
X535327D01*
X535341Y474650D01*
X535357D01*
X535374Y474653D01*
X535415Y474661D01*
X535461Y474675D01*
X535510Y474694D01*
X535559Y474721D01*
X535603Y474759D01*
X535608Y474765D01*
X535619Y474781D01*
X535639Y474806D01*
X535658Y474841D01*
X535679Y474882D01*
X535699Y474934D01*
X535709Y474994D01*
X535715Y475060D01*
Y475076D01*
X535712Y475090D01*
Y475106D01*
X535709Y475123D01*
X535701Y475164D01*
X535688Y475210D01*
X535669Y475259D01*
X535641Y475308D01*
X535603Y475355D01*
X535598Y475360D01*
X535584Y475374D01*
X535559Y475390D01*
X535527Y475412D01*
X535488Y475434D01*
X535439Y475450D01*
X535387Y475464D01*
X535330Y475469D01*
D02*
G37*
G36*
X536485Y475573D02*
X536482D01*
X536474D01*
X536463D01*
X536447Y475570D01*
X536427Y475568D01*
X536406Y475565D01*
X536354Y475554D01*
X536297Y475537D01*
X536234Y475510D01*
X536204Y475494D01*
X536174Y475472D01*
X536144Y475450D01*
X536116Y475423D01*
X536114Y475420D01*
X536111Y475417D01*
X536103Y475409D01*
X536095Y475396D01*
X536081Y475382D01*
X536070Y475365D01*
X536056Y475344D01*
X536043Y475322D01*
X536015Y475267D01*
X535991Y475205D01*
X535974Y475131D01*
X535972Y475093D01*
X535969Y475052D01*
Y475030D01*
X535972Y475016D01*
X535974Y474997D01*
X535977Y474975D01*
X535988Y474923D01*
X536004Y474866D01*
X536029Y474806D01*
X536045Y474776D01*
X536064Y474746D01*
X536089Y474716D01*
X536114Y474688D01*
X536116Y474686D01*
X536119Y474683D01*
X536127Y474675D01*
X536138Y474667D01*
X536155Y474656D01*
X536171Y474645D01*
X536190Y474631D01*
X536212Y474617D01*
X536264Y474590D01*
X536327Y474568D01*
X536398Y474552D01*
X536433Y474549D01*
X536474Y474546D01*
X536477D01*
X536479D01*
X536496D01*
X536523Y474549D01*
X536556Y474555D01*
X536594Y474560D01*
X536638Y474571D01*
X536684Y474587D01*
X536731Y474607D01*
X536736Y474609D01*
X536750Y474617D01*
X536774Y474634D01*
X536801Y474653D01*
X536832Y474680D01*
X536862Y474710D01*
X536894Y474749D01*
X536922Y474792D01*
Y474795D01*
X536924Y474798D01*
X536933Y474814D01*
X536943Y474839D01*
X536954Y474874D01*
X536965Y474912D01*
X536976Y474959D01*
X536984Y475008D01*
X536987Y475060D01*
Y475082D01*
X536984Y475098D01*
X536982Y475117D01*
X536979Y475139D01*
X536968Y475191D01*
X536952Y475248D01*
X536927Y475311D01*
X536911Y475341D01*
X536892Y475371D01*
X536870Y475401D01*
X536845Y475428D01*
X536842Y475431D01*
X536840Y475434D01*
X536832Y475442D01*
X536821Y475450D01*
X536804Y475461D01*
X536788Y475475D01*
X536769Y475488D01*
X536747Y475502D01*
X536695Y475527D01*
X536632Y475551D01*
X536564Y475568D01*
X536526Y475570D01*
X536485Y475573D01*
D02*
G37*
G36*
X291168Y464872D02*
X291165D01*
X291160D01*
X291152D01*
X291138Y464869D01*
X291125D01*
X291105Y464866D01*
X291065Y464855D01*
X291018Y464839D01*
X290969Y464817D01*
X290922Y464784D01*
X290898Y464762D01*
X290876Y464741D01*
X290873Y464738D01*
X290871Y464735D01*
X290865Y464727D01*
X290857Y464716D01*
X290849Y464702D01*
X290838Y464683D01*
X290827Y464664D01*
X290816Y464640D01*
X290805Y464612D01*
X290797Y464582D01*
X290786Y464549D01*
X290778Y464514D01*
X290770Y464473D01*
X290764Y464429D01*
X290759Y464383D01*
Y463534D01*
X291591D01*
Y464287D01*
X291589Y464306D01*
Y464328D01*
X291586Y464380D01*
X291580Y464437D01*
X291572Y464498D01*
X291561Y464555D01*
X291545Y464607D01*
Y464609D01*
X291542Y464612D01*
X291537Y464629D01*
X291526Y464650D01*
X291510Y464680D01*
X291488Y464710D01*
X291463Y464743D01*
X291430Y464776D01*
X291395Y464803D01*
X291389Y464806D01*
X291376Y464814D01*
X291357Y464825D01*
X291326Y464839D01*
X291294Y464850D01*
X291256Y464861D01*
X291212Y464869D01*
X291168Y464872D01*
D02*
G37*
G36*
X447659Y440245D02*
X447656D01*
X447648D01*
X447635D01*
X447615Y440243D01*
X447594Y440240D01*
X447569Y440237D01*
X447542Y440235D01*
X447512Y440229D01*
X447446Y440213D01*
X447378Y440188D01*
X447342Y440172D01*
X447310Y440153D01*
X447280Y440131D01*
X447250Y440106D01*
X447247Y440103D01*
X447244Y440101D01*
X447236Y440093D01*
X447225Y440082D01*
X447214Y440068D01*
X447201Y440052D01*
X447173Y440011D01*
X447146Y439959D01*
X447121Y439899D01*
X447102Y439831D01*
X447100Y439792D01*
X447097Y439754D01*
Y439735D01*
X447100Y439719D01*
X447102Y439702D01*
X447105Y439680D01*
X447116Y439631D01*
X447135Y439574D01*
X447162Y439514D01*
X447179Y439484D01*
X447198Y439454D01*
X447222Y439424D01*
X447250Y439396D01*
X447252Y439394D01*
X447258Y439391D01*
X447266Y439383D01*
X447277Y439375D01*
X447291Y439364D01*
X447310Y439350D01*
X447332Y439336D01*
X447356Y439326D01*
X447381Y439312D01*
X447411Y439298D01*
X447479Y439274D01*
X447555Y439257D01*
X447599Y439255D01*
X447643Y439252D01*
X447646D01*
X447651D01*
X447659D01*
X447670D01*
X447684Y439255D01*
X447700D01*
X447741Y439260D01*
X447788Y439268D01*
X447839Y439279D01*
X447894Y439295D01*
X447949Y439317D01*
X447951D01*
X447954Y439320D01*
X447962Y439326D01*
X447973Y439331D01*
X447998Y439345D01*
X448031Y439366D01*
X448066Y439394D01*
X448102Y439427D01*
X448137Y439462D01*
X448170Y439506D01*
Y439508D01*
X448173Y439511D01*
X448181Y439528D01*
X448194Y439552D01*
X448208Y439585D01*
X448222Y439623D01*
X448235Y439667D01*
X448243Y439716D01*
X448246Y439765D01*
Y439784D01*
X448243Y439798D01*
X448241Y439817D01*
X448238Y439836D01*
X448227Y439882D01*
X448208Y439934D01*
X448194Y439964D01*
X448181Y439992D01*
X448162Y440022D01*
X448142Y440049D01*
X448118Y440076D01*
X448091Y440103D01*
X448088Y440106D01*
X448082Y440109D01*
X448074Y440117D01*
X448061Y440125D01*
X448044Y440136D01*
X448025Y440147D01*
X448003Y440161D01*
X447976Y440174D01*
X447949Y440188D01*
X447916Y440202D01*
X447880Y440213D01*
X447842Y440224D01*
X447801Y440232D01*
X447755Y440240D01*
X447708Y440243D01*
X447659Y440245D01*
D02*
G37*
G36*
X446627Y438171D02*
X446625D01*
X446619D01*
X446611D01*
X446597Y438168D01*
X446584D01*
X446564Y438165D01*
X446524Y438154D01*
X446477Y438138D01*
X446428Y438116D01*
X446382Y438083D01*
X446357Y438062D01*
X446335Y438040D01*
X446332Y438037D01*
X446330Y438034D01*
X446324Y438026D01*
X446316Y438015D01*
X446308Y438001D01*
X446297Y437982D01*
X446286Y437963D01*
X446275Y437939D01*
X446264Y437911D01*
X446256Y437881D01*
X446245Y437849D01*
X446237Y437813D01*
X446229Y437772D01*
X446223Y437728D01*
X446218Y437682D01*
Y436833D01*
X447050D01*
Y437586D01*
X447048Y437606D01*
Y437627D01*
X447045Y437679D01*
X447040Y437737D01*
X447031Y437797D01*
X447020Y437854D01*
X447004Y437906D01*
Y437909D01*
X447001Y437911D01*
X446996Y437928D01*
X446985Y437950D01*
X446969Y437980D01*
X446947Y438010D01*
X446922Y438042D01*
X446889Y438075D01*
X446854Y438102D01*
X446848Y438105D01*
X446835Y438113D01*
X446816Y438124D01*
X446786Y438138D01*
X446753Y438149D01*
X446715Y438160D01*
X446671Y438168D01*
X446627Y438171D01*
D02*
G37*
G36*
X157608Y448091D02*
X156854D01*
X156835Y448089D01*
X156814D01*
X156762Y448086D01*
X156704Y448080D01*
X156644Y448072D01*
X156587Y448061D01*
X156535Y448045D01*
X156532D01*
X156530Y448042D01*
X156513Y448037D01*
X156491Y448026D01*
X156461Y448009D01*
X156431Y447988D01*
X156399Y447963D01*
X156366Y447930D01*
X156339Y447895D01*
X156336Y447889D01*
X156328Y447876D01*
X156317Y447857D01*
X156303Y447826D01*
X156292Y447794D01*
X156281Y447756D01*
X156273Y447712D01*
X156270Y447668D01*
Y447666D01*
Y447660D01*
Y447652D01*
X156273Y447638D01*
Y447624D01*
X156276Y447605D01*
X156287Y447565D01*
X156303Y447518D01*
X156325Y447469D01*
X156358Y447423D01*
X156379Y447398D01*
X156401Y447376D01*
X156404Y447373D01*
X156407Y447371D01*
X156415Y447365D01*
X156426Y447357D01*
X156439Y447349D01*
X156459Y447338D01*
X156478Y447327D01*
X156502Y447316D01*
X156530Y447305D01*
X156560Y447297D01*
X156592Y447286D01*
X156628Y447278D01*
X156669Y447270D01*
X156712Y447264D01*
X156759Y447259D01*
X157608D01*
Y448091D01*
D02*
G37*
%LPD*%
D13*
X520720Y370850D02*
Y387150D01*
Y370850D02*
X548279D01*
Y387150D01*
X520720D02*
X548279D01*
X384161Y449260D02*
Y456740D01*
X366839D02*
X384161D01*
X366839Y449260D02*
Y456740D01*
Y449260D02*
X384161D01*
X496760Y450339D02*
X504240D01*
Y467661D01*
X496760D02*
X504240D01*
X496760Y450339D02*
Y467661D01*
X270161Y433760D02*
Y441240D01*
X252839D02*
X270161D01*
X252839Y433760D02*
Y441240D01*
Y433760D02*
X270161D01*
X218043Y396760D02*
Y404240D01*
X200721D02*
X218043D01*
X200721Y396760D02*
Y404240D01*
Y396760D02*
X218043D01*
X181720Y468913D02*
Y494465D01*
X149279D02*
X181720D01*
X149279Y468913D02*
Y494465D01*
Y468913D02*
X181720D01*
X201256Y414150D02*
X228815D01*
Y494465D01*
X201256D02*
X228815D01*
X201256Y414150D02*
Y494465D01*
X305209Y442693D02*
X351980D01*
Y494465D01*
X305209D02*
X351980D01*
X305209Y442693D02*
Y494465D01*
X397626Y468913D02*
Y494465D01*
X365185D02*
X397626D01*
X365185Y468913D02*
Y494465D01*
Y468913D02*
X397626D01*
X409161Y414150D02*
X436720D01*
Y494465D01*
X409161D02*
X436720D01*
X409161Y414150D02*
Y494465D01*
X478323Y429760D02*
Y437240D01*
X461000D02*
X478323D01*
X461000Y429760D02*
Y437240D01*
Y429760D02*
X478323D01*
X513114Y442693D02*
X559886D01*
Y494465D01*
X513114D02*
X559886D01*
X513114Y442693D02*
Y494465D01*
X289260Y454539D02*
X296740D01*
Y471862D01*
X289260D02*
X296740D01*
X289260Y454539D02*
Y471862D01*
X444760Y427839D02*
X452240D01*
Y445161D01*
X444760D02*
X452240D01*
X444760Y427839D02*
Y445161D01*
X166602Y445760D02*
Y453240D01*
X149279D02*
X166602D01*
X149279Y445760D02*
Y453240D01*
Y445760D02*
X166602D01*
M02*
