G04*
G04 #@! TF.GenerationSoftware,Altium Limited,Altium Designer,20.1.12 (249)*
G04*
G04 Layer_Color=16711935*
%FSLAX25Y25*%
%MOIN*%
G70*
G04*
G04 #@! TF.SameCoordinates,2B819FEC-D567-4356-858B-597537979E9D*
G04*
G04*
G04 #@! TF.FilePolarity,Positive*
G04*
G01*
G75*
%ADD12C,0.00787*%
G36*
X538085Y379000D02*
X537774D01*
Y380971D01*
X537768Y380965D01*
X537753Y380954D01*
X537729Y380933D01*
X537694Y380906D01*
X537652Y380874D01*
X537602Y380835D01*
X537543Y380797D01*
X537478Y380758D01*
X537475D01*
X537469Y380752D01*
X537460Y380749D01*
X537448Y380740D01*
X537413Y380723D01*
X537371Y380699D01*
X537321Y380672D01*
X537265Y380646D01*
X537208Y380622D01*
X537155Y380598D01*
Y380897D01*
X537158Y380900D01*
X537167Y380903D01*
X537179Y380909D01*
X537199Y380918D01*
X537220Y380930D01*
X537247Y380945D01*
X537276Y380962D01*
X537309Y380980D01*
X537380Y381022D01*
X537454Y381072D01*
X537534Y381128D01*
X537608Y381190D01*
X537611Y381193D01*
X537617Y381199D01*
X537626Y381208D01*
X537640Y381220D01*
X537655Y381235D01*
X537673Y381256D01*
X537714Y381300D01*
X537762Y381350D01*
X537806Y381406D01*
X537848Y381469D01*
X537883Y381531D01*
X538085D01*
Y379000D01*
D02*
G37*
G36*
X535468Y381519D02*
X535500D01*
X535533Y381516D01*
X535604Y381513D01*
X535681Y381507D01*
X535752Y381495D01*
X535785Y381489D01*
X535814Y381483D01*
X535817D01*
X535823Y381480D01*
X535835Y381477D01*
X535850Y381474D01*
X535870Y381469D01*
X535891Y381460D01*
X535942Y381442D01*
X536001Y381418D01*
X536063Y381386D01*
X536125Y381347D01*
X536184Y381303D01*
X536187Y381300D01*
X536193Y381294D01*
X536205Y381285D01*
X536217Y381273D01*
X536235Y381256D01*
X536252Y381235D01*
X536273Y381211D01*
X536297Y381184D01*
X536320Y381155D01*
X536347Y381122D01*
X536394Y381048D01*
X536442Y380965D01*
X536483Y380871D01*
Y380868D01*
X536486Y380859D01*
X536492Y380844D01*
X536498Y380826D01*
X536507Y380800D01*
X536516Y380770D01*
X536525Y380737D01*
X536533Y380699D01*
X536542Y380658D01*
X536551Y380610D01*
X536560Y380560D01*
X536569Y380509D01*
X536581Y380394D01*
X536584Y380273D01*
Y380270D01*
Y380261D01*
Y380246D01*
Y380225D01*
X536581Y380199D01*
Y380169D01*
X536578Y380137D01*
X536575Y380101D01*
X536566Y380021D01*
X536554Y379938D01*
X536539Y379850D01*
X536516Y379764D01*
Y379761D01*
X536513Y379755D01*
X536510Y379743D01*
X536504Y379728D01*
X536498Y379707D01*
X536489Y379687D01*
X536468Y379633D01*
X536445Y379577D01*
X536412Y379515D01*
X536380Y379453D01*
X536341Y379397D01*
Y379394D01*
X536335Y379391D01*
X536323Y379373D01*
X536303Y379346D01*
X536273Y379314D01*
X536240Y379278D01*
X536202Y379240D01*
X536158Y379201D01*
X536113Y379169D01*
X536107Y379166D01*
X536092Y379154D01*
X536066Y379139D01*
X536030Y379121D01*
X535986Y379101D01*
X535933Y379080D01*
X535876Y379059D01*
X535811Y379041D01*
X535808D01*
X535802Y379038D01*
X535793D01*
X535782Y379035D01*
X535764Y379032D01*
X535743Y379030D01*
X535722Y379024D01*
X535696Y379021D01*
X535637Y379012D01*
X535569Y379006D01*
X535492Y379003D01*
X535409Y379000D01*
X534500D01*
Y381522D01*
X535441D01*
X535468Y381519D01*
D02*
G37*
G36*
X375500Y450478D02*
X374328D01*
X374301Y450481D01*
X374269D01*
X374233Y450484D01*
X374195Y450487D01*
X374112Y450496D01*
X374026Y450508D01*
X373943Y450523D01*
X373907Y450534D01*
X373872Y450546D01*
X373869D01*
X373863Y450549D01*
X373854Y450552D01*
X373842Y450558D01*
X373810Y450576D01*
X373771Y450602D01*
X373727Y450635D01*
X373680Y450676D01*
X373635Y450730D01*
X373594Y450789D01*
Y450792D01*
X373588Y450798D01*
X373585Y450807D01*
X373576Y450818D01*
X373570Y450836D01*
X373561Y450854D01*
X373540Y450901D01*
X373520Y450958D01*
X373505Y451020D01*
X373493Y451091D01*
X373487Y451168D01*
Y451171D01*
Y451180D01*
Y451194D01*
X373490Y451212D01*
X373493Y451236D01*
X373496Y451263D01*
X373502Y451292D01*
X373508Y451325D01*
X373529Y451399D01*
X373544Y451434D01*
X373561Y451473D01*
X373582Y451511D01*
X373603Y451550D01*
X373632Y451588D01*
X373662Y451624D01*
X373665Y451627D01*
X373671Y451632D01*
X373680Y451641D01*
X373694Y451653D01*
X373712Y451668D01*
X373736Y451683D01*
X373762Y451704D01*
X373795Y451721D01*
X373831Y451742D01*
X373869Y451760D01*
X373914Y451781D01*
X373961Y451798D01*
X374014Y451816D01*
X374070Y451831D01*
X374132Y451843D01*
X374198Y451855D01*
X374195D01*
X374192Y451858D01*
X374177Y451866D01*
X374153Y451878D01*
X374124Y451896D01*
X374091Y451914D01*
X374056Y451934D01*
X374023Y451958D01*
X373996Y451982D01*
X373993D01*
X373990Y451988D01*
X373973Y452005D01*
X373943Y452035D01*
X373907Y452073D01*
X373866Y452121D01*
X373819Y452180D01*
X373771Y452245D01*
X373721Y452316D01*
X373286Y453000D01*
X373700D01*
X374035Y452479D01*
X374038Y452476D01*
X374041Y452470D01*
X374050Y452458D01*
X374059Y452441D01*
X374070Y452423D01*
X374085Y452399D01*
X374118Y452349D01*
X374156Y452296D01*
X374198Y452236D01*
X374236Y452180D01*
X374275Y452133D01*
X374278Y452127D01*
X374289Y452112D01*
X374307Y452091D01*
X374331Y452065D01*
X374358Y452038D01*
X374387Y452011D01*
X374414Y451985D01*
X374443Y451964D01*
X374446Y451961D01*
X374455Y451955D01*
X374470Y451946D01*
X374491Y451937D01*
X374511Y451926D01*
X374538Y451914D01*
X374565Y451905D01*
X374594Y451896D01*
X374597D01*
X374606Y451893D01*
X374621Y451890D01*
X374639Y451887D01*
X374665D01*
X374698Y451884D01*
X374736Y451881D01*
X375166D01*
Y453000D01*
X375500D01*
Y450478D01*
D02*
G37*
G36*
X373132Y452994D02*
Y452982D01*
Y452959D01*
X373129Y452932D01*
X373126Y452899D01*
X373120Y452864D01*
X373111Y452825D01*
X373096Y452787D01*
Y452784D01*
X373094Y452778D01*
X373091Y452769D01*
X373085Y452757D01*
X373079Y452742D01*
X373070Y452725D01*
X373049Y452680D01*
X373020Y452630D01*
X372984Y452571D01*
X372943Y452512D01*
X372895Y452450D01*
X372892Y452447D01*
X372889Y452441D01*
X372880Y452432D01*
X372869Y452420D01*
X372854Y452405D01*
X372836Y452384D01*
X372815Y452364D01*
X372792Y452340D01*
X372762Y452313D01*
X372732Y452284D01*
X372700Y452254D01*
X372661Y452219D01*
X372623Y452186D01*
X372582Y452147D01*
X372534Y452109D01*
X372487Y452071D01*
X372481Y452068D01*
X372469Y452056D01*
X372448Y452038D01*
X372419Y452014D01*
X372386Y451988D01*
X372348Y451952D01*
X372306Y451917D01*
X372262Y451878D01*
X372170Y451792D01*
X372078Y451704D01*
X372037Y451659D01*
X371995Y451618D01*
X371960Y451576D01*
X371930Y451538D01*
X371927Y451535D01*
X371924Y451529D01*
X371916Y451517D01*
X371907Y451505D01*
X371898Y451487D01*
X371883Y451467D01*
X371856Y451416D01*
X371830Y451360D01*
X371809Y451298D01*
X371791Y451230D01*
X371788Y451197D01*
X371785Y451165D01*
Y451162D01*
Y451156D01*
Y451147D01*
X371788Y451135D01*
X371791Y451100D01*
X371803Y451058D01*
X371818Y451008D01*
X371842Y450958D01*
X371874Y450904D01*
X371895Y450878D01*
X371918Y450854D01*
Y450851D01*
X371924Y450848D01*
X371942Y450833D01*
X371972Y450813D01*
X372010Y450789D01*
X372060Y450768D01*
X372117Y450747D01*
X372185Y450733D01*
X372223Y450727D01*
X372283D01*
X372297Y450730D01*
X372318D01*
X372339Y450733D01*
X372389Y450744D01*
X372445Y450759D01*
X372508Y450783D01*
X372567Y450818D01*
X372593Y450839D01*
X372620Y450863D01*
X372626Y450869D01*
X372632Y450878D01*
X372641Y450887D01*
X372661Y450916D01*
X372685Y450958D01*
X372712Y451011D01*
X372732Y451073D01*
X372747Y451147D01*
X372750Y451189D01*
X372753Y451230D01*
X373073Y451197D01*
Y451194D01*
X373070Y451183D01*
X373067Y451162D01*
X373064Y451138D01*
X373058Y451109D01*
X373052Y451076D01*
X373040Y451038D01*
X373028Y450996D01*
X372999Y450910D01*
X372978Y450863D01*
X372954Y450818D01*
X372928Y450774D01*
X372898Y450733D01*
X372866Y450691D01*
X372827Y450656D01*
X372824Y450653D01*
X372818Y450647D01*
X372806Y450638D01*
X372789Y450626D01*
X372768Y450611D01*
X372741Y450597D01*
X372709Y450579D01*
X372676Y450561D01*
X372638Y450546D01*
X372593Y450528D01*
X372546Y450514D01*
X372496Y450499D01*
X372439Y450487D01*
X372380Y450478D01*
X372318Y450472D01*
X372253Y450469D01*
X372217D01*
X372194Y450472D01*
X372161Y450475D01*
X372129Y450481D01*
X372087Y450487D01*
X372046Y450493D01*
X371954Y450520D01*
X371907Y450534D01*
X371859Y450555D01*
X371812Y450576D01*
X371764Y450605D01*
X371720Y450635D01*
X371679Y450670D01*
X371676Y450673D01*
X371670Y450679D01*
X371658Y450691D01*
X371646Y450706D01*
X371628Y450727D01*
X371611Y450750D01*
X371593Y450777D01*
X371572Y450810D01*
X371551Y450842D01*
X371534Y450881D01*
X371516Y450922D01*
X371498Y450967D01*
X371486Y451014D01*
X371474Y451064D01*
X371468Y451115D01*
X371465Y451171D01*
Y451174D01*
Y451177D01*
Y451186D01*
Y451197D01*
X371468Y451227D01*
X371474Y451265D01*
X371480Y451310D01*
X371492Y451360D01*
X371507Y451413D01*
X371528Y451470D01*
Y451473D01*
X371531Y451476D01*
X371534Y451484D01*
X371540Y451493D01*
X371554Y451523D01*
X371578Y451561D01*
X371605Y451609D01*
X371640Y451662D01*
X371685Y451718D01*
X371735Y451778D01*
X371738Y451781D01*
X371741Y451784D01*
X371750Y451795D01*
X371761Y451807D01*
X371779Y451822D01*
X371797Y451843D01*
X371821Y451866D01*
X371847Y451893D01*
X371880Y451923D01*
X371916Y451955D01*
X371954Y451991D01*
X371998Y452032D01*
X372046Y452073D01*
X372096Y452118D01*
X372152Y452168D01*
X372212Y452219D01*
X372214Y452222D01*
X372223Y452227D01*
X372238Y452239D01*
X372256Y452257D01*
X372280Y452275D01*
X372303Y452296D01*
X372362Y452346D01*
X372425Y452399D01*
X372484Y452450D01*
X372510Y452476D01*
X372534Y452497D01*
X372555Y452518D01*
X372573Y452535D01*
X372576Y452538D01*
X372584Y452550D01*
X372599Y452565D01*
X372617Y452586D01*
X372638Y452612D01*
X372658Y452639D01*
X372700Y452701D01*
X371463D01*
Y453000D01*
X373132D01*
Y452994D01*
D02*
G37*
G36*
X499793Y463067D02*
X499822Y463064D01*
X499852Y463058D01*
X499887Y463049D01*
X499929Y463040D01*
X499970Y463028D01*
X500015Y463014D01*
X500059Y462996D01*
X500103Y462972D01*
X500151Y462946D01*
X500195Y462916D01*
X500240Y462881D01*
X500281Y462839D01*
X500284Y462836D01*
X500290Y462827D01*
X500302Y462815D01*
X500316Y462798D01*
X500331Y462774D01*
X500349Y462747D01*
X500370Y462715D01*
X500390Y462679D01*
X500411Y462638D01*
X500432Y462593D01*
X500450Y462543D01*
X500464Y462490D01*
X500479Y462434D01*
X500491Y462371D01*
X500497Y462306D01*
X500500Y462238D01*
Y462220D01*
X500497Y462203D01*
Y462176D01*
X500494Y462144D01*
X500488Y462108D01*
X500482Y462067D01*
X500473Y462022D01*
X500461Y461975D01*
X500447Y461924D01*
X500429Y461874D01*
X500408Y461824D01*
X500382Y461773D01*
X500352Y461726D01*
X500319Y461679D01*
X500281Y461634D01*
X500278Y461631D01*
X500272Y461625D01*
X500257Y461614D01*
X500243Y461599D01*
X500219Y461581D01*
X500192Y461563D01*
X500163Y461543D01*
X500130Y461522D01*
X500092Y461498D01*
X500050Y461478D01*
X500003Y461460D01*
X499955Y461442D01*
X499902Y461427D01*
X499849Y461415D01*
X499790Y461409D01*
X499730Y461406D01*
X499727D01*
X499719D01*
X499707D01*
X499689Y461409D01*
X499668D01*
X499645Y461412D01*
X499585Y461421D01*
X499523Y461436D01*
X499452Y461460D01*
X499384Y461489D01*
X499319Y461531D01*
X499316Y461534D01*
X499313Y461537D01*
X499304Y461543D01*
X499292Y461554D01*
X499263Y461581D01*
X499227Y461622D01*
X499192Y461673D01*
X499153Y461732D01*
X499118Y461803D01*
X499091Y461886D01*
Y461883D01*
X499088Y461877D01*
X499085Y461868D01*
X499079Y461853D01*
X499061Y461821D01*
X499041Y461779D01*
X499014Y461732D01*
X498979Y461685D01*
X498937Y461637D01*
X498893Y461599D01*
X498890D01*
X498887Y461596D01*
X498869Y461584D01*
X498842Y461569D01*
X498804Y461554D01*
X498757Y461537D01*
X498703Y461522D01*
X498644Y461510D01*
X498579Y461507D01*
X498576D01*
X498567D01*
X498552D01*
X498532Y461510D01*
X498508Y461513D01*
X498481Y461519D01*
X498452Y461525D01*
X498419Y461531D01*
X498345Y461554D01*
X498307Y461569D01*
X498268Y461590D01*
X498230Y461611D01*
X498191Y461637D01*
X498153Y461667D01*
X498117Y461702D01*
X498114Y461705D01*
X498108Y461711D01*
X498100Y461723D01*
X498088Y461738D01*
X498073Y461759D01*
X498058Y461782D01*
X498040Y461812D01*
X498023Y461844D01*
X498005Y461880D01*
X497987Y461918D01*
X497972Y461963D01*
X497957Y462010D01*
X497946Y462061D01*
X497937Y462114D01*
X497931Y462173D01*
X497928Y462232D01*
Y462265D01*
X497931Y462286D01*
X497934Y462315D01*
X497937Y462348D01*
X497943Y462383D01*
X497952Y462422D01*
X497975Y462507D01*
X497990Y462549D01*
X498008Y462593D01*
X498031Y462638D01*
X498058Y462682D01*
X498088Y462724D01*
X498120Y462762D01*
X498123Y462765D01*
X498129Y462771D01*
X498141Y462780D01*
X498156Y462795D01*
X498174Y462810D01*
X498194Y462827D01*
X498221Y462845D01*
X498250Y462866D01*
X498283Y462884D01*
X498318Y462901D01*
X498398Y462934D01*
X498443Y462949D01*
X498487Y462957D01*
X498538Y462963D01*
X498588Y462966D01*
X498591D01*
X498597D01*
X498606D01*
X498618D01*
X498650Y462960D01*
X498692Y462955D01*
X498739Y462943D01*
X498789Y462928D01*
X498842Y462904D01*
X498893Y462872D01*
X498899Y462869D01*
X498913Y462854D01*
X498937Y462833D01*
X498967Y462804D01*
X498999Y462762D01*
X499032Y462715D01*
X499061Y462659D01*
X499091Y462593D01*
Y462596D01*
X499094Y462602D01*
X499100Y462614D01*
X499106Y462632D01*
X499115Y462650D01*
X499124Y462673D01*
X499150Y462724D01*
X499186Y462780D01*
X499227Y462839D01*
X499277Y462895D01*
X499337Y462946D01*
X499340Y462949D01*
X499346Y462952D01*
X499355Y462957D01*
X499366Y462966D01*
X499384Y462975D01*
X499402Y462984D01*
X499426Y462996D01*
X499449Y463008D01*
X499508Y463031D01*
X499577Y463049D01*
X499653Y463064D01*
X499739Y463070D01*
X499742D01*
X499754D01*
X499772D01*
X499793Y463067D01*
D02*
G37*
G36*
X500459Y460800D02*
X499938Y460465D01*
X499935Y460462D01*
X499929Y460459D01*
X499917Y460450D01*
X499899Y460441D01*
X499881Y460430D01*
X499858Y460415D01*
X499807Y460382D01*
X499754Y460344D01*
X499695Y460302D01*
X499639Y460264D01*
X499591Y460225D01*
X499585Y460222D01*
X499571Y460211D01*
X499550Y460193D01*
X499523Y460169D01*
X499497Y460143D01*
X499470Y460113D01*
X499443Y460086D01*
X499423Y460057D01*
X499420Y460054D01*
X499414Y460045D01*
X499405Y460030D01*
X499396Y460009D01*
X499384Y459989D01*
X499372Y459962D01*
X499363Y459935D01*
X499355Y459906D01*
Y459903D01*
X499352Y459894D01*
X499349Y459879D01*
X499346Y459861D01*
Y459835D01*
X499343Y459802D01*
X499340Y459764D01*
Y459334D01*
X500459D01*
Y459000D01*
X497937D01*
Y460172D01*
X497940Y460199D01*
Y460231D01*
X497943Y460267D01*
X497946Y460305D01*
X497954Y460388D01*
X497966Y460474D01*
X497981Y460557D01*
X497993Y460592D01*
X498005Y460628D01*
Y460631D01*
X498008Y460637D01*
X498011Y460646D01*
X498017Y460658D01*
X498034Y460690D01*
X498061Y460729D01*
X498094Y460773D01*
X498135Y460820D01*
X498188Y460865D01*
X498247Y460906D01*
X498250D01*
X498256Y460912D01*
X498265Y460915D01*
X498277Y460924D01*
X498295Y460930D01*
X498313Y460939D01*
X498360Y460959D01*
X498416Y460980D01*
X498478Y460995D01*
X498549Y461007D01*
X498626Y461013D01*
X498629D01*
X498638D01*
X498653D01*
X498671Y461010D01*
X498694Y461007D01*
X498721Y461004D01*
X498751Y460998D01*
X498783Y460992D01*
X498857Y460971D01*
X498893Y460956D01*
X498931Y460939D01*
X498970Y460918D01*
X499008Y460897D01*
X499047Y460868D01*
X499082Y460838D01*
X499085Y460835D01*
X499091Y460829D01*
X499100Y460820D01*
X499112Y460806D01*
X499127Y460788D01*
X499141Y460764D01*
X499162Y460738D01*
X499180Y460705D01*
X499201Y460669D01*
X499218Y460631D01*
X499239Y460587D01*
X499257Y460539D01*
X499275Y460486D01*
X499289Y460430D01*
X499301Y460367D01*
X499313Y460302D01*
Y460305D01*
X499316Y460308D01*
X499325Y460323D01*
X499337Y460347D01*
X499355Y460376D01*
X499372Y460409D01*
X499393Y460444D01*
X499417Y460477D01*
X499440Y460504D01*
Y460507D01*
X499446Y460510D01*
X499464Y460527D01*
X499494Y460557D01*
X499532Y460592D01*
X499579Y460634D01*
X499639Y460681D01*
X499704Y460729D01*
X499775Y460779D01*
X500459Y461214D01*
Y460800D01*
D02*
G37*
G36*
X258345Y437497D02*
X258371Y437494D01*
X258404Y437488D01*
X258442Y437482D01*
X258481Y437476D01*
X258570Y437453D01*
X258614Y437438D01*
X258661Y437417D01*
X258706Y437396D01*
X258753Y437370D01*
X258798Y437340D01*
X258839Y437305D01*
X258842Y437302D01*
X258848Y437296D01*
X258860Y437284D01*
X258875Y437269D01*
X258889Y437248D01*
X258910Y437225D01*
X258931Y437198D01*
X258951Y437165D01*
X258975Y437130D01*
X258996Y437092D01*
X259017Y437050D01*
X259037Y437003D01*
X259055Y436955D01*
X259067Y436902D01*
X259079Y436849D01*
X259088Y436790D01*
X258777Y436748D01*
Y436751D01*
X258774Y436760D01*
X258771Y436772D01*
X258765Y436790D01*
X258759Y436813D01*
X258753Y436837D01*
X258735Y436893D01*
X258709Y436955D01*
X258679Y437020D01*
X258641Y437077D01*
X258620Y437103D01*
X258596Y437127D01*
X258593D01*
X258590Y437133D01*
X258573Y437145D01*
X258546Y437163D01*
X258510Y437183D01*
X258463Y437207D01*
X258413Y437225D01*
X258351Y437237D01*
X258285Y437243D01*
X258265D01*
X258250Y437240D01*
X258229Y437237D01*
X258208Y437234D01*
X258158Y437225D01*
X258099Y437207D01*
X258037Y437177D01*
X258004Y437163D01*
X257975Y437142D01*
X257945Y437118D01*
X257915Y437092D01*
X257912Y437089D01*
X257909Y437086D01*
X257901Y437077D01*
X257892Y437065D01*
X257880Y437050D01*
X257868Y437032D01*
X257839Y436988D01*
X257812Y436935D01*
X257788Y436869D01*
X257770Y436798D01*
X257768Y436760D01*
X257765Y436719D01*
Y436716D01*
Y436710D01*
Y436698D01*
X257768Y436683D01*
Y436665D01*
X257770Y436645D01*
X257782Y436594D01*
X257800Y436541D01*
X257824Y436482D01*
X257859Y436423D01*
X257883Y436396D01*
X257907Y436369D01*
X257909Y436366D01*
X257912Y436363D01*
X257921Y436357D01*
X257930Y436349D01*
X257963Y436325D01*
X258001Y436298D01*
X258055Y436275D01*
X258114Y436251D01*
X258182Y436236D01*
X258220Y436230D01*
X258274D01*
X258294Y436233D01*
X258318D01*
X258351Y436239D01*
X258389Y436245D01*
X258431Y436251D01*
X258478Y436263D01*
X258442Y435990D01*
X258436D01*
X258425Y435993D01*
X258410Y435996D01*
X258374D01*
X258360Y435993D01*
X258342D01*
X258321Y435990D01*
X258274Y435985D01*
X258220Y435970D01*
X258161Y435952D01*
X258099Y435928D01*
X258040Y435893D01*
X258037D01*
X258034Y435887D01*
X258016Y435872D01*
X257990Y435848D01*
X257960Y435813D01*
X257930Y435768D01*
X257904Y435715D01*
X257886Y435650D01*
X257883Y435614D01*
X257880Y435576D01*
Y435573D01*
Y435567D01*
Y435558D01*
X257883Y435546D01*
X257886Y435517D01*
X257895Y435478D01*
X257907Y435434D01*
X257927Y435387D01*
X257957Y435339D01*
X257995Y435295D01*
X258001Y435289D01*
X258016Y435277D01*
X258043Y435259D01*
X258075Y435239D01*
X258120Y435218D01*
X258170Y435200D01*
X258229Y435188D01*
X258294Y435182D01*
X258312D01*
X258324Y435185D01*
X258356Y435188D01*
X258401Y435197D01*
X258448Y435209D01*
X258499Y435230D01*
X258549Y435259D01*
X258596Y435298D01*
X258602Y435304D01*
X258614Y435319D01*
X258635Y435345D01*
X258658Y435384D01*
X258685Y435431D01*
X258709Y435490D01*
X258732Y435558D01*
X258747Y435638D01*
X259058Y435582D01*
Y435579D01*
X259055Y435567D01*
X259052Y435552D01*
X259046Y435532D01*
X259037Y435505D01*
X259028Y435475D01*
X259019Y435440D01*
X259005Y435404D01*
X258969Y435327D01*
X258925Y435248D01*
X258898Y435209D01*
X258869Y435171D01*
X258836Y435132D01*
X258801Y435100D01*
X258798Y435097D01*
X258792Y435091D01*
X258780Y435085D01*
X258765Y435073D01*
X258744Y435061D01*
X258721Y435046D01*
X258694Y435028D01*
X258661Y435014D01*
X258629Y434999D01*
X258590Y434981D01*
X258549Y434966D01*
X258505Y434954D01*
X258457Y434943D01*
X258407Y434934D01*
X258356Y434931D01*
X258300Y434928D01*
X258265D01*
X258247Y434931D01*
X258226Y434934D01*
X258176Y434940D01*
X258117Y434948D01*
X258052Y434966D01*
X257986Y434987D01*
X257921Y435017D01*
X257918D01*
X257912Y435019D01*
X257904Y435026D01*
X257892Y435031D01*
X257862Y435052D01*
X257824Y435079D01*
X257779Y435114D01*
X257735Y435156D01*
X257694Y435206D01*
X257655Y435259D01*
Y435262D01*
X257652Y435265D01*
X257646Y435274D01*
X257640Y435286D01*
X257625Y435316D01*
X257608Y435357D01*
X257590Y435404D01*
X257575Y435458D01*
X257563Y435520D01*
X257560Y435582D01*
Y435585D01*
Y435588D01*
Y435597D01*
Y435609D01*
X257566Y435641D01*
X257572Y435680D01*
X257581Y435727D01*
X257599Y435777D01*
X257620Y435828D01*
X257649Y435881D01*
X257652Y435887D01*
X257667Y435902D01*
X257688Y435928D01*
X257714Y435958D01*
X257753Y435990D01*
X257797Y436026D01*
X257850Y436059D01*
X257909Y436091D01*
X257907D01*
X257901Y436094D01*
X257889Y436097D01*
X257871Y436103D01*
X257853Y436109D01*
X257833Y436118D01*
X257782Y436138D01*
X257726Y436168D01*
X257667Y436203D01*
X257611Y436251D01*
X257560Y436307D01*
X257557Y436310D01*
X257554Y436313D01*
X257548Y436322D01*
X257540Y436337D01*
X257531Y436352D01*
X257522Y436369D01*
X257510Y436393D01*
X257498Y436417D01*
X257474Y436476D01*
X257457Y436547D01*
X257442Y436624D01*
X257436Y436713D01*
Y436716D01*
Y436728D01*
X257439Y436745D01*
Y436769D01*
X257442Y436796D01*
X257448Y436828D01*
X257457Y436867D01*
X257466Y436905D01*
X257480Y436949D01*
X257495Y436994D01*
X257516Y437041D01*
X257540Y437089D01*
X257566Y437136D01*
X257599Y437180D01*
X257637Y437228D01*
X257679Y437272D01*
X257682Y437275D01*
X257691Y437281D01*
X257702Y437293D01*
X257723Y437308D01*
X257747Y437325D01*
X257773Y437343D01*
X257806Y437364D01*
X257844Y437385D01*
X257886Y437408D01*
X257933Y437429D01*
X257984Y437447D01*
X258037Y437465D01*
X258096Y437479D01*
X258155Y437491D01*
X258220Y437497D01*
X258288Y437500D01*
X258321D01*
X258345Y437497D01*
D02*
G37*
G36*
X261500Y434937D02*
X260328D01*
X260301Y434940D01*
X260269D01*
X260233Y434943D01*
X260195Y434946D01*
X260112Y434954D01*
X260026Y434966D01*
X259943Y434981D01*
X259908Y434993D01*
X259872Y435005D01*
X259869D01*
X259863Y435008D01*
X259854Y435011D01*
X259842Y435017D01*
X259810Y435034D01*
X259771Y435061D01*
X259727Y435093D01*
X259680Y435135D01*
X259635Y435188D01*
X259594Y435248D01*
Y435250D01*
X259588Y435256D01*
X259585Y435265D01*
X259576Y435277D01*
X259570Y435295D01*
X259561Y435313D01*
X259541Y435360D01*
X259520Y435416D01*
X259505Y435478D01*
X259493Y435549D01*
X259487Y435626D01*
Y435629D01*
Y435638D01*
Y435653D01*
X259490Y435671D01*
X259493Y435694D01*
X259496Y435721D01*
X259502Y435751D01*
X259508Y435783D01*
X259529Y435857D01*
X259543Y435893D01*
X259561Y435931D01*
X259582Y435970D01*
X259603Y436008D01*
X259632Y436047D01*
X259662Y436082D01*
X259665Y436085D01*
X259671Y436091D01*
X259680Y436100D01*
X259694Y436112D01*
X259712Y436127D01*
X259736Y436141D01*
X259763Y436162D01*
X259795Y436180D01*
X259831Y436201D01*
X259869Y436218D01*
X259913Y436239D01*
X259961Y436257D01*
X260014Y436275D01*
X260070Y436289D01*
X260133Y436301D01*
X260198Y436313D01*
X260195D01*
X260192Y436316D01*
X260177Y436325D01*
X260153Y436337D01*
X260124Y436354D01*
X260091Y436372D01*
X260055Y436393D01*
X260023Y436417D01*
X259996Y436440D01*
X259993D01*
X259990Y436446D01*
X259973Y436464D01*
X259943Y436494D01*
X259908Y436532D01*
X259866Y436580D01*
X259819Y436639D01*
X259771Y436704D01*
X259721Y436775D01*
X259286Y437459D01*
X259700D01*
X260035Y436938D01*
X260038Y436935D01*
X260041Y436929D01*
X260050Y436917D01*
X260058Y436899D01*
X260070Y436881D01*
X260085Y436858D01*
X260118Y436807D01*
X260156Y436754D01*
X260198Y436695D01*
X260236Y436639D01*
X260275Y436591D01*
X260278Y436585D01*
X260289Y436571D01*
X260307Y436550D01*
X260331Y436523D01*
X260357Y436497D01*
X260387Y436470D01*
X260414Y436443D01*
X260443Y436423D01*
X260446Y436420D01*
X260455Y436414D01*
X260470Y436405D01*
X260491Y436396D01*
X260511Y436384D01*
X260538Y436372D01*
X260565Y436363D01*
X260594Y436354D01*
X260597D01*
X260606Y436352D01*
X260621Y436349D01*
X260639Y436346D01*
X260665D01*
X260698Y436343D01*
X260736Y436340D01*
X261165D01*
Y437459D01*
X261500D01*
Y434937D01*
D02*
G37*
G36*
X206221Y400497D02*
X206250Y400494D01*
X206286Y400491D01*
X206321Y400485D01*
X206363Y400476D01*
X206452Y400453D01*
X206499Y400438D01*
X206546Y400420D01*
X206594Y400396D01*
X206641Y400370D01*
X206685Y400340D01*
X206727Y400308D01*
X206730Y400305D01*
X206736Y400299D01*
X206748Y400287D01*
X206762Y400272D01*
X206777Y400254D01*
X206798Y400231D01*
X206816Y400201D01*
X206839Y400172D01*
X206860Y400136D01*
X206881Y400098D01*
X206902Y400056D01*
X206922Y400012D01*
X206940Y399961D01*
X206955Y399908D01*
X206964Y399855D01*
X206973Y399796D01*
X206647Y399772D01*
Y399775D01*
X206644Y399781D01*
Y399796D01*
X206638Y399810D01*
X206635Y399831D01*
X206629Y399852D01*
X206611Y399905D01*
X206591Y399961D01*
X206561Y400021D01*
X206525Y400077D01*
X206481Y400127D01*
X206478D01*
X206475Y400133D01*
X206457Y400145D01*
X206431Y400166D01*
X206392Y400186D01*
X206348Y400207D01*
X206292Y400228D01*
X206233Y400240D01*
X206164Y400246D01*
X206144D01*
X206126Y400243D01*
X206108Y400240D01*
X206084Y400237D01*
X206031Y400225D01*
X205972Y400204D01*
X205940Y400189D01*
X205907Y400174D01*
X205874Y400154D01*
X205842Y400133D01*
X205812Y400106D01*
X205783Y400077D01*
X205780Y400074D01*
X205777Y400068D01*
X205768Y400059D01*
X205759Y400047D01*
X205747Y400029D01*
X205735Y400009D01*
X205720Y399985D01*
X205706Y399958D01*
X205691Y399926D01*
X205676Y399893D01*
X205664Y399858D01*
X205652Y399816D01*
X205635Y399728D01*
X205632Y399680D01*
X205629Y399630D01*
Y399627D01*
Y399618D01*
Y399603D01*
X205632Y399585D01*
Y399565D01*
X205638Y399538D01*
X205646Y399476D01*
X205664Y399411D01*
X205691Y399340D01*
X205709Y399304D01*
X205726Y399272D01*
X205750Y399239D01*
X205777Y399209D01*
X205780Y399206D01*
X205783Y399203D01*
X205791Y399195D01*
X205803Y399186D01*
X205818Y399174D01*
X205836Y399162D01*
X205857Y399147D01*
X205880Y399132D01*
X205937Y399103D01*
X206005Y399079D01*
X206082Y399061D01*
X206123Y399059D01*
X206167Y399056D01*
X206194D01*
X206221Y399059D01*
X206259Y399064D01*
X206301Y399073D01*
X206345Y399085D01*
X206392Y399103D01*
X206440Y399127D01*
X206446Y399130D01*
X206460Y399138D01*
X206481Y399156D01*
X206508Y399177D01*
X206537Y399201D01*
X206567Y399233D01*
X206599Y399269D01*
X206626Y399307D01*
X206916Y399266D01*
X206671Y397969D01*
X205418D01*
Y398265D01*
X206428D01*
X206561Y398943D01*
X206558Y398940D01*
X206549Y398937D01*
X206537Y398928D01*
X206523Y398919D01*
X206502Y398905D01*
X206475Y398893D01*
X206449Y398878D01*
X206416Y398863D01*
X206345Y398834D01*
X206265Y398807D01*
X206176Y398789D01*
X206132Y398786D01*
X206084Y398783D01*
X206052D01*
X206028Y398786D01*
X206002Y398789D01*
X205969Y398795D01*
X205931Y398804D01*
X205892Y398813D01*
X205848Y398825D01*
X205803Y398839D01*
X205759Y398857D01*
X205712Y398881D01*
X205664Y398907D01*
X205617Y398937D01*
X205572Y398973D01*
X205528Y399014D01*
X205525Y399017D01*
X205519Y399026D01*
X205507Y399038D01*
X205492Y399056D01*
X205475Y399079D01*
X205457Y399106D01*
X205436Y399138D01*
X205413Y399174D01*
X205392Y399212D01*
X205371Y399257D01*
X205353Y399307D01*
X205336Y399358D01*
X205321Y399414D01*
X205309Y399473D01*
X205303Y399538D01*
X205300Y399603D01*
Y399606D01*
Y399618D01*
Y399636D01*
X205303Y399659D01*
X205306Y399689D01*
X205312Y399725D01*
X205318Y399763D01*
X205324Y399804D01*
X205350Y399899D01*
X205365Y399946D01*
X205386Y399997D01*
X205407Y400047D01*
X205436Y400098D01*
X205466Y400148D01*
X205501Y400195D01*
X205504Y400198D01*
X205513Y400207D01*
X205525Y400222D01*
X205546Y400243D01*
X205570Y400266D01*
X205599Y400293D01*
X205635Y400319D01*
X205676Y400346D01*
X205720Y400376D01*
X205771Y400402D01*
X205824Y400429D01*
X205883Y400453D01*
X205948Y400470D01*
X206016Y400488D01*
X206087Y400497D01*
X206164Y400500D01*
X206197D01*
X206221Y400497D01*
D02*
G37*
G36*
X209382Y397937D02*
X208210D01*
X208183Y397940D01*
X208151D01*
X208115Y397943D01*
X208077Y397946D01*
X207994Y397954D01*
X207908Y397966D01*
X207825Y397981D01*
X207789Y397993D01*
X207754Y398005D01*
X207751D01*
X207745Y398008D01*
X207736Y398011D01*
X207724Y398017D01*
X207692Y398034D01*
X207653Y398061D01*
X207609Y398094D01*
X207561Y398135D01*
X207517Y398188D01*
X207476Y398248D01*
Y398250D01*
X207470Y398256D01*
X207467Y398265D01*
X207458Y398277D01*
X207452Y398295D01*
X207443Y398313D01*
X207422Y398360D01*
X207402Y398416D01*
X207387Y398478D01*
X207375Y398549D01*
X207369Y398626D01*
Y398629D01*
Y398638D01*
Y398653D01*
X207372Y398671D01*
X207375Y398694D01*
X207378Y398721D01*
X207384Y398751D01*
X207390Y398783D01*
X207411Y398857D01*
X207425Y398893D01*
X207443Y398931D01*
X207464Y398970D01*
X207485Y399008D01*
X207514Y399047D01*
X207544Y399082D01*
X207547Y399085D01*
X207553Y399091D01*
X207561Y399100D01*
X207576Y399112D01*
X207594Y399127D01*
X207618Y399141D01*
X207644Y399162D01*
X207677Y399180D01*
X207713Y399201D01*
X207751Y399218D01*
X207795Y399239D01*
X207843Y399257D01*
X207896Y399275D01*
X207952Y399289D01*
X208014Y399301D01*
X208080Y399313D01*
X208077D01*
X208074Y399316D01*
X208059Y399325D01*
X208035Y399337D01*
X208005Y399355D01*
X207973Y399372D01*
X207938Y399393D01*
X207905Y399417D01*
X207878Y399440D01*
X207875D01*
X207872Y399446D01*
X207855Y399464D01*
X207825Y399494D01*
X207789Y399532D01*
X207748Y399580D01*
X207701Y399639D01*
X207653Y399704D01*
X207603Y399775D01*
X207168Y400459D01*
X207582D01*
X207917Y399938D01*
X207920Y399935D01*
X207923Y399929D01*
X207931Y399917D01*
X207940Y399899D01*
X207952Y399881D01*
X207967Y399858D01*
X208000Y399807D01*
X208038Y399754D01*
X208080Y399695D01*
X208118Y399639D01*
X208156Y399591D01*
X208159Y399585D01*
X208171Y399571D01*
X208189Y399550D01*
X208213Y399523D01*
X208239Y399497D01*
X208269Y399470D01*
X208296Y399443D01*
X208325Y399423D01*
X208328Y399420D01*
X208337Y399414D01*
X208352Y399405D01*
X208373Y399396D01*
X208393Y399384D01*
X208420Y399372D01*
X208447Y399363D01*
X208476Y399355D01*
X208479D01*
X208488Y399352D01*
X208503Y399349D01*
X208521Y399346D01*
X208547D01*
X208580Y399343D01*
X208618Y399340D01*
X209048D01*
Y400459D01*
X209382D01*
Y397937D01*
D02*
G37*
G36*
X164482Y481686D02*
X164511D01*
X164547Y481683D01*
X164585Y481680D01*
X164627Y481677D01*
X164716Y481665D01*
X164813Y481648D01*
X164908Y481624D01*
X165000Y481591D01*
X165003D01*
X165009Y481585D01*
X165021Y481579D01*
X165038Y481574D01*
X165056Y481562D01*
X165080Y481550D01*
X165133Y481514D01*
X165189Y481473D01*
X165251Y481423D01*
X165311Y481360D01*
X165364Y481289D01*
Y481286D01*
X165370Y481281D01*
X165376Y481269D01*
X165385Y481254D01*
X165393Y481236D01*
X165405Y481212D01*
X165417Y481186D01*
X165429Y481156D01*
X165441Y481124D01*
X165456Y481088D01*
X165476Y481011D01*
X165491Y480925D01*
X165500Y480834D01*
X165186Y480807D01*
Y480810D01*
Y480816D01*
X165183Y480825D01*
X165180Y480839D01*
Y480854D01*
X165174Y480875D01*
X165166Y480919D01*
X165154Y480967D01*
X165136Y481020D01*
X165112Y481073D01*
X165086Y481121D01*
X165083Y481127D01*
X165071Y481141D01*
X165050Y481162D01*
X165024Y481192D01*
X164988Y481221D01*
X164944Y481254D01*
X164890Y481286D01*
X164831Y481316D01*
X164828D01*
X164822Y481319D01*
X164813Y481322D01*
X164802Y481328D01*
X164784Y481334D01*
X164766Y481340D01*
X164719Y481352D01*
X164659Y481366D01*
X164594Y481378D01*
X164523Y481387D01*
X164443Y481390D01*
X164411D01*
X164393Y481387D01*
X164375D01*
X164328Y481384D01*
X164278Y481375D01*
X164218Y481366D01*
X164162Y481352D01*
X164106Y481334D01*
X164103D01*
X164100Y481331D01*
X164082Y481322D01*
X164056Y481310D01*
X164023Y481292D01*
X163990Y481272D01*
X163952Y481245D01*
X163919Y481215D01*
X163890Y481180D01*
X163887Y481174D01*
X163878Y481162D01*
X163866Y481141D01*
X163851Y481115D01*
X163839Y481082D01*
X163828Y481047D01*
X163819Y481005D01*
X163816Y480964D01*
Y480958D01*
Y480943D01*
X163819Y480922D01*
X163825Y480893D01*
X163833Y480860D01*
X163845Y480828D01*
X163863Y480792D01*
X163887Y480757D01*
X163890Y480754D01*
X163899Y480742D01*
X163916Y480724D01*
X163940Y480703D01*
X163973Y480683D01*
X164011Y480656D01*
X164056Y480632D01*
X164112Y480609D01*
X164118Y480606D01*
X164124D01*
X164132Y480600D01*
X164147Y480597D01*
X164162Y480591D01*
X164183Y480585D01*
X164207Y480579D01*
X164236Y480570D01*
X164266Y480561D01*
X164304Y480552D01*
X164346Y480541D01*
X164390Y480529D01*
X164443Y480517D01*
X164499Y480502D01*
X164562Y480487D01*
X164565D01*
X164576Y480484D01*
X164594Y480478D01*
X164618Y480473D01*
X164648Y480467D01*
X164677Y480458D01*
X164713Y480446D01*
X164751Y480437D01*
X164831Y480410D01*
X164914Y480384D01*
X164950Y480372D01*
X164985Y480357D01*
X165018Y480342D01*
X165047Y480327D01*
X165050D01*
X165056Y480324D01*
X165065Y480318D01*
X165077Y480310D01*
X165109Y480289D01*
X165151Y480262D01*
X165195Y480230D01*
X165240Y480188D01*
X165281Y480144D01*
X165320Y480094D01*
Y480091D01*
X165322Y480088D01*
X165331Y480070D01*
X165346Y480040D01*
X165361Y480002D01*
X165379Y479954D01*
X165391Y479901D01*
X165402Y479842D01*
X165405Y479780D01*
Y479777D01*
Y479771D01*
Y479762D01*
X165402Y479747D01*
Y479730D01*
X165399Y479709D01*
X165391Y479661D01*
X165379Y479608D01*
X165361Y479546D01*
X165334Y479484D01*
X165299Y479422D01*
Y479419D01*
X165293Y479416D01*
X165287Y479407D01*
X165278Y479395D01*
X165254Y479365D01*
X165219Y479327D01*
X165174Y479288D01*
X165118Y479244D01*
X165056Y479206D01*
X164982Y479170D01*
X164979D01*
X164973Y479167D01*
X164961Y479161D01*
X164946Y479155D01*
X164926Y479149D01*
X164902Y479140D01*
X164875Y479135D01*
X164846Y479126D01*
X164813Y479117D01*
X164778Y479108D01*
X164701Y479096D01*
X164612Y479084D01*
X164520Y479081D01*
X164473D01*
X164449Y479084D01*
X164420Y479087D01*
X164387Y479090D01*
X164351Y479093D01*
X164275Y479105D01*
X164192Y479120D01*
X164109Y479143D01*
X164026Y479173D01*
X164023D01*
X164017Y479176D01*
X164005Y479182D01*
X163990Y479191D01*
X163973Y479200D01*
X163952Y479212D01*
X163905Y479241D01*
X163851Y479280D01*
X163795Y479324D01*
X163742Y479377D01*
X163694Y479439D01*
Y479442D01*
X163689Y479448D01*
X163683Y479457D01*
X163677Y479469D01*
X163668Y479487D01*
X163656Y479507D01*
X163647Y479528D01*
X163635Y479555D01*
X163614Y479614D01*
X163594Y479679D01*
X163579Y479756D01*
X163570Y479836D01*
X163890Y479860D01*
Y479857D01*
Y479848D01*
X163893Y479836D01*
X163896Y479821D01*
X163902Y479801D01*
X163908Y479777D01*
X163922Y479727D01*
X163946Y479667D01*
X163976Y479608D01*
X164017Y479552D01*
X164067Y479502D01*
X164070D01*
X164073Y479496D01*
X164082Y479490D01*
X164094Y479484D01*
X164112Y479472D01*
X164129Y479463D01*
X164153Y479451D01*
X164177Y479439D01*
X164207Y479430D01*
X164239Y479419D01*
X164275Y479407D01*
X164313Y479398D01*
X164357Y479392D01*
X164402Y479386D01*
X164452Y479380D01*
X164535D01*
X164556Y479383D01*
X164579D01*
X164609Y479386D01*
X164639Y479389D01*
X164674Y479395D01*
X164745Y479407D01*
X164819Y479428D01*
X164887Y479454D01*
X164920Y479472D01*
X164946Y479493D01*
X164952Y479499D01*
X164967Y479513D01*
X164991Y479534D01*
X165015Y479567D01*
X165038Y479605D01*
X165062Y479653D01*
X165077Y479703D01*
X165080Y479730D01*
X165083Y479759D01*
Y479765D01*
X165080Y479783D01*
X165077Y479807D01*
X165071Y479839D01*
X165059Y479872D01*
X165041Y479910D01*
X165018Y479946D01*
X164985Y479981D01*
X164979Y479984D01*
X164973Y479990D01*
X164964Y479996D01*
X164950Y480005D01*
X164935Y480014D01*
X164911Y480025D01*
X164887Y480037D01*
X164858Y480049D01*
X164822Y480064D01*
X164781Y480079D01*
X164733Y480094D01*
X164680Y480111D01*
X164624Y480126D01*
X164556Y480144D01*
X164485Y480162D01*
X164479D01*
X164467Y480165D01*
X164446Y480170D01*
X164420Y480176D01*
X164384Y480185D01*
X164349Y480194D01*
X164307Y480206D01*
X164263Y480215D01*
X164168Y480242D01*
X164076Y480268D01*
X164032Y480280D01*
X163993Y480295D01*
X163955Y480310D01*
X163925Y480322D01*
X163922D01*
X163916Y480327D01*
X163905Y480330D01*
X163890Y480339D01*
X163872Y480348D01*
X163848Y480363D01*
X163801Y480393D01*
X163748Y480428D01*
X163694Y480473D01*
X163644Y480523D01*
X163600Y480579D01*
Y480582D01*
X163594Y480585D01*
X163591Y480594D01*
X163582Y480606D01*
X163576Y480620D01*
X163567Y480638D01*
X163546Y480683D01*
X163526Y480733D01*
X163511Y480795D01*
X163499Y480863D01*
X163493Y480937D01*
Y480940D01*
Y480946D01*
Y480958D01*
X163496Y480973D01*
Y480990D01*
X163499Y481011D01*
X163508Y481059D01*
X163520Y481118D01*
X163540Y481183D01*
X163570Y481248D01*
X163609Y481316D01*
Y481319D01*
X163614Y481325D01*
X163620Y481334D01*
X163629Y481346D01*
X163656Y481378D01*
X163694Y481417D01*
X163739Y481461D01*
X163798Y481508D01*
X163863Y481550D01*
X163940Y481591D01*
X163943D01*
X163949Y481594D01*
X163961Y481600D01*
X163979Y481606D01*
X163999Y481615D01*
X164023Y481621D01*
X164050Y481630D01*
X164082Y481639D01*
X164115Y481650D01*
X164153Y481659D01*
X164236Y481674D01*
X164328Y481686D01*
X164426Y481689D01*
X164458D01*
X164482Y481686D01*
D02*
G37*
G36*
X163265Y479126D02*
X162922D01*
X162540Y480780D01*
Y480783D01*
X162537Y480792D01*
X162534Y480807D01*
X162528Y480825D01*
X162525Y480848D01*
X162519Y480875D01*
X162510Y480908D01*
X162504Y480943D01*
X162496Y480979D01*
X162487Y481020D01*
X162469Y481106D01*
X162451Y481201D01*
X162434Y481295D01*
Y481289D01*
X162431Y481278D01*
X162425Y481257D01*
X162419Y481230D01*
X162410Y481201D01*
X162401Y481165D01*
X162383Y481085D01*
X162362Y481005D01*
X162354Y480967D01*
X162345Y480928D01*
X162336Y480896D01*
X162327Y480869D01*
X162321Y480845D01*
X162318Y480831D01*
X161838Y479126D01*
X161436D01*
X161075Y480404D01*
X161072Y480410D01*
X161069Y480425D01*
X161063Y480452D01*
X161054Y480484D01*
X161042Y480526D01*
X161030Y480576D01*
X161016Y480632D01*
X161001Y480694D01*
X160986Y480760D01*
X160968Y480831D01*
X160953Y480905D01*
X160936Y480979D01*
X160906Y481139D01*
X160880Y481295D01*
Y481292D01*
X160877Y481284D01*
X160874Y481272D01*
X160871Y481254D01*
X160865Y481230D01*
X160859Y481204D01*
X160853Y481174D01*
X160844Y481139D01*
X160835Y481100D01*
X160826Y481059D01*
X160817Y481011D01*
X160805Y480964D01*
X160782Y480860D01*
X160755Y480748D01*
X160359Y479126D01*
X160021D01*
X160711Y481648D01*
X161036D01*
X161566Y479727D01*
Y479724D01*
X161569Y479715D01*
X161572Y479703D01*
X161578Y479688D01*
X161581Y479670D01*
X161587Y479647D01*
X161602Y479599D01*
X161617Y479549D01*
X161628Y479502D01*
X161634Y479478D01*
X161640Y479460D01*
X161643Y479442D01*
X161646Y479430D01*
Y479433D01*
X161649Y479439D01*
Y479448D01*
X161652Y479460D01*
X161661Y479493D01*
X161670Y479534D01*
X161682Y479581D01*
X161694Y479629D01*
X161708Y479682D01*
X161720Y479730D01*
X162253Y481648D01*
X162602D01*
X163265Y479126D01*
D02*
G37*
G36*
X158982Y479676D02*
X158988Y479682D01*
X159003Y479694D01*
X159027Y479715D01*
X159062Y479741D01*
X159104Y479774D01*
X159154Y479812D01*
X159213Y479851D01*
X159278Y479889D01*
X159281D01*
X159287Y479895D01*
X159296Y479898D01*
X159308Y479907D01*
X159343Y479925D01*
X159385Y479949D01*
X159435Y479975D01*
X159491Y480002D01*
X159547Y480025D01*
X159601Y480049D01*
Y479750D01*
X159598Y479747D01*
X159589Y479744D01*
X159577Y479738D01*
X159556Y479730D01*
X159536Y479718D01*
X159509Y479703D01*
X159479Y479685D01*
X159447Y479667D01*
X159376Y479626D01*
X159302Y479576D01*
X159222Y479519D01*
X159148Y479457D01*
X159145Y479454D01*
X159139Y479448D01*
X159130Y479439D01*
X159115Y479428D01*
X159100Y479413D01*
X159083Y479392D01*
X159041Y479348D01*
X158994Y479297D01*
X158949Y479241D01*
X158908Y479179D01*
X158873Y479117D01*
X158671D01*
Y481648D01*
X158982D01*
Y479676D01*
D02*
G37*
G36*
X215022Y461618D02*
X215045D01*
X215072Y461615D01*
X215105Y461609D01*
X215143Y461600D01*
X215182Y461592D01*
X215226Y461577D01*
X215270Y461562D01*
X215318Y461541D01*
X215365Y461518D01*
X215412Y461491D01*
X215457Y461458D01*
X215504Y461420D01*
X215549Y461378D01*
X215552Y461376D01*
X215558Y461367D01*
X215569Y461355D01*
X215584Y461334D01*
X215602Y461310D01*
X215620Y461284D01*
X215640Y461251D01*
X215661Y461213D01*
X215685Y461171D01*
X215705Y461124D01*
X215723Y461074D01*
X215741Y461020D01*
X215756Y460961D01*
X215768Y460902D01*
X215774Y460837D01*
X215776Y460769D01*
Y460736D01*
X215774Y460712D01*
X215771Y460686D01*
X215765Y460653D01*
X215759Y460615D01*
X215753Y460576D01*
X215729Y460488D01*
X215714Y460443D01*
X215694Y460396D01*
X215673Y460351D01*
X215646Y460304D01*
X215617Y460260D01*
X215581Y460218D01*
X215578Y460215D01*
X215572Y460209D01*
X215560Y460197D01*
X215546Y460183D01*
X215525Y460168D01*
X215501Y460147D01*
X215475Y460126D01*
X215442Y460106D01*
X215406Y460082D01*
X215368Y460061D01*
X215327Y460041D01*
X215279Y460020D01*
X215232Y460002D01*
X215179Y459990D01*
X215125Y459978D01*
X215066Y459970D01*
X215025Y460280D01*
X215028D01*
X215037Y460283D01*
X215048Y460286D01*
X215066Y460292D01*
X215090Y460298D01*
X215113Y460304D01*
X215170Y460322D01*
X215232Y460348D01*
X215297Y460378D01*
X215353Y460417D01*
X215380Y460437D01*
X215404Y460461D01*
Y460464D01*
X215409Y460467D01*
X215421Y460485D01*
X215439Y460511D01*
X215460Y460547D01*
X215483Y460594D01*
X215501Y460644D01*
X215513Y460707D01*
X215519Y460772D01*
Y460792D01*
X215516Y460807D01*
X215513Y460828D01*
X215510Y460849D01*
X215501Y460899D01*
X215483Y460958D01*
X215454Y461020D01*
X215439Y461053D01*
X215418Y461083D01*
X215395Y461112D01*
X215368Y461142D01*
X215365Y461145D01*
X215362Y461148D01*
X215353Y461157D01*
X215341Y461165D01*
X215327Y461177D01*
X215309Y461189D01*
X215264Y461219D01*
X215211Y461245D01*
X215146Y461269D01*
X215075Y461287D01*
X215037Y461290D01*
X214995Y461293D01*
X214992D01*
X214986D01*
X214974D01*
X214960Y461290D01*
X214942D01*
X214921Y461287D01*
X214871Y461275D01*
X214818Y461257D01*
X214758Y461234D01*
X214699Y461198D01*
X214672Y461174D01*
X214646Y461151D01*
X214643Y461148D01*
X214640Y461145D01*
X214634Y461136D01*
X214625Y461127D01*
X214601Y461094D01*
X214575Y461056D01*
X214551Y461003D01*
X214527Y460943D01*
X214513Y460875D01*
X214507Y460837D01*
Y460784D01*
X214510Y460763D01*
Y460739D01*
X214516Y460707D01*
X214522Y460668D01*
X214527Y460627D01*
X214539Y460579D01*
X214267Y460615D01*
Y460621D01*
X214270Y460633D01*
X214273Y460647D01*
Y460683D01*
X214270Y460698D01*
Y460715D01*
X214267Y460736D01*
X214261Y460784D01*
X214246Y460837D01*
X214229Y460896D01*
X214205Y460958D01*
X214169Y461017D01*
Y461020D01*
X214163Y461023D01*
X214148Y461041D01*
X214125Y461068D01*
X214089Y461097D01*
X214045Y461127D01*
X213992Y461154D01*
X213927Y461171D01*
X213891Y461174D01*
X213853Y461177D01*
X213850D01*
X213844D01*
X213835D01*
X213823Y461174D01*
X213793Y461171D01*
X213755Y461162D01*
X213710Y461151D01*
X213663Y461130D01*
X213616Y461100D01*
X213571Y461062D01*
X213565Y461056D01*
X213554Y461041D01*
X213536Y461015D01*
X213515Y460982D01*
X213494Y460938D01*
X213477Y460887D01*
X213465Y460828D01*
X213459Y460763D01*
Y460745D01*
X213462Y460733D01*
X213465Y460701D01*
X213474Y460656D01*
X213486Y460609D01*
X213506Y460559D01*
X213536Y460508D01*
X213574Y460461D01*
X213580Y460455D01*
X213595Y460443D01*
X213622Y460423D01*
X213660Y460399D01*
X213707Y460372D01*
X213767Y460348D01*
X213835Y460325D01*
X213915Y460310D01*
X213858Y459999D01*
X213856D01*
X213844Y460002D01*
X213829Y460005D01*
X213808Y460011D01*
X213781Y460020D01*
X213752Y460029D01*
X213716Y460038D01*
X213681Y460052D01*
X213604Y460088D01*
X213524Y460132D01*
X213486Y460159D01*
X213447Y460189D01*
X213408Y460221D01*
X213376Y460257D01*
X213373Y460260D01*
X213367Y460266D01*
X213361Y460277D01*
X213349Y460292D01*
X213337Y460313D01*
X213323Y460337D01*
X213305Y460363D01*
X213290Y460396D01*
X213275Y460428D01*
X213258Y460467D01*
X213243Y460508D01*
X213231Y460553D01*
X213219Y460600D01*
X213210Y460650D01*
X213207Y460701D01*
X213204Y460757D01*
Y460792D01*
X213207Y460810D01*
X213210Y460831D01*
X213216Y460881D01*
X213225Y460940D01*
X213243Y461006D01*
X213264Y461071D01*
X213293Y461136D01*
Y461139D01*
X213296Y461145D01*
X213302Y461154D01*
X213308Y461165D01*
X213329Y461195D01*
X213355Y461234D01*
X213391Y461278D01*
X213432Y461322D01*
X213482Y461364D01*
X213536Y461402D01*
X213539D01*
X213542Y461405D01*
X213551Y461411D01*
X213562Y461417D01*
X213592Y461432D01*
X213633Y461450D01*
X213681Y461467D01*
X213734Y461482D01*
X213796Y461494D01*
X213858Y461497D01*
X213861D01*
X213864D01*
X213873D01*
X213885D01*
X213918Y461491D01*
X213956Y461485D01*
X214003Y461476D01*
X214054Y461458D01*
X214104Y461438D01*
X214157Y461408D01*
X214163Y461405D01*
X214178Y461390D01*
X214205Y461370D01*
X214234Y461343D01*
X214267Y461305D01*
X214302Y461260D01*
X214335Y461207D01*
X214368Y461148D01*
Y461151D01*
X214370Y461157D01*
X214373Y461168D01*
X214379Y461186D01*
X214385Y461204D01*
X214394Y461225D01*
X214415Y461275D01*
X214444Y461331D01*
X214480Y461390D01*
X214527Y461447D01*
X214584Y461497D01*
X214587Y461500D01*
X214590Y461503D01*
X214598Y461509D01*
X214613Y461518D01*
X214628Y461526D01*
X214646Y461535D01*
X214669Y461547D01*
X214693Y461559D01*
X214752Y461583D01*
X214823Y461600D01*
X214900Y461615D01*
X214989Y461621D01*
X214992D01*
X215004D01*
X215022Y461618D01*
D02*
G37*
G36*
X215735Y459096D02*
Y458771D01*
X213814Y458241D01*
X213811D01*
X213802Y458238D01*
X213790Y458235D01*
X213776Y458229D01*
X213758Y458226D01*
X213734Y458220D01*
X213687Y458205D01*
X213636Y458191D01*
X213589Y458179D01*
X213565Y458173D01*
X213548Y458167D01*
X213530Y458164D01*
X213518Y458161D01*
X213521D01*
X213527Y458158D01*
X213536D01*
X213548Y458155D01*
X213580Y458146D01*
X213622Y458137D01*
X213669Y458125D01*
X213716Y458114D01*
X213770Y458099D01*
X213817Y458087D01*
X215735Y457554D01*
Y457205D01*
X213213Y456542D01*
Y456885D01*
X214868Y457267D01*
X214871D01*
X214880Y457270D01*
X214895Y457273D01*
X214912Y457279D01*
X214936Y457282D01*
X214963Y457288D01*
X214995Y457297D01*
X215031Y457303D01*
X215066Y457311D01*
X215108Y457320D01*
X215193Y457338D01*
X215288Y457356D01*
X215383Y457374D01*
X215377D01*
X215365Y457377D01*
X215344Y457382D01*
X215318Y457388D01*
X215288Y457397D01*
X215253Y457406D01*
X215173Y457424D01*
X215093Y457445D01*
X215054Y457454D01*
X215016Y457462D01*
X214983Y457471D01*
X214957Y457480D01*
X214933Y457486D01*
X214918Y457489D01*
X213213Y457969D01*
Y458371D01*
X214492Y458732D01*
X214498Y458735D01*
X214513Y458738D01*
X214539Y458744D01*
X214572Y458753D01*
X214613Y458765D01*
X214664Y458777D01*
X214720Y458791D01*
X214782Y458806D01*
X214847Y458821D01*
X214918Y458839D01*
X214992Y458854D01*
X215066Y458871D01*
X215226Y458901D01*
X215383Y458928D01*
X215380D01*
X215371Y458931D01*
X215359Y458934D01*
X215341Y458937D01*
X215318Y458943D01*
X215291Y458948D01*
X215262Y458954D01*
X215226Y458963D01*
X215188Y458972D01*
X215146Y458981D01*
X215099Y458990D01*
X215051Y459002D01*
X214948Y459025D01*
X214835Y459052D01*
X213213Y459449D01*
Y459786D01*
X215735Y459096D01*
D02*
G37*
G36*
X215060Y456311D02*
X215078D01*
X215099Y456308D01*
X215146Y456299D01*
X215205Y456287D01*
X215270Y456267D01*
X215335Y456237D01*
X215404Y456199D01*
X215406D01*
X215412Y456193D01*
X215421Y456187D01*
X215433Y456178D01*
X215466Y456151D01*
X215504Y456113D01*
X215549Y456068D01*
X215596Y456009D01*
X215637Y455944D01*
X215679Y455867D01*
Y455864D01*
X215682Y455858D01*
X215688Y455846D01*
X215694Y455829D01*
X215703Y455808D01*
X215708Y455784D01*
X215717Y455758D01*
X215726Y455725D01*
X215738Y455692D01*
X215747Y455654D01*
X215762Y455571D01*
X215774Y455479D01*
X215776Y455382D01*
Y455349D01*
X215774Y455325D01*
Y455296D01*
X215771Y455260D01*
X215768Y455222D01*
X215765Y455180D01*
X215753Y455091D01*
X215735Y454994D01*
X215711Y454899D01*
X215679Y454807D01*
Y454804D01*
X215673Y454798D01*
X215667Y454787D01*
X215661Y454769D01*
X215649Y454751D01*
X215637Y454727D01*
X215602Y454674D01*
X215560Y454618D01*
X215510Y454556D01*
X215448Y454496D01*
X215377Y454443D01*
X215374D01*
X215368Y454437D01*
X215356Y454431D01*
X215341Y454423D01*
X215324Y454414D01*
X215300Y454402D01*
X215273Y454390D01*
X215244Y454378D01*
X215211Y454366D01*
X215176Y454352D01*
X215099Y454331D01*
X215013Y454316D01*
X214921Y454307D01*
X214895Y454621D01*
X214897D01*
X214903D01*
X214912Y454624D01*
X214927Y454627D01*
X214942D01*
X214963Y454633D01*
X215007Y454642D01*
X215054Y454653D01*
X215108Y454671D01*
X215161Y454695D01*
X215208Y454721D01*
X215214Y454724D01*
X215229Y454736D01*
X215250Y454757D01*
X215279Y454784D01*
X215309Y454819D01*
X215341Y454864D01*
X215374Y454917D01*
X215404Y454976D01*
Y454979D01*
X215406Y454985D01*
X215409Y454994D01*
X215415Y455006D01*
X215421Y455023D01*
X215427Y455041D01*
X215439Y455089D01*
X215454Y455148D01*
X215466Y455213D01*
X215475Y455284D01*
X215478Y455364D01*
Y455396D01*
X215475Y455414D01*
Y455432D01*
X215472Y455479D01*
X215463Y455530D01*
X215454Y455589D01*
X215439Y455645D01*
X215421Y455701D01*
Y455704D01*
X215418Y455707D01*
X215409Y455725D01*
X215398Y455752D01*
X215380Y455784D01*
X215359Y455817D01*
X215333Y455855D01*
X215303Y455888D01*
X215267Y455917D01*
X215262Y455920D01*
X215250Y455929D01*
X215229Y455941D01*
X215202Y455956D01*
X215170Y455968D01*
X215134Y455979D01*
X215093Y455988D01*
X215051Y455991D01*
X215045D01*
X215031D01*
X215010Y455988D01*
X214980Y455982D01*
X214948Y455974D01*
X214915Y455962D01*
X214880Y455944D01*
X214844Y455920D01*
X214841Y455917D01*
X214829Y455908D01*
X214812Y455891D01*
X214791Y455867D01*
X214770Y455834D01*
X214743Y455796D01*
X214720Y455752D01*
X214696Y455695D01*
X214693Y455689D01*
Y455684D01*
X214687Y455675D01*
X214684Y455660D01*
X214678Y455645D01*
X214672Y455624D01*
X214667Y455601D01*
X214658Y455571D01*
X214649Y455541D01*
X214640Y455503D01*
X214628Y455462D01*
X214616Y455417D01*
X214604Y455364D01*
X214590Y455308D01*
X214575Y455245D01*
Y455242D01*
X214572Y455231D01*
X214566Y455213D01*
X214560Y455189D01*
X214554Y455160D01*
X214545Y455130D01*
X214533Y455094D01*
X214524Y455056D01*
X214498Y454976D01*
X214471Y454893D01*
X214459Y454858D01*
X214444Y454822D01*
X214430Y454790D01*
X214415Y454760D01*
Y454757D01*
X214412Y454751D01*
X214406Y454742D01*
X214397Y454730D01*
X214376Y454698D01*
X214350Y454656D01*
X214317Y454612D01*
X214276Y454568D01*
X214231Y454526D01*
X214181Y454488D01*
X214178D01*
X214175Y454485D01*
X214157Y454476D01*
X214128Y454461D01*
X214089Y454446D01*
X214042Y454428D01*
X213989Y454417D01*
X213930Y454405D01*
X213867Y454402D01*
X213864D01*
X213858D01*
X213850D01*
X213835Y454405D01*
X213817D01*
X213796Y454408D01*
X213749Y454417D01*
X213696Y454428D01*
X213633Y454446D01*
X213571Y454473D01*
X213509Y454508D01*
X213506D01*
X213503Y454514D01*
X213494Y454520D01*
X213482Y454529D01*
X213453Y454553D01*
X213414Y454588D01*
X213376Y454633D01*
X213332Y454689D01*
X213293Y454751D01*
X213258Y454825D01*
Y454828D01*
X213255Y454834D01*
X213249Y454846D01*
X213243Y454861D01*
X213237Y454881D01*
X213228Y454905D01*
X213222Y454932D01*
X213213Y454961D01*
X213204Y454994D01*
X213195Y455029D01*
X213184Y455106D01*
X213172Y455195D01*
X213169Y455287D01*
Y455334D01*
X213172Y455358D01*
X213175Y455387D01*
X213178Y455420D01*
X213181Y455456D01*
X213193Y455533D01*
X213207Y455615D01*
X213231Y455698D01*
X213261Y455781D01*
Y455784D01*
X213264Y455790D01*
X213269Y455802D01*
X213278Y455817D01*
X213287Y455834D01*
X213299Y455855D01*
X213329Y455902D01*
X213367Y455956D01*
X213411Y456012D01*
X213465Y456065D01*
X213527Y456113D01*
X213530D01*
X213536Y456119D01*
X213545Y456124D01*
X213557Y456131D01*
X213574Y456139D01*
X213595Y456151D01*
X213616Y456160D01*
X213642Y456172D01*
X213702Y456193D01*
X213767Y456213D01*
X213844Y456228D01*
X213924Y456237D01*
X213947Y455917D01*
X213944D01*
X213935D01*
X213924Y455914D01*
X213909Y455911D01*
X213888Y455905D01*
X213864Y455900D01*
X213814Y455885D01*
X213755Y455861D01*
X213696Y455831D01*
X213639Y455790D01*
X213589Y455740D01*
Y455737D01*
X213583Y455734D01*
X213577Y455725D01*
X213571Y455713D01*
X213560Y455695D01*
X213551Y455678D01*
X213539Y455654D01*
X213527Y455630D01*
X213518Y455601D01*
X213506Y455568D01*
X213494Y455533D01*
X213486Y455494D01*
X213480Y455450D01*
X213474Y455405D01*
X213468Y455355D01*
Y455272D01*
X213471Y455251D01*
Y455228D01*
X213474Y455198D01*
X213477Y455168D01*
X213482Y455133D01*
X213494Y455062D01*
X213515Y454988D01*
X213542Y454920D01*
X213560Y454887D01*
X213580Y454861D01*
X213586Y454855D01*
X213601Y454840D01*
X213622Y454816D01*
X213654Y454792D01*
X213693Y454769D01*
X213740Y454745D01*
X213790Y454730D01*
X213817Y454727D01*
X213847Y454724D01*
X213853D01*
X213870Y454727D01*
X213894Y454730D01*
X213927Y454736D01*
X213959Y454748D01*
X213998Y454766D01*
X214033Y454790D01*
X214069Y454822D01*
X214072Y454828D01*
X214077Y454834D01*
X214083Y454843D01*
X214092Y454858D01*
X214101Y454873D01*
X214113Y454896D01*
X214125Y454920D01*
X214137Y454949D01*
X214152Y454985D01*
X214166Y455026D01*
X214181Y455074D01*
X214199Y455127D01*
X214214Y455183D01*
X214231Y455251D01*
X214249Y455322D01*
Y455328D01*
X214252Y455340D01*
X214258Y455361D01*
X214264Y455387D01*
X214273Y455423D01*
X214282Y455458D01*
X214294Y455500D01*
X214302Y455544D01*
X214329Y455639D01*
X214356Y455731D01*
X214368Y455775D01*
X214382Y455814D01*
X214397Y455852D01*
X214409Y455882D01*
Y455885D01*
X214415Y455891D01*
X214418Y455902D01*
X214427Y455917D01*
X214436Y455935D01*
X214451Y455959D01*
X214480Y456006D01*
X214516Y456059D01*
X214560Y456113D01*
X214610Y456163D01*
X214667Y456207D01*
X214669D01*
X214672Y456213D01*
X214681Y456216D01*
X214693Y456225D01*
X214708Y456231D01*
X214726Y456240D01*
X214770Y456261D01*
X214820Y456281D01*
X214883Y456296D01*
X214951Y456308D01*
X215025Y456314D01*
X215028D01*
X215034D01*
X215045D01*
X215060Y456311D01*
D02*
G37*
G36*
X327050Y475890D02*
X327059Y475881D01*
X327074Y475869D01*
X327095Y475851D01*
X327121Y475831D01*
X327151Y475804D01*
X327187Y475774D01*
X327228Y475742D01*
X327275Y475706D01*
X327329Y475668D01*
X327385Y475629D01*
X327444Y475588D01*
X327509Y475547D01*
X327580Y475502D01*
X327654Y475458D01*
X327731Y475413D01*
X327737Y475410D01*
X327749Y475405D01*
X327773Y475390D01*
X327805Y475375D01*
X327844Y475354D01*
X327888Y475330D01*
X327941Y475307D01*
X327998Y475280D01*
X328063Y475251D01*
X328131Y475221D01*
X328202Y475191D01*
X328276Y475159D01*
X328436Y475103D01*
X328602Y475049D01*
X328605D01*
X328616Y475046D01*
X328634Y475040D01*
X328658Y475035D01*
X328687Y475026D01*
X328723Y475017D01*
X328761Y475008D01*
X328806Y474999D01*
X328856Y474990D01*
X328909Y474978D01*
X328966Y474969D01*
X329028Y474961D01*
X329155Y474943D01*
X329294Y474931D01*
Y474611D01*
X329291D01*
X329279D01*
X329264D01*
X329241Y474614D01*
X329211D01*
X329179Y474617D01*
X329137Y474623D01*
X329093Y474626D01*
X329043Y474632D01*
X328989Y474641D01*
X328930Y474650D01*
X328868Y474661D01*
X328800Y474673D01*
X328729Y474688D01*
X328655Y474706D01*
X328578Y474727D01*
X328572D01*
X328560Y474733D01*
X328536Y474739D01*
X328507Y474747D01*
X328468Y474759D01*
X328424Y474774D01*
X328374Y474789D01*
X328317Y474810D01*
X328258Y474830D01*
X328193Y474854D01*
X328125Y474881D01*
X328057Y474910D01*
X327912Y474975D01*
X327764Y475049D01*
X327758Y475052D01*
X327746Y475058D01*
X327725Y475070D01*
X327699Y475085D01*
X327666Y475105D01*
X327625Y475129D01*
X327583Y475156D01*
X327536Y475185D01*
X327483Y475215D01*
X327432Y475251D01*
X327320Y475327D01*
X327210Y475410D01*
X327104Y475496D01*
Y474259D01*
X326805D01*
Y475893D01*
X327047D01*
X327050Y475890D01*
D02*
G37*
G36*
X329294Y473368D02*
Y473042D01*
X327373Y472513D01*
X327370D01*
X327361Y472510D01*
X327349Y472507D01*
X327335Y472501D01*
X327317Y472498D01*
X327293Y472492D01*
X327246Y472477D01*
X327196Y472462D01*
X327148Y472450D01*
X327125Y472444D01*
X327107Y472439D01*
X327089Y472436D01*
X327077Y472433D01*
X327080D01*
X327086Y472430D01*
X327095D01*
X327107Y472427D01*
X327139Y472418D01*
X327181Y472409D01*
X327228Y472397D01*
X327275Y472385D01*
X327329Y472370D01*
X327376Y472359D01*
X329294Y471826D01*
Y471477D01*
X326772Y470814D01*
Y471157D01*
X328427Y471539D01*
X328430D01*
X328439Y471542D01*
X328453Y471545D01*
X328471Y471551D01*
X328495Y471554D01*
X328522Y471559D01*
X328554Y471568D01*
X328590Y471574D01*
X328625Y471583D01*
X328667Y471592D01*
X328752Y471610D01*
X328847Y471628D01*
X328942Y471645D01*
X328936D01*
X328924Y471648D01*
X328903Y471654D01*
X328877Y471660D01*
X328847Y471669D01*
X328812Y471678D01*
X328732Y471696D01*
X328652Y471716D01*
X328613Y471725D01*
X328575Y471734D01*
X328542Y471743D01*
X328516Y471752D01*
X328492Y471758D01*
X328477Y471761D01*
X326772Y472240D01*
Y472643D01*
X328051Y473004D01*
X328057Y473007D01*
X328072Y473010D01*
X328098Y473016D01*
X328131Y473025D01*
X328172Y473036D01*
X328223Y473048D01*
X328279Y473063D01*
X328341Y473078D01*
X328406Y473093D01*
X328477Y473110D01*
X328551Y473125D01*
X328625Y473143D01*
X328785Y473173D01*
X328942Y473199D01*
X328939D01*
X328930Y473202D01*
X328918Y473205D01*
X328901Y473208D01*
X328877Y473214D01*
X328850Y473220D01*
X328820Y473226D01*
X328785Y473235D01*
X328747Y473244D01*
X328705Y473253D01*
X328658Y473261D01*
X328610Y473273D01*
X328507Y473297D01*
X328394Y473324D01*
X326772Y473720D01*
Y474058D01*
X329294Y473368D01*
D02*
G37*
G36*
X328619Y470583D02*
X328637D01*
X328658Y470580D01*
X328705Y470571D01*
X328764Y470559D01*
X328829Y470538D01*
X328894Y470509D01*
X328963Y470470D01*
X328966D01*
X328972Y470464D01*
X328980Y470458D01*
X328992Y470449D01*
X329025Y470423D01*
X329063Y470384D01*
X329108Y470340D01*
X329155Y470281D01*
X329197Y470216D01*
X329238Y470139D01*
Y470136D01*
X329241Y470130D01*
X329247Y470118D01*
X329253Y470100D01*
X329262Y470079D01*
X329268Y470056D01*
X329276Y470029D01*
X329285Y469997D01*
X329297Y469964D01*
X329306Y469925D01*
X329321Y469843D01*
X329333Y469751D01*
X329336Y469653D01*
Y469621D01*
X329333Y469597D01*
Y469567D01*
X329330Y469532D01*
X329327Y469493D01*
X329324Y469452D01*
X329312Y469363D01*
X329294Y469265D01*
X329271Y469171D01*
X329238Y469079D01*
Y469076D01*
X329232Y469070D01*
X329226Y469058D01*
X329220Y469040D01*
X329208Y469023D01*
X329197Y468999D01*
X329161Y468946D01*
X329119Y468890D01*
X329069Y468827D01*
X329007Y468768D01*
X328936Y468715D01*
X328933D01*
X328927Y468709D01*
X328915Y468703D01*
X328901Y468694D01*
X328883Y468685D01*
X328859Y468673D01*
X328832Y468662D01*
X328803Y468650D01*
X328770Y468638D01*
X328735Y468623D01*
X328658Y468602D01*
X328572Y468588D01*
X328480Y468579D01*
X328453Y468892D01*
X328456D01*
X328462D01*
X328471Y468895D01*
X328486Y468898D01*
X328501D01*
X328522Y468904D01*
X328566Y468913D01*
X328613Y468925D01*
X328667Y468943D01*
X328720Y468966D01*
X328767Y468993D01*
X328773Y468996D01*
X328788Y469008D01*
X328809Y469029D01*
X328838Y469055D01*
X328868Y469091D01*
X328901Y469135D01*
X328933Y469188D01*
X328963Y469248D01*
Y469251D01*
X328966Y469257D01*
X328969Y469265D01*
X328975Y469277D01*
X328980Y469295D01*
X328986Y469313D01*
X328998Y469360D01*
X329013Y469419D01*
X329025Y469485D01*
X329034Y469556D01*
X329037Y469635D01*
Y469668D01*
X329034Y469686D01*
Y469703D01*
X329031Y469751D01*
X329022Y469801D01*
X329013Y469860D01*
X328998Y469917D01*
X328980Y469973D01*
Y469976D01*
X328977Y469979D01*
X328969Y469997D01*
X328957Y470023D01*
X328939Y470056D01*
X328918Y470088D01*
X328892Y470127D01*
X328862Y470159D01*
X328826Y470189D01*
X328820Y470192D01*
X328809Y470201D01*
X328788Y470213D01*
X328761Y470227D01*
X328729Y470239D01*
X328693Y470251D01*
X328652Y470260D01*
X328610Y470263D01*
X328605D01*
X328590D01*
X328569Y470260D01*
X328539Y470254D01*
X328507Y470245D01*
X328474Y470233D01*
X328439Y470216D01*
X328403Y470192D01*
X328400Y470189D01*
X328388Y470180D01*
X328371Y470162D01*
X328350Y470139D01*
X328329Y470106D01*
X328303Y470068D01*
X328279Y470023D01*
X328255Y469967D01*
X328252Y469961D01*
Y469955D01*
X328246Y469946D01*
X328243Y469932D01*
X328237Y469917D01*
X328232Y469896D01*
X328226Y469872D01*
X328217Y469843D01*
X328208Y469813D01*
X328199Y469775D01*
X328187Y469733D01*
X328175Y469689D01*
X328163Y469635D01*
X328149Y469579D01*
X328134Y469517D01*
Y469514D01*
X328131Y469502D01*
X328125Y469485D01*
X328119Y469461D01*
X328113Y469431D01*
X328104Y469402D01*
X328092Y469366D01*
X328083Y469328D01*
X328057Y469248D01*
X328030Y469165D01*
X328018Y469129D01*
X328004Y469094D01*
X327989Y469061D01*
X327974Y469032D01*
Y469029D01*
X327971Y469023D01*
X327965Y469014D01*
X327956Y469002D01*
X327936Y468969D01*
X327909Y468928D01*
X327876Y468884D01*
X327835Y468839D01*
X327790Y468798D01*
X327740Y468759D01*
X327737D01*
X327734Y468756D01*
X327716Y468748D01*
X327687Y468733D01*
X327648Y468718D01*
X327601Y468700D01*
X327548Y468688D01*
X327488Y468676D01*
X327426Y468673D01*
X327423D01*
X327417D01*
X327409D01*
X327394Y468676D01*
X327376D01*
X327355Y468679D01*
X327308Y468688D01*
X327255Y468700D01*
X327192Y468718D01*
X327130Y468745D01*
X327068Y468780D01*
X327065D01*
X327062Y468786D01*
X327053Y468792D01*
X327042Y468801D01*
X327012Y468824D01*
X326974Y468860D01*
X326935Y468904D01*
X326891Y468961D01*
X326852Y469023D01*
X326817Y469097D01*
Y469100D01*
X326814Y469106D01*
X326808Y469117D01*
X326802Y469132D01*
X326796Y469153D01*
X326787Y469177D01*
X326781Y469203D01*
X326772Y469233D01*
X326763Y469265D01*
X326754Y469301D01*
X326743Y469378D01*
X326731Y469467D01*
X326728Y469558D01*
Y469606D01*
X326731Y469629D01*
X326734Y469659D01*
X326737Y469692D01*
X326740Y469727D01*
X326751Y469804D01*
X326766Y469887D01*
X326790Y469970D01*
X326820Y470053D01*
Y470056D01*
X326822Y470062D01*
X326829Y470074D01*
X326837Y470088D01*
X326846Y470106D01*
X326858Y470127D01*
X326888Y470174D01*
X326926Y470227D01*
X326971Y470284D01*
X327024Y470337D01*
X327086Y470384D01*
X327089D01*
X327095Y470390D01*
X327104Y470396D01*
X327116Y470402D01*
X327133Y470411D01*
X327154Y470423D01*
X327175Y470432D01*
X327201Y470443D01*
X327261Y470464D01*
X327326Y470485D01*
X327403Y470500D01*
X327483Y470509D01*
X327506Y470189D01*
X327503D01*
X327495D01*
X327483Y470186D01*
X327468Y470183D01*
X327447Y470177D01*
X327423Y470171D01*
X327373Y470156D01*
X327314Y470133D01*
X327255Y470103D01*
X327199Y470062D01*
X327148Y470011D01*
Y470008D01*
X327142Y470006D01*
X327136Y469997D01*
X327130Y469985D01*
X327118Y469967D01*
X327110Y469949D01*
X327098Y469925D01*
X327086Y469902D01*
X327077Y469872D01*
X327065Y469840D01*
X327053Y469804D01*
X327045Y469766D01*
X327039Y469721D01*
X327033Y469677D01*
X327027Y469627D01*
Y469544D01*
X327030Y469523D01*
Y469499D01*
X327033Y469470D01*
X327036Y469440D01*
X327042Y469405D01*
X327053Y469334D01*
X327074Y469260D01*
X327101Y469191D01*
X327118Y469159D01*
X327139Y469132D01*
X327145Y469126D01*
X327160Y469111D01*
X327181Y469088D01*
X327213Y469064D01*
X327252Y469040D01*
X327299Y469017D01*
X327349Y469002D01*
X327376Y468999D01*
X327406Y468996D01*
X327412D01*
X327429Y468999D01*
X327453Y469002D01*
X327486Y469008D01*
X327518Y469020D01*
X327557Y469037D01*
X327592Y469061D01*
X327628Y469094D01*
X327631Y469100D01*
X327637Y469106D01*
X327642Y469114D01*
X327651Y469129D01*
X327660Y469144D01*
X327672Y469168D01*
X327684Y469191D01*
X327696Y469221D01*
X327711Y469257D01*
X327725Y469298D01*
X327740Y469345D01*
X327758Y469399D01*
X327773Y469455D01*
X327790Y469523D01*
X327808Y469594D01*
Y469600D01*
X327811Y469612D01*
X327817Y469632D01*
X327823Y469659D01*
X327832Y469695D01*
X327841Y469730D01*
X327853Y469772D01*
X327861Y469816D01*
X327888Y469911D01*
X327915Y470003D01*
X327927Y470047D01*
X327941Y470085D01*
X327956Y470124D01*
X327968Y470153D01*
Y470156D01*
X327974Y470162D01*
X327977Y470174D01*
X327986Y470189D01*
X327995Y470207D01*
X328010Y470230D01*
X328039Y470278D01*
X328075Y470331D01*
X328119Y470384D01*
X328169Y470435D01*
X328226Y470479D01*
X328228D01*
X328232Y470485D01*
X328240Y470488D01*
X328252Y470497D01*
X328267Y470503D01*
X328285Y470512D01*
X328329Y470532D01*
X328380Y470553D01*
X328442Y470568D01*
X328510Y470580D01*
X328584Y470586D01*
X328587D01*
X328593D01*
X328605D01*
X328619Y470583D01*
D02*
G37*
G36*
X380387Y481686D02*
X380417D01*
X380452Y481683D01*
X380491Y481680D01*
X380532Y481677D01*
X380621Y481665D01*
X380719Y481648D01*
X380814Y481624D01*
X380905Y481591D01*
X380908D01*
X380914Y481585D01*
X380926Y481579D01*
X380944Y481574D01*
X380961Y481562D01*
X380985Y481550D01*
X381038Y481514D01*
X381095Y481473D01*
X381157Y481423D01*
X381216Y481360D01*
X381269Y481289D01*
Y481286D01*
X381275Y481281D01*
X381281Y481269D01*
X381290Y481254D01*
X381299Y481236D01*
X381311Y481212D01*
X381323Y481186D01*
X381334Y481156D01*
X381346Y481124D01*
X381361Y481088D01*
X381382Y481011D01*
X381397Y480925D01*
X381405Y480834D01*
X381092Y480807D01*
Y480810D01*
Y480816D01*
X381089Y480825D01*
X381086Y480839D01*
Y480854D01*
X381080Y480875D01*
X381071Y480919D01*
X381059Y480967D01*
X381041Y481020D01*
X381018Y481073D01*
X380991Y481121D01*
X380988Y481127D01*
X380976Y481141D01*
X380956Y481162D01*
X380929Y481192D01*
X380893Y481221D01*
X380849Y481254D01*
X380796Y481286D01*
X380736Y481316D01*
X380734D01*
X380728Y481319D01*
X380719Y481322D01*
X380707Y481328D01*
X380689Y481334D01*
X380671Y481340D01*
X380624Y481352D01*
X380565Y481366D01*
X380500Y481378D01*
X380429Y481387D01*
X380349Y481390D01*
X380316D01*
X380298Y481387D01*
X380281D01*
X380233Y481384D01*
X380183Y481375D01*
X380124Y481366D01*
X380068Y481352D01*
X380011Y481334D01*
X380008D01*
X380005Y481331D01*
X379988Y481322D01*
X379961Y481310D01*
X379928Y481292D01*
X379896Y481272D01*
X379857Y481245D01*
X379825Y481215D01*
X379795Y481180D01*
X379792Y481174D01*
X379783Y481162D01*
X379772Y481141D01*
X379757Y481115D01*
X379745Y481082D01*
X379733Y481047D01*
X379724Y481005D01*
X379721Y480964D01*
Y480958D01*
Y480943D01*
X379724Y480922D01*
X379730Y480893D01*
X379739Y480860D01*
X379751Y480828D01*
X379769Y480792D01*
X379792Y480757D01*
X379795Y480754D01*
X379804Y480742D01*
X379822Y480724D01*
X379846Y480703D01*
X379878Y480683D01*
X379917Y480656D01*
X379961Y480632D01*
X380017Y480609D01*
X380023Y480606D01*
X380029D01*
X380038Y480600D01*
X380053Y480597D01*
X380068Y480591D01*
X380088Y480585D01*
X380112Y480579D01*
X380142Y480570D01*
X380171Y480561D01*
X380210Y480552D01*
X380251Y480541D01*
X380295Y480529D01*
X380349Y480517D01*
X380405Y480502D01*
X380467Y480487D01*
X380470D01*
X380482Y480484D01*
X380500Y480478D01*
X380523Y480473D01*
X380553Y480467D01*
X380583Y480458D01*
X380618Y480446D01*
X380657Y480437D01*
X380736Y480410D01*
X380819Y480384D01*
X380855Y480372D01*
X380890Y480357D01*
X380923Y480342D01*
X380953Y480327D01*
X380956D01*
X380961Y480324D01*
X380970Y480318D01*
X380982Y480310D01*
X381015Y480289D01*
X381056Y480262D01*
X381101Y480230D01*
X381145Y480188D01*
X381187Y480144D01*
X381225Y480094D01*
Y480091D01*
X381228Y480088D01*
X381237Y480070D01*
X381252Y480040D01*
X381266Y480002D01*
X381284Y479954D01*
X381296Y479901D01*
X381308Y479842D01*
X381311Y479780D01*
Y479777D01*
Y479771D01*
Y479762D01*
X381308Y479747D01*
Y479730D01*
X381305Y479709D01*
X381296Y479661D01*
X381284Y479608D01*
X381266Y479546D01*
X381240Y479484D01*
X381204Y479422D01*
Y479419D01*
X381198Y479416D01*
X381192Y479407D01*
X381184Y479395D01*
X381160Y479365D01*
X381124Y479327D01*
X381080Y479288D01*
X381024Y479244D01*
X380961Y479206D01*
X380888Y479170D01*
X380885D01*
X380879Y479167D01*
X380867Y479161D01*
X380852Y479155D01*
X380831Y479149D01*
X380808Y479140D01*
X380781Y479135D01*
X380751Y479126D01*
X380719Y479117D01*
X380683Y479108D01*
X380606Y479096D01*
X380518Y479084D01*
X380426Y479081D01*
X380378D01*
X380355Y479084D01*
X380325Y479087D01*
X380293Y479090D01*
X380257Y479093D01*
X380180Y479105D01*
X380097Y479120D01*
X380014Y479143D01*
X379931Y479173D01*
X379928D01*
X379923Y479176D01*
X379911Y479182D01*
X379896Y479191D01*
X379878Y479200D01*
X379857Y479212D01*
X379810Y479241D01*
X379757Y479280D01*
X379701Y479324D01*
X379647Y479377D01*
X379600Y479439D01*
Y479442D01*
X379594Y479448D01*
X379588Y479457D01*
X379582Y479469D01*
X379573Y479487D01*
X379561Y479507D01*
X379553Y479528D01*
X379541Y479555D01*
X379520Y479614D01*
X379499Y479679D01*
X379485Y479756D01*
X379476Y479836D01*
X379795Y479860D01*
Y479857D01*
Y479848D01*
X379798Y479836D01*
X379801Y479821D01*
X379807Y479801D01*
X379813Y479777D01*
X379828Y479727D01*
X379852Y479667D01*
X379881Y479608D01*
X379923Y479552D01*
X379973Y479502D01*
X379976D01*
X379979Y479496D01*
X379988Y479490D01*
X379999Y479484D01*
X380017Y479472D01*
X380035Y479463D01*
X380059Y479451D01*
X380082Y479439D01*
X380112Y479430D01*
X380145Y479419D01*
X380180Y479407D01*
X380219Y479398D01*
X380263Y479392D01*
X380307Y479386D01*
X380358Y479380D01*
X380440D01*
X380461Y479383D01*
X380485D01*
X380515Y479386D01*
X380544Y479389D01*
X380580Y479395D01*
X380651Y479407D01*
X380725Y479428D01*
X380793Y479454D01*
X380825Y479472D01*
X380852Y479493D01*
X380858Y479499D01*
X380873Y479513D01*
X380896Y479534D01*
X380920Y479567D01*
X380944Y479605D01*
X380967Y479653D01*
X380982Y479703D01*
X380985Y479730D01*
X380988Y479759D01*
Y479765D01*
X380985Y479783D01*
X380982Y479807D01*
X380976Y479839D01*
X380964Y479872D01*
X380947Y479910D01*
X380923Y479946D01*
X380890Y479981D01*
X380885Y479984D01*
X380879Y479990D01*
X380870Y479996D01*
X380855Y480005D01*
X380840Y480014D01*
X380817Y480025D01*
X380793Y480037D01*
X380763Y480049D01*
X380728Y480064D01*
X380686Y480079D01*
X380639Y480094D01*
X380586Y480111D01*
X380529Y480126D01*
X380461Y480144D01*
X380390Y480162D01*
X380384D01*
X380373Y480165D01*
X380352Y480170D01*
X380325Y480176D01*
X380290Y480185D01*
X380254Y480194D01*
X380213Y480206D01*
X380168Y480215D01*
X380073Y480242D01*
X379982Y480268D01*
X379937Y480280D01*
X379899Y480295D01*
X379860Y480310D01*
X379831Y480322D01*
X379828D01*
X379822Y480327D01*
X379810Y480330D01*
X379795Y480339D01*
X379778Y480348D01*
X379754Y480363D01*
X379707Y480393D01*
X379653Y480428D01*
X379600Y480473D01*
X379550Y480523D01*
X379505Y480579D01*
Y480582D01*
X379499Y480585D01*
X379496Y480594D01*
X379487Y480606D01*
X379482Y480620D01*
X379473Y480638D01*
X379452Y480683D01*
X379431Y480733D01*
X379416Y480795D01*
X379405Y480863D01*
X379399Y480937D01*
Y480940D01*
Y480946D01*
Y480958D01*
X379402Y480973D01*
Y480990D01*
X379405Y481011D01*
X379413Y481059D01*
X379425Y481118D01*
X379446Y481183D01*
X379476Y481248D01*
X379514Y481316D01*
Y481319D01*
X379520Y481325D01*
X379526Y481334D01*
X379535Y481346D01*
X379561Y481378D01*
X379600Y481417D01*
X379644Y481461D01*
X379703Y481508D01*
X379769Y481550D01*
X379846Y481591D01*
X379849D01*
X379854Y481594D01*
X379866Y481600D01*
X379884Y481606D01*
X379905Y481615D01*
X379928Y481621D01*
X379955Y481630D01*
X379988Y481639D01*
X380020Y481650D01*
X380059Y481659D01*
X380142Y481674D01*
X380233Y481686D01*
X380331Y481689D01*
X380364D01*
X380387Y481686D01*
D02*
G37*
G36*
X379171Y479126D02*
X378827D01*
X378446Y480780D01*
Y480783D01*
X378443Y480792D01*
X378440Y480807D01*
X378434Y480825D01*
X378431Y480848D01*
X378425Y480875D01*
X378416Y480908D01*
X378410Y480943D01*
X378401Y480979D01*
X378392Y481020D01*
X378375Y481106D01*
X378357Y481201D01*
X378339Y481295D01*
Y481289D01*
X378336Y481278D01*
X378330Y481257D01*
X378324Y481230D01*
X378315Y481201D01*
X378306Y481165D01*
X378289Y481085D01*
X378268Y481005D01*
X378259Y480967D01*
X378250Y480928D01*
X378241Y480896D01*
X378232Y480869D01*
X378226Y480845D01*
X378223Y480831D01*
X377744Y479126D01*
X377341D01*
X376980Y480404D01*
X376977Y480410D01*
X376974Y480425D01*
X376969Y480452D01*
X376960Y480484D01*
X376948Y480526D01*
X376936Y480576D01*
X376921Y480632D01*
X376906Y480694D01*
X376891Y480760D01*
X376874Y480831D01*
X376859Y480905D01*
X376841Y480979D01*
X376812Y481139D01*
X376785Y481295D01*
Y481292D01*
X376782Y481284D01*
X376779Y481272D01*
X376776Y481254D01*
X376770Y481230D01*
X376764Y481204D01*
X376758Y481174D01*
X376749Y481139D01*
X376741Y481100D01*
X376732Y481059D01*
X376723Y481011D01*
X376711Y480964D01*
X376687Y480860D01*
X376661Y480748D01*
X376264Y479126D01*
X375926D01*
X376616Y481648D01*
X376942D01*
X377472Y479727D01*
Y479724D01*
X377475Y479715D01*
X377478Y479703D01*
X377484Y479688D01*
X377486Y479670D01*
X377492Y479647D01*
X377507Y479599D01*
X377522Y479549D01*
X377534Y479502D01*
X377540Y479478D01*
X377546Y479460D01*
X377549Y479442D01*
X377552Y479430D01*
Y479433D01*
X377555Y479439D01*
Y479448D01*
X377557Y479460D01*
X377566Y479493D01*
X377575Y479534D01*
X377587Y479581D01*
X377599Y479629D01*
X377614Y479682D01*
X377626Y479730D01*
X378158Y481648D01*
X378508D01*
X379171Y479126D01*
D02*
G37*
G36*
X375787Y481642D02*
Y481630D01*
Y481606D01*
X375784Y481579D01*
X375781Y481547D01*
X375776Y481511D01*
X375767Y481473D01*
X375752Y481434D01*
Y481431D01*
X375749Y481426D01*
X375746Y481417D01*
X375740Y481405D01*
X375734Y481390D01*
X375725Y481372D01*
X375705Y481328D01*
X375675Y481278D01*
X375639Y481218D01*
X375598Y481159D01*
X375551Y481097D01*
X375548Y481094D01*
X375545Y481088D01*
X375536Y481079D01*
X375524Y481067D01*
X375509Y481053D01*
X375491Y481032D01*
X375471Y481011D01*
X375447Y480988D01*
X375417Y480961D01*
X375388Y480931D01*
X375355Y480902D01*
X375317Y480866D01*
X375278Y480834D01*
X375237Y480795D01*
X375189Y480757D01*
X375142Y480718D01*
X375136Y480715D01*
X375124Y480703D01*
X375104Y480686D01*
X375074Y480662D01*
X375042Y480635D01*
X375003Y480600D01*
X374962Y480564D01*
X374917Y480526D01*
X374825Y480440D01*
X374734Y480351D01*
X374692Y480307D01*
X374651Y480265D01*
X374615Y480224D01*
X374586Y480185D01*
X374583Y480182D01*
X374580Y480176D01*
X374571Y480165D01*
X374562Y480153D01*
X374553Y480135D01*
X374538Y480114D01*
X374512Y480064D01*
X374485Y480008D01*
X374464Y479946D01*
X374447Y479878D01*
X374444Y479845D01*
X374441Y479812D01*
Y479809D01*
Y479804D01*
Y479795D01*
X374444Y479783D01*
X374447Y479747D01*
X374458Y479706D01*
X374473Y479656D01*
X374497Y479605D01*
X374529Y479552D01*
X374550Y479525D01*
X374574Y479502D01*
Y479499D01*
X374580Y479496D01*
X374598Y479481D01*
X374627Y479460D01*
X374666Y479436D01*
X374716Y479416D01*
X374772Y479395D01*
X374840Y479380D01*
X374879Y479374D01*
X374938D01*
X374953Y479377D01*
X374973D01*
X374994Y479380D01*
X375044Y479392D01*
X375101Y479407D01*
X375163Y479430D01*
X375222Y479466D01*
X375249Y479487D01*
X375275Y479510D01*
X375281Y479516D01*
X375287Y479525D01*
X375296Y479534D01*
X375317Y479564D01*
X375341Y479605D01*
X375367Y479658D01*
X375388Y479721D01*
X375403Y479795D01*
X375406Y479836D01*
X375409Y479878D01*
X375728Y479845D01*
Y479842D01*
X375725Y479830D01*
X375722Y479809D01*
X375719Y479786D01*
X375713Y479756D01*
X375708Y479724D01*
X375696Y479685D01*
X375684Y479644D01*
X375654Y479558D01*
X375634Y479510D01*
X375610Y479466D01*
X375583Y479422D01*
X375554Y479380D01*
X375521Y479339D01*
X375483Y479303D01*
X375480Y479300D01*
X375474Y479294D01*
X375462Y479285D01*
X375444Y479274D01*
X375423Y479259D01*
X375397Y479244D01*
X375364Y479226D01*
X375332Y479209D01*
X375293Y479194D01*
X375249Y479176D01*
X375201Y479161D01*
X375151Y479146D01*
X375095Y479135D01*
X375036Y479126D01*
X374973Y479120D01*
X374908Y479117D01*
X374873D01*
X374849Y479120D01*
X374817Y479123D01*
X374784Y479129D01*
X374743Y479135D01*
X374701Y479140D01*
X374609Y479167D01*
X374562Y479182D01*
X374515Y479203D01*
X374467Y479223D01*
X374420Y479253D01*
X374376Y479283D01*
X374334Y479318D01*
X374331Y479321D01*
X374325Y479327D01*
X374313Y479339D01*
X374302Y479354D01*
X374284Y479374D01*
X374266Y479398D01*
X374248Y479425D01*
X374227Y479457D01*
X374207Y479490D01*
X374189Y479528D01*
X374171Y479570D01*
X374153Y479614D01*
X374142Y479661D01*
X374130Y479712D01*
X374124Y479762D01*
X374121Y479818D01*
Y479821D01*
Y479824D01*
Y479833D01*
Y479845D01*
X374124Y479875D01*
X374130Y479913D01*
X374136Y479957D01*
X374148Y480008D01*
X374162Y480061D01*
X374183Y480117D01*
Y480120D01*
X374186Y480123D01*
X374189Y480132D01*
X374195Y480141D01*
X374210Y480170D01*
X374233Y480209D01*
X374260Y480256D01*
X374296Y480310D01*
X374340Y480366D01*
X374390Y480425D01*
X374393Y480428D01*
X374396Y480431D01*
X374405Y480443D01*
X374417Y480455D01*
X374435Y480470D01*
X374452Y480490D01*
X374476Y480514D01*
X374503Y480541D01*
X374535Y480570D01*
X374571Y480603D01*
X374609Y480638D01*
X374654Y480680D01*
X374701Y480721D01*
X374751Y480765D01*
X374808Y480816D01*
X374867Y480866D01*
X374870Y480869D01*
X374879Y480875D01*
X374893Y480887D01*
X374911Y480905D01*
X374935Y480922D01*
X374959Y480943D01*
X375018Y480993D01*
X375080Y481047D01*
X375139Y481097D01*
X375166Y481124D01*
X375189Y481144D01*
X375210Y481165D01*
X375228Y481183D01*
X375231Y481186D01*
X375240Y481198D01*
X375255Y481212D01*
X375272Y481233D01*
X375293Y481260D01*
X375314Y481286D01*
X375355Y481349D01*
X374118D01*
Y481648D01*
X375787D01*
Y481642D01*
D02*
G37*
G36*
X423037Y461269D02*
X423641D01*
Y460958D01*
X423037D01*
Y459863D01*
X422753D01*
X421119Y461017D01*
Y461269D01*
X422753D01*
Y461609D01*
X423037D01*
Y461269D01*
D02*
G37*
G36*
X423641Y459096D02*
Y458771D01*
X421720Y458241D01*
X421717D01*
X421708Y458238D01*
X421696Y458235D01*
X421681Y458229D01*
X421663Y458226D01*
X421640Y458220D01*
X421592Y458205D01*
X421542Y458191D01*
X421495Y458179D01*
X421471Y458173D01*
X421453Y458167D01*
X421435Y458164D01*
X421423Y458161D01*
X421426D01*
X421432Y458158D01*
X421441D01*
X421453Y458155D01*
X421486Y458146D01*
X421527Y458137D01*
X421574Y458125D01*
X421622Y458114D01*
X421675Y458099D01*
X421723Y458087D01*
X423641Y457554D01*
Y457205D01*
X421119Y456542D01*
Y456885D01*
X422773Y457267D01*
X422776D01*
X422785Y457270D01*
X422800Y457273D01*
X422818Y457279D01*
X422841Y457282D01*
X422868Y457288D01*
X422901Y457297D01*
X422936Y457303D01*
X422972Y457311D01*
X423013Y457320D01*
X423099Y457338D01*
X423194Y457356D01*
X423288Y457374D01*
X423282D01*
X423271Y457377D01*
X423250Y457382D01*
X423223Y457388D01*
X423194Y457397D01*
X423158Y457406D01*
X423078Y457424D01*
X422998Y457445D01*
X422960Y457454D01*
X422921Y457462D01*
X422889Y457471D01*
X422862Y457480D01*
X422838Y457486D01*
X422824Y457489D01*
X421119Y457969D01*
Y458371D01*
X422397Y458732D01*
X422403Y458735D01*
X422418Y458738D01*
X422445Y458744D01*
X422477Y458753D01*
X422519Y458765D01*
X422569Y458777D01*
X422625Y458791D01*
X422687Y458806D01*
X422753Y458821D01*
X422824Y458839D01*
X422898Y458854D01*
X422972Y458871D01*
X423132Y458901D01*
X423288Y458928D01*
X423285D01*
X423277Y458931D01*
X423265Y458934D01*
X423247Y458937D01*
X423223Y458943D01*
X423197Y458948D01*
X423167Y458954D01*
X423132Y458963D01*
X423093Y458972D01*
X423052Y458981D01*
X423004Y458990D01*
X422957Y459002D01*
X422853Y459025D01*
X422741Y459052D01*
X421119Y459449D01*
Y459786D01*
X423641Y459096D01*
D02*
G37*
G36*
X422966Y456311D02*
X422983D01*
X423004Y456308D01*
X423052Y456299D01*
X423111Y456287D01*
X423176Y456267D01*
X423241Y456237D01*
X423309Y456199D01*
X423312D01*
X423318Y456193D01*
X423327Y456187D01*
X423339Y456178D01*
X423371Y456151D01*
X423410Y456113D01*
X423454Y456068D01*
X423501Y456009D01*
X423543Y455944D01*
X423584Y455867D01*
Y455864D01*
X423587Y455858D01*
X423593Y455846D01*
X423599Y455829D01*
X423608Y455808D01*
X423614Y455784D01*
X423623Y455758D01*
X423632Y455725D01*
X423643Y455692D01*
X423652Y455654D01*
X423667Y455571D01*
X423679Y455479D01*
X423682Y455382D01*
Y455349D01*
X423679Y455325D01*
Y455296D01*
X423676Y455260D01*
X423673Y455222D01*
X423670Y455180D01*
X423658Y455091D01*
X423641Y454994D01*
X423617Y454899D01*
X423584Y454807D01*
Y454804D01*
X423578Y454798D01*
X423572Y454787D01*
X423567Y454769D01*
X423555Y454751D01*
X423543Y454727D01*
X423507Y454674D01*
X423466Y454618D01*
X423416Y454556D01*
X423353Y454496D01*
X423282Y454443D01*
X423279D01*
X423274Y454437D01*
X423262Y454431D01*
X423247Y454423D01*
X423229Y454414D01*
X423206Y454402D01*
X423179Y454390D01*
X423149Y454378D01*
X423117Y454366D01*
X423081Y454352D01*
X423004Y454331D01*
X422918Y454316D01*
X422827Y454307D01*
X422800Y454621D01*
X422803D01*
X422809D01*
X422818Y454624D01*
X422832Y454627D01*
X422847D01*
X422868Y454633D01*
X422912Y454642D01*
X422960Y454653D01*
X423013Y454671D01*
X423066Y454695D01*
X423114Y454721D01*
X423120Y454724D01*
X423134Y454736D01*
X423155Y454757D01*
X423185Y454784D01*
X423214Y454819D01*
X423247Y454864D01*
X423279Y454917D01*
X423309Y454976D01*
Y454979D01*
X423312Y454985D01*
X423315Y454994D01*
X423321Y455006D01*
X423327Y455023D01*
X423333Y455041D01*
X423345Y455089D01*
X423359Y455148D01*
X423371Y455213D01*
X423380Y455284D01*
X423383Y455364D01*
Y455396D01*
X423380Y455414D01*
Y455432D01*
X423377Y455479D01*
X423368Y455530D01*
X423359Y455589D01*
X423345Y455645D01*
X423327Y455701D01*
Y455704D01*
X423324Y455707D01*
X423315Y455725D01*
X423303Y455752D01*
X423285Y455784D01*
X423265Y455817D01*
X423238Y455855D01*
X423208Y455888D01*
X423173Y455917D01*
X423167Y455920D01*
X423155Y455929D01*
X423134Y455941D01*
X423108Y455956D01*
X423075Y455968D01*
X423040Y455979D01*
X422998Y455988D01*
X422957Y455991D01*
X422951D01*
X422936D01*
X422915Y455988D01*
X422886Y455982D01*
X422853Y455974D01*
X422821Y455962D01*
X422785Y455944D01*
X422750Y455920D01*
X422747Y455917D01*
X422735Y455908D01*
X422717Y455891D01*
X422696Y455867D01*
X422676Y455834D01*
X422649Y455796D01*
X422625Y455752D01*
X422602Y455695D01*
X422599Y455689D01*
Y455684D01*
X422593Y455675D01*
X422590Y455660D01*
X422584Y455645D01*
X422578Y455624D01*
X422572Y455601D01*
X422563Y455571D01*
X422554Y455541D01*
X422545Y455503D01*
X422534Y455462D01*
X422522Y455417D01*
X422510Y455364D01*
X422495Y455308D01*
X422480Y455245D01*
Y455242D01*
X422477Y455231D01*
X422471Y455213D01*
X422465Y455189D01*
X422460Y455160D01*
X422451Y455130D01*
X422439Y455094D01*
X422430Y455056D01*
X422403Y454976D01*
X422377Y454893D01*
X422365Y454858D01*
X422350Y454822D01*
X422335Y454790D01*
X422320Y454760D01*
Y454757D01*
X422318Y454751D01*
X422311Y454742D01*
X422303Y454730D01*
X422282Y454698D01*
X422255Y454656D01*
X422223Y454612D01*
X422181Y454568D01*
X422137Y454526D01*
X422087Y454488D01*
X422084D01*
X422081Y454485D01*
X422063Y454476D01*
X422033Y454461D01*
X421995Y454446D01*
X421947Y454428D01*
X421894Y454417D01*
X421835Y454405D01*
X421773Y454402D01*
X421770D01*
X421764D01*
X421755D01*
X421740Y454405D01*
X421723D01*
X421702Y454408D01*
X421654Y454417D01*
X421601Y454428D01*
X421539Y454446D01*
X421477Y454473D01*
X421415Y454508D01*
X421412D01*
X421409Y454514D01*
X421400Y454520D01*
X421388Y454529D01*
X421358Y454553D01*
X421320Y454588D01*
X421281Y454633D01*
X421237Y454689D01*
X421199Y454751D01*
X421163Y454825D01*
Y454828D01*
X421160Y454834D01*
X421154Y454846D01*
X421148Y454861D01*
X421142Y454881D01*
X421133Y454905D01*
X421128Y454932D01*
X421119Y454961D01*
X421110Y454994D01*
X421101Y455029D01*
X421089Y455106D01*
X421077Y455195D01*
X421074Y455287D01*
Y455334D01*
X421077Y455358D01*
X421080Y455387D01*
X421083Y455420D01*
X421086Y455456D01*
X421098Y455533D01*
X421113Y455615D01*
X421136Y455698D01*
X421166Y455781D01*
Y455784D01*
X421169Y455790D01*
X421175Y455802D01*
X421184Y455817D01*
X421193Y455834D01*
X421205Y455855D01*
X421234Y455902D01*
X421273Y455956D01*
X421317Y456012D01*
X421370Y456065D01*
X421432Y456113D01*
X421435D01*
X421441Y456119D01*
X421450Y456124D01*
X421462Y456131D01*
X421480Y456139D01*
X421500Y456151D01*
X421521Y456160D01*
X421548Y456172D01*
X421607Y456193D01*
X421672Y456213D01*
X421749Y456228D01*
X421829Y456237D01*
X421853Y455917D01*
X421850D01*
X421841D01*
X421829Y455914D01*
X421814Y455911D01*
X421794Y455905D01*
X421770Y455900D01*
X421720Y455885D01*
X421660Y455861D01*
X421601Y455831D01*
X421545Y455790D01*
X421495Y455740D01*
Y455737D01*
X421489Y455734D01*
X421483Y455725D01*
X421477Y455713D01*
X421465Y455695D01*
X421456Y455678D01*
X421444Y455654D01*
X421432Y455630D01*
X421423Y455601D01*
X421412Y455568D01*
X421400Y455533D01*
X421391Y455494D01*
X421385Y455450D01*
X421379Y455405D01*
X421373Y455355D01*
Y455272D01*
X421376Y455251D01*
Y455228D01*
X421379Y455198D01*
X421382Y455168D01*
X421388Y455133D01*
X421400Y455062D01*
X421421Y454988D01*
X421447Y454920D01*
X421465Y454887D01*
X421486Y454861D01*
X421492Y454855D01*
X421506Y454840D01*
X421527Y454816D01*
X421560Y454792D01*
X421598Y454769D01*
X421645Y454745D01*
X421696Y454730D01*
X421723Y454727D01*
X421752Y454724D01*
X421758D01*
X421776Y454727D01*
X421799Y454730D01*
X421832Y454736D01*
X421865Y454748D01*
X421903Y454766D01*
X421939Y454790D01*
X421974Y454822D01*
X421977Y454828D01*
X421983Y454834D01*
X421989Y454843D01*
X421998Y454858D01*
X422007Y454873D01*
X422018Y454896D01*
X422030Y454920D01*
X422042Y454949D01*
X422057Y454985D01*
X422072Y455026D01*
X422087Y455074D01*
X422104Y455127D01*
X422119Y455183D01*
X422137Y455251D01*
X422155Y455322D01*
Y455328D01*
X422158Y455340D01*
X422163Y455361D01*
X422169Y455387D01*
X422178Y455423D01*
X422187Y455458D01*
X422199Y455500D01*
X422208Y455544D01*
X422235Y455639D01*
X422261Y455731D01*
X422273Y455775D01*
X422288Y455814D01*
X422303Y455852D01*
X422315Y455882D01*
Y455885D01*
X422320Y455891D01*
X422323Y455902D01*
X422332Y455917D01*
X422341Y455935D01*
X422356Y455959D01*
X422386Y456006D01*
X422421Y456059D01*
X422465Y456113D01*
X422516Y456163D01*
X422572Y456207D01*
X422575D01*
X422578Y456213D01*
X422587Y456216D01*
X422599Y456225D01*
X422613Y456231D01*
X422631Y456240D01*
X422676Y456261D01*
X422726Y456281D01*
X422788Y456296D01*
X422856Y456308D01*
X422930Y456314D01*
X422933D01*
X422939D01*
X422951D01*
X422966Y456311D01*
D02*
G37*
G36*
X469661Y430978D02*
X468489D01*
X468463Y430981D01*
X468430D01*
X468395Y430984D01*
X468356Y430987D01*
X468273Y430996D01*
X468187Y431008D01*
X468105Y431023D01*
X468069Y431034D01*
X468033Y431046D01*
X468031D01*
X468025Y431049D01*
X468016Y431052D01*
X468004Y431058D01*
X467971Y431076D01*
X467933Y431102D01*
X467888Y431135D01*
X467841Y431176D01*
X467797Y431230D01*
X467755Y431289D01*
Y431292D01*
X467749Y431298D01*
X467746Y431307D01*
X467737Y431319D01*
X467732Y431336D01*
X467723Y431354D01*
X467702Y431401D01*
X467681Y431458D01*
X467666Y431520D01*
X467655Y431591D01*
X467649Y431668D01*
Y431671D01*
Y431680D01*
Y431694D01*
X467652Y431712D01*
X467655Y431736D01*
X467658Y431763D01*
X467663Y431792D01*
X467669Y431825D01*
X467690Y431899D01*
X467705Y431934D01*
X467723Y431973D01*
X467743Y432011D01*
X467764Y432050D01*
X467794Y432088D01*
X467823Y432124D01*
X467826Y432127D01*
X467832Y432132D01*
X467841Y432141D01*
X467856Y432153D01*
X467874Y432168D01*
X467897Y432183D01*
X467924Y432203D01*
X467956Y432221D01*
X467992Y432242D01*
X468031Y432260D01*
X468075Y432280D01*
X468122Y432298D01*
X468176Y432316D01*
X468232Y432331D01*
X468294Y432343D01*
X468359Y432354D01*
X468356D01*
X468353Y432358D01*
X468338Y432366D01*
X468315Y432378D01*
X468285Y432396D01*
X468253Y432414D01*
X468217Y432434D01*
X468184Y432458D01*
X468158Y432482D01*
X468155D01*
X468152Y432488D01*
X468134Y432506D01*
X468105Y432535D01*
X468069Y432574D01*
X468027Y432621D01*
X467980Y432680D01*
X467933Y432745D01*
X467882Y432816D01*
X467447Y433500D01*
X467862D01*
X468196Y432979D01*
X468199Y432976D01*
X468202Y432970D01*
X468211Y432958D01*
X468220Y432941D01*
X468232Y432923D01*
X468247Y432899D01*
X468279Y432849D01*
X468318Y432796D01*
X468359Y432736D01*
X468398Y432680D01*
X468436Y432633D01*
X468439Y432627D01*
X468451Y432612D01*
X468469Y432591D01*
X468492Y432565D01*
X468519Y432538D01*
X468548Y432511D01*
X468575Y432485D01*
X468605Y432464D01*
X468608Y432461D01*
X468617Y432455D01*
X468631Y432446D01*
X468652Y432437D01*
X468673Y432426D01*
X468699Y432414D01*
X468726Y432405D01*
X468756Y432396D01*
X468759D01*
X468767Y432393D01*
X468782Y432390D01*
X468800Y432387D01*
X468827D01*
X468859Y432384D01*
X468898Y432381D01*
X469327D01*
Y433500D01*
X469661D01*
Y430978D01*
D02*
G37*
G36*
X466260Y432896D02*
X467356D01*
Y432612D01*
X466201Y430978D01*
X465950D01*
Y432612D01*
X465609D01*
Y432896D01*
X465950D01*
Y433500D01*
X466260D01*
Y432896D01*
D02*
G37*
G36*
X536534Y475896D02*
X536563Y475893D01*
X536593Y475887D01*
X536628Y475878D01*
X536670Y475869D01*
X536711Y475857D01*
X536756Y475843D01*
X536800Y475825D01*
X536844Y475801D01*
X536892Y475774D01*
X536936Y475745D01*
X536981Y475709D01*
X537022Y475668D01*
X537025Y475665D01*
X537031Y475656D01*
X537043Y475644D01*
X537057Y475627D01*
X537072Y475603D01*
X537090Y475576D01*
X537111Y475544D01*
X537132Y475508D01*
X537152Y475467D01*
X537173Y475422D01*
X537191Y475372D01*
X537206Y475319D01*
X537220Y475262D01*
X537232Y475200D01*
X537238Y475135D01*
X537241Y475067D01*
Y475049D01*
X537238Y475032D01*
Y475005D01*
X537235Y474972D01*
X537229Y474937D01*
X537223Y474895D01*
X537214Y474851D01*
X537203Y474804D01*
X537188Y474753D01*
X537170Y474703D01*
X537149Y474653D01*
X537123Y474602D01*
X537093Y474555D01*
X537060Y474508D01*
X537022Y474463D01*
X537019Y474460D01*
X537013Y474454D01*
X536998Y474442D01*
X536983Y474428D01*
X536960Y474410D01*
X536933Y474392D01*
X536904Y474371D01*
X536871Y474351D01*
X536833Y474327D01*
X536791Y474306D01*
X536744Y474289D01*
X536696Y474271D01*
X536643Y474256D01*
X536590Y474244D01*
X536531Y474238D01*
X536472Y474235D01*
X536469D01*
X536460D01*
X536448D01*
X536430Y474238D01*
X536409D01*
X536386Y474241D01*
X536326Y474250D01*
X536264Y474265D01*
X536193Y474289D01*
X536125Y474318D01*
X536060Y474360D01*
X536057Y474363D01*
X536054Y474366D01*
X536045Y474371D01*
X536033Y474383D01*
X536004Y474410D01*
X535968Y474451D01*
X535933Y474502D01*
X535894Y474561D01*
X535859Y474632D01*
X535832Y474715D01*
Y474712D01*
X535829Y474706D01*
X535826Y474697D01*
X535820Y474682D01*
X535803Y474650D01*
X535782Y474608D01*
X535755Y474561D01*
X535720Y474513D01*
X535678Y474466D01*
X535634Y474428D01*
X535631D01*
X535628Y474425D01*
X535610Y474413D01*
X535583Y474398D01*
X535545Y474383D01*
X535498Y474366D01*
X535444Y474351D01*
X535385Y474339D01*
X535320Y474336D01*
X535317D01*
X535308D01*
X535293D01*
X535273Y474339D01*
X535249Y474342D01*
X535222Y474348D01*
X535193Y474354D01*
X535160Y474360D01*
X535086Y474383D01*
X535048Y474398D01*
X535009Y474419D01*
X534971Y474439D01*
X534932Y474466D01*
X534894Y474496D01*
X534858Y474531D01*
X534855Y474534D01*
X534849Y474540D01*
X534840Y474552D01*
X534829Y474567D01*
X534814Y474587D01*
X534799Y474611D01*
X534781Y474641D01*
X534763Y474673D01*
X534746Y474709D01*
X534728Y474747D01*
X534713Y474792D01*
X534698Y474839D01*
X534687Y474890D01*
X534678Y474943D01*
X534672Y475002D01*
X534669Y475061D01*
Y475094D01*
X534672Y475114D01*
X534675Y475144D01*
X534678Y475177D01*
X534684Y475212D01*
X534692Y475251D01*
X534716Y475336D01*
X534731Y475378D01*
X534749Y475422D01*
X534772Y475467D01*
X534799Y475511D01*
X534829Y475553D01*
X534861Y475591D01*
X534864Y475594D01*
X534870Y475600D01*
X534882Y475609D01*
X534897Y475624D01*
X534914Y475638D01*
X534935Y475656D01*
X534962Y475674D01*
X534992Y475695D01*
X535024Y475712D01*
X535059Y475730D01*
X535140Y475763D01*
X535184Y475777D01*
X535228Y475786D01*
X535279Y475792D01*
X535329Y475795D01*
X535332D01*
X535338D01*
X535347D01*
X535358D01*
X535391Y475789D01*
X535432Y475783D01*
X535480Y475772D01*
X535530Y475757D01*
X535583Y475733D01*
X535634Y475701D01*
X535640Y475698D01*
X535654Y475683D01*
X535678Y475662D01*
X535708Y475632D01*
X535740Y475591D01*
X535773Y475544D01*
X535803Y475487D01*
X535832Y475422D01*
Y475425D01*
X535835Y475431D01*
X535841Y475443D01*
X535847Y475461D01*
X535856Y475479D01*
X535865Y475502D01*
X535891Y475553D01*
X535927Y475609D01*
X535968Y475668D01*
X536019Y475724D01*
X536078Y475774D01*
X536081Y475777D01*
X536087Y475780D01*
X536096Y475786D01*
X536107Y475795D01*
X536125Y475804D01*
X536143Y475813D01*
X536167Y475825D01*
X536190Y475837D01*
X536249Y475860D01*
X536317Y475878D01*
X536395Y475893D01*
X536480Y475899D01*
X536483D01*
X536495D01*
X536513D01*
X536534Y475896D01*
D02*
G37*
G36*
X537200Y473368D02*
Y473042D01*
X535279Y472513D01*
X535276D01*
X535267Y472510D01*
X535255Y472507D01*
X535240Y472501D01*
X535222Y472498D01*
X535199Y472492D01*
X535151Y472477D01*
X535101Y472462D01*
X535054Y472450D01*
X535030Y472444D01*
X535012Y472439D01*
X534994Y472436D01*
X534983Y472433D01*
X534985D01*
X534992Y472430D01*
X535000D01*
X535012Y472427D01*
X535045Y472418D01*
X535086Y472409D01*
X535134Y472397D01*
X535181Y472385D01*
X535234Y472370D01*
X535282Y472359D01*
X537200Y471826D01*
Y471477D01*
X534678Y470814D01*
Y471157D01*
X536332Y471539D01*
X536335D01*
X536344Y471542D01*
X536359Y471545D01*
X536377Y471551D01*
X536400Y471554D01*
X536427Y471559D01*
X536460Y471568D01*
X536495Y471574D01*
X536531Y471583D01*
X536572Y471592D01*
X536658Y471610D01*
X536753Y471628D01*
X536847Y471645D01*
X536841D01*
X536830Y471648D01*
X536809Y471654D01*
X536782Y471660D01*
X536753Y471669D01*
X536717Y471678D01*
X536637Y471696D01*
X536557Y471716D01*
X536519Y471725D01*
X536480Y471734D01*
X536448Y471743D01*
X536421Y471752D01*
X536398Y471758D01*
X536383Y471761D01*
X534678Y472240D01*
Y472643D01*
X535956Y473004D01*
X535962Y473007D01*
X535977Y473010D01*
X536004Y473016D01*
X536036Y473025D01*
X536078Y473036D01*
X536128Y473048D01*
X536184Y473063D01*
X536246Y473078D01*
X536312Y473093D01*
X536383Y473110D01*
X536457Y473125D01*
X536531Y473143D01*
X536691Y473173D01*
X536847Y473199D01*
X536844D01*
X536835Y473202D01*
X536824Y473205D01*
X536806Y473208D01*
X536782Y473214D01*
X536756Y473220D01*
X536726Y473226D01*
X536691Y473235D01*
X536652Y473244D01*
X536611Y473253D01*
X536563Y473261D01*
X536516Y473273D01*
X536412Y473297D01*
X536300Y473324D01*
X534678Y473720D01*
Y474058D01*
X537200Y473368D01*
D02*
G37*
G36*
X536525Y470583D02*
X536543D01*
X536563Y470580D01*
X536611Y470571D01*
X536670Y470559D01*
X536735Y470538D01*
X536800Y470509D01*
X536868Y470470D01*
X536871D01*
X536877Y470464D01*
X536886Y470458D01*
X536898Y470449D01*
X536930Y470423D01*
X536969Y470384D01*
X537013Y470340D01*
X537060Y470281D01*
X537102Y470216D01*
X537143Y470139D01*
Y470136D01*
X537146Y470130D01*
X537152Y470118D01*
X537158Y470100D01*
X537167Y470079D01*
X537173Y470056D01*
X537182Y470029D01*
X537191Y469997D01*
X537203Y469964D01*
X537212Y469925D01*
X537226Y469843D01*
X537238Y469751D01*
X537241Y469653D01*
Y469621D01*
X537238Y469597D01*
Y469567D01*
X537235Y469532D01*
X537232Y469493D01*
X537229Y469452D01*
X537217Y469363D01*
X537200Y469265D01*
X537176Y469171D01*
X537143Y469079D01*
Y469076D01*
X537138Y469070D01*
X537132Y469058D01*
X537126Y469040D01*
X537114Y469023D01*
X537102Y468999D01*
X537066Y468946D01*
X537025Y468890D01*
X536975Y468827D01*
X536912Y468768D01*
X536841Y468715D01*
X536838D01*
X536833Y468709D01*
X536821Y468703D01*
X536806Y468694D01*
X536788Y468685D01*
X536764Y468673D01*
X536738Y468662D01*
X536708Y468650D01*
X536676Y468638D01*
X536640Y468623D01*
X536563Y468602D01*
X536477Y468588D01*
X536386Y468579D01*
X536359Y468892D01*
X536362D01*
X536368D01*
X536377Y468895D01*
X536391Y468898D01*
X536406D01*
X536427Y468904D01*
X536472Y468913D01*
X536519Y468925D01*
X536572Y468943D01*
X536625Y468966D01*
X536673Y468993D01*
X536679Y468996D01*
X536693Y469008D01*
X536714Y469029D01*
X536744Y469055D01*
X536773Y469091D01*
X536806Y469135D01*
X536838Y469188D01*
X536868Y469248D01*
Y469251D01*
X536871Y469257D01*
X536874Y469265D01*
X536880Y469277D01*
X536886Y469295D01*
X536892Y469313D01*
X536904Y469360D01*
X536918Y469419D01*
X536930Y469485D01*
X536939Y469556D01*
X536942Y469635D01*
Y469668D01*
X536939Y469686D01*
Y469703D01*
X536936Y469751D01*
X536927Y469801D01*
X536918Y469860D01*
X536904Y469917D01*
X536886Y469973D01*
Y469976D01*
X536883Y469979D01*
X536874Y469997D01*
X536862Y470023D01*
X536844Y470056D01*
X536824Y470088D01*
X536797Y470127D01*
X536767Y470159D01*
X536732Y470189D01*
X536726Y470192D01*
X536714Y470201D01*
X536693Y470213D01*
X536667Y470227D01*
X536634Y470239D01*
X536599Y470251D01*
X536557Y470260D01*
X536516Y470263D01*
X536510D01*
X536495D01*
X536474Y470260D01*
X536445Y470254D01*
X536412Y470245D01*
X536380Y470233D01*
X536344Y470216D01*
X536309Y470192D01*
X536306Y470189D01*
X536294Y470180D01*
X536276Y470162D01*
X536255Y470139D01*
X536235Y470106D01*
X536208Y470068D01*
X536184Y470023D01*
X536161Y469967D01*
X536158Y469961D01*
Y469955D01*
X536152Y469946D01*
X536149Y469932D01*
X536143Y469917D01*
X536137Y469896D01*
X536131Y469872D01*
X536122Y469843D01*
X536113Y469813D01*
X536104Y469775D01*
X536093Y469733D01*
X536081Y469689D01*
X536069Y469635D01*
X536054Y469579D01*
X536039Y469517D01*
Y469514D01*
X536036Y469502D01*
X536030Y469485D01*
X536025Y469461D01*
X536019Y469431D01*
X536010Y469402D01*
X535998Y469366D01*
X535989Y469328D01*
X535962Y469248D01*
X535936Y469165D01*
X535924Y469129D01*
X535909Y469094D01*
X535894Y469061D01*
X535880Y469032D01*
Y469029D01*
X535877Y469023D01*
X535871Y469014D01*
X535862Y469002D01*
X535841Y468969D01*
X535814Y468928D01*
X535782Y468884D01*
X535740Y468839D01*
X535696Y468798D01*
X535646Y468759D01*
X535643D01*
X535640Y468756D01*
X535622Y468748D01*
X535592Y468733D01*
X535554Y468718D01*
X535506Y468700D01*
X535453Y468688D01*
X535394Y468676D01*
X535332Y468673D01*
X535329D01*
X535323D01*
X535314D01*
X535299Y468676D01*
X535282D01*
X535261Y468679D01*
X535214Y468688D01*
X535160Y468700D01*
X535098Y468718D01*
X535036Y468745D01*
X534974Y468780D01*
X534971D01*
X534968Y468786D01*
X534959Y468792D01*
X534947Y468801D01*
X534917Y468824D01*
X534879Y468860D01*
X534840Y468904D01*
X534796Y468961D01*
X534758Y469023D01*
X534722Y469097D01*
Y469100D01*
X534719Y469106D01*
X534713Y469117D01*
X534707Y469132D01*
X534701Y469153D01*
X534692Y469177D01*
X534687Y469203D01*
X534678Y469233D01*
X534669Y469265D01*
X534660Y469301D01*
X534648Y469378D01*
X534636Y469467D01*
X534633Y469558D01*
Y469606D01*
X534636Y469629D01*
X534639Y469659D01*
X534642Y469692D01*
X534645Y469727D01*
X534657Y469804D01*
X534672Y469887D01*
X534695Y469970D01*
X534725Y470053D01*
Y470056D01*
X534728Y470062D01*
X534734Y470074D01*
X534743Y470088D01*
X534752Y470106D01*
X534763Y470127D01*
X534793Y470174D01*
X534832Y470227D01*
X534876Y470284D01*
X534929Y470337D01*
X534992Y470384D01*
X534994D01*
X535000Y470390D01*
X535009Y470396D01*
X535021Y470402D01*
X535039Y470411D01*
X535059Y470423D01*
X535080Y470432D01*
X535107Y470443D01*
X535166Y470464D01*
X535231Y470485D01*
X535308Y470500D01*
X535388Y470509D01*
X535412Y470189D01*
X535409D01*
X535400D01*
X535388Y470186D01*
X535373Y470183D01*
X535353Y470177D01*
X535329Y470171D01*
X535279Y470156D01*
X535219Y470133D01*
X535160Y470103D01*
X535104Y470062D01*
X535054Y470011D01*
Y470008D01*
X535048Y470006D01*
X535042Y469997D01*
X535036Y469985D01*
X535024Y469967D01*
X535015Y469949D01*
X535003Y469925D01*
X534992Y469902D01*
X534983Y469872D01*
X534971Y469840D01*
X534959Y469804D01*
X534950Y469766D01*
X534944Y469721D01*
X534938Y469677D01*
X534932Y469627D01*
Y469544D01*
X534935Y469523D01*
Y469499D01*
X534938Y469470D01*
X534941Y469440D01*
X534947Y469405D01*
X534959Y469334D01*
X534980Y469260D01*
X535006Y469191D01*
X535024Y469159D01*
X535045Y469132D01*
X535051Y469126D01*
X535066Y469111D01*
X535086Y469088D01*
X535119Y469064D01*
X535157Y469040D01*
X535205Y469017D01*
X535255Y469002D01*
X535282Y468999D01*
X535311Y468996D01*
X535317D01*
X535335Y468999D01*
X535358Y469002D01*
X535391Y469008D01*
X535424Y469020D01*
X535462Y469037D01*
X535498Y469061D01*
X535533Y469094D01*
X535536Y469100D01*
X535542Y469106D01*
X535548Y469114D01*
X535557Y469129D01*
X535566Y469144D01*
X535577Y469168D01*
X535589Y469191D01*
X535601Y469221D01*
X535616Y469257D01*
X535631Y469298D01*
X535646Y469345D01*
X535663Y469399D01*
X535678Y469455D01*
X535696Y469523D01*
X535714Y469594D01*
Y469600D01*
X535717Y469612D01*
X535723Y469632D01*
X535729Y469659D01*
X535737Y469695D01*
X535746Y469730D01*
X535758Y469772D01*
X535767Y469816D01*
X535794Y469911D01*
X535820Y470003D01*
X535832Y470047D01*
X535847Y470085D01*
X535862Y470124D01*
X535874Y470153D01*
Y470156D01*
X535880Y470162D01*
X535882Y470174D01*
X535891Y470189D01*
X535900Y470207D01*
X535915Y470230D01*
X535945Y470278D01*
X535980Y470331D01*
X536025Y470384D01*
X536075Y470435D01*
X536131Y470479D01*
X536134D01*
X536137Y470485D01*
X536146Y470488D01*
X536158Y470497D01*
X536172Y470503D01*
X536190Y470512D01*
X536235Y470532D01*
X536285Y470553D01*
X536347Y470568D01*
X536415Y470580D01*
X536489Y470586D01*
X536492D01*
X536498D01*
X536510D01*
X536525Y470583D01*
D02*
G37*
G36*
X290756Y467262D02*
X290765Y467253D01*
X290780Y467241D01*
X290801Y467223D01*
X290827Y467203D01*
X290857Y467176D01*
X290893Y467146D01*
X290934Y467114D01*
X290981Y467078D01*
X291035Y467040D01*
X291091Y467001D01*
X291150Y466960D01*
X291215Y466919D01*
X291286Y466874D01*
X291360Y466830D01*
X291437Y466785D01*
X291443Y466782D01*
X291455Y466776D01*
X291479Y466762D01*
X291511Y466747D01*
X291550Y466726D01*
X291594Y466702D01*
X291647Y466679D01*
X291704Y466652D01*
X291769Y466622D01*
X291837Y466593D01*
X291908Y466563D01*
X291982Y466531D01*
X292142Y466474D01*
X292307Y466421D01*
X292310D01*
X292322Y466418D01*
X292340Y466412D01*
X292364Y466406D01*
X292393Y466397D01*
X292429Y466389D01*
X292467Y466380D01*
X292512Y466371D01*
X292562Y466362D01*
X292615Y466350D01*
X292671Y466341D01*
X292734Y466332D01*
X292861Y466315D01*
X293000Y466303D01*
Y465983D01*
X292997D01*
X292985D01*
X292970D01*
X292947Y465986D01*
X292917D01*
X292885Y465989D01*
X292843Y465995D01*
X292799Y465998D01*
X292748Y466004D01*
X292695Y466013D01*
X292636Y466022D01*
X292574Y466033D01*
X292506Y466045D01*
X292435Y466060D01*
X292361Y466078D01*
X292284Y466099D01*
X292278D01*
X292266Y466105D01*
X292242Y466110D01*
X292213Y466119D01*
X292174Y466131D01*
X292130Y466146D01*
X292079Y466161D01*
X292023Y466182D01*
X291964Y466202D01*
X291899Y466226D01*
X291831Y466253D01*
X291763Y466282D01*
X291618Y466347D01*
X291470Y466421D01*
X291464Y466424D01*
X291452Y466430D01*
X291431Y466442D01*
X291405Y466457D01*
X291372Y466477D01*
X291331Y466501D01*
X291289Y466528D01*
X291242Y466557D01*
X291189Y466587D01*
X291138Y466622D01*
X291026Y466699D01*
X290916Y466782D01*
X290810Y466868D01*
Y465631D01*
X290511D01*
Y467265D01*
X290753D01*
X290756Y467262D01*
D02*
G37*
G36*
X293000Y465000D02*
X292479Y464666D01*
X292476Y464663D01*
X292470Y464660D01*
X292458Y464651D01*
X292441Y464642D01*
X292423Y464630D01*
X292399Y464616D01*
X292349Y464583D01*
X292296Y464545D01*
X292236Y464503D01*
X292180Y464465D01*
X292133Y464426D01*
X292127Y464423D01*
X292112Y464411D01*
X292091Y464394D01*
X292065Y464370D01*
X292038Y464343D01*
X292011Y464314D01*
X291985Y464287D01*
X291964Y464257D01*
X291961Y464255D01*
X291955Y464246D01*
X291946Y464231D01*
X291937Y464210D01*
X291926Y464189D01*
X291914Y464163D01*
X291905Y464136D01*
X291896Y464107D01*
Y464104D01*
X291893Y464095D01*
X291890Y464080D01*
X291887Y464062D01*
Y464036D01*
X291884Y464003D01*
X291881Y463964D01*
Y463535D01*
X293000D01*
Y463201D01*
X290478D01*
Y464373D01*
X290481Y464399D01*
Y464432D01*
X290484Y464468D01*
X290487Y464506D01*
X290496Y464589D01*
X290508Y464675D01*
X290523Y464758D01*
X290534Y464793D01*
X290546Y464829D01*
Y464832D01*
X290549Y464838D01*
X290552Y464847D01*
X290558Y464858D01*
X290576Y464891D01*
X290602Y464929D01*
X290635Y464974D01*
X290676Y465021D01*
X290730Y465065D01*
X290789Y465107D01*
X290792D01*
X290798Y465113D01*
X290807Y465116D01*
X290819Y465125D01*
X290836Y465131D01*
X290854Y465139D01*
X290901Y465160D01*
X290958Y465181D01*
X291020Y465196D01*
X291091Y465208D01*
X291168Y465213D01*
X291171D01*
X291180D01*
X291194D01*
X291212Y465211D01*
X291236Y465208D01*
X291263Y465205D01*
X291292Y465199D01*
X291325Y465193D01*
X291399Y465172D01*
X291434Y465157D01*
X291473Y465139D01*
X291511Y465119D01*
X291550Y465098D01*
X291588Y465068D01*
X291624Y465039D01*
X291627Y465036D01*
X291633Y465030D01*
X291641Y465021D01*
X291653Y465006D01*
X291668Y464989D01*
X291683Y464965D01*
X291704Y464938D01*
X291721Y464906D01*
X291742Y464870D01*
X291760Y464832D01*
X291780Y464787D01*
X291798Y464740D01*
X291816Y464687D01*
X291831Y464630D01*
X291843Y464568D01*
X291855Y464503D01*
Y464506D01*
X291858Y464509D01*
X291866Y464524D01*
X291878Y464547D01*
X291896Y464577D01*
X291914Y464610D01*
X291934Y464645D01*
X291958Y464678D01*
X291982Y464704D01*
Y464707D01*
X291988Y464710D01*
X292005Y464728D01*
X292035Y464758D01*
X292074Y464793D01*
X292121Y464835D01*
X292180Y464882D01*
X292245Y464929D01*
X292316Y464980D01*
X293000Y465415D01*
Y465000D01*
D02*
G37*
G36*
X447680Y440561D02*
X447701D01*
X447724Y440558D01*
X447754Y440555D01*
X447784Y440552D01*
X447852Y440537D01*
X447926Y440520D01*
X448006Y440496D01*
X448083Y440460D01*
X448086D01*
X448092Y440454D01*
X448100Y440449D01*
X448115Y440443D01*
X448133Y440431D01*
X448151Y440419D01*
X448198Y440386D01*
X448245Y440345D01*
X448299Y440298D01*
X448349Y440241D01*
X448393Y440176D01*
Y440173D01*
X448399Y440167D01*
X448402Y440159D01*
X448411Y440144D01*
X448417Y440129D01*
X448426Y440108D01*
X448438Y440085D01*
X448447Y440061D01*
X448467Y439999D01*
X448482Y439931D01*
X448494Y439857D01*
X448500Y439774D01*
Y439756D01*
X448497Y439735D01*
X448494Y439709D01*
X448491Y439676D01*
X448485Y439638D01*
X448476Y439596D01*
X448464Y439549D01*
X448450Y439501D01*
X448432Y439448D01*
X448408Y439395D01*
X448379Y439342D01*
X448346Y439291D01*
X448311Y439238D01*
X448266Y439188D01*
X448216Y439140D01*
X448213Y439137D01*
X448201Y439131D01*
X448186Y439117D01*
X448163Y439102D01*
X448130Y439084D01*
X448092Y439063D01*
X448044Y439043D01*
X447991Y439019D01*
X447932Y438995D01*
X447864Y438975D01*
X447787Y438954D01*
X447701Y438936D01*
X447609Y438921D01*
X447508Y438909D01*
X447399Y438901D01*
X447281Y438898D01*
X447277D01*
X447272D01*
X447263D01*
X447248D01*
X447230D01*
X447210Y438901D01*
X447189D01*
X447162D01*
X447100Y438906D01*
X447032Y438912D01*
X446955Y438921D01*
X446872Y438930D01*
X446786Y438945D01*
X446700Y438963D01*
X446611Y438986D01*
X446523Y439010D01*
X446440Y439043D01*
X446360Y439078D01*
X446283Y439119D01*
X446218Y439167D01*
X446215Y439170D01*
X446206Y439179D01*
X446191Y439191D01*
X446173Y439211D01*
X446150Y439235D01*
X446126Y439262D01*
X446100Y439297D01*
X446073Y439336D01*
X446046Y439380D01*
X446020Y439427D01*
X445996Y439478D01*
X445972Y439534D01*
X445954Y439596D01*
X445940Y439661D01*
X445931Y439729D01*
X445928Y439803D01*
Y439833D01*
X445931Y439854D01*
X445934Y439877D01*
X445937Y439907D01*
X445943Y439939D01*
X445949Y439978D01*
X445969Y440055D01*
X445981Y440093D01*
X445999Y440135D01*
X446020Y440176D01*
X446040Y440218D01*
X446067Y440256D01*
X446097Y440292D01*
X446100Y440295D01*
X446105Y440301D01*
X446114Y440309D01*
X446126Y440321D01*
X446144Y440339D01*
X446165Y440354D01*
X446188Y440375D01*
X446215Y440392D01*
X446247Y440413D01*
X446280Y440434D01*
X446318Y440452D01*
X446360Y440469D01*
X446404Y440487D01*
X446452Y440502D01*
X446502Y440514D01*
X446555Y440523D01*
X446579Y440215D01*
X446576D01*
X446570Y440212D01*
X446561Y440209D01*
X446549Y440206D01*
X446517Y440197D01*
X446478Y440182D01*
X446434Y440167D01*
X446392Y440147D01*
X446351Y440123D01*
X446315Y440096D01*
X446313D01*
X446310Y440090D01*
X446295Y440073D01*
X446274Y440046D01*
X446247Y440010D01*
X446224Y439966D01*
X446203Y439913D01*
X446188Y439851D01*
X446182Y439818D01*
Y439759D01*
X446185Y439732D01*
X446191Y439697D01*
X446203Y439655D01*
X446218Y439611D01*
X446239Y439567D01*
X446265Y439522D01*
Y439519D01*
X446271Y439516D01*
X446286Y439498D01*
X446310Y439472D01*
X446345Y439439D01*
X446387Y439401D01*
X446440Y439362D01*
X446505Y439327D01*
X446576Y439291D01*
X446579D01*
X446585Y439288D01*
X446597Y439282D01*
X446615Y439279D01*
X446635Y439274D01*
X446662Y439265D01*
X446692Y439259D01*
X446724Y439250D01*
X446766Y439241D01*
X446807Y439235D01*
X446857Y439226D01*
X446908Y439220D01*
X446964Y439214D01*
X447026Y439211D01*
X447091Y439208D01*
X447156Y439206D01*
X447150Y439211D01*
X447141Y439217D01*
X447130Y439226D01*
X447100Y439250D01*
X447061Y439279D01*
X447020Y439321D01*
X446979Y439365D01*
X446940Y439419D01*
X446905Y439478D01*
Y439481D01*
X446902Y439487D01*
X446896Y439496D01*
X446893Y439507D01*
X446878Y439540D01*
X446863Y439581D01*
X446848Y439632D01*
X446834Y439691D01*
X446825Y439753D01*
X446822Y439818D01*
Y439848D01*
X446825Y439868D01*
X446828Y439895D01*
X446834Y439928D01*
X446840Y439963D01*
X446851Y439999D01*
X446863Y440040D01*
X446878Y440082D01*
X446896Y440126D01*
X446916Y440170D01*
X446943Y440215D01*
X446976Y440259D01*
X447008Y440304D01*
X447050Y440345D01*
X447053Y440348D01*
X447061Y440354D01*
X447073Y440366D01*
X447091Y440380D01*
X447115Y440395D01*
X447141Y440413D01*
X447174Y440434D01*
X447210Y440454D01*
X447248Y440475D01*
X447292Y440496D01*
X447343Y440514D01*
X447393Y440528D01*
X447449Y440543D01*
X447508Y440555D01*
X447574Y440561D01*
X447639Y440564D01*
X447642D01*
X447650D01*
X447662D01*
X447680Y440561D01*
D02*
G37*
G36*
X448459Y438300D02*
X447938Y437965D01*
X447935Y437962D01*
X447929Y437959D01*
X447917Y437950D01*
X447899Y437942D01*
X447881Y437930D01*
X447858Y437915D01*
X447807Y437882D01*
X447754Y437844D01*
X447695Y437802D01*
X447639Y437764D01*
X447591Y437725D01*
X447585Y437722D01*
X447571Y437711D01*
X447550Y437693D01*
X447523Y437669D01*
X447497Y437642D01*
X447470Y437613D01*
X447443Y437586D01*
X447423Y437557D01*
X447420Y437554D01*
X447414Y437545D01*
X447405Y437530D01*
X447396Y437509D01*
X447384Y437489D01*
X447372Y437462D01*
X447363Y437435D01*
X447355Y437406D01*
Y437403D01*
X447352Y437394D01*
X447349Y437379D01*
X447346Y437361D01*
Y437335D01*
X447343Y437302D01*
X447340Y437264D01*
Y436834D01*
X448459D01*
Y436500D01*
X445937D01*
Y437672D01*
X445940Y437699D01*
Y437731D01*
X445943Y437767D01*
X445946Y437805D01*
X445954Y437888D01*
X445966Y437974D01*
X445981Y438057D01*
X445993Y438092D01*
X446005Y438128D01*
Y438131D01*
X446008Y438137D01*
X446011Y438146D01*
X446017Y438158D01*
X446034Y438190D01*
X446061Y438229D01*
X446094Y438273D01*
X446135Y438320D01*
X446188Y438365D01*
X446247Y438406D01*
X446250D01*
X446256Y438412D01*
X446265Y438415D01*
X446277Y438424D01*
X446295Y438430D01*
X446313Y438439D01*
X446360Y438459D01*
X446416Y438480D01*
X446478Y438495D01*
X446549Y438507D01*
X446626Y438513D01*
X446629D01*
X446638D01*
X446653D01*
X446671Y438510D01*
X446694Y438507D01*
X446721Y438504D01*
X446751Y438498D01*
X446783Y438492D01*
X446857Y438471D01*
X446893Y438456D01*
X446931Y438439D01*
X446970Y438418D01*
X447008Y438397D01*
X447047Y438368D01*
X447082Y438338D01*
X447085Y438335D01*
X447091Y438329D01*
X447100Y438320D01*
X447112Y438306D01*
X447127Y438288D01*
X447141Y438264D01*
X447162Y438237D01*
X447180Y438205D01*
X447201Y438169D01*
X447218Y438131D01*
X447239Y438087D01*
X447257Y438039D01*
X447275Y437986D01*
X447289Y437930D01*
X447301Y437867D01*
X447313Y437802D01*
Y437805D01*
X447316Y437808D01*
X447325Y437823D01*
X447337Y437847D01*
X447355Y437876D01*
X447372Y437909D01*
X447393Y437944D01*
X447417Y437977D01*
X447440Y438004D01*
Y438007D01*
X447446Y438010D01*
X447464Y438027D01*
X447494Y438057D01*
X447532Y438092D01*
X447579Y438134D01*
X447639Y438181D01*
X447704Y438229D01*
X447775Y438279D01*
X448459Y438714D01*
Y438300D01*
D02*
G37*
G36*
X157941Y446978D02*
X156769D01*
X156742Y446981D01*
X156710D01*
X156674Y446984D01*
X156636Y446987D01*
X156553Y446996D01*
X156467Y447008D01*
X156384Y447022D01*
X156349Y447034D01*
X156313Y447046D01*
X156310D01*
X156304Y447049D01*
X156295Y447052D01*
X156283Y447058D01*
X156251Y447076D01*
X156212Y447102D01*
X156168Y447135D01*
X156121Y447176D01*
X156076Y447230D01*
X156035Y447289D01*
Y447292D01*
X156029Y447298D01*
X156026Y447307D01*
X156017Y447319D01*
X156011Y447336D01*
X156002Y447354D01*
X155982Y447401D01*
X155961Y447458D01*
X155946Y447520D01*
X155934Y447591D01*
X155928Y447668D01*
Y447671D01*
Y447680D01*
Y447694D01*
X155931Y447712D01*
X155934Y447736D01*
X155937Y447762D01*
X155943Y447792D01*
X155949Y447825D01*
X155970Y447899D01*
X155984Y447934D01*
X156002Y447973D01*
X156023Y448011D01*
X156044Y448050D01*
X156073Y448088D01*
X156103Y448124D01*
X156106Y448127D01*
X156112Y448133D01*
X156121Y448141D01*
X156135Y448153D01*
X156153Y448168D01*
X156177Y448183D01*
X156203Y448204D01*
X156236Y448221D01*
X156272Y448242D01*
X156310Y448260D01*
X156354Y448280D01*
X156402Y448298D01*
X156455Y448316D01*
X156511Y448331D01*
X156573Y448343D01*
X156639Y448354D01*
X156636D01*
X156633Y448357D01*
X156618Y448366D01*
X156594Y448378D01*
X156565Y448396D01*
X156532Y448414D01*
X156497Y448434D01*
X156464Y448458D01*
X156437Y448482D01*
X156434D01*
X156431Y448488D01*
X156414Y448505D01*
X156384Y448535D01*
X156349Y448573D01*
X156307Y448621D01*
X156260Y448680D01*
X156212Y448745D01*
X156162Y448816D01*
X155727Y449500D01*
X156141D01*
X156476Y448979D01*
X156479Y448976D01*
X156482Y448970D01*
X156491Y448958D01*
X156500Y448941D01*
X156511Y448923D01*
X156526Y448899D01*
X156559Y448849D01*
X156597Y448796D01*
X156639Y448736D01*
X156677Y448680D01*
X156716Y448633D01*
X156719Y448627D01*
X156730Y448612D01*
X156748Y448591D01*
X156772Y448565D01*
X156798Y448538D01*
X156828Y448511D01*
X156855Y448485D01*
X156884Y448464D01*
X156887Y448461D01*
X156896Y448455D01*
X156911Y448446D01*
X156932Y448437D01*
X156952Y448426D01*
X156979Y448414D01*
X157006Y448405D01*
X157035Y448396D01*
X157038D01*
X157047Y448393D01*
X157062Y448390D01*
X157080Y448387D01*
X157106D01*
X157139Y448384D01*
X157177Y448381D01*
X157606D01*
Y449500D01*
X157941D01*
Y446978D01*
D02*
G37*
G36*
X154673Y447529D02*
X154679Y447535D01*
X154694Y447546D01*
X154718Y447567D01*
X154753Y447594D01*
X154795Y447626D01*
X154845Y447665D01*
X154904Y447703D01*
X154969Y447742D01*
X154972D01*
X154978Y447748D01*
X154987Y447751D01*
X154999Y447760D01*
X155034Y447777D01*
X155076Y447801D01*
X155126Y447828D01*
X155182Y447854D01*
X155238Y447878D01*
X155292Y447902D01*
Y447603D01*
X155289Y447600D01*
X155280Y447597D01*
X155268Y447591D01*
X155247Y447582D01*
X155227Y447570D01*
X155200Y447555D01*
X155170Y447538D01*
X155138Y447520D01*
X155067Y447478D01*
X154993Y447428D01*
X154913Y447372D01*
X154839Y447310D01*
X154836Y447307D01*
X154830Y447301D01*
X154821Y447292D01*
X154806Y447280D01*
X154792Y447265D01*
X154774Y447245D01*
X154732Y447200D01*
X154685Y447150D01*
X154641Y447093D01*
X154599Y447031D01*
X154564Y446969D01*
X154362D01*
Y449500D01*
X154673D01*
Y447529D01*
D02*
G37*
%LPC*%
G36*
X535415Y381223D02*
X534834D01*
Y379299D01*
X535432D01*
X535456Y379302D01*
X535512Y379305D01*
X535574Y379311D01*
X535639Y379317D01*
X535705Y379328D01*
X535761Y379343D01*
X535764D01*
X535767Y379346D01*
X535785Y379352D01*
X535811Y379364D01*
X535844Y379379D01*
X535879Y379397D01*
X535918Y379417D01*
X535953Y379444D01*
X535989Y379473D01*
X535995Y379480D01*
X536010Y379494D01*
X536030Y379521D01*
X536057Y379559D01*
X536087Y379604D01*
X536116Y379657D01*
X536146Y379722D01*
X536172Y379793D01*
Y379796D01*
X536175Y379802D01*
X536178Y379814D01*
X536184Y379829D01*
X536187Y379850D01*
X536193Y379873D01*
X536199Y379900D01*
X536208Y379929D01*
X536214Y379962D01*
X536220Y380000D01*
X536226Y380039D01*
X536229Y380083D01*
X536237Y380175D01*
X536240Y380279D01*
Y380285D01*
Y380296D01*
Y380317D01*
X536237Y380344D01*
Y380376D01*
X536235Y380415D01*
X536229Y380456D01*
X536226Y380504D01*
X536208Y380601D01*
X536184Y380702D01*
X536155Y380800D01*
X536134Y380844D01*
X536110Y380886D01*
Y380888D01*
X536104Y380894D01*
X536098Y380906D01*
X536087Y380921D01*
X536060Y380957D01*
X536021Y381001D01*
X535977Y381048D01*
X535921Y381096D01*
X535861Y381137D01*
X535829Y381155D01*
X535793Y381170D01*
X535788Y381173D01*
X535779Y381176D01*
X535767Y381178D01*
X535755Y381182D01*
X535734Y381187D01*
X535714Y381190D01*
X535690Y381196D01*
X535660Y381202D01*
X535631Y381205D01*
X535595Y381211D01*
X535554Y381214D01*
X535512Y381217D01*
X535465Y381220D01*
X535415Y381223D01*
D02*
G37*
G36*
X375166Y451591D02*
X374396D01*
X374372Y451588D01*
X374322Y451585D01*
X374266Y451579D01*
X374206Y451573D01*
X374147Y451561D01*
X374097Y451547D01*
X374094D01*
X374091Y451544D01*
X374076Y451538D01*
X374053Y451526D01*
X374023Y451511D01*
X373990Y451487D01*
X373958Y451464D01*
X373925Y451431D01*
X373899Y451396D01*
X373896Y451390D01*
X373887Y451378D01*
X373878Y451354D01*
X373863Y451328D01*
X373851Y451292D01*
X373842Y451254D01*
X373834Y451212D01*
X373831Y451168D01*
Y451165D01*
Y451159D01*
Y451150D01*
X373834Y451138D01*
X373836Y451106D01*
X373845Y451064D01*
X373863Y451017D01*
X373887Y450967D01*
X373916Y450916D01*
X373937Y450896D01*
X373961Y450872D01*
X373967Y450866D01*
X373976Y450860D01*
X373985Y450854D01*
X373999Y450845D01*
X374017Y450836D01*
X374038Y450824D01*
X374061Y450813D01*
X374088Y450804D01*
X374118Y450792D01*
X374150Y450783D01*
X374189Y450774D01*
X374227Y450768D01*
X374272Y450762D01*
X374319Y450756D01*
X375166D01*
Y451591D01*
D02*
G37*
G36*
X498585Y462647D02*
X498582D01*
X498576D01*
X498567D01*
X498555Y462644D01*
X498526Y462641D01*
X498487Y462632D01*
X498440Y462617D01*
X498392Y462596D01*
X498345Y462567D01*
X498301Y462528D01*
X498295Y462522D01*
X498283Y462507D01*
X498262Y462484D01*
X498242Y462448D01*
X498221Y462407D01*
X498200Y462357D01*
X498188Y462300D01*
X498182Y462235D01*
Y462218D01*
X498185Y462206D01*
X498188Y462173D01*
X498197Y462132D01*
X498209Y462084D01*
X498230Y462037D01*
X498259Y461987D01*
X498298Y461942D01*
X498304Y461936D01*
X498318Y461924D01*
X498342Y461907D01*
X498375Y461886D01*
X498413Y461862D01*
X498461Y461844D01*
X498514Y461833D01*
X498570Y461827D01*
X498573D01*
X498579D01*
X498588D01*
X498600Y461830D01*
X498632Y461833D01*
X498674Y461842D01*
X498718Y461853D01*
X498768Y461874D01*
X498816Y461901D01*
X498860Y461939D01*
X498866Y461945D01*
X498878Y461960D01*
X498896Y461987D01*
X498916Y462019D01*
X498937Y462064D01*
X498955Y462114D01*
X498967Y462173D01*
X498973Y462238D01*
Y462256D01*
X498970Y462268D01*
X498967Y462300D01*
X498958Y462342D01*
X498946Y462389D01*
X498925Y462439D01*
X498899Y462487D01*
X498860Y462531D01*
X498854Y462537D01*
X498840Y462549D01*
X498816Y462567D01*
X498783Y462590D01*
X498745Y462611D01*
X498697Y462629D01*
X498644Y462641D01*
X498585Y462647D01*
D02*
G37*
G36*
X499742Y462750D02*
X499739D01*
X499733D01*
X499722D01*
X499704Y462747D01*
X499686D01*
X499662Y462741D01*
X499612Y462733D01*
X499553Y462715D01*
X499491Y462688D01*
X499461Y462670D01*
X499429Y462653D01*
X499399Y462629D01*
X499372Y462602D01*
X499369Y462599D01*
X499366Y462596D01*
X499358Y462587D01*
X499349Y462576D01*
X499337Y462561D01*
X499325Y462543D01*
X499298Y462502D01*
X499272Y462445D01*
X499248Y462383D01*
X499230Y462309D01*
X499227Y462271D01*
X499224Y462229D01*
Y462209D01*
X499227Y462194D01*
Y462173D01*
X499233Y462152D01*
X499242Y462102D01*
X499260Y462046D01*
X499286Y461984D01*
X499301Y461954D01*
X499322Y461924D01*
X499343Y461895D01*
X499369Y461868D01*
X499372Y461865D01*
X499375Y461862D01*
X499384Y461856D01*
X499396Y461847D01*
X499411Y461836D01*
X499426Y461824D01*
X499470Y461797D01*
X499520Y461770D01*
X499582Y461750D01*
X499653Y461732D01*
X499692Y461729D01*
X499730Y461726D01*
X499736D01*
X499754D01*
X499778Y461729D01*
X499813Y461735D01*
X499852Y461741D01*
X499896Y461750D01*
X499941Y461765D01*
X499988Y461785D01*
X499994Y461788D01*
X500009Y461797D01*
X500029Y461812D01*
X500059Y461833D01*
X500089Y461859D01*
X500121Y461889D01*
X500154Y461927D01*
X500180Y461972D01*
X500183Y461978D01*
X500189Y461993D01*
X500201Y462019D01*
X500213Y462052D01*
X500225Y462090D01*
X500237Y462138D01*
X500243Y462185D01*
X500246Y462238D01*
Y462259D01*
X500243Y462277D01*
Y462294D01*
X500237Y462318D01*
X500228Y462368D01*
X500210Y462428D01*
X500186Y462487D01*
X500151Y462549D01*
X500127Y462579D01*
X500103Y462605D01*
X500100Y462608D01*
X500098Y462611D01*
X500089Y462620D01*
X500077Y462629D01*
X500047Y462653D01*
X500006Y462679D01*
X499952Y462706D01*
X499890Y462727D01*
X499819Y462744D01*
X499784Y462747D01*
X499742Y462750D01*
D02*
G37*
G36*
X498626Y460669D02*
X498623D01*
X498618D01*
X498609D01*
X498597Y460666D01*
X498564Y460664D01*
X498523Y460655D01*
X498475Y460637D01*
X498425Y460613D01*
X498375Y460584D01*
X498354Y460563D01*
X498330Y460539D01*
X498324Y460533D01*
X498318Y460524D01*
X498313Y460515D01*
X498304Y460501D01*
X498295Y460483D01*
X498283Y460462D01*
X498271Y460438D01*
X498262Y460412D01*
X498250Y460382D01*
X498242Y460350D01*
X498233Y460311D01*
X498227Y460273D01*
X498221Y460228D01*
X498215Y460181D01*
Y459334D01*
X499050D01*
Y460104D01*
X499047Y460128D01*
X499044Y460178D01*
X499038Y460234D01*
X499032Y460293D01*
X499020Y460353D01*
X499005Y460403D01*
Y460406D01*
X499002Y460409D01*
X498996Y460424D01*
X498984Y460447D01*
X498970Y460477D01*
X498946Y460510D01*
X498922Y460542D01*
X498890Y460575D01*
X498854Y460601D01*
X498848Y460604D01*
X498837Y460613D01*
X498813Y460622D01*
X498786Y460637D01*
X498751Y460649D01*
X498712Y460658D01*
X498671Y460666D01*
X498626Y460669D01*
D02*
G37*
G36*
X261165Y436050D02*
X260396D01*
X260372Y436047D01*
X260322Y436044D01*
X260266Y436038D01*
X260207Y436032D01*
X260147Y436020D01*
X260097Y436005D01*
X260094D01*
X260091Y436002D01*
X260076Y435996D01*
X260053Y435985D01*
X260023Y435970D01*
X259990Y435946D01*
X259958Y435922D01*
X259925Y435890D01*
X259899Y435854D01*
X259896Y435848D01*
X259887Y435837D01*
X259878Y435813D01*
X259863Y435786D01*
X259851Y435751D01*
X259842Y435712D01*
X259834Y435671D01*
X259831Y435626D01*
Y435623D01*
Y435617D01*
Y435609D01*
X259834Y435597D01*
X259837Y435564D01*
X259845Y435523D01*
X259863Y435475D01*
X259887Y435425D01*
X259916Y435375D01*
X259937Y435354D01*
X259961Y435330D01*
X259967Y435324D01*
X259976Y435319D01*
X259984Y435313D01*
X259999Y435304D01*
X260017Y435295D01*
X260038Y435283D01*
X260062Y435271D01*
X260088Y435262D01*
X260118Y435250D01*
X260150Y435242D01*
X260189Y435233D01*
X260227Y435227D01*
X260272Y435221D01*
X260319Y435215D01*
X261165D01*
Y436050D01*
D02*
G37*
G36*
X209048Y399050D02*
X208278D01*
X208254Y399047D01*
X208204Y399044D01*
X208148Y399038D01*
X208088Y399032D01*
X208029Y399020D01*
X207979Y399005D01*
X207976D01*
X207973Y399002D01*
X207958Y398996D01*
X207934Y398985D01*
X207905Y398970D01*
X207872Y398946D01*
X207840Y398922D01*
X207807Y398890D01*
X207781Y398854D01*
X207778Y398848D01*
X207769Y398836D01*
X207760Y398813D01*
X207745Y398786D01*
X207733Y398751D01*
X207724Y398712D01*
X207716Y398671D01*
X207713Y398626D01*
Y398623D01*
Y398618D01*
Y398609D01*
X207716Y398597D01*
X207718Y398564D01*
X207727Y398523D01*
X207745Y398475D01*
X207769Y398425D01*
X207798Y398375D01*
X207819Y398354D01*
X207843Y398330D01*
X207849Y398324D01*
X207857Y398319D01*
X207866Y398313D01*
X207881Y398304D01*
X207899Y398295D01*
X207920Y398283D01*
X207943Y398271D01*
X207970Y398262D01*
X208000Y398250D01*
X208032Y398242D01*
X208071Y398233D01*
X208109Y398227D01*
X208154Y398221D01*
X208201Y398215D01*
X209048D01*
Y399050D01*
D02*
G37*
G36*
X422753Y460958D02*
X421619D01*
X422753Y460165D01*
Y460958D01*
D02*
G37*
G36*
X469327Y432091D02*
X468557D01*
X468534Y432088D01*
X468483Y432085D01*
X468427Y432079D01*
X468368Y432073D01*
X468309Y432061D01*
X468258Y432047D01*
X468256D01*
X468253Y432044D01*
X468238Y432038D01*
X468214Y432026D01*
X468184Y432011D01*
X468152Y431987D01*
X468119Y431964D01*
X468087Y431931D01*
X468060Y431896D01*
X468057Y431890D01*
X468048Y431878D01*
X468039Y431854D01*
X468025Y431828D01*
X468013Y431792D01*
X468004Y431754D01*
X467995Y431712D01*
X467992Y431668D01*
Y431665D01*
Y431659D01*
Y431650D01*
X467995Y431638D01*
X467998Y431606D01*
X468007Y431564D01*
X468025Y431517D01*
X468048Y431466D01*
X468078Y431416D01*
X468099Y431395D01*
X468122Y431372D01*
X468128Y431366D01*
X468137Y431360D01*
X468146Y431354D01*
X468161Y431345D01*
X468179Y431336D01*
X468199Y431324D01*
X468223Y431313D01*
X468250Y431304D01*
X468279Y431292D01*
X468312Y431283D01*
X468350Y431274D01*
X468389Y431268D01*
X468433Y431262D01*
X468480Y431256D01*
X469327D01*
Y432091D01*
D02*
G37*
G36*
X467054Y432612D02*
X466260D01*
Y431478D01*
X467054Y432612D01*
D02*
G37*
G36*
X535326Y475476D02*
X535323D01*
X535317D01*
X535308D01*
X535296Y475473D01*
X535267Y475470D01*
X535228Y475461D01*
X535181Y475446D01*
X535134Y475425D01*
X535086Y475396D01*
X535042Y475357D01*
X535036Y475351D01*
X535024Y475336D01*
X535003Y475313D01*
X534983Y475277D01*
X534962Y475236D01*
X534941Y475185D01*
X534929Y475129D01*
X534923Y475064D01*
Y475046D01*
X534926Y475035D01*
X534929Y475002D01*
X534938Y474961D01*
X534950Y474913D01*
X534971Y474866D01*
X535000Y474815D01*
X535039Y474771D01*
X535045Y474765D01*
X535059Y474753D01*
X535083Y474735D01*
X535116Y474715D01*
X535154Y474691D01*
X535202Y474673D01*
X535255Y474661D01*
X535311Y474656D01*
X535314D01*
X535320D01*
X535329D01*
X535341Y474659D01*
X535373Y474661D01*
X535415Y474670D01*
X535459Y474682D01*
X535509Y474703D01*
X535557Y474730D01*
X535601Y474768D01*
X535607Y474774D01*
X535619Y474789D01*
X535637Y474815D01*
X535658Y474848D01*
X535678Y474892D01*
X535696Y474943D01*
X535708Y475002D01*
X535714Y475067D01*
Y475085D01*
X535711Y475097D01*
X535708Y475129D01*
X535699Y475171D01*
X535687Y475218D01*
X535666Y475268D01*
X535640Y475316D01*
X535601Y475360D01*
X535595Y475366D01*
X535580Y475378D01*
X535557Y475396D01*
X535524Y475419D01*
X535486Y475440D01*
X535438Y475458D01*
X535385Y475470D01*
X535326Y475476D01*
D02*
G37*
G36*
X536483Y475579D02*
X536480D01*
X536474D01*
X536463D01*
X536445Y475576D01*
X536427D01*
X536403Y475570D01*
X536353Y475561D01*
X536294Y475544D01*
X536232Y475517D01*
X536202Y475499D01*
X536169Y475482D01*
X536140Y475458D01*
X536113Y475431D01*
X536110Y475428D01*
X536107Y475425D01*
X536098Y475416D01*
X536090Y475405D01*
X536078Y475390D01*
X536066Y475372D01*
X536039Y475330D01*
X536013Y475274D01*
X535989Y475212D01*
X535971Y475138D01*
X535968Y475100D01*
X535965Y475058D01*
Y475037D01*
X535968Y475023D01*
Y475002D01*
X535974Y474981D01*
X535983Y474931D01*
X536001Y474875D01*
X536027Y474813D01*
X536042Y474783D01*
X536063Y474753D01*
X536084Y474724D01*
X536110Y474697D01*
X536113Y474694D01*
X536116Y474691D01*
X536125Y474685D01*
X536137Y474676D01*
X536152Y474664D01*
X536167Y474653D01*
X536211Y474626D01*
X536261Y474599D01*
X536323Y474579D01*
X536395Y474561D01*
X536433Y474558D01*
X536472Y474555D01*
X536477D01*
X536495D01*
X536519Y474558D01*
X536554Y474564D01*
X536593Y474570D01*
X536637Y474579D01*
X536682Y474593D01*
X536729Y474614D01*
X536735Y474617D01*
X536750Y474626D01*
X536770Y474641D01*
X536800Y474661D01*
X536830Y474688D01*
X536862Y474718D01*
X536895Y474756D01*
X536921Y474801D01*
X536924Y474807D01*
X536930Y474821D01*
X536942Y474848D01*
X536954Y474881D01*
X536966Y474919D01*
X536978Y474966D01*
X536983Y475014D01*
X536986Y475067D01*
Y475088D01*
X536983Y475105D01*
Y475123D01*
X536978Y475147D01*
X536969Y475197D01*
X536951Y475256D01*
X536927Y475316D01*
X536892Y475378D01*
X536868Y475407D01*
X536844Y475434D01*
X536841Y475437D01*
X536838Y475440D01*
X536830Y475449D01*
X536818Y475458D01*
X536788Y475482D01*
X536747Y475508D01*
X536693Y475535D01*
X536631Y475556D01*
X536560Y475573D01*
X536525Y475576D01*
X536483Y475579D01*
D02*
G37*
G36*
X291168Y464870D02*
X291165D01*
X291159D01*
X291150D01*
X291138Y464867D01*
X291106Y464864D01*
X291064Y464855D01*
X291017Y464838D01*
X290967Y464814D01*
X290916Y464784D01*
X290896Y464764D01*
X290872Y464740D01*
X290866Y464734D01*
X290860Y464725D01*
X290854Y464716D01*
X290845Y464702D01*
X290836Y464684D01*
X290824Y464663D01*
X290813Y464639D01*
X290804Y464613D01*
X290792Y464583D01*
X290783Y464550D01*
X290774Y464512D01*
X290768Y464473D01*
X290762Y464429D01*
X290756Y464382D01*
Y463535D01*
X291591D01*
Y464305D01*
X291588Y464328D01*
X291585Y464379D01*
X291579Y464435D01*
X291573Y464494D01*
X291562Y464553D01*
X291547Y464604D01*
Y464607D01*
X291544Y464610D01*
X291538Y464625D01*
X291526Y464648D01*
X291511Y464678D01*
X291488Y464710D01*
X291464Y464743D01*
X291431Y464776D01*
X291396Y464802D01*
X291390Y464805D01*
X291378Y464814D01*
X291354Y464823D01*
X291328Y464838D01*
X291292Y464849D01*
X291254Y464858D01*
X291212Y464867D01*
X291168Y464870D01*
D02*
G37*
G36*
X447659Y440244D02*
X447656D01*
X447647D01*
X447633D01*
X447615Y440241D01*
X447594D01*
X447568Y440238D01*
X447508Y440227D01*
X447443Y440212D01*
X447372Y440185D01*
X447307Y440153D01*
X447275Y440129D01*
X447245Y440105D01*
X447242Y440102D01*
X447239Y440099D01*
X447230Y440090D01*
X447221Y440082D01*
X447198Y440049D01*
X447168Y440010D01*
X447141Y439957D01*
X447118Y439898D01*
X447100Y439830D01*
X447097Y439791D01*
X447094Y439753D01*
Y439732D01*
X447097Y439717D01*
X447100Y439700D01*
X447103Y439679D01*
X447112Y439629D01*
X447130Y439575D01*
X447156Y439513D01*
X447174Y439484D01*
X447195Y439454D01*
X447218Y439424D01*
X447245Y439398D01*
X447248Y439395D01*
X447251Y439392D01*
X447260Y439386D01*
X447272Y439374D01*
X447286Y439365D01*
X447304Y439353D01*
X447328Y439339D01*
X447352Y439327D01*
X447408Y439300D01*
X447476Y439276D01*
X447553Y439259D01*
X447597Y439256D01*
X447642Y439253D01*
X447645D01*
X447647D01*
X447656D01*
X447668D01*
X447701Y439256D01*
X447739Y439262D01*
X447787Y439268D01*
X447840Y439279D01*
X447893Y439297D01*
X447950Y439318D01*
X447952D01*
X447955Y439321D01*
X447973Y439330D01*
X448000Y439345D01*
X448032Y439368D01*
X448068Y439395D01*
X448103Y439427D01*
X448139Y439466D01*
X448172Y439507D01*
X448174Y439513D01*
X448183Y439528D01*
X448195Y439552D01*
X448207Y439584D01*
X448222Y439623D01*
X448234Y439667D01*
X448243Y439714D01*
X448245Y439765D01*
Y439785D01*
X448243Y439797D01*
X448240Y439815D01*
X448237Y439836D01*
X448225Y439880D01*
X448207Y439934D01*
X448180Y439990D01*
X448163Y440019D01*
X448139Y440049D01*
X448115Y440076D01*
X448089Y440102D01*
X448086Y440105D01*
X448083Y440108D01*
X448071Y440114D01*
X448059Y440126D01*
X448044Y440135D01*
X448024Y440147D01*
X448003Y440162D01*
X447976Y440173D01*
X447947Y440188D01*
X447914Y440200D01*
X447878Y440212D01*
X447840Y440224D01*
X447757Y440238D01*
X447710Y440241D01*
X447659Y440244D01*
D02*
G37*
G36*
X447156Y439206D02*
X447156Y439205D01*
X447159D01*
X447156Y439206D01*
D02*
G37*
G36*
X446626Y438169D02*
X446623D01*
X446618D01*
X446609D01*
X446597Y438166D01*
X446564Y438164D01*
X446523Y438155D01*
X446475Y438137D01*
X446425Y438113D01*
X446375Y438084D01*
X446354Y438063D01*
X446330Y438039D01*
X446324Y438033D01*
X446318Y438024D01*
X446313Y438016D01*
X446304Y438001D01*
X446295Y437983D01*
X446283Y437962D01*
X446271Y437938D01*
X446262Y437912D01*
X446250Y437882D01*
X446242Y437850D01*
X446233Y437811D01*
X446227Y437773D01*
X446221Y437728D01*
X446215Y437681D01*
Y436834D01*
X447050D01*
Y437604D01*
X447047Y437628D01*
X447044Y437678D01*
X447038Y437734D01*
X447032Y437793D01*
X447020Y437853D01*
X447005Y437903D01*
Y437906D01*
X447002Y437909D01*
X446996Y437924D01*
X446984Y437947D01*
X446970Y437977D01*
X446946Y438010D01*
X446922Y438042D01*
X446890Y438075D01*
X446854Y438101D01*
X446848Y438104D01*
X446837Y438113D01*
X446813Y438122D01*
X446786Y438137D01*
X446751Y438149D01*
X446712Y438158D01*
X446671Y438166D01*
X446626Y438169D01*
D02*
G37*
G36*
X157606Y448091D02*
X156837D01*
X156813Y448088D01*
X156763Y448085D01*
X156707Y448079D01*
X156648Y448073D01*
X156588Y448062D01*
X156538Y448047D01*
X156535D01*
X156532Y448044D01*
X156517Y448038D01*
X156494Y448026D01*
X156464Y448011D01*
X156431Y447988D01*
X156399Y447964D01*
X156366Y447931D01*
X156340Y447896D01*
X156337Y447890D01*
X156328Y447878D01*
X156319Y447854D01*
X156304Y447828D01*
X156292Y447792D01*
X156283Y447754D01*
X156274Y447712D01*
X156272Y447668D01*
Y447665D01*
Y447659D01*
Y447650D01*
X156274Y447638D01*
X156278Y447606D01*
X156286Y447564D01*
X156304Y447517D01*
X156328Y447467D01*
X156357Y447416D01*
X156378Y447396D01*
X156402Y447372D01*
X156408Y447366D01*
X156417Y447360D01*
X156425Y447354D01*
X156440Y447345D01*
X156458Y447336D01*
X156479Y447324D01*
X156502Y447313D01*
X156529Y447304D01*
X156559Y447292D01*
X156591Y447283D01*
X156630Y447274D01*
X156668Y447268D01*
X156713Y447262D01*
X156760Y447256D01*
X157606D01*
Y448091D01*
D02*
G37*
%LPD*%
D12*
X520720Y370850D02*
Y387150D01*
Y370850D02*
X548279D01*
Y387150D01*
X520720D02*
X548279D01*
X384161Y449260D02*
Y456740D01*
X366839D02*
X384161D01*
X366839Y449260D02*
Y456740D01*
Y449260D02*
X384161D01*
X496760Y450339D02*
X504240D01*
Y467661D01*
X496760D02*
X504240D01*
X496760Y450339D02*
Y467661D01*
X270161Y433760D02*
Y441240D01*
X252839D02*
X270161D01*
X252839Y433760D02*
Y441240D01*
Y433760D02*
X270161D01*
X218043Y396760D02*
Y404240D01*
X200721D02*
X218043D01*
X200721Y396760D02*
Y404240D01*
Y396760D02*
X218043D01*
X181720Y468913D02*
Y494465D01*
X149279D02*
X181720D01*
X149279Y468913D02*
Y494465D01*
Y468913D02*
X181720D01*
X201256Y414150D02*
X228815D01*
Y494465D01*
X201256D02*
X228815D01*
X201256Y414150D02*
Y494465D01*
X305209Y442693D02*
X351980D01*
Y494465D01*
X305209D02*
X351980D01*
X305209Y442693D02*
Y494465D01*
X397626Y468913D02*
Y494465D01*
X365185D02*
X397626D01*
X365185Y468913D02*
Y494465D01*
Y468913D02*
X397626D01*
X409161Y414150D02*
X436720D01*
Y494465D01*
X409161D02*
X436720D01*
X409161Y414150D02*
Y494465D01*
X478323Y429760D02*
Y437240D01*
X461000D02*
X478323D01*
X461000Y429760D02*
Y437240D01*
Y429760D02*
X478323D01*
X513114Y442693D02*
X559886D01*
Y494465D01*
X513114D02*
X559886D01*
X513114Y442693D02*
Y494465D01*
X289260Y454539D02*
X296740D01*
Y471862D01*
X289260D02*
X296740D01*
X289260Y454539D02*
Y471862D01*
X444760Y427839D02*
X452240D01*
Y445161D01*
X444760D02*
X452240D01*
X444760Y427839D02*
Y445161D01*
X166602Y445760D02*
Y453240D01*
X149279D02*
X166602D01*
X149279Y445760D02*
Y453240D01*
Y445760D02*
X166602D01*
M02*
