G04*
G04 #@! TF.GenerationSoftware,Altium Limited,Altium Designer,21.1.1 (26)*
G04*
G04 Layer_Color=32768*
%FSLAX25Y25*%
%MOIN*%
G70*
G04*
G04 #@! TF.SameCoordinates,4237B591-F435-4F68-AEF5-34D50A6B78B7*
G04*
G04*
G04 #@! TF.FilePolarity,Positive*
G04*
G01*
G75*
%ADD47C,0.00394*%
%ADD48C,0.00197*%
D47*
X530031Y381500D02*
X533968D01*
X532000Y379532D02*
Y383469D01*
X263232Y472496D02*
Y476433D01*
X261264Y474465D02*
X265201D01*
X471138Y472496D02*
Y476433D01*
X469169Y474465D02*
X473106D01*
D48*
X538299Y375004D02*
Y387996D01*
X525701Y375004D02*
Y387996D01*
Y375004D02*
X538299D01*
X525701Y387996D02*
X538299D01*
X520618Y346370D02*
Y357630D01*
X545382Y346370D02*
Y357630D01*
X520618D02*
X545382D01*
X520618Y346370D02*
X545382D01*
X286610Y385630D02*
X330390D01*
Y364370D02*
Y385630D01*
X286610Y364370D02*
X330390D01*
X286610D02*
Y385630D01*
X273626Y454071D02*
Y494858D01*
X252839Y454071D02*
Y494858D01*
Y454071D02*
X273626D01*
X252839Y494858D02*
X273626D01*
X481531Y454071D02*
Y494858D01*
X460744Y454071D02*
Y494858D01*
Y454071D02*
X481531D01*
X460744Y494858D02*
X481531D01*
M02*
